<?xml version="1.0" encoding="utf-8"?>
<!-- Generator: Adobe Illustrator 17.1.0, SVG Export Plug-In . SVG Version: 6.00 Build 0)  -->
<!DOCTYPE svg PUBLIC "-//W3C//DTD SVG 1.1//EN" "http://www.w3.org/Graphics/SVG/1.1/DTD/svg11.dtd">
<svg version="1.1" xmlns="http://www.w3.org/2000/svg" xmlns:xlink="http://www.w3.org/1999/xlink" x="0px" y="0px"
	 viewBox="0 0 64 64" enable-background="new 0 0 64 64" xml:space="preserve">
<symbol  id="gauge-blank" viewBox="-28 -28 56 56">
	<g>
		<path fill="#CCCCCC" d="M0-28c15.464,0,28,12.536,28,28S15.464,28,0,28S-28,15.464-28,0S-15.464-28,0-28z"/>
	</g>
	<g>
		<path fill="#FFFFFF" d="M0-24c13.255,0,24,10.745,24,24S13.255,24,0,24S-24,13.255-24,0S-13.255-24,0-24z"/>
	</g>
	<g>
		<path fill="#FFFFFF" d="M14.107,19.416c-10.723,7.791-25.732,5.414-33.523-5.31s-5.414-25.732,5.31-33.523
			s25.732-5.414,33.523,5.31S24.83,11.625,14.107,19.416z"/>
	</g>
	<g>
		<path fill="#F3F3F3" d="M0,22c12.919,0,23.45-10.209,23.975-23C23.988-0.668,24-0.335,24,0c0,13.255-10.745,24-24,24
			S-24,13.255-24,0c0-0.335,0.012-0.668,0.025-1C-23.45,11.791-12.919,22,0,22z"/>
	</g>
	<g>
		<g>
			<path fill="#FAAB67" d="M-13.326,8.849C-10.634,12.896-6.146,15.631-1,15.95v4c-6.625-0.328-12.396-3.863-15.788-9.102
				L-13.326,8.849z"/>
		</g>
	</g>
	<g>
		<g>
			<path fill="#24CB7F" d="M-16,0c0,1.376,0.192,2.704,0.519,3.979l-3.808,1.237C-19.738,3.55-20,1.808-20,0
				c0-6.293,2.912-11.899,7.455-15.565l2.35,3.235C-13.74-9.396-16-4.962-16,0z"/>
		</g>
		<g opacity="0.05">
			<g>
				<path d="M-19.289,4.216l3.597-1.169c0.062,0.313,0.132,0.624,0.211,0.931l-3.808,1.237C-19.738,3.55-20,1.808-20,0
					c0-0.186,0.011-0.368,0.016-0.553C-19.945,1.094-19.701,2.689-19.289,4.216z"/>
			</g>
			<g>
				<path d="M-16-1c0-4.749,2.084-8.999,5.37-11.929l0.435,0.599c-3.454,2.859-5.671,7.146-5.784,11.953
					C-15.987-0.584-16-0.791-16-1z"/>
			</g>
		</g>
		<g>
			<path fill="#FFBE2A" d="M-14.869,5.883C-12.641,11.509-7.321,15.558-1,15.95v4c-8.097-0.401-14.914-5.603-17.672-12.831
				L-14.869,5.883z"/>
		</g>
		<g opacity="0.05">
			<path d="M-18.672,7.118l0.372-0.121C-15.339,13.762-8.763,18.565-1,18.95v1C-9.097,19.548-15.914,14.347-18.672,7.118z"/>
		</g>
	</g>
	<g>
		<g>
			<path fill="#ED1E24" d="M16,0c0,1.376-0.192,2.704-0.519,3.979l3.808,1.237C19.738,3.55,20,1.808,20,0
				c0-6.293-2.912-11.899-7.455-15.565l-2.35,3.235C13.74-9.396,16-4.962,16,0z"/>
		</g>
		<g opacity="0.05">
			<g>
				<path d="M19.289,4.216c0.412-1.527,0.656-3.121,0.695-4.769C19.989-0.368,20-0.186,20,0c0,1.808-0.262,3.55-0.711,5.216
					l-3.808-1.237c0.079-0.307,0.149-0.618,0.211-0.931L19.289,4.216z"/>
			</g>
			<g>
				<path d="M16-1c0,0.209-0.013,0.416-0.021,0.623c-0.113-4.807-2.329-9.094-5.784-11.953l0.435-0.599C13.916-9.999,16-5.749,16-1z
					"/>
			</g>
		</g>
		<g>
			<path fill="#F47721" d="M14.869,5.883C12.641,11.509,7.321,15.558,1,15.95v4c8.097-0.401,14.914-5.603,17.672-12.831
				L14.869,5.883z"/>
		</g>
		<g opacity="0.05">
			<path d="M18.3,6.997l0.372,0.121C15.914,14.347,9.097,19.548,1,19.95v-1C8.763,18.565,15.339,13.762,18.3,6.997z"/>
		</g>
	</g>
	<path fill="#807F7F" d="M0,13.254"/>
	<path fill="#D9D9D8" d="M5-18c0-1.1-0.9-2-2-2h-6c-1.1,0-2,0.9-2,2v1c0,1.1,0.9,2,2,2h6c1.1,0,2-0.9,2-2V-18z"/>
	<path opacity="0.05" d="M3-15h-6c-1.1,0-2-0.9-2-2v-1c0,1.1,0.9,2,2,2h6c1.1,0,2-0.9,2-2v1C5-15.9,4.1-15,3-15z"/>
</symbol>
<symbol  id="gauge-blank_2" viewBox="-28 -28 56 56">
	<g>
		<path fill="#CCCCCC" d="M0-28c15.464,0,28,12.536,28,28S15.464,28,0,28S-28,15.464-28,0S-15.464-28,0-28z"/>
	</g>
	<g>
		<path fill="#FFFFFF" d="M0-24c13.255,0,24,10.745,24,24S13.255,24,0,24S-24,13.255-24,0S-13.255-24,0-24z"/>
	</g>
	<g>
		<path fill="#FFFFFF" d="M14.107,19.416c-10.723,7.791-25.732,5.414-33.523-5.31s-5.414-25.732,5.31-33.523
			s25.732-5.414,33.523,5.31S24.83,11.625,14.107,19.416z"/>
	</g>
	<g>
		<path fill="#F3F3F3" d="M0,22c12.919,0,23.45-10.209,23.975-23C23.988-0.668,24-0.335,24,0c0,13.255-10.745,24-24,24
			S-24,13.255-24,0c0-0.335,0.012-0.668,0.025-1C-23.45,11.791-12.919,22,0,22z"/>
	</g>
	<g>
		<g>
			<path fill="#FAAB67" d="M-13.326,8.849C-10.634,12.896-6.146,15.631-1,15.95v4c-6.625-0.328-12.396-3.863-15.788-9.102
				L-13.326,8.849z"/>
		</g>
	</g>
	<g>
		<g>
			<path fill="#24CB7F" d="M-16,0c0,1.376,0.192,2.704,0.519,3.979l-3.808,1.237C-19.738,3.55-20,1.808-20,0
				c0-6.293,2.912-11.899,7.455-15.565l2.35,3.235C-13.74-9.396-16-4.962-16,0z"/>
		</g>
		<g opacity="0.05">
			<g>
				<path d="M-19.289,4.216l3.597-1.169c0.062,0.313,0.132,0.624,0.211,0.931l-3.808,1.237C-19.738,3.55-20,1.808-20,0
					c0-0.186,0.011-0.368,0.016-0.553C-19.945,1.094-19.701,2.689-19.289,4.216z"/>
			</g>
			<g>
				<path d="M-16-1c0-4.749,2.084-8.999,5.37-11.929l0.435,0.599c-3.454,2.859-5.671,7.146-5.784,11.953
					C-15.987-0.584-16-0.791-16-1z"/>
			</g>
		</g>
		<g>
			<path fill="#FFBE2A" d="M-14.869,5.883C-12.641,11.509-7.321,15.558-1,15.95v4c-8.097-0.401-14.914-5.603-17.672-12.831
				L-14.869,5.883z"/>
		</g>
		<g opacity="0.05">
			<path d="M-18.672,7.118l0.372-0.121C-15.339,13.762-8.763,18.565-1,18.95v1C-9.097,19.548-15.914,14.347-18.672,7.118z"/>
		</g>
	</g>
	<g>
		<g>
			<path fill="#ED1E24" d="M16,0c0,1.376-0.192,2.704-0.519,3.979l3.808,1.237C19.738,3.55,20,1.808,20,0
				c0-6.293-2.912-11.899-7.455-15.565l-2.35,3.235C13.74-9.396,16-4.962,16,0z"/>
		</g>
		<g opacity="0.05">
			<g>
				<path d="M19.289,4.216c0.412-1.527,0.656-3.121,0.695-4.769C19.989-0.368,20-0.186,20,0c0,1.808-0.262,3.55-0.711,5.216
					l-3.808-1.237c0.079-0.307,0.149-0.618,0.211-0.931L19.289,4.216z"/>
			</g>
			<g>
				<path d="M16-1c0,0.209-0.013,0.416-0.021,0.623c-0.113-4.807-2.329-9.094-5.784-11.953l0.435-0.599C13.916-9.999,16-5.749,16-1z
					"/>
			</g>
		</g>
		<g>
			<path fill="#F47721" d="M14.869,5.883C12.641,11.509,7.321,15.558,1,15.95v4c8.097-0.401,14.914-5.603,17.672-12.831
				L14.869,5.883z"/>
		</g>
		<g opacity="0.05">
			<path d="M18.3,6.997l0.372,0.121C15.914,14.347,9.097,19.548,1,19.95v-1C8.763,18.565,15.339,13.762,18.3,6.997z"/>
		</g>
	</g>
	<path fill="#807F7F" d="M0,13.254"/>
	<path fill="#D9D9D8" d="M5-18c0-1.1-0.9-2-2-2h-6c-1.1,0-2,0.9-2,2v1c0,1.1,0.9,2,2,2h6c1.1,0,2-0.9,2-2V-18z"/>
	<path opacity="0.05" d="M3-15h-6c-1.1,0-2-0.9-2-2v-1c0,1.1,0.9,2,2,2h6c1.1,0,2-0.9,2-2v1C5-15.9,4.1-15,3-15z"/>
</symbol>
<g id="bkgd" display="none">
	<rect display="inline" fill="#2ECC71" width="64" height="64"/>
	<rect display="inline" opacity="0.2" width="64" height="64"/>
</g>
<g id="icons">
	<path opacity="0.1" d="M48.933,30.949c1.123-0.436,2.159-0.862,3.067-1.268c-0.108-0.643-0.242-1.287-0.414-1.929
		c-0.172-0.643-0.378-1.267-0.606-1.878c-0.989,0.103-2.099,0.252-3.29,0.436c-0.536-1.259-1.208-2.464-2.04-3.573
		c0.751-0.932,1.435-1.814,2.012-2.611c-0.415-0.503-0.853-0.993-1.323-1.464c-0.47-0.47-0.961-0.909-1.464-1.323
		c-0.8,0.579-1.685,1.266-2.622,2.02c-0.545-0.409-1.11-0.798-1.715-1.147c-0.603-0.348-1.221-0.643-1.846-0.91
		c0.183-1.188,0.332-2.295,0.434-3.282c-0.611-0.229-1.235-0.434-1.878-0.606S35.962,13.108,35.319,13
		c-0.403,0.903-0.826,1.932-1.26,3.047c-1.375-0.166-2.753-0.146-4.11,0.02c-0.436-1.123-0.862-2.159-1.268-3.067
		c-0.643,0.107-1.287,0.242-1.929,0.414s-1.267,0.378-1.878,0.606c0.103,0.989,0.252,2.099,0.436,3.29
		c-1.259,0.536-2.464,1.208-3.573,2.041c-0.932-0.751-1.814-1.435-2.611-2.012c-0.503,0.415-0.993,0.853-1.464,1.323
		c-0.47,0.471-0.909,0.961-1.323,1.464c0.579,0.8,1.266,1.685,2.02,2.622c-0.409,0.545-0.798,1.11-1.147,1.715
		c-0.348,0.603-0.643,1.221-0.91,1.846c-1.188-0.183-2.295-0.332-3.282-0.434c-0.228,0.611-0.434,1.235-0.606,1.878
		c-0.172,0.643-0.306,1.286-0.414,1.929c0.903,0.403,1.932,0.826,3.047,1.26c-0.166,1.375-0.146,2.753,0.02,4.109
		c-1.123,0.436-2.159,0.862-3.067,1.268c0.107,0.643,0.242,1.287,0.414,1.929c0.172,0.643,0.378,1.267,0.606,1.878
		c0.989-0.103,2.099-0.252,3.29-0.436c0.536,1.259,1.208,2.464,2.041,3.573c-0.751,0.932-1.435,1.814-2.012,2.611
		c0.415,0.503,0.853,0.994,1.323,1.464c0.471,0.471,0.961,0.909,1.464,1.323c0.8-0.579,1.685-1.266,2.622-2.02
		c0.545,0.408,1.11,0.798,1.715,1.147c0.603,0.348,1.221,0.643,1.846,0.91c-0.183,1.188-0.332,2.295-0.435,3.282
		c0.611,0.228,1.235,0.434,1.878,0.606s1.286,0.306,1.929,0.414c0.403-0.903,0.826-1.932,1.26-3.047
		c1.375,0.166,2.753,0.146,4.11-0.02c0.436,1.123,0.862,2.159,1.268,3.067c0.643-0.108,1.287-0.242,1.929-0.414
		s1.267-0.378,1.878-0.606c-0.103-0.989-0.252-2.099-0.436-3.29c1.259-0.536,2.464-1.208,3.573-2.04
		c0.932,0.751,1.814,1.435,2.611,2.012c0.503-0.415,0.994-0.853,1.464-1.323c0.47-0.47,0.909-0.961,1.323-1.464
		c-0.579-0.8-1.266-1.685-2.02-2.622c0.409-0.545,0.798-1.11,1.147-1.715c0.348-0.603,0.643-1.221,0.91-1.846
		c1.188,0.183,2.295,0.332,3.282,0.434c0.228-0.611,0.434-1.235,0.606-1.878c0.172-0.643,0.306-1.286,0.414-1.929
		c-0.903-0.403-1.932-0.826-3.047-1.26C49.119,33.684,49.098,32.306,48.933,30.949z M38.937,20.985
		c6.032,3.483,8.442,10.807,5.956,17.096l-0.971-0.472l0,0l-6.771-3.29c0.109-0.424,0.184-0.861,0.184-1.32
		c0-2.447-1.657-4.488-3.903-5.117l0.537-7.513l0,0l0.077-1.083C35.722,19.536,37.381,20.087,38.937,20.985z M29.866,33
		c0-1.179,0.956-2.134,2.134-2.134s2.134,0.956,2.134,2.134S33.179,35.135,32,35.135S29.866,34.179,29.866,33z M19.985,26.063
		c2.199-3.809,5.933-6.171,9.968-6.776l0.077,1.083l0,0l0.537,7.513c-2.246,0.629-3.903,2.669-3.903,5.117
		c0,0.458,0.076,0.895,0.184,1.32l-6.771,3.29l0,0l-0.976,0.474C17.607,34.286,17.786,29.872,19.985,26.063z M25.063,45.015
		c-1.556-0.898-2.862-2.06-3.916-3.386l7.123-4.82c0.962,0.942,2.276,1.527,3.73,1.527s2.767-0.585,3.73-1.527l6.224,4.211l0,0
		l0.595,0.402l0.299,0.202C38.643,46.923,31.095,48.498,25.063,45.015z"/>
	<g>
		<path fill="#FFFFFF" d="M32,28.798c0.454,0,0.885,0.097,1.277,0.268l0.858-12.007h-4.269l0.858,12.007
			C31.115,28.896,31.546,28.798,32,28.798z"/>
		<path fill="#F2F3F4" d="M30.031,19.37c0.644-0.103,1.297-0.177,1.969-0.177c0.673,0,1.326,0.074,1.969,0.177l0.165-2.311h-4.269
			L30.031,19.37z"/>
		<path fill="#FFFFFF" d="M28.834,32.355l-10.841,5.267l2.134,3.697l9.977-6.751C29.407,34.052,28.936,33.262,28.834,32.355z"/>
		<path fill="#FFFFFF" d="M35.166,32.355c-0.101,0.907-0.573,1.697-1.27,2.213l9.977,6.751l2.134-3.697L35.166,32.355z"/>
		<path fill="#F2F3F4" d="M22.047,40.021c-0.411-0.506-0.801-1.035-1.138-1.617c-0.336-0.583-0.599-1.185-0.832-1.794l-2.084,1.013
			l2.134,3.697L22.047,40.021z"/>
		<path fill="#F2F3F4" d="M43.923,36.609c-0.233,0.609-0.495,1.211-0.832,1.794c-0.336,0.583-0.727,1.111-1.138,1.617l1.919,1.298
			l2.134-3.697L43.923,36.609z"/>
		<path fill="#FFFFFF" d="M32,26.664c-2.947,0-5.336,2.389-5.336,5.336c0,2.947,2.389,5.336,5.336,5.336
			c2.947,0,5.336-2.389,5.336-5.336C37.336,29.053,34.947,26.664,32,26.664z M32,34.134c-1.179,0-2.134-0.956-2.134-2.134
			c0-1.179,0.956-2.134,2.134-2.134c1.179,0,2.134,0.956,2.134,2.134C34.134,33.179,33.179,34.134,32,34.134z"/>
		<path fill="#FFFFFF" d="M48.933,29.949c1.123-0.436,2.159-0.862,3.067-1.268c-0.108-0.643-0.242-1.287-0.414-1.929
			c-0.172-0.643-0.378-1.267-0.606-1.878c-0.989,0.103-2.099,0.252-3.29,0.436c-0.536-1.259-1.208-2.464-2.04-3.573
			c0.751-0.933,1.435-1.814,2.012-2.611c-0.415-0.503-0.853-0.993-1.323-1.464c-0.47-0.47-0.961-0.909-1.464-1.323
			c-0.8,0.579-1.685,1.266-2.622,2.02c-0.545-0.409-1.11-0.798-1.715-1.147c-0.603-0.348-1.221-0.643-1.846-0.91
			c0.183-1.188,0.332-2.295,0.434-3.282c-0.611-0.228-1.235-0.434-1.878-0.606c-0.643-0.172-1.286-0.306-1.929-0.414
			c-0.403,0.903-0.826,1.932-1.26,3.047c-1.375-0.166-2.753-0.146-4.11,0.02c-0.436-1.123-0.862-2.159-1.268-3.067
			c-0.643,0.107-1.287,0.242-1.929,0.414c-0.643,0.172-1.267,0.378-1.878,0.606c0.103,0.989,0.252,2.099,0.436,3.29
			c-1.259,0.536-2.464,1.208-3.573,2.04c-0.933-0.751-1.814-1.435-2.611-2.012c-0.503,0.415-0.993,0.853-1.464,1.323
			c-0.47,0.47-0.909,0.961-1.323,1.464c0.579,0.8,1.266,1.685,2.02,2.622c-0.409,0.545-0.798,1.11-1.147,1.715
			c-0.348,0.603-0.643,1.221-0.91,1.846c-1.188-0.183-2.295-0.332-3.282-0.434c-0.228,0.611-0.434,1.235-0.606,1.878
			c-0.172,0.643-0.306,1.286-0.414,1.929c0.903,0.403,1.932,0.826,3.047,1.26c-0.166,1.375-0.146,2.753,0.02,4.11
			c-1.123,0.436-2.159,0.862-3.067,1.268c0.107,0.643,0.242,1.287,0.414,1.929c0.172,0.643,0.378,1.267,0.606,1.878
			c0.989-0.103,2.099-0.252,3.29-0.436c0.536,1.259,1.208,2.464,2.04,3.573c-0.751,0.933-1.435,1.814-2.012,2.611
			c0.415,0.503,0.853,0.993,1.323,1.464c0.47,0.47,0.961,0.909,1.464,1.323c0.8-0.579,1.685-1.266,2.622-2.02
			c0.545,0.409,1.11,0.798,1.715,1.147c0.603,0.348,1.221,0.643,1.846,0.91c-0.183,1.188-0.332,2.295-0.434,3.282
			c0.611,0.228,1.235,0.434,1.878,0.606c0.643,0.172,1.286,0.306,1.929,0.414c0.403-0.903,0.826-1.932,1.26-3.047
			c1.375,0.166,2.753,0.146,4.11-0.02c0.436,1.123,0.862,2.159,1.268,3.067c0.643-0.108,1.287-0.242,1.929-0.414
			c0.643-0.172,1.267-0.378,1.878-0.606c-0.103-0.989-0.252-2.099-0.436-3.29c1.259-0.536,2.464-1.208,3.573-2.04
			c0.932,0.751,1.814,1.435,2.611,2.012c0.503-0.415,0.993-0.853,1.464-1.323c0.47-0.47,0.909-0.961,1.323-1.464
			c-0.579-0.8-1.266-1.685-2.02-2.622c0.409-0.545,0.798-1.11,1.147-1.715c0.348-0.603,0.643-1.221,0.91-1.846
			c1.188,0.183,2.295,0.332,3.282,0.434c0.228-0.611,0.434-1.235,0.606-1.878c0.172-0.643,0.306-1.286,0.414-1.929
			c-0.903-0.403-1.932-0.826-3.047-1.26C49.119,32.684,49.098,31.306,48.933,29.949z M25.063,44.015
			c-6.636-3.831-8.909-12.316-5.078-18.952c3.831-6.636,12.316-8.909,18.952-5.078c6.636,3.831,8.909,12.316,5.078,18.952
			C40.184,45.573,31.699,47.846,25.063,44.015z"/>
	</g>
</g>
</svg>
