<?xml version="1.0" encoding="utf-8"?>
<!-- Generator: Adobe Illustrator 18.1.1, SVG Export Plug-In . SVG Version: 6.00 Build 0)  -->
<svg version="1.1" xmlns="http://www.w3.org/2000/svg" xmlns:xlink="http://www.w3.org/1999/xlink" x="0px" y="0px"
	 viewBox="0 0 64 64" enable-background="new 0 0 64 64" xml:space="preserve">
<symbol  id="gauge-blank" viewBox="-28 -28 56 56">
	<g>
		<path fill="#CCCCCC" d="M0-28c15.464,0,28,12.536,28,28S15.464,28,0,28S-28,15.464-28,0S-15.464-28,0-28z"/>
	</g>
	<g>
		<path fill="#FFFFFF" d="M0-24c13.255,0,24,10.745,24,24S13.255,24,0,24S-24,13.255-24,0S-13.255-24,0-24z"/>
	</g>
	<g>
		<path fill="#FFFFFF" d="M14.107,19.416c-10.723,7.791-25.732,5.414-33.523-5.31s-5.414-25.732,5.31-33.523
			s25.732-5.414,33.523,5.31S24.83,11.625,14.107,19.416z"/>
	</g>
	<g>
		<path fill="#F3F3F3" d="M0,22c12.919,0,23.45-10.209,23.975-23C23.988-0.668,24-0.335,24,0c0,13.255-10.745,24-24,24
			S-24,13.255-24,0c0-0.335,0.012-0.668,0.025-1C-23.45,11.791-12.919,22,0,22z"/>
	</g>
	<g>
		<g>
			<path fill="#FAAB67" d="M-13.326,8.849C-10.634,12.896-6.146,15.631-1,15.95v4c-6.625-0.328-12.396-3.863-15.788-9.102
				L-13.326,8.849z"/>
		</g>
	</g>
	<g>
		<g>
			<path fill="#24CB7F" d="M-16,0c0,1.376,0.192,2.704,0.519,3.979l-3.808,1.237C-19.738,3.55-20,1.808-20,0
				c0-6.293,2.912-11.899,7.455-15.565l2.35,3.235C-13.74-9.396-16-4.962-16,0z"/>
		</g>
		<g opacity="0.05">
			<g>
				<path d="M-19.289,4.216l3.597-1.169c0.062,0.313,0.132,0.624,0.211,0.931l-3.808,1.237C-19.738,3.55-20,1.808-20,0
					c0-0.186,0.011-0.368,0.016-0.553C-19.945,1.094-19.701,2.689-19.289,4.216z"/>
			</g>
			<g>
				<path d="M-16-1c0-4.749,2.084-8.999,5.37-11.929l0.435,0.599c-3.454,2.859-5.671,7.146-5.784,11.953
					C-15.987-0.584-16-0.791-16-1z"/>
			</g>
		</g>
		<g>
			<path fill="#FFBE2A" d="M-14.869,5.883C-12.641,11.509-7.321,15.558-1,15.95v4c-8.097-0.401-14.914-5.603-17.672-12.831
				L-14.869,5.883z"/>
		</g>
		<g opacity="0.05">
			<path d="M-18.672,7.118l0.372-0.121C-15.339,13.762-8.763,18.565-1,18.95v1C-9.097,19.548-15.914,14.347-18.672,7.118z"/>
		</g>
	</g>
	<g>
		<g>
			<path fill="#ED1E24" d="M16,0c0,1.376-0.192,2.704-0.519,3.979l3.808,1.237C19.738,3.55,20,1.808,20,0
				c0-6.293-2.912-11.899-7.455-15.565l-2.35,3.235C13.74-9.396,16-4.962,16,0z"/>
		</g>
		<g opacity="0.05">
			<g>
				<path d="M19.289,4.216c0.412-1.527,0.656-3.121,0.695-4.769C19.989-0.368,20-0.186,20,0c0,1.808-0.262,3.55-0.711,5.216
					l-3.808-1.237c0.079-0.307,0.149-0.618,0.211-0.931L19.289,4.216z"/>
			</g>
			<g>
				<path d="M16-1c0,0.209-0.013,0.416-0.021,0.623c-0.113-4.807-2.329-9.094-5.784-11.953l0.435-0.599C13.916-9.999,16-5.749,16-1z
					"/>
			</g>
		</g>
		<g>
			<path fill="#F47721" d="M14.869,5.883C12.641,11.509,7.321,15.558,1,15.95v4c8.097-0.401,14.914-5.603,17.672-12.831
				L14.869,5.883z"/>
		</g>
		<g opacity="0.05">
			<path d="M18.3,6.997l0.372,0.121C15.914,14.347,9.097,19.548,1,19.95v-1C8.763,18.565,15.339,13.762,18.3,6.997z"/>
		</g>
	</g>
	<path fill="#807F7F" d="M0,13.254"/>
	<path fill="#D9D9D8" d="M5-18c0-1.1-0.9-2-2-2h-6c-1.1,0-2,0.9-2,2v1c0,1.1,0.9,2,2,2h6c1.1,0,2-0.9,2-2V-18z"/>
	<path opacity="0.05" d="M3-15h-6c-1.1,0-2-0.9-2-2v-1c0,1.1,0.9,2,2,2h6c1.1,0,2-0.9,2-2v1C5-15.9,4.1-15,3-15z"/>
</symbol>
<symbol  id="gauge-blank_2" viewBox="-28 -28 56 56">
	<g>
		<path fill="#CCCCCC" d="M0-28c15.464,0,28,12.536,28,28S15.464,28,0,28S-28,15.464-28,0S-15.464-28,0-28z"/>
	</g>
	<g>
		<path fill="#FFFFFF" d="M0-24c13.255,0,24,10.745,24,24S13.255,24,0,24S-24,13.255-24,0S-13.255-24,0-24z"/>
	</g>
	<g>
		<path fill="#FFFFFF" d="M14.107,19.416c-10.723,7.791-25.732,5.414-33.523-5.31s-5.414-25.732,5.31-33.523
			s25.732-5.414,33.523,5.31S24.83,11.625,14.107,19.416z"/>
	</g>
	<g>
		<path fill="#F3F3F3" d="M0,22c12.919,0,23.45-10.209,23.975-23C23.988-0.668,24-0.335,24,0c0,13.255-10.745,24-24,24
			S-24,13.255-24,0c0-0.335,0.012-0.668,0.025-1C-23.45,11.791-12.919,22,0,22z"/>
	</g>
	<g>
		<g>
			<path fill="#FAAB67" d="M-13.326,8.849C-10.634,12.896-6.146,15.631-1,15.95v4c-6.625-0.328-12.396-3.863-15.788-9.102
				L-13.326,8.849z"/>
		</g>
	</g>
	<g>
		<g>
			<path fill="#24CB7F" d="M-16,0c0,1.376,0.192,2.704,0.519,3.979l-3.808,1.237C-19.738,3.55-20,1.808-20,0
				c0-6.293,2.912-11.899,7.455-15.565l2.35,3.235C-13.74-9.396-16-4.962-16,0z"/>
		</g>
		<g opacity="0.05">
			<g>
				<path d="M-19.289,4.216l3.597-1.169c0.062,0.313,0.132,0.624,0.211,0.931l-3.808,1.237C-19.738,3.55-20,1.808-20,0
					c0-0.186,0.011-0.368,0.016-0.553C-19.945,1.094-19.701,2.689-19.289,4.216z"/>
			</g>
			<g>
				<path d="M-16-1c0-4.749,2.084-8.999,5.37-11.929l0.435,0.599c-3.454,2.859-5.671,7.146-5.784,11.953
					C-15.987-0.584-16-0.791-16-1z"/>
			</g>
		</g>
		<g>
			<path fill="#FFBE2A" d="M-14.869,5.883C-12.641,11.509-7.321,15.558-1,15.95v4c-8.097-0.401-14.914-5.603-17.672-12.831
				L-14.869,5.883z"/>
		</g>
		<g opacity="0.05">
			<path d="M-18.672,7.118l0.372-0.121C-15.339,13.762-8.763,18.565-1,18.95v1C-9.097,19.548-15.914,14.347-18.672,7.118z"/>
		</g>
	</g>
	<g>
		<g>
			<path fill="#ED1E24" d="M16,0c0,1.376-0.192,2.704-0.519,3.979l3.808,1.237C19.738,3.55,20,1.808,20,0
				c0-6.293-2.912-11.899-7.455-15.565l-2.35,3.235C13.74-9.396,16-4.962,16,0z"/>
		</g>
		<g opacity="0.05">
			<g>
				<path d="M19.289,4.216c0.412-1.527,0.656-3.121,0.695-4.769C19.989-0.368,20-0.186,20,0c0,1.808-0.262,3.55-0.711,5.216
					l-3.808-1.237c0.079-0.307,0.149-0.618,0.211-0.931L19.289,4.216z"/>
			</g>
			<g>
				<path d="M16-1c0,0.209-0.013,0.416-0.021,0.623c-0.113-4.807-2.329-9.094-5.784-11.953l0.435-0.599C13.916-9.999,16-5.749,16-1z
					"/>
			</g>
		</g>
		<g>
			<path fill="#F47721" d="M14.869,5.883C12.641,11.509,7.321,15.558,1,15.95v4c8.097-0.401,14.914-5.603,17.672-12.831
				L14.869,5.883z"/>
		</g>
		<g opacity="0.05">
			<path d="M18.3,6.997l0.372,0.121C15.914,14.347,9.097,19.548,1,19.95v-1C8.763,18.565,15.339,13.762,18.3,6.997z"/>
		</g>
	</g>
	<path fill="#807F7F" d="M0,13.254"/>
	<path fill="#D9D9D8" d="M5-18c0-1.1-0.9-2-2-2h-6c-1.1,0-2,0.9-2,2v1c0,1.1,0.9,2,2,2h6c1.1,0,2-0.9,2-2V-18z"/>
	<path opacity="0.05" d="M3-15h-6c-1.1,0-2-0.9-2-2v-1c0,1.1,0.9,2,2,2h6c1.1,0,2-0.9,2-2v1C5-15.9,4.1-15,3-15z"/>
</symbol>
<g id="bkgd">
</g>
<g id="icons">
	<g opacity="0.1">
		<path d="M25.591,24.754c0-4.051,2.064-8.363,5.263-11.754c-4.875,2.703-8.517,8.021-8.517,12.877c0,4.856,3.642,7.66,8.517,6.999
			C27.655,31.693,25.591,28.805,25.591,24.754z"/>
		<path d="M38.409,41.246c0,4.051-2.064,8.363-5.263,11.754c4.875-2.703,8.517-8.021,8.517-12.877c0-4.856-3.642-7.66-8.517-6.999
			C36.345,34.307,38.409,37.195,38.409,41.246z"/>
		<path d="M19.088,37.404c-3.76-0.728-6.071-3.398-6.594-6.946c-1.49,4.963,0.46,9.263,4.967,10.136
			c4.508,0.872,10.1-1.969,13.485-6.565C27.223,36.755,22.848,38.132,19.088,37.404z"/>
		<path d="M44.912,28.596c3.76,0.728,6.071,3.398,6.594,6.946c1.49-4.963-0.46-9.263-4.967-10.136
			c-4.508-0.872-10.1,1.969-13.485,6.565C36.777,29.245,41.152,27.868,44.912,28.596z"/>
		<path d="M25.496,45.65c-3.76,3.323-8.135,4.965-11.858,4.808c3.385,2.26,8.977,1.242,13.485-2.741
			c4.508-3.983,6.457-9.629,4.967-13.564C31.567,38.062,29.257,42.327,25.496,45.65z"/>
		<path d="M38.504,20.35c3.76-3.323,8.135-4.965,11.858-4.808c-3.385-2.26-8.977-1.242-13.485,2.741
			c-4.508,3.983-6.457,9.629-4.967,13.564C32.433,27.938,34.743,23.673,38.504,20.35z"/>
	</g>
	<g>
		<path fill="#FFFFFF" d="M25.591,23.754c0-4.051,2.064-8.363,5.263-11.754c-4.875,2.703-8.517,8.021-8.517,12.877
			c0,4.856,3.642,7.66,8.517,6.999C27.655,30.693,25.591,27.805,25.591,23.754z"/>
		<path fill="#24CB7F" d="M38.409,40.246c0,4.051-2.064,8.363-5.263,11.754c4.875-2.703,8.517-8.021,8.517-12.877
			c0-4.856-3.642-7.66-8.517-6.999C36.345,33.307,38.409,36.195,38.409,40.246z"/>
		<path fill="#BDC3C7" d="M19.088,36.404c-3.76-0.728-6.071-3.398-6.594-6.946c-1.49,4.963,0.46,9.263,4.967,10.136
			c4.508,0.872,10.1-1.969,13.485-6.565C27.223,35.755,22.848,37.132,19.088,36.404z"/>
		<path fill="#4AA4EC" d="M44.912,27.596c3.76,0.728,6.071,3.398,6.594,6.946c1.49-4.963-0.46-9.263-4.967-10.136
			c-4.508-0.872-10.1,1.969-13.485,6.565C36.777,28.245,41.152,26.868,44.912,27.596z"/>
		<path fill="#F9422A" d="M25.496,44.65c-3.76,3.323-8.135,4.965-11.858,4.808c3.385,2.26,8.977,1.242,13.485-2.741
			c4.508-3.983,6.457-9.629,4.967-13.564C31.567,37.062,29.257,41.327,25.496,44.65z"/>
		<path fill="#FFBE2A" d="M38.504,19.35c3.76-3.323,8.135-4.965,11.858-4.808c-3.385-2.26-8.977-1.242-13.485,2.741
			c-4.508,3.983-6.457,9.629-4.967,13.564C32.433,26.938,34.743,22.673,38.504,19.35z"/>
	</g>
</g>
</svg>
