<?xml version="1.0" encoding="utf-8"?>
<!-- Generator: Adobe Illustrator 17.1.0, SVG Export Plug-In . SVG Version: 6.00 Build 0)  -->
<!DOCTYPE svg PUBLIC "-//W3C//DTD SVG 1.1//EN" "http://www.w3.org/Graphics/SVG/1.1/DTD/svg11.dtd">
<svg version="1.1" xmlns="http://www.w3.org/2000/svg" xmlns:xlink="http://www.w3.org/1999/xlink" x="0px" y="0px"
	 viewBox="0 0 64 64" enable-background="new 0 0 64 64" xml:space="preserve">
<symbol  id="gauge-blank" viewBox="-28 -28 56 56">
	<g>
		<path fill="#CCCCCC" d="M0-28c15.464,0,28,12.536,28,28S15.464,28,0,28S-28,15.464-28,0S-15.464-28,0-28z"/>
	</g>
	<g>
		<path fill="#FFFFFF" d="M0-24c13.255,0,24,10.745,24,24S13.255,24,0,24S-24,13.255-24,0S-13.255-24,0-24z"/>
	</g>
	<g>
		<path fill="#FFFFFF" d="M14.107,19.416c-10.723,7.791-25.732,5.414-33.523-5.31s-5.414-25.732,5.31-33.523
			s25.732-5.414,33.523,5.31S24.83,11.625,14.107,19.416z"/>
	</g>
	<g>
		<path fill="#F3F3F3" d="M0,22c12.919,0,23.45-10.209,23.975-23C23.988-0.668,24-0.335,24,0c0,13.255-10.745,24-24,24
			S-24,13.255-24,0c0-0.335,0.012-0.668,0.025-1C-23.45,11.791-12.919,22,0,22z"/>
	</g>
	<g>
		<g>
			<path fill="#FAAB67" d="M-13.326,8.849C-10.634,12.896-6.146,15.631-1,15.95v4c-6.625-0.328-12.396-3.863-15.788-9.102
				L-13.326,8.849z"/>
		</g>
	</g>
	<g>
		<g>
			<path fill="#24CB7F" d="M-16,0c0,1.376,0.192,2.704,0.519,3.979l-3.808,1.237C-19.738,3.55-20,1.808-20,0
				c0-6.293,2.912-11.899,7.455-15.565l2.35,3.235C-13.74-9.396-16-4.962-16,0z"/>
		</g>
		<g opacity="0.05">
			<g>
				<path d="M-19.289,4.216l3.597-1.169c0.062,0.313,0.132,0.624,0.211,0.931l-3.808,1.237C-19.738,3.55-20,1.808-20,0
					c0-0.186,0.011-0.368,0.016-0.553C-19.945,1.094-19.701,2.689-19.289,4.216z"/>
			</g>
			<g>
				<path d="M-16-1c0-4.749,2.084-8.999,5.37-11.929l0.435,0.599c-3.454,2.859-5.671,7.146-5.784,11.953
					C-15.987-0.584-16-0.791-16-1z"/>
			</g>
		</g>
		<g>
			<path fill="#FFBE2A" d="M-14.869,5.883C-12.641,11.509-7.321,15.558-1,15.95v4c-8.097-0.401-14.914-5.603-17.672-12.831
				L-14.869,5.883z"/>
		</g>
		<g opacity="0.05">
			<path d="M-18.672,7.118l0.372-0.121C-15.339,13.762-8.763,18.565-1,18.95v1C-9.097,19.548-15.914,14.347-18.672,7.118z"/>
		</g>
	</g>
	<g>
		<g>
			<path fill="#ED1E24" d="M16,0c0,1.376-0.192,2.704-0.519,3.979l3.808,1.237C19.738,3.55,20,1.808,20,0
				c0-6.293-2.912-11.899-7.455-15.565l-2.35,3.235C13.74-9.396,16-4.962,16,0z"/>
		</g>
		<g opacity="0.05">
			<g>
				<path d="M19.289,4.216c0.412-1.527,0.656-3.121,0.695-4.769C19.989-0.368,20-0.186,20,0c0,1.808-0.262,3.55-0.711,5.216
					l-3.808-1.237c0.079-0.307,0.149-0.618,0.211-0.931L19.289,4.216z"/>
			</g>
			<g>
				<path d="M16-1c0,0.209-0.013,0.416-0.021,0.623c-0.113-4.807-2.329-9.094-5.784-11.953l0.435-0.599C13.916-9.999,16-5.749,16-1z
					"/>
			</g>
		</g>
		<g>
			<path fill="#F47721" d="M14.869,5.883C12.641,11.509,7.321,15.558,1,15.95v4c8.097-0.401,14.914-5.603,17.672-12.831
				L14.869,5.883z"/>
		</g>
		<g opacity="0.05">
			<path d="M18.3,6.997l0.372,0.121C15.914,14.347,9.097,19.548,1,19.95v-1C8.763,18.565,15.339,13.762,18.3,6.997z"/>
		</g>
	</g>
	<path fill="#807F7F" d="M0,13.254"/>
	<path fill="#D9D9D8" d="M5-18c0-1.1-0.9-2-2-2h-6c-1.1,0-2,0.9-2,2v1c0,1.1,0.9,2,2,2h6c1.1,0,2-0.9,2-2V-18z"/>
	<path opacity="0.05" d="M3-15h-6c-1.1,0-2-0.9-2-2v-1c0,1.1,0.9,2,2,2h6c1.1,0,2-0.9,2-2v1C5-15.9,4.1-15,3-15z"/>
</symbol>
<symbol  id="gauge-blank_2" viewBox="-28 -28 56 56">
	<g>
		<path fill="#CCCCCC" d="M0-28c15.464,0,28,12.536,28,28S15.464,28,0,28S-28,15.464-28,0S-15.464-28,0-28z"/>
	</g>
	<g>
		<path fill="#FFFFFF" d="M0-24c13.255,0,24,10.745,24,24S13.255,24,0,24S-24,13.255-24,0S-13.255-24,0-24z"/>
	</g>
	<g>
		<path fill="#FFFFFF" d="M14.107,19.416c-10.723,7.791-25.732,5.414-33.523-5.31s-5.414-25.732,5.31-33.523
			s25.732-5.414,33.523,5.31S24.83,11.625,14.107,19.416z"/>
	</g>
	<g>
		<path fill="#F3F3F3" d="M0,22c12.919,0,23.45-10.209,23.975-23C23.988-0.668,24-0.335,24,0c0,13.255-10.745,24-24,24
			S-24,13.255-24,0c0-0.335,0.012-0.668,0.025-1C-23.45,11.791-12.919,22,0,22z"/>
	</g>
	<g>
		<g>
			<path fill="#FAAB67" d="M-13.326,8.849C-10.634,12.896-6.146,15.631-1,15.95v4c-6.625-0.328-12.396-3.863-15.788-9.102
				L-13.326,8.849z"/>
		</g>
	</g>
	<g>
		<g>
			<path fill="#24CB7F" d="M-16,0c0,1.376,0.192,2.704,0.519,3.979l-3.808,1.237C-19.738,3.55-20,1.808-20,0
				c0-6.293,2.912-11.899,7.455-15.565l2.35,3.235C-13.74-9.396-16-4.962-16,0z"/>
		</g>
		<g opacity="0.05">
			<g>
				<path d="M-19.289,4.216l3.597-1.169c0.062,0.313,0.132,0.624,0.211,0.931l-3.808,1.237C-19.738,3.55-20,1.808-20,0
					c0-0.186,0.011-0.368,0.016-0.553C-19.945,1.094-19.701,2.689-19.289,4.216z"/>
			</g>
			<g>
				<path d="M-16-1c0-4.749,2.084-8.999,5.37-11.929l0.435,0.599c-3.454,2.859-5.671,7.146-5.784,11.953
					C-15.987-0.584-16-0.791-16-1z"/>
			</g>
		</g>
		<g>
			<path fill="#FFBE2A" d="M-14.869,5.883C-12.641,11.509-7.321,15.558-1,15.95v4c-8.097-0.401-14.914-5.603-17.672-12.831
				L-14.869,5.883z"/>
		</g>
		<g opacity="0.05">
			<path d="M-18.672,7.118l0.372-0.121C-15.339,13.762-8.763,18.565-1,18.95v1C-9.097,19.548-15.914,14.347-18.672,7.118z"/>
		</g>
	</g>
	<g>
		<g>
			<path fill="#ED1E24" d="M16,0c0,1.376-0.192,2.704-0.519,3.979l3.808,1.237C19.738,3.55,20,1.808,20,0
				c0-6.293-2.912-11.899-7.455-15.565l-2.35,3.235C13.74-9.396,16-4.962,16,0z"/>
		</g>
		<g opacity="0.05">
			<g>
				<path d="M19.289,4.216c0.412-1.527,0.656-3.121,0.695-4.769C19.989-0.368,20-0.186,20,0c0,1.808-0.262,3.55-0.711,5.216
					l-3.808-1.237c0.079-0.307,0.149-0.618,0.211-0.931L19.289,4.216z"/>
			</g>
			<g>
				<path d="M16-1c0,0.209-0.013,0.416-0.021,0.623c-0.113-4.807-2.329-9.094-5.784-11.953l0.435-0.599C13.916-9.999,16-5.749,16-1z
					"/>
			</g>
		</g>
		<g>
			<path fill="#F47721" d="M14.869,5.883C12.641,11.509,7.321,15.558,1,15.95v4c8.097-0.401,14.914-5.603,17.672-12.831
				L14.869,5.883z"/>
		</g>
		<g opacity="0.05">
			<path d="M18.3,6.997l0.372,0.121C15.914,14.347,9.097,19.548,1,19.95v-1C8.763,18.565,15.339,13.762,18.3,6.997z"/>
		</g>
	</g>
	<path fill="#807F7F" d="M0,13.254"/>
	<path fill="#D9D9D8" d="M5-18c0-1.1-0.9-2-2-2h-6c-1.1,0-2,0.9-2,2v1c0,1.1,0.9,2,2,2h6c1.1,0,2-0.9,2-2V-18z"/>
	<path opacity="0.05" d="M3-15h-6c-1.1,0-2-0.9-2-2v-1c0,1.1,0.9,2,2,2h6c1.1,0,2-0.9,2-2v1C5-15.9,4.1-15,3-15z"/>
</symbol>
<g id="bkgd" display="none">
	<g display="inline">
		<path fill="#4AA4EC" d="M64,60c0,2.209-1.791,4-4,4H4c-2.209,0-4-1.791-4-4V4c0-2.209,1.791-4,4-4h56c2.209,0,4,1.791,4,4V60z"/>
	</g>
</g>
<g id="icons">
	<g opacity="0.05">
		<path d="M33,16.5c0,0.276-0.224,0.5-0.5,0.5h-1c-0.276,0-0.5-0.224-0.5-0.5v-3c0-0.276,0.224-0.5,0.5-0.5h1
			c0.276,0,0.5,0.224,0.5,0.5V16.5z"/>
	</g>
	<g opacity="0.05">
		<path d="M33,52.5c0,0.276-0.224,0.5-0.5,0.5h-1c-0.276,0-0.5-0.224-0.5-0.5v-3c0-0.276,0.224-0.5,0.5-0.5h1
			c0.276,0,0.5,0.224,0.5,0.5V52.5z"/>
	</g>
	<g opacity="0.05">
		<path d="M24.616,18.211c0.137,0.238,0.055,0.546-0.183,0.683l-0.866,0.5c-0.238,0.138-0.546,0.055-0.683-0.183l-1.5-2.598
			c-0.137-0.238-0.055-0.546,0.183-0.683l0.866-0.5c0.238-0.137,0.546-0.055,0.683,0.183L24.616,18.211z"/>
	</g>
	<g opacity="0.05">
		<path d="M42.616,49.387c0.138,0.238,0.055,0.546-0.183,0.683l-0.866,0.5c-0.238,0.138-0.546,0.055-0.683-0.183l-1.5-2.598
			c-0.138-0.238-0.055-0.546,0.183-0.683l0.866-0.5c0.238-0.138,0.546-0.055,0.683,0.183L42.616,49.387z"/>
	</g>
	<g opacity="0.05">
		<path d="M18.211,23.884c0.238,0.138,0.321,0.445,0.183,0.683l-0.5,0.866c-0.137,0.238-0.445,0.321-0.683,0.183l-2.598-1.5
			c-0.238-0.138-0.321-0.445-0.183-0.683l0.5-0.866c0.137-0.238,0.445-0.321,0.683-0.183L18.211,23.884z"/>
	</g>
	<g opacity="0.05">
		<path d="M49.387,41.884c0.238,0.137,0.321,0.445,0.183,0.683l-0.5,0.866c-0.138,0.238-0.445,0.321-0.683,0.183l-2.598-1.5
			c-0.238-0.137-0.321-0.445-0.183-0.683l0.5-0.866c0.138-0.238,0.445-0.321,0.683-0.183L49.387,41.884z"/>
	</g>
	<g opacity="0.05">
		<path d="M52,33.5c0,0.276-0.224,0.5-0.5,0.5h-3c-0.276,0-0.5-0.224-0.5-0.5v-1c0-0.276,0.224-0.5,0.5-0.5h3
			c0.276,0,0.5,0.224,0.5,0.5V33.5z"/>
	</g>
	<g opacity="0.05">
		<path d="M16,33.5c0,0.276-0.224,0.5-0.5,0.5h-3c-0.276,0-0.5-0.224-0.5-0.5v-1c0-0.276,0.224-0.5,0.5-0.5h3
			c0.276,0,0.5,0.224,0.5,0.5V33.5z"/>
	</g>
	<g opacity="0.05">
		<path d="M46.789,25.616c-0.238,0.137-0.546,0.055-0.683-0.183l-0.5-0.866c-0.138-0.238-0.055-0.546,0.183-0.683l2.598-1.5
			c0.238-0.137,0.546-0.055,0.683,0.183l0.5,0.866c0.138,0.238,0.055,0.546-0.183,0.683L46.789,25.616z"/>
	</g>
	<g opacity="0.05">
		<path d="M15.613,43.616c-0.238,0.138-0.546,0.055-0.683-0.183l-0.5-0.866c-0.137-0.238-0.055-0.546,0.183-0.683l2.598-1.5
			c0.238-0.138,0.546-0.055,0.683,0.183l0.5,0.866c0.138,0.238,0.055,0.546-0.183,0.683L15.613,43.616z"/>
	</g>
	<g opacity="0.05">
		<path d="M41.116,19.211c-0.137,0.238-0.445,0.321-0.683,0.183l-0.866-0.5c-0.238-0.137-0.321-0.445-0.183-0.683l1.5-2.598
			c0.137-0.238,0.445-0.321,0.683-0.183l0.866,0.5c0.238,0.137,0.321,0.445,0.183,0.683L41.116,19.211z"/>
	</g>
	<g opacity="0.05">
		<path d="M23.116,50.387c-0.138,0.238-0.445,0.321-0.683,0.183l-0.866-0.5c-0.238-0.138-0.321-0.445-0.183-0.683l1.5-2.598
			c0.138-0.238,0.445-0.321,0.683-0.183l0.866,0.5c0.238,0.138,0.321,0.445,0.183,0.683L23.116,50.387z"/>
	</g>
	<g opacity="0.05">
		<path d="M32.966,33.259c-0.142,0.531-0.693,0.849-1.225,0.707L20.15,30.86c-0.531-0.142-0.849-0.693-0.707-1.225
			c0.142-0.531,0.693-0.849,1.225-0.707l11.591,3.106C32.79,32.176,33.108,32.728,32.966,33.259z"/>
	</g>
	<g>
		<path fill="#FFFFFF" d="M33,15.5c0,0.276-0.224,0.5-0.5,0.5h-1c-0.276,0-0.5-0.224-0.5-0.5v-3c0-0.276,0.224-0.5,0.5-0.5h1
			c0.276,0,0.5,0.224,0.5,0.5V15.5z"/>
	</g>
	<g>
		<path fill="#FFFFFF" d="M33,51.5c0,0.276-0.224,0.5-0.5,0.5h-1c-0.276,0-0.5-0.224-0.5-0.5v-3c0-0.276,0.224-0.5,0.5-0.5h1
			c0.276,0,0.5,0.224,0.5,0.5V51.5z"/>
	</g>
	<g>
		<path fill="#FFFFFF" d="M24.616,17.211c0.137,0.238,0.055,0.546-0.183,0.683l-0.866,0.5c-0.238,0.138-0.546,0.055-0.683-0.183
			l-1.5-2.598c-0.137-0.238-0.055-0.546,0.183-0.683l0.866-0.5c0.238-0.137,0.546-0.055,0.683,0.183L24.616,17.211z"/>
	</g>
	<g>
		<path fill="#FFFFFF" d="M42.616,48.387c0.138,0.238,0.055,0.546-0.183,0.683l-0.866,0.5c-0.238,0.138-0.546,0.055-0.683-0.183
			l-1.5-2.598c-0.138-0.238-0.055-0.546,0.183-0.683l0.866-0.5c0.238-0.138,0.546-0.055,0.683,0.183L42.616,48.387z"/>
	</g>
	<g>
		<path fill="#FFFFFF" d="M18.211,22.884c0.238,0.138,0.321,0.445,0.183,0.683l-0.5,0.866c-0.137,0.238-0.445,0.321-0.683,0.183
			l-2.598-1.5c-0.238-0.138-0.321-0.445-0.183-0.683l0.5-0.866c0.137-0.238,0.445-0.321,0.683-0.183L18.211,22.884z"/>
	</g>
	<g>
		<path fill="#FFFFFF" d="M49.387,40.884c0.238,0.137,0.321,0.445,0.183,0.683l-0.5,0.866c-0.138,0.238-0.445,0.321-0.683,0.183
			l-2.598-1.5c-0.238-0.137-0.321-0.445-0.183-0.683l0.5-0.866c0.138-0.238,0.445-0.321,0.683-0.183L49.387,40.884z"/>
	</g>
	<g>
		<path fill="#FFFFFF" d="M52,32.5c0,0.276-0.224,0.5-0.5,0.5h-3c-0.276,0-0.5-0.224-0.5-0.5v-1c0-0.276,0.224-0.5,0.5-0.5h3
			c0.276,0,0.5,0.224,0.5,0.5V32.5z"/>
	</g>
	<g>
		<path fill="#FFFFFF" d="M16,32.5c0,0.276-0.224,0.5-0.5,0.5h-3c-0.276,0-0.5-0.224-0.5-0.5v-1c0-0.276,0.224-0.5,0.5-0.5h3
			c0.276,0,0.5,0.224,0.5,0.5V32.5z"/>
	</g>
	<g>
		<path fill="#FFFFFF" d="M46.789,24.616c-0.238,0.137-0.546,0.055-0.683-0.183l-0.5-0.866c-0.138-0.238-0.055-0.546,0.183-0.683
			l2.598-1.5c0.238-0.137,0.546-0.055,0.683,0.183l0.5,0.866c0.138,0.238,0.055,0.546-0.183,0.683L46.789,24.616z"/>
	</g>
	<g>
		<path fill="#FFFFFF" d="M15.613,42.616c-0.238,0.138-0.546,0.055-0.683-0.183l-0.5-0.866c-0.137-0.238-0.055-0.546,0.183-0.683
			l2.598-1.5c0.238-0.138,0.546-0.055,0.683,0.183l0.5,0.866c0.138,0.238,0.055,0.546-0.183,0.683L15.613,42.616z"/>
	</g>
	<g>
		<path fill="#FFFFFF" d="M41.116,18.211c-0.137,0.238-0.445,0.321-0.683,0.183l-0.866-0.5c-0.238-0.137-0.321-0.445-0.183-0.683
			l1.5-2.598c0.137-0.238,0.445-0.321,0.683-0.183l0.866,0.5c0.238,0.137,0.321,0.445,0.183,0.683L41.116,18.211z"/>
	</g>
	<g>
		<path fill="#FFFFFF" d="M23.116,49.387c-0.138,0.238-0.445,0.321-0.683,0.183l-0.866-0.5c-0.238-0.138-0.321-0.445-0.183-0.683
			l1.5-2.598c0.138-0.238,0.445-0.321,0.683-0.183l0.866,0.5c0.238,0.138,0.321,0.445,0.183,0.683L23.116,49.387z"/>
	</g>
	<g>
		<path fill="#FFFFFF" d="M32.966,32.259c-0.142,0.531-0.693,0.849-1.225,0.707L20.15,29.86c-0.531-0.142-0.849-0.693-0.707-1.225
			c0.142-0.531,0.693-0.849,1.225-0.707l11.591,3.106C32.79,31.176,33.108,31.728,32.966,32.259z"/>
	</g>
	<g>
		<path fill="#F9422A" d="M31.293,31.293c0.389-0.389,1.025-0.389,1.414,0l9.899,9.899c0.389,0.389,0.389,1.025,0,1.414
			s-1.025,0.389-1.414,0l-9.899-9.899C30.904,32.318,30.904,31.682,31.293,31.293z"/>
	</g>
	<g opacity="0.05">
		<path d="M32,33c-0.389-0.389-0.389-1.025,0-1.414l7.071-7.071c0.389-0.389,1.025-0.389,1.414,0s0.389,1.025,0,1.414L33.414,33
			C33.025,33.389,32.389,33.389,32,33z"/>
	</g>
	<g>
		<path fill="#FFFFFF" d="M32,32c-0.389-0.389-0.389-1.025,0-1.414l7.071-7.071c0.389-0.389,1.025-0.389,1.414,0
			s0.389,1.025,0,1.414L33.414,32C33.025,32.389,32.389,32.389,32,32z"/>
	</g>
	<circle fill="#F9422A" cx="32" cy="32" r="2"/>
</g>
</svg>
