<svg xmlns="http://www.w3.org/2000/svg" viewBox="0 0 16 16" enable-background="new 0 0 16 16"><path fill="#F4F5F6" d="M9.409 10.126c-.35.349-.737.662-1.152.931l-3.504 2.262c-.25.159-.529.242-.812.242-.546 0-1.051-.302-1.318-.788-.265-.483-.245-1.052.054-1.521l2.258-3.5c.267-.414.58-.802.931-1.154l2.098-2.098h-5.964c-.827 0-1.5.673-1.5 1.5v8c0 .827.673 1.5 1.5 1.5h8c.827 0 1.5-.673 1.5-1.5v-5.964l-2.091 2.09z"/><path fill="#E5E7E9" d="M11 8.536v5.464c0 .551-.449 1-1 1h-8c-.551 0-1-.449-1-1v-8c0-.551.449-1 1-1h5.464l1-1h-6.464c-1.105 0-2 .895-2 2v8c0 1.105.895 2 2 2h8c1.105 0 2-.895 2-2v-6.464l-1 1z"/><path fill="#60AFEE" d="M8.702 9.419l5.022-5.022-.354-1.768-1.768-.354-5.028 5.03c-.301.3-.568.632-.799.989l-2.255 3.495c-.287.451.239.978.691.69l3.503-2.262c.357-.23.688-.498.988-.798z"/><path fill="#FFE2A1" d="M6.148 7.778c-.133.165-.258.338-.373.516l-2.255 3.495c-.287.451.239.978.69.69l3.503-2.262c.175-.113.344-.236.507-.367l-2.072-2.072z"/><path fill="#3D566E" d="M4.21 12.479l1.456-.94-1.206-1.206-.94 1.456c-.287.451.239.978.69.69z"/><path fill="#fff" d="M13.017.861l2.121 2.121-1.414 1.414-2.121-2.121z"/><path fill="#F9422A" d="M14.608.331l1.061 1.061c.293.293.293.768 0 1.061l-1.061 1.061-2.121-2.121 1.061-1.061c.293-.294.768-.294 1.06-.001z"/><path opacity=".16" d="M14.078.361c.134 0 .259.052.354.146l1.061 1.061c.195.195.195.512 0 .707l-6.968 6.967c-.287.288-.606.545-.947.765l-3.502 2.261-.136.043c-.089 0-.176-.055-.222-.139-.031-.056-.054-.145.012-.248l2.255-3.494c.22-.342.478-.661.766-.948l6.974-6.974c.094-.095.22-.147.353-.147m0-.25c-.192 0-.384.073-.53.22l-6.974 6.974c-.301.3-.569.632-.799.989l-2.255 3.495c-.23.362.063.772.42.772.088 0 .181-.025.27-.082l3.503-2.262c.357-.23.688-.498.988-.798l6.967-6.967c.293-.293.293-.768 0-1.061l-1.061-1.061c-.145-.146-.337-.219-.529-.219z"/></svg>