<svg xmlns="http://www.w3.org/2000/svg" viewBox="0 0 128 128" enable-background="new 0 0 128 128"><symbol viewBox="-42 -31 84 61"><path d="M42-29c0-1.105-.895-2-2-2h-80c-1.105 0-2 .895-2 2v56c0 1.105.895 2 2 2h80c1.105 0 2-.895 2-2v-56z" opacity=".12"/><path fill="#fff" d="M42-28c0-1.105-.895-2-2-2h-80c-1.105 0-2 .895-2 2v56c0 1.105.895 2 2 2h80c1.105 0 2-.895 2-2v-56z"/><linearGradient id="a" gradientUnits="userSpaceOnUse" y1="-29" x2="0" y2="22"><stop offset="0" stop-color="#53B4F5"/><stop offset="1" stop-color="#65BCF6"/></linearGradient><path fill="url(#a)" d="M41 22v-49.5c0-.55-.45-1.5-1-1.5h-80c-.55 0-1 .95-1 1.5v49.5"/><path fill="#FF6259" d="M-36 26.5c0-1.105-.895-2-2-2s-2 .895-2 2 .895 2 2 2 2-.895 2-2z"/><path fill="#fff" d="M-39 26.5l-.035.139c-.016.075-.028.241.033.396.05.162.163.342.337.485.094.06.189.134.308.163.123.046.21.051.382.064.103-.017.178-.011.319-.061.135-.032.226-.106.321-.166.175-.143.287-.324.337-.486.061-.158.046-.306.033-.395l-.035-.139-.062.127c-.026.079-.104.178-.185.275-.072.108-.209.179-.33.25l-.194.065-.256.033-.192-.029-.207-.069c-.121-.071-.258-.142-.33-.25-.168-.179-.238-.413-.244-.402z" opacity=".6"/><path fill="#FFC933" d="M-30 26.5c0-1.105-.895-2-2-2s-2 .895-2 2 .895 2 2 2 2-.895 2-2z"/><path fill="#2ECC71" d="M-24 26.5c0-1.105-.895-2-2-2s-2 .895-2 2 .895 2 2 2 2-.895 2-2z"/><path fill="#75C3F7" d="M-40 16h80v1h-80zM-40 8h80v1h-80zM-40 0h80v1h-80zM-40-8h80v1h-80zM-40-16h80v1h-80zM-40-24h80v1h-80zM19 21v-49h1v49zM27 21v-49h1v49zM35 21v-49h1v49zM11 21v-49h1v49zM3 21v-49h1v49zM-5 21v-49h1v49zM-13 21v-49h1v49zM-21 21v-49h1v49zM-29 21v-49h1v49zM-37 21v-49h1v49z"/><path opacity=".08" d="M41 21h-82v1h82z"/><path fill="#fff" d="M-33 26.5l-.035.139c-.016.075-.028.241.033.396.05.162.163.342.337.485.094.06.189.134.308.163.123.046.21.051.382.064.103-.017.178-.011.319-.061.135-.032.226-.106.321-.166.175-.143.287-.324.337-.486.061-.158.046-.306.033-.395l-.035-.139-.062.127c-.026.079-.104.178-.185.275-.072.108-.209.179-.33.25l-.194.065-.256.033-.192-.029-.207-.069c-.121-.071-.258-.142-.33-.25-.168-.179-.238-.413-.244-.402zM-27 26.5l-.035.139c-.016.075-.028.241.033.396.05.162.163.342.337.485.094.06.189.134.308.163.123.046.21.051.382.064.103-.017.178-.011.319-.061.135-.032.226-.106.321-.166.175-.143.287-.324.337-.486.061-.158.046-.306.033-.395l-.035-.139-.062.127c-.026.079-.104.178-.185.275-.072.108-.209.179-.33.25l-.194.065-.256.033-.192-.029-.207-.069c-.121-.071-.258-.142-.33-.25-.168-.179-.238-.413-.244-.402z" opacity=".6"/></symbol><g><path fill="#D3D3D3" d="M91 35.494c0-6.872-16.069-10.002-31-10.002s-31 3.13-31 10.002v48.012c0 7.338 18.539 10.002 31 10.002s31-2.664 31-10.002v-48.012z"/><path opacity=".1" d="M91 37.494c0-6.872-16.069-10.002-31-10.002s-31 3.13-31 10.002v48.012c0 7.338 18.539 10.002 31 10.002s31-2.664 31-10.002v-48.012z"/><path fill="#fff" d="M91 35.494c0-6.872-16.069-10.002-31-10.002s-31 3.13-31 10.002v48.012c0 7.338 18.539 10.002 31 10.002s31-2.664 31-10.002v-48.012z"/><ellipse fill="#FFBE2A" cx="60" cy="35.494" rx="29" ry="8.002"/><path fill="#4AA4EC" d="M60 77.504c-11.366 0-23-1.946-29-6.115v12.117c0 4.419 13.532 8.002 29 8.002s29-3.583 29-8.002v-12.117c-6 4.169-17.634 6.115-29 6.115z"/><path fill="#24CB7F" d="M60 61.5c-11.366 0-23-1.946-29-6.115v12.117c0 4.419 13.532 8.002 29 8.002s29-3.583 29-8.002v-12.117c-6 4.169-17.634 6.115-29 6.115z"/><path fill="#FFBE2A" d="M60 45.496c-11.366 0-23-1.946-29-6.115v12.117c0 4.419 13.532 8.002 29 8.002s29-3.583 29-8.002v-12.117c-6 4.17-17.634 6.115-29 6.115z"/><path opacity=".05" d="M50 76.982c-7.752-.828-14.775-2.656-19-5.593v12.117c0 3.426 8.136 6.348 19 7.489v-14.013zM50 60.978c-7.752-.828-14.775-2.656-19-5.593v12.117c0 3.426 8.136 6.348 19 7.489v-14.013zM50 44.974c-7.752-.828-14.775-2.656-19-5.593v12.117c0 3.426 8.136 6.348 19 7.489v-14.013z"/><circle opacity=".1" cx="96.999" cy="99.001" r="20"/><circle fill="#fff" cx="96.999" cy="97.001" r="20"/><circle fill="#64788B" cx="96.999" cy="97.001" r="18"/><path opacity=".05" d="M96.999 80.126c9.751 0 17.672 7.759 17.972 17.438l.028-.562c0-9.941-8.059-18-18-18s-18 8.059-18 18l.028.562c.3-9.679 8.221-17.438 17.972-17.438z"/><g fill="#fff"><path d="M94.999 86.001h4v22h-4zM85.999 95.001h22v4h-22z"/></g><g fill="#fff"><path d="M87.806 90.637l2.828-2.828 15.556 15.556-2.828 2.828zM103.363 87.807l2.828 2.828-15.556 15.556-2.828-2.828z"/></g><circle fill="#fff" cx="96.999" cy="97.001" r="8"/><circle fill="#64788B" cx="96.999" cy="97.001" r="3"/></g></svg>