<svg xmlns="http://www.w3.org/2000/svg" viewBox="0 0 128 128" enable-background="new 0 0 128 128"><symbol viewBox="-42 -31 84 61"><path d="M42-29c0-1.105-.895-2-2-2h-80c-1.105 0-2 .895-2 2v56c0 1.105.895 2 2 2h80c1.105 0 2-.895 2-2v-56z" opacity=".12"/><path fill="#fff" d="M42-28c0-1.105-.895-2-2-2h-80c-1.105 0-2 .895-2 2v56c0 1.105.895 2 2 2h80c1.105 0 2-.895 2-2v-56z"/><linearGradient id="a" gradientUnits="userSpaceOnUse" y1="-29" x2="0" y2="22"><stop offset="0" stop-color="#53B4F5"/><stop offset="1" stop-color="#65BCF6"/></linearGradient><path fill="url(#a)" d="M41 22v-49.5c0-.55-.45-1.5-1-1.5h-80c-.55 0-1 .95-1 1.5v49.5"/><path fill="#FF6259" d="M-36 26.5c0-1.105-.895-2-2-2s-2 .895-2 2 .895 2 2 2 2-.895 2-2z"/><path fill="#fff" d="M-39 26.5l-.035.139c-.016.075-.028.241.033.396.05.162.163.342.337.485.094.06.189.134.308.163.123.046.21.051.382.064.103-.017.178-.011.319-.061.135-.032.226-.106.321-.166.175-.143.287-.324.337-.486.061-.158.046-.306.033-.395l-.035-.139-.062.127c-.026.079-.104.178-.185.275-.072.108-.209.179-.33.25l-.194.065-.256.033-.192-.029-.207-.069c-.121-.071-.258-.142-.33-.25-.168-.179-.238-.413-.244-.402z" opacity=".6"/><path fill="#FFC933" d="M-30 26.5c0-1.105-.895-2-2-2s-2 .895-2 2 .895 2 2 2 2-.895 2-2z"/><path fill="#2ECC71" d="M-24 26.5c0-1.105-.895-2-2-2s-2 .895-2 2 .895 2 2 2 2-.895 2-2z"/><path fill="#75C3F7" d="M-40 16h80v1h-80zM-40 8h80v1h-80zM-40 0h80v1h-80zM-40-8h80v1h-80zM-40-16h80v1h-80zM-40-24h80v1h-80zM19 21v-49h1v49zM27 21v-49h1v49zM35 21v-49h1v49zM11 21v-49h1v49zM3 21v-49h1v49zM-5 21v-49h1v49zM-13 21v-49h1v49zM-21 21v-49h1v49zM-29 21v-49h1v49zM-37 21v-49h1v49z"/><path opacity=".08" d="M41 21h-82v1h82z"/><path fill="#fff" d="M-33 26.5l-.035.139c-.016.075-.028.241.033.396.05.162.163.342.337.485.094.06.189.134.308.163.123.046.21.051.382.064.103-.017.178-.011.319-.061.135-.032.226-.106.321-.166.175-.143.287-.324.337-.486.061-.158.046-.306.033-.395l-.035-.139-.062.127c-.026.079-.104.178-.185.275-.072.108-.209.179-.33.25l-.194.065-.256.033-.192-.029-.207-.069c-.121-.071-.258-.142-.33-.25-.168-.179-.238-.413-.244-.402zM-27 26.5l-.035.139c-.016.075-.028.241.033.396.05.162.163.342.337.485.094.06.189.134.308.163.123.046.21.051.382.064.103-.017.178-.011.319-.061.135-.032.226-.106.321-.166.175-.143.287-.324.337-.486.061-.158.046-.306.033-.395l-.035-.139-.062.127c-.026.079-.104.178-.185.275-.072.108-.209.179-.33.25l-.194.065-.256.033-.192-.029-.207-.069c-.121-.071-.258-.142-.33-.25-.168-.179-.238-.413-.244-.402z" opacity=".6"/></symbol><g><path d="M94 94.057c0 1.069-.874 1.943-1.943 1.943h-64.114c-1.069 0-1.943-.874-1.943-1.943v-64.114c0-1.069.874-1.943 1.943-1.943h64.114c1.069 0 1.943.874 1.943 1.943v64.114z" opacity=".1"/><path fill="#fff" d="M94 92.057c0 1.069-.874 1.943-1.943 1.943h-64.114c-1.069 0-1.943-.874-1.943-1.943v-64.114c0-1.069.874-1.943 1.943-1.943h64.114c1.069 0 1.943.874 1.943 1.943v64.114z"/><path fill="#92C8F4" d="M28 34h64v58h-64z"/><path opacity=".05" d="M80 48.875c0-5.667-12.572-7.179-20-7.179s-20 1.512-20 7.179v30c0 5.525 12.571 7 20 7s20-1.475 20-7v-30z"/><path fill="#fff" d="M80 47.875c0-5.667-12.572-7.179-20-7.179s-20 1.512-20 7.179v30c0 5.525 12.571 7 20 7s20-1.475 20-7v-30z"/><ellipse fill="#D7DBDD" cx="60" cy="47.875" rx="17.5" ry="5"/><path fill="#D7DBDD" d="M60 74.125c-7.102 0-14-1.216-18-3.821v7.571c0 2.761 8.335 5 18 5s18-2.239 18-5v-7.571c-4 2.605-10.898 3.821-18 3.821zM60 64.125c-7.102 0-14-1.216-18-3.821v7.571c0 2.761 8.335 5 18 5s18-2.239 18-5v-7.571c-4 2.605-10.898 3.821-18 3.821zM60 54.125c-7.102 0-14-1.216-18-3.821v7.571c0 2.761 8.335 5 18 5s18-2.239 18-5v-7.571c-4 2.605-10.898 3.821-18 3.821z"/><g><circle opacity=".1" cx="96.999" cy="99.001" r="20"/><circle fill="#fff" cx="96.999" cy="97.001" r="20"/><circle fill="#64788B" cx="96.999" cy="97.001" r="18"/><path opacity=".05" d="M96.999 80.126c9.751 0 17.672 7.759 17.972 17.438l.028-.562c0-9.941-8.059-18-18-18s-18 8.059-18 18l.028.562c.3-9.679 8.221-17.438 17.972-17.438z"/><g fill="#fff"><path d="M94.999 86.001h4v22h-4zM85.999 95.001h22v4h-22z"/></g><g fill="#fff"><path d="M87.806 90.637l2.828-2.828 15.556 15.556-2.828 2.828zM103.363 87.807l2.828 2.828-15.556 15.556-2.828-2.828z"/></g><circle fill="#fff" cx="96.999" cy="97.001" r="8"/><circle fill="#64788B" cx="96.999" cy="97.001" r="3"/></g><path opacity=".05" d="M54 53.817c-4.821-.508-9.148-1.656-12-3.513v7.571c0 2.165 5.13 4.003 12 4.698v-8.756zM54 63.817c-4.821-.508-9.148-1.656-12-3.513v7.571c0 2.165 5.13 4.003 12 4.698v-8.756zM54 73.817c-4.821-.508-9.148-1.656-12-3.513v7.571c0 2.165 5.13 4.003 12 4.698v-8.756z"/></g></svg>