<svg xmlns="http://www.w3.org/2000/svg" viewBox="0 0 128 128" enable-background="new 0 0 128 128"><symbol viewBox="-42 -31 84 61"><path d="M42-29c0-1.105-.895-2-2-2h-80c-1.105 0-2 .895-2 2v56c0 1.105.895 2 2 2h80c1.105 0 2-.895 2-2v-56z" opacity=".12"/><path fill="#fff" d="M42-28c0-1.105-.895-2-2-2h-80c-1.105 0-2 .895-2 2v56c0 1.105.895 2 2 2h80c1.105 0 2-.895 2-2v-56z"/><linearGradient id="a" gradientUnits="userSpaceOnUse" y1="-29" x2="0" y2="22"><stop offset="0" stop-color="#53B4F5"/><stop offset="1" stop-color="#65BCF6"/></linearGradient><path fill="url(#a)" d="M41 22v-49.5c0-.55-.45-1.5-1-1.5h-80c-.55 0-1 .95-1 1.5v49.5"/><path fill="#FF6259" d="M-36 26.5c0-1.105-.895-2-2-2s-2 .895-2 2 .895 2 2 2 2-.895 2-2z"/><path fill="#fff" d="M-39 26.5l-.035.139c-.016.075-.028.241.033.396.05.162.163.342.337.485.094.06.189.134.308.163.123.046.21.051.382.064.103-.017.178-.011.319-.061.135-.032.226-.106.321-.166.175-.143.287-.324.337-.486.061-.158.046-.306.033-.395l-.035-.139-.062.127c-.026.079-.104.178-.185.275-.072.108-.209.179-.33.25l-.194.065-.256.033-.192-.029-.207-.069c-.121-.071-.258-.142-.33-.25-.168-.179-.238-.413-.244-.402z" opacity=".6"/><path fill="#FFC933" d="M-30 26.5c0-1.105-.895-2-2-2s-2 .895-2 2 .895 2 2 2 2-.895 2-2z"/><path fill="#2ECC71" d="M-24 26.5c0-1.105-.895-2-2-2s-2 .895-2 2 .895 2 2 2 2-.895 2-2z"/><path fill="#75C3F7" d="M-40 16h80v1h-80zM-40 8h80v1h-80zM-40 0h80v1h-80zM-40-8h80v1h-80zM-40-16h80v1h-80zM-40-24h80v1h-80zM19 21v-49h1v49zM27 21v-49h1v49zM35 21v-49h1v49zM11 21v-49h1v49zM3 21v-49h1v49zM-5 21v-49h1v49zM-13 21v-49h1v49zM-21 21v-49h1v49zM-29 21v-49h1v49zM-37 21v-49h1v49z"/><path opacity=".08" d="M41 21h-82v1h82z"/><path fill="#fff" d="M-33 26.5l-.035.139c-.016.075-.028.241.033.396.05.162.163.342.337.485.094.06.189.134.308.163.123.046.21.051.382.064.103-.017.178-.011.319-.061.135-.032.226-.106.321-.166.175-.143.287-.324.337-.486.061-.158.046-.306.033-.395l-.035-.139-.062.127c-.026.079-.104.178-.185.275-.072.108-.209.179-.33.25l-.194.065-.256.033-.192-.029-.207-.069c-.121-.071-.258-.142-.33-.25-.168-.179-.238-.413-.244-.402zM-27 26.5l-.035.139c-.016.075-.028.241.033.396.05.162.163.342.337.485.094.06.189.134.308.163.123.046.21.051.382.064.103-.017.178-.011.319-.061.135-.032.226-.106.321-.166.175-.143.287-.324.337-.486.061-.158.046-.306.033-.395l-.035-.139-.062.127c-.026.079-.104.178-.185.275-.072.108-.209.179-.33.25l-.194.065-.256.033-.192-.029-.207-.069c-.121-.071-.258-.142-.33-.25-.168-.179-.238-.413-.244-.402z" opacity=".6"/></symbol><g><path d="M108 94c0 1.1-.9 2-2 2h-84c-1.1 0-2-.9-2-2v-56c0-1.1.9-2 2-2h84c1.1 0 2 .9 2 2v56z" opacity=".1"/><path fill="#fff" d="M108 92c0 1.105-.895 2-2 2h-84c-1.105 0-2-.895-2-2v-56c0-1.105.895-2 2-2h84c1.105 0 2 .895 2 2v56z"/><path fill="#E5E7E9" d="M106 42v49c0 .552-.448 1-1 1h-82c-.552 0-1-.448-1-1v-49h84z"/><path fill="#D7DBDD" d="M22 47h84v1h-84zM22 55h84v1h-84zM22 63h84v1h-84zM22 71h84v1h-84zM22 79h84v1h-84zM22 87h84v1h-84zM83 42h1v50h-1zM91 42h1v50h-1zM99 42h1v50h-1zM75 42h1v50h-1zM67 42h1v50h-1zM59 42h1v50h-1zM51 42h1v50h-1zM43 42h1v50h-1zM35 42h1v50h-1zM27 42h1v50h-1zM22 42h84v1h-84z"/><path fill="#CACFD2" d="M27 47h73v9h-73z"/><path fill="#F2F3F4" d="M28 48h71v7h-71z"/><path fill="#CACFD2" d="M27 63h17v25h-17z"/><path fill="#F2F3F4" d="M28 64h15v23h-15z"/><path fill="#CACFD2" d="M51 63h25v25h-25z"/><path fill="#F2F3F4" d="M52 64h23v23h-23z"/><path fill="#CACFD2" d="M83 63h17v25h-17z"/><path fill="#F2F3F4" d="M84 64h15v23h-15z"/><circle opacity=".1" cx="94" cy="96.5" r="18"/><circle fill="#fff" cx="94" cy="94.5" r="18"/><circle fill="#4AA4EC" cx="94" cy="94.5" r="16"/><path opacity=".05" d="M94 79.5c8.668 0 15.708 6.897 15.975 15.5l.025-.5c0-8.837-7.163-16-16-16s-16 7.163-16 16l.025.5c.267-8.603 7.307-15.5 15.975-15.5z"/><path opacity=".1" d="M87.323 93.999c.406.372 1.038.347 1.413-.06l4.264-4.637v15.698c0 .552.448 1 1 1s1-.448 1-1v-15.698l4.264 4.637c.374.406 1.006.432 1.413.06.406-.374.434-1.007.06-1.413l-6.737-7.326-6.736 7.326c-.374.406-.347 1.039.059 1.413z"/><path fill="#fff" d="M87.323 92.999c.406.372 1.038.347 1.413-.06l4.264-4.637v15.698c0 .552.448 1 1 1s1-.448 1-1v-15.698l4.264 4.637c.374.406 1.006.432 1.413.06.406-.374.434-1.007.06-1.413l-6.737-7.326-6.736 7.326c-.374.406-.347 1.039.059 1.413z"/><circle opacity=".1" cx="54" cy="96.5" r="18"/><circle fill="#fff" cx="54" cy="94.5" r="18"/><circle fill="#24CB7F" cx="54" cy="94.5" r="16"/><path opacity=".1" d="M60.677 97.001c-.406-.372-1.038-.347-1.413.06l-4.264 4.637v-15.698c0-.552-.448-1-1-1s-1 .448-1 1v15.698l-4.264-4.637c-.374-.406-1.006-.432-1.413-.06-.406.374-.434 1.007-.06 1.413l6.737 7.326 6.736-7.326c.374-.406.347-1.039-.059-1.413z"/><path fill="#fff" d="M60.677 96.001c-.406-.372-1.038-.347-1.413.06l-4.264 4.637v-15.698c0-.552-.448-1-1-1s-1 .448-1 1v15.698l-4.264-4.637c-.374-.406-1.006-.432-1.413-.06-.406.374-.434 1.007-.06 1.413l6.737 7.326 6.736-7.326c.374-.406.347-1.039-.059-1.413z"/><path opacity=".05" d="M54 79.5c8.668 0 15.708 6.897 15.975 15.5l.025-.5c0-8.837-7.163-16-16-16s-16 7.163-16 16l.025.5c.267-8.603 7.307-15.5 15.975-15.5z"/></g></svg>