<svg xmlns="http://www.w3.org/2000/svg" viewBox="0 0 128 128" enable-background="new 0 0 128 128"><symbol viewBox="-42 -31 84 61"><path d="M42-29c0-1.105-.895-2-2-2h-80c-1.105 0-2 .895-2 2v56c0 1.105.895 2 2 2h80c1.105 0 2-.895 2-2v-56z" opacity=".12"/><path fill="#fff" d="M42-28c0-1.105-.895-2-2-2h-80c-1.105 0-2 .895-2 2v56c0 1.105.895 2 2 2h80c1.105 0 2-.895 2-2v-56z"/><linearGradient id="a" gradientUnits="userSpaceOnUse" y1="-29" x2="0" y2="22"><stop offset="0" stop-color="#53B4F5"/><stop offset="1" stop-color="#65BCF6"/></linearGradient><path fill="url(#a)" d="M41 22v-49.5c0-.55-.45-1.5-1-1.5h-80c-.55 0-1 .95-1 1.5v49.5"/><path fill="#FF6259" d="M-36 26.5c0-1.105-.895-2-2-2s-2 .895-2 2 .895 2 2 2 2-.895 2-2z"/><path fill="#fff" d="M-39 26.5l-.035.139c-.016.075-.028.241.033.396.05.162.163.342.337.485.094.06.189.134.308.163.123.046.21.051.382.064.103-.017.178-.011.319-.061.135-.032.226-.106.321-.166.175-.143.287-.324.337-.486.061-.158.046-.306.033-.395l-.035-.139-.062.127c-.026.079-.104.178-.185.275-.072.108-.209.179-.33.25l-.194.065-.256.033-.192-.029-.207-.069c-.121-.071-.258-.142-.33-.25-.168-.179-.238-.413-.244-.402z" opacity=".6"/><path fill="#FFC933" d="M-30 26.5c0-1.105-.895-2-2-2s-2 .895-2 2 .895 2 2 2 2-.895 2-2z"/><path fill="#2ECC71" d="M-24 26.5c0-1.105-.895-2-2-2s-2 .895-2 2 .895 2 2 2 2-.895 2-2z"/><path fill="#75C3F7" d="M-40 16h80v1h-80zM-40 8h80v1h-80zM-40 0h80v1h-80zM-40-8h80v1h-80zM-40-16h80v1h-80zM-40-24h80v1h-80zM19 21v-49h1v49zM27 21v-49h1v49zM35 21v-49h1v49zM11 21v-49h1v49zM3 21v-49h1v49zM-5 21v-49h1v49zM-13 21v-49h1v49zM-21 21v-49h1v49zM-29 21v-49h1v49zM-37 21v-49h1v49z"/><path opacity=".08" d="M41 21h-82v1h82z"/><path fill="#fff" d="M-33 26.5l-.035.139c-.016.075-.028.241.033.396.05.162.163.342.337.485.094.06.189.134.308.163.123.046.21.051.382.064.103-.017.178-.011.319-.061.135-.032.226-.106.321-.166.175-.143.287-.324.337-.486.061-.158.046-.306.033-.395l-.035-.139-.062.127c-.026.079-.104.178-.185.275-.072.108-.209.179-.33.25l-.194.065-.256.033-.192-.029-.207-.069c-.121-.071-.258-.142-.33-.25-.168-.179-.238-.413-.244-.402zM-27 26.5l-.035.139c-.016.075-.028.241.033.396.05.162.163.342.337.485.094.06.189.134.308.163.123.046.21.051.382.064.103-.017.178-.011.319-.061.135-.032.226-.106.321-.166.175-.143.287-.324.337-.486.061-.158.046-.306.033-.395l-.035-.139-.062.127c-.026.079-.104.178-.185.275-.072.108-.209.179-.33.25l-.194.065-.256.033-.192-.029-.207-.069c-.121-.071-.258-.142-.33-.25-.168-.179-.238-.413-.244-.402z" opacity=".6"/></symbol><g><path d="M37 99c-3.3 0-6-2.7-6-6v-62c0-3.3 2.7-6 6-6h40c3.3 0 6 2.7 6 6v62c0 3.3-2.7 6-6 6h-40z" opacity=".08"/><path fill="#fff" d="M37 97c-3.3 0-6-2.7-6-6v-62c0-3.3 2.7-6 6-6h40c3.3 0 6 2.7 6 6v62c0 3.3-2.7 6-6 6h-40z"/><path fill="#64788B" d="M33 91c0 2.2 1.8 4 4 4h40c2.2 0 4-1.8 4-4v-62c0-2.2-1.8-4-4-4h-40c-2.2 0-4 1.8-4 4v62z"/><path fill="#FBFBFB" d="M78 86c0 .55-.45 1-1 1h-40c-.55 0-1-.45-1-1v-54c0-.55.45-1 1-1h40c.55 0 1 .45 1 1v54z"/><circle fill="#8B9AA8" cx="58" cy="91" r="2"/><path fill="#8B9AA8" d="M62 28c0 .55-.45 1-1 1h-6c-.55 0-1-.45-1-1s.45-1 1-1h6c.55 0 1 .45 1 1z"/><path d="M75 107c-3.3 0-6-2.7-6-6v-40c0-3.3 2.7-6 6-6h16c3.3 0 6 2.7 6 6v40c0 3.3-2.7 6-6 6h-16z" opacity=".08"/><path fill="#fff" d="M75 105c-3.3 0-6-2.7-6-6v-40c0-3.3 2.7-6 6-6h16c3.3 0 6 2.7 6 6v40c0 3.3-2.7 6-6 6h-16z"/><path fill="#64788B" d="M71 99c0 2.2 1.8 4 4 4h16c2.2 0 4-1.8 4-4v-40c0-2.2-1.8-4-4-4h-16c-2.2 0-4 1.8-4 4v40z"/><path fill="#fff" d="M73 61h20v36h-20z"/><circle fill="#8B9AA8" cx="83.23" cy="100" r="1"/><path fill="#8B9AA8" d="M80 58c0 .55.45 1 1 1h4c.55 0 1-.45 1-1s-.45-1-1-1h-4c-.55 0-1 .45-1 1z"/><path fill="#D2D2D4" d="M58 43.029v9.355l-6.614 6.614c1.874 1.499 4.355 2.271 7.021 1.865 3.865-.589 6.973-3.745 7.505-7.618.713-5.191-3.006-9.673-7.912-10.216z"/><path opacity=".8" fill="#FA6855" d="M56 51.557v-8.527c-5 .498-8 4.309-8 8.941 0 2.125.741 4.074 1.972 5.614l6.028-6.028zM52 75h4v8h-4z"/><path opacity=".8" fill="#24CB7F" d="M58 71h4v12h-4z"/><path fill="#6EB6F0" d="M46 67h4v16h-4z"/><path opacity=".8" fill="#FFCD00" d="M64 67h4v16h-4z"/><path fill="#6EB6F0" d="M38 33h38v4h-38z"/><path fill="#D2D2D4" d="M84.203 73.94v7.363l-5.205 5.205c1.475 1.18 3.428 1.787 5.526 1.468 3.042-.463 5.488-2.947 5.906-5.996.56-4.085-2.366-7.613-6.227-8.04z"/><path opacity=".8" fill="#FA6855" d="M83 80.651v-6.711c-3 .392-6.482 3.391-6.482 7.037 0 1.672.676 3.206 1.645 4.418l4.837-4.744z"/><path fill="#6EB6F0" d="M75 63h16v4h-16z"/></g></svg>