<svg xmlns="http://www.w3.org/2000/svg" viewBox="0 0 128 128" enable-background="new 0 0 128 128"><symbol viewBox="-42 -31 84 61"><path d="M42-29c0-1.105-.895-2-2-2h-80c-1.105 0-2 .895-2 2v56c0 1.105.895 2 2 2h80c1.105 0 2-.895 2-2v-56z" opacity=".12"/><path fill="#fff" d="M42-28c0-1.105-.895-2-2-2h-80c-1.105 0-2 .895-2 2v56c0 1.105.895 2 2 2h80c1.105 0 2-.895 2-2v-56z"/><linearGradient id="a" gradientUnits="userSpaceOnUse" y1="-29" x2="0" y2="22"><stop offset="0" stop-color="#53B4F5"/><stop offset="1" stop-color="#65BCF6"/></linearGradient><path fill="url(#a)" d="M41 22v-49.5c0-.55-.45-1.5-1-1.5h-80c-.55 0-1 .95-1 1.5v49.5"/><path fill="#FF6259" d="M-36 26.5c0-1.105-.895-2-2-2s-2 .895-2 2 .895 2 2 2 2-.895 2-2z"/><path fill="#fff" d="M-39 26.5l-.035.139c-.016.075-.028.241.033.396.05.162.163.342.337.485.094.06.189.134.308.163.123.046.21.051.382.064.103-.017.178-.011.319-.061.135-.032.226-.106.321-.166.175-.143.287-.324.337-.486.061-.158.046-.306.033-.395l-.035-.139-.062.127c-.026.079-.104.178-.185.275-.072.108-.209.179-.33.25l-.194.065-.256.033-.192-.029-.207-.069c-.121-.071-.258-.142-.33-.25-.168-.179-.238-.413-.244-.402z" opacity=".6"/><path fill="#FFC933" d="M-30 26.5c0-1.105-.895-2-2-2s-2 .895-2 2 .895 2 2 2 2-.895 2-2z"/><path fill="#2ECC71" d="M-24 26.5c0-1.105-.895-2-2-2s-2 .895-2 2 .895 2 2 2 2-.895 2-2z"/><path fill="#75C3F7" d="M-40 16h80v1h-80zM-40 8h80v1h-80zM-40 0h80v1h-80zM-40-8h80v1h-80zM-40-16h80v1h-80zM-40-24h80v1h-80zM19 21v-49h1v49zM27 21v-49h1v49zM35 21v-49h1v49zM11 21v-49h1v49zM3 21v-49h1v49zM-5 21v-49h1v49zM-13 21v-49h1v49zM-21 21v-49h1v49zM-29 21v-49h1v49zM-37 21v-49h1v49z"/><path opacity=".08" d="M41 21h-82v1h82z"/><path fill="#fff" d="M-33 26.5l-.035.139c-.016.075-.028.241.033.396.05.162.163.342.337.485.094.06.189.134.308.163.123.046.21.051.382.064.103-.017.178-.011.319-.061.135-.032.226-.106.321-.166.175-.143.287-.324.337-.486.061-.158.046-.306.033-.395l-.035-.139-.062.127c-.026.079-.104.178-.185.275-.072.108-.209.179-.33.25l-.194.065-.256.033-.192-.029-.207-.069c-.121-.071-.258-.142-.33-.25-.168-.179-.238-.413-.244-.402zM-27 26.5l-.035.139c-.016.075-.028.241.033.396.05.162.163.342.337.485.094.06.189.134.308.163.123.046.21.051.382.064.103-.017.178-.011.319-.061.135-.032.226-.106.321-.166.175-.143.287-.324.337-.486.061-.158.046-.306.033-.395l-.035-.139-.062.127c-.026.079-.104.178-.185.275-.072.108-.209.179-.33.25l-.194.065-.256.033-.192-.029-.207-.069c-.121-.071-.258-.142-.33-.25-.168-.179-.238-.413-.244-.402z" opacity=".6"/></symbol><g><path d="M108 94c0 1.1-.9 2-2 2h-84c-1.1 0-2-.9-2-2v-56c0-1.1.9-2 2-2h84c1.1 0 2 .9 2 2v56z" opacity=".1"/><path fill="#fff" d="M108 92c0 1.1-.9 2-2 2h-84c-1.1 0-2-.9-2-2v-56c0-1.1.9-2 2-2h84c1.1 0 2 .9 2 2v56z"/><path fill="#92C8F4" d="M106 42v49c0 .552-.448 1-1 1h-82c-.552 0-1-.448-1-1v-49h84z"/><path d="M67 66c0 .552-.448 1-1 1h-32c-.552 0-1-.448-1-1v-18c0-.552.448-1 1-1h32c.552 0 1 .448 1 1v18zM95 88c0 .552-.448 1-1 1h-20c-.552 0-1-.448-1-1v-40c0-.552.448-1 1-1h20c.552 0 1 .448 1 1v40zM67 88c0 .552-.448 1-1 1h-32c-.552 0-1-.448-1-1v-16c0-.552.448-1 1-1h32c.552 0 1 .448 1 1v16z" opacity=".1"/><path fill="#fff" d="M67 65c0 .552-.448 1-1 1h-32c-.552 0-1-.448-1-1v-18c0-.552.448-1 1-1h32c.552 0 1 .448 1 1v18zM95 87c0 .552-.448 1-1 1h-20c-.552 0-1-.448-1-1v-40c0-.552.448-1 1-1h20c.552 0 1 .448 1 1v40zM67 87c0 .552-.448 1-1 1h-32c-.552 0-1-.448-1-1v-16c0-.552.448-1 1-1h32c.552 0 1 .448 1 1v16z"/><path fill="#B7DBF7" d="M35 48h30v16h-30z"/><path opacity=".8" fill="#24CB7F" d="M44.93 51.488l-9.93 9.287v3.225h23z"/><circle fill="#FFF2D4" cx="59" cy="54" r="3"/><path fill="#E5E7E9" d="M77 50h14v2h-14zM77 54h14v2h-14zM77 58h14v2h-14zM77 62h8v2h-8zM77 70h14v2h-14zM77 74h14v2h-14zM77 78h14v2h-14zM77 82h8v2h-8z"/><path opacity=".8" fill="#FFBE2A" d="M57 75h4v10h-4z"/><path opacity=".8" fill="#24CB7F" d="M51 73h4v12h-4z"/><path opacity=".8" fill="#FA6855" d="M45 77h4v8h-4z"/><path fill="#6EB6F0" d="M39 73h4v12h-4z"/></g></svg>