<svg xmlns="http://www.w3.org/2000/svg" viewBox="0 0 64 64" enable-background="new 0 0 64 64"><g><path fill="#F2F3F4" d="M0 0h64v64h-64z"/><path fill="#D7DBDD" d="M30 28c0 1.1-.9 2-2 2h-19c-1.1 0-2-.9-2-2v-19c0-1.1.9-2 2-2h19c1.1 0 2 .9 2 2v19z"/><path fill="#fff" d="M29 28c0 .55-.45 1-1 1h-19c-.55 0-1-.45-1-1v-19c0-.55.45-1 1-1h19c.55 0 1 .45 1 1v19z"/><path fill="#D7DBDD" d="M11 23h3v3h-3zM15 23h3v3h-3zM19 23h3v3h-3zM23 23h3v3h-3zM11 19h3v3h-3zM15 19h3v3h-3zM19 19h3v3h-3zM23 19h3v3h-3zM11 15h3v3h-3zM15 15h3v3h-3zM19 15h3v3h-3zM23 15h3v3h-3zM11 11h15v3h-15zM57 28c0 1.1-.9 2-2 2h-19c-1.1 0-2-.9-2-2v-19c0-1.1.9-2 2-2h19c1.1 0 2 .9 2 2v19z"/><path fill="#fff" d="M56 28c0 .55-.45 1-1 1h-19c-.55 0-1-.45-1-1v-19c0-.55.45-1 1-1h19c.55 0 1 .45 1 1v19z"/><path fill="#D7DBDD" d="M30 55c0 1.1-.9 2-2 2h-19c-1.1 0-2-.9-2-2v-19c0-1.1.9-2 2-2h19c1.1 0 2 .9 2 2v19z"/><path fill="#fff" d="M29 55c0 .55-.45 1-1 1h-19c-.55 0-1-.45-1-1v-19c0-.55.45-1 1-1h19c.55 0 1 .45 1 1v19z"/><path fill="#D7DBDD" d="M57 55c0 1.1-.9 2-2 2h-19c-1.1 0-2-.9-2-2v-19c0-1.1.9-2 2-2h19c1.1 0 2 .9 2 2v19z"/><path fill="#fff" d="M56 55c0 .55-.45 1-1 1h-19c-.55 0-1-.45-1-1v-19c0-.55.45-1 1-1h19c.55 0 1 .45 1 1v19z"/><g fill="#D7DBDD"><ellipse cx="45.5" cy="45" rx="8.5" ry="6.5"/><path d="M44 51l-6 3 2-5.2"/></g><path fill="#D7DBDD" d="M55 14.25l-6.229 5.875-5.885-6.062-6.886 5.937v7.5c0 .276.224.5.5.5h18c.276 0 .5-.224.5-.5v-13.25z"/><path fill="#DEE1E3" d="M22.977 43.69c-.262 3.027-2.264 5.305-4.477 5.31-2.213-.005-4.215-2.283-4.477-5.31-.262-3.021 1.739-5.691 4.477-5.69 2.737-.001 4.74 2.669 4.477 5.69zM26 55c-.881-3-3.796-5.001-7.5-5-3.704-.001-6.619 2-7.5 5h15zM17 46h3v7h-3z"/></g></svg>