<svg xmlns="http://www.w3.org/2000/svg" viewBox="0 0 128 128" enable-background="new 0 0 128 128"><symbol viewBox="-42 -31 84 61"><path d="M42-29c0-1.105-.895-2-2-2h-80c-1.105 0-2 .895-2 2v56c0 1.105.895 2 2 2h80c1.105 0 2-.895 2-2v-56z" opacity=".12"/><path fill="#fff" d="M42-28c0-1.105-.895-2-2-2h-80c-1.105 0-2 .895-2 2v56c0 1.105.895 2 2 2h80c1.105 0 2-.895 2-2v-56z"/><linearGradient id="a" gradientUnits="userSpaceOnUse" y1="-29" x2="0" y2="22"><stop offset="0" stop-color="#53B4F5"/><stop offset="1" stop-color="#65BCF6"/></linearGradient><path fill="url(#a)" d="M41 22v-49.5c0-.55-.45-1.5-1-1.5h-80c-.55 0-1 .95-1 1.5v49.5"/><path fill="#FF6259" d="M-36 26.5c0-1.105-.895-2-2-2s-2 .895-2 2 .895 2 2 2 2-.895 2-2z"/><path fill="#fff" d="M-39 26.5l-.035.139c-.016.075-.028.241.033.396.05.162.163.342.337.485.094.06.189.134.308.163.123.046.21.051.382.064.103-.017.178-.011.319-.061.135-.032.226-.106.321-.166.175-.143.287-.324.337-.486.061-.158.046-.306.033-.395l-.035-.139-.062.127c-.026.079-.104.178-.185.275-.072.108-.209.179-.33.25l-.194.065-.256.033-.192-.029-.207-.069c-.121-.071-.258-.142-.33-.25-.168-.179-.238-.413-.244-.402z" opacity=".6"/><path fill="#FFC933" d="M-30 26.5c0-1.105-.895-2-2-2s-2 .895-2 2 .895 2 2 2 2-.895 2-2z"/><path fill="#2ECC71" d="M-24 26.5c0-1.105-.895-2-2-2s-2 .895-2 2 .895 2 2 2 2-.895 2-2z"/><path fill="#75C3F7" d="M-40 16h80v1h-80zM-40 8h80v1h-80zM-40 0h80v1h-80zM-40-8h80v1h-80zM-40-16h80v1h-80zM-40-24h80v1h-80zM19 21v-49h1v49zM27 21v-49h1v49zM35 21v-49h1v49zM11 21v-49h1v49zM3 21v-49h1v49zM-5 21v-49h1v49zM-13 21v-49h1v49zM-21 21v-49h1v49zM-29 21v-49h1v49zM-37 21v-49h1v49z"/><path opacity=".08" d="M41 21h-82v1h82z"/><path fill="#fff" d="M-33 26.5l-.035.139c-.016.075-.028.241.033.396.05.162.163.342.337.485.094.06.189.134.308.163.123.046.21.051.382.064.103-.017.178-.011.319-.061.135-.032.226-.106.321-.166.175-.143.287-.324.337-.486.061-.158.046-.306.033-.395l-.035-.139-.062.127c-.026.079-.104.178-.185.275-.072.108-.209.179-.33.25l-.194.065-.256.033-.192-.029-.207-.069c-.121-.071-.258-.142-.33-.25-.168-.179-.238-.413-.244-.402zM-27 26.5l-.035.139c-.016.075-.028.241.033.396.05.162.163.342.337.485.094.06.189.134.308.163.123.046.21.051.382.064.103-.017.178-.011.319-.061.135-.032.226-.106.321-.166.175-.143.287-.324.337-.486.061-.158.046-.306.033-.395l-.035-.139-.062.127c-.026.079-.104.178-.185.275-.072.108-.209.179-.33.25l-.194.065-.256.033-.192-.029-.207-.069c-.121-.071-.258-.142-.33-.25-.168-.179-.238-.413-.244-.402z" opacity=".6"/></symbol><g><path opacity=".1" d="M65.325 55.409c.729-1.758 1.234-3.614 1.488-5.528-.945-.303-1.926-.611-2.924-.921.135-1.291.144-2.604.006-3.924.993-.309 1.97-.615 2.911-.917-.125-.937-.305-1.877-.556-2.814-.251-.938-.565-1.841-.926-2.715-.965.209-1.964.432-2.978.661-.542-1.219-1.206-2.352-1.965-3.399.708-.766 1.402-1.522 2.068-2.255-1.176-1.53-2.542-2.885-4.052-4.043-.736.668-1.494 1.364-2.262 2.074-1.062-.768-2.198-1.422-3.392-1.956.231-1.021.455-2.026.666-2.998-1.758-.729-3.614-1.234-5.527-1.488-.303.945-.611 1.926-.921 2.924-1.291-.135-2.604-.144-3.924-.006-.309-.993-.615-1.97-.917-2.911-.937.125-1.877.305-2.814.556-.938.251-1.841.565-2.715.926.209.965.432 1.964.661 2.978-1.218.542-2.352 1.206-3.399 1.965-.766-.708-1.522-1.402-2.255-2.068-1.53 1.176-2.885 2.542-4.043 4.052.668.736 1.365 1.494 2.074 2.262-.768 1.062-1.422 2.198-1.956 3.392-1.021-.231-2.027-.455-2.998-.666-.729 1.758-1.234 3.614-1.488 5.527.945.303 1.926.61 2.924.92-.135 1.291-.144 2.604-.006 3.925-.993.309-1.97.615-2.911.917.125.937.305 1.877.556 2.814.251.938.565 1.841.926 2.715.965-.209 1.964-.432 2.978-.661.542 1.218 1.206 2.352 1.965 3.399-.708.766-1.402 1.522-2.068 2.255 1.176 1.53 2.542 2.885 4.052 4.043.736-.668 1.494-1.365 2.262-2.074 1.062.768 2.198 1.422 3.392 1.956-.231 1.021-.455 2.027-.666 2.998 1.758.729 3.614 1.234 5.528 1.488.303-.945.611-1.926.92-2.923 1.291.135 2.604.144 3.925.006.309.993.615 1.97.917 2.911.937-.125 1.877-.305 2.814-.556.938-.251 1.841-.565 2.715-.926-.209-.965-.432-1.964-.661-2.978 1.219-.542 2.352-1.206 3.399-1.965.766.708 1.522 1.402 2.255 2.068 1.53-1.176 2.885-2.542 4.043-4.052-.668-.736-1.364-1.494-2.074-2.262.768-1.062 1.422-2.198 1.956-3.392 1.02.231 2.026.456 2.997.666zm-15.242-3.605c1.185-1.254 1.917-2.942 1.917-4.804 0-.305-.026-.604-.064-.899l8.873-1.446c.113.768.191 1.546.191 2.345 0 4.362-1.75 8.311-4.58 11.197l-6.337-6.393zm-16.503 6.393c-2.83-2.886-4.58-6.835-4.58-11.197 0-.799.078-1.577.191-2.345l8.873 1.446c-.038.295-.064.594-.064.899 0 1.862.732 3.55 1.918 4.804l-6.338 6.393zm8.764-26.959l1.367 8.885c-2.097.391-3.866 1.712-4.857 3.524l-8.032-4.047c2.279-4.357 6.503-7.521 11.522-8.362zm16.834 8.362l-8.032 4.048c-.991-1.812-2.76-3.133-4.857-3.524l1.367-8.885c5.019.84 9.243 4.004 11.522 8.361zm-17.178 7.4c0-1.657 1.343-3 3-3s3 1.343 3 3-1.343 3-3 3-3-1.343-3-3zm3 16c-2.56 0-4.971-.617-7.117-1.686l4.119-7.996c.91.433 1.924.682 2.998.682 1.074 0 2.088-.249 2.998-.682l4.119 7.996c-2.146 1.069-4.557 1.686-7.117 1.686z"/><path fill="#fff" d="M46 40h-2l-2-13h6z"/><path fill="#F2F3F4" d="M45 30c.855 0 1.688.088 2.504.226l.496-3.226h-6l.496 3.226c.816-.138 1.649-.226 2.504-.226z"/><path fill="#fff" d="M40.554 42.504l-.618 1.902-12.982-2.115 1.854-5.706z"/><path fill="#F2F3F4" d="M30.734 40.365c.264-.813.605-1.578.988-2.312l-2.914-1.469-1.854 5.706 3.221.525c.121-.818.295-1.637.559-2.45z"/><path fill="#fff" d="M41.252 48.457l1.618 1.176-6.023 11.693-4.854-3.527z"/><path fill="#F2F3F4" d="M36.183 57.135c-.692-.503-1.314-1.063-1.893-1.654l-2.297 2.318 4.854 3.527 1.494-2.901c-.74-.369-1.466-.787-2.158-1.29z"/><path fill="#fff" d="M47.13 49.633l1.618-1.176 9.259 9.342-4.854 3.527z"/><path fill="#F2F3F4" d="M53.817 57.135c-.692.503-1.417.921-2.158 1.289l1.494 2.901 4.854-3.527-2.297-2.318c-.579.592-1.201 1.153-1.893 1.655z"/><path fill="#fff" d="M50.064 44.406l-.618-1.902 11.746-5.919 1.854 5.706z"/><path fill="#F2F3F4" d="M59.266 40.365c.264.813.438 1.632.559 2.451l3.221-.525-1.854-5.706-2.914 1.469c.382.733.724 1.498.988 2.311z"/><path fill="#fff" d="M65.325 53.409c.729-1.758 1.234-3.614 1.488-5.528-.945-.303-1.926-.611-2.924-.921.135-1.291.144-2.604.006-3.924.993-.309 1.97-.615 2.911-.917-.125-.937-.305-1.877-.556-2.814-.251-.938-.565-1.841-.926-2.715-.965.209-1.964.432-2.978.661-.542-1.219-1.206-2.352-1.965-3.399.708-.766 1.402-1.522 2.068-2.255-1.176-1.53-2.542-2.885-4.052-4.043-.736.668-1.494 1.364-2.262 2.074-1.062-.768-2.198-1.422-3.392-1.956.231-1.021.455-2.026.666-2.998-1.758-.729-3.614-1.234-5.527-1.488-.303.945-.611 1.926-.921 2.924-1.291-.135-2.604-.144-3.924-.006-.309-.993-.615-1.97-.917-2.911-.937.125-1.877.305-2.814.556-.938.251-1.841.565-2.715.926.209.965.432 1.964.661 2.978-1.218.542-2.352 1.206-3.399 1.965-.766-.708-1.522-1.402-2.255-2.068-1.53 1.176-2.885 2.542-4.043 4.052.668.736 1.365 1.494 2.074 2.262-.768 1.062-1.422 2.198-1.956 3.392-1.021-.231-2.027-.455-2.998-.666-.729 1.758-1.234 3.614-1.488 5.527.945.303 1.926.61 2.924.92-.135 1.291-.144 2.604-.006 3.925-.993.309-1.97.615-2.911.917.125.937.305 1.877.556 2.814.251.938.565 1.841.926 2.715.965-.209 1.964-.432 2.978-.661.542 1.218 1.206 2.352 1.965 3.399-.708.766-1.402 1.522-2.068 2.255 1.176 1.53 2.542 2.885 4.052 4.043.736-.668 1.494-1.365 2.262-2.074 1.062.768 2.198 1.422 3.392 1.956-.231 1.021-.455 2.027-.666 2.998 1.758.729 3.614 1.234 5.528 1.488.303-.945.611-1.926.92-2.923 1.291.135 2.604.144 3.925.006.309.993.615 1.97.917 2.911.937-.125 1.877-.305 2.814-.556.938-.251 1.841-.565 2.715-.926-.209-.965-.432-1.964-.661-2.978 1.219-.542 2.352-1.206 3.399-1.965.766.708 1.522 1.402 2.255 2.068 1.53-1.176 2.885-2.542 4.043-4.052-.668-.736-1.364-1.494-2.074-2.262.768-1.062 1.422-2.198 1.956-3.392 1.02.231 2.026.456 2.997.666zm-20.325 7.591c-8.837 0-16-7.163-16-16s7.163-16 16-16 16 7.163 16 16-7.163 16-16 16zM45 38c-3.866 0-7 3.134-7 7s3.134 7 7 7 7-3.134 7-7-3.134-7-7-7zm0 10c-1.657 0-3-1.343-3-3s1.343-3 3-3 3 1.343 3 3-1.343 3-3 3z"/><path opacity=".1" d="M107.147 59.484c1.084-.316 2.086-.628 2.966-.933-.048-.609-.121-1.221-.229-1.835-.108-.614-.249-1.214-.413-1.802-.932.015-1.98.064-3.107.138-.397-1.219-.926-2.399-1.613-3.502.777-.809 1.487-1.576 2.091-2.273-.346-.503-.715-.997-1.116-1.475-.401-.478-.823-.927-1.258-1.355-.794.476-1.676 1.044-2.612 1.672-.475-.426-.971-.835-1.507-1.211-.535-.374-1.088-.7-1.649-1 .268-1.094.497-2.115.674-3.028-.551-.263-1.118-.506-1.703-.719-.586-.213-1.176-.391-1.767-.544-.45.81-.929 1.736-1.425 2.742-1.27-.267-2.558-.361-3.838-.317-.316-1.084-.628-2.086-.933-2.966-.609.048-1.221.121-1.835.229-.614.108-1.214.249-1.802.413.015.932.064 1.98.138 3.107-1.219.397-2.399.926-3.502 1.613-.809-.777-1.576-1.487-2.273-2.091-.504.346-.997.715-1.475 1.116-.478.401-.927.823-1.355 1.258.476.794 1.044 1.676 1.672 2.612-.426.475-.835.971-1.211 1.507-.374.535-.7 1.088-1 1.649-1.094-.268-2.115-.497-3.028-.674-.263.551-.506 1.118-.719 1.703-.213.586-.391 1.176-.544 1.767.81.45 1.736.929 2.742 1.425-.267 1.27-.361 2.558-.317 3.838-1.084.316-2.086.628-2.966.933.048.609.121 1.221.229 1.835.108.614.249 1.214.413 1.802.932-.015 1.98-.064 3.107-.138.397 1.219.926 2.399 1.613 3.502-.777.809-1.487 1.576-2.091 2.273.346.503.715.997 1.116 1.475.401.478.823.927 1.258 1.355.794-.476 1.676-1.044 2.612-1.672.475.426.971.835 1.507 1.211.535.374 1.088.7 1.649 1-.268 1.094-.497 2.115-.674 3.028.551.263 1.118.506 1.703.719.586.213 1.176.391 1.767.544.45-.81.929-1.736 1.425-2.742 1.27.267 2.558.361 3.838.317.316 1.084.628 2.086.933 2.966.609-.048 1.221-.121 1.835-.229.614-.108 1.214-.249 1.802-.413-.015-.932-.064-1.98-.138-3.107 1.219-.397 2.399-.926 3.502-1.613.809.777 1.576 1.487 2.273 2.091.503-.346.997-.715 1.475-1.116.478-.401.927-.823 1.355-1.258-.476-.794-1.044-1.676-1.672-2.612.426-.475.835-.971 1.211-1.507.374-.535.7-1.088 1-1.649 1.094.268 2.115.497 3.028.674.263-.551.506-1.118.719-1.703.213-.586.391-1.176.544-1.767-.81-.45-1.736-.929-2.742-1.425.268-1.27.361-2.558.317-3.838zm-8.517-10.118c5.346 3.743 6.998 10.777 4.164 16.445l-6.919-4.143c.136-.387.242-.789.28-1.217.2-2.284-1.18-4.324-3.226-5.095l1.275-7.974c1.544.37 3.047 1.019 4.426 1.984zm-9.449 10.475c.096-1.1 1.066-1.914 2.167-1.818 1.1.096 1.914 1.066 1.818 2.167-.096 1.1-1.066 1.914-2.167 1.818s-1.914-1.067-1.818-2.167zm-8.656-7.282c2.364-3.376 6.042-5.276 9.858-5.511l-.129 8.074c-2.148.404-3.862 2.173-4.061 4.457-.037.428-.003.842.064 1.247l-7.539 2.881c-1.085-3.666-.557-7.773 1.807-11.148zm3.192 18.105c-1.379-.966-2.503-2.156-3.379-3.48l7.043-3.918c.821.958 2 1.611 3.357 1.73 1.357.119 2.631-.32 3.606-1.121l6.25 5.077c-4.356 4.602-11.531 5.456-16.877 1.712z"/><path fill="#fff" d="M91.435 55.027c.424.037.818.161 1.17.353l1.781-11.14-3.985-.349-.18 11.28c.38-.128.79-.182 1.214-.144z"/><path fill="#F2F3F4" d="M90.367 46.063c.609-.044 1.225-.058 1.853-.003.628.055 1.232.176 1.824.324l.343-2.145-3.985-.349-.035 2.173z"/><path fill="#fff" d="M88.189 58.088l-10.549 4.031 1.69 3.625 9.864-5.487c-.609-.538-.984-1.314-1.005-2.169zM94.1 58.605c-.169.839-.673 1.537-1.367 1.962l8.761 7.117 2.294-3.277-9.688-5.802z"/><path fill="#F2F3F4" d="M81.228 64.689c-.342-.506-.663-1.031-.93-1.603-.266-.571-.463-1.155-.63-1.742l-2.028.775 1.69 3.625 1.898-1.055zM101.926 63.292c-.267.549-.561 1.09-.923 1.607s-.769.978-1.194 1.417l1.685 1.369 2.294-3.277-1.862-1.116z"/><path fill="#fff" d="M91.609 53.034c-2.751-.241-5.176 1.794-5.417 4.545-.241 2.751 1.794 5.176 4.545 5.417 2.751.241 5.176-1.794 5.417-4.545.241-2.751-1.794-5.176-4.545-5.417zm-.61 6.974c-1.1-.096-1.914-1.066-1.818-2.167.096-1.1 1.066-1.914 2.167-1.818 1.1.096 1.914 1.066 1.818 2.167-.096 1.1-1.066 1.914-2.167 1.818zM107.147 57.484c1.084-.316 2.086-.628 2.966-.933-.048-.609-.121-1.221-.229-1.835-.108-.614-.249-1.214-.413-1.802-.932.015-1.98.064-3.107.138-.397-1.219-.926-2.399-1.613-3.502.777-.809 1.487-1.576 2.091-2.273-.346-.503-.715-.997-1.116-1.475-.401-.478-.823-.927-1.258-1.355-.794.476-1.676 1.044-2.612 1.672-.475-.426-.971-.835-1.507-1.211-.535-.374-1.088-.7-1.649-1 .268-1.094.497-2.115.674-3.028-.551-.263-1.118-.506-1.703-.719-.586-.213-1.176-.391-1.767-.544-.45.81-.929 1.736-1.425 2.742-1.27-.267-2.558-.361-3.838-.317-.316-1.084-.628-2.086-.933-2.966-.609.048-1.221.121-1.835.229-.614.108-1.214.249-1.802.413.015.932.064 1.98.138 3.107-1.219.397-2.399.926-3.502 1.613-.809-.777-1.576-1.487-2.273-2.091-.503.346-.997.715-1.475 1.116-.478.401-.927.823-1.355 1.258.476.794 1.044 1.676 1.672 2.612-.426.475-.835.971-1.211 1.507-.374.535-.7 1.088-1 1.649-1.094-.268-2.115-.497-3.028-.674-.263.551-.506 1.118-.719 1.703-.213.586-.391 1.176-.544 1.767.81.45 1.736.929 2.742 1.425-.267 1.27-.361 2.558-.317 3.838-1.084.316-2.086.628-2.966.933.048.609.121 1.221.229 1.835.108.614.249 1.214.413 1.802.932-.015 1.98-.064 3.107-.138.397 1.219.926 2.399 1.613 3.502-.777.809-1.487 1.576-2.091 2.273.346.503.715.997 1.116 1.475.401.478.823.927 1.258 1.355.794-.476 1.676-1.044 2.612-1.672.475.426.971.835 1.507 1.211.535.374 1.088.7 1.649 1-.268 1.094-.497 2.115-.674 3.028.551.263 1.118.506 1.703.719.586.213 1.176.391 1.767.544.45-.81.929-1.736 1.425-2.742 1.27.267 2.558.361 3.838.317.316 1.084.628 2.086.933 2.966.609-.048 1.221-.121 1.835-.229.614-.108 1.214-.249 1.802-.413-.015-.932-.064-1.98-.138-3.107 1.219-.397 2.399-.926 3.502-1.613.809.777 1.576 1.487 2.273 2.091.503-.346.997-.715 1.475-1.116.478-.401.927-.823 1.355-1.258-.476-.794-1.044-1.676-1.672-2.612.426-.475.835-.971 1.211-1.507.374-.535.7-1.088 1-1.649 1.094.268 2.115.497 3.028.674.263-.551.506-1.118.719-1.703.213-.586.391-1.176.544-1.767-.81-.45-1.736-.929-2.742-1.425.268-1.27.361-2.558.317-3.838zm-23.43 11.18c-5.881-4.118-7.311-12.224-3.192-18.105 4.118-5.881 12.224-7.311 18.105-3.193s7.311 12.224 3.192 18.105c-4.118 5.882-12.224 7.311-18.105 3.193z"/><path opacity=".1" d="M61.321 108.83c.496 1.006.975 1.932 1.425 2.742.591-.153 1.181-.331 1.767-.544.586-.213 1.152-.456 1.703-.719-.176-.913-.406-1.934-.674-3.028.561-.3 1.114-.626 1.649-1 .536-.375 1.032-.785 1.507-1.211.936.628 1.818 1.196 2.612 1.672.436-.428.858-.877 1.258-1.355.401-.478.77-.971 1.116-1.475-.604-.696-1.314-1.464-2.091-2.273.687-1.103 1.216-2.283 1.613-3.502 1.127.074 2.175.123 3.107.138.163-.589.304-1.189.413-1.802.108-.614.181-1.226.229-1.835-.881-.305-1.882-.617-2.966-.933.044-1.28-.05-2.568-.317-3.838 1.006-.496 1.932-.975 2.742-1.425-.153-.591-.331-1.181-.544-1.767-.213-.586-.456-1.152-.719-1.703-.913.176-1.934.406-3.028.674-.3-.561-.626-1.114-1-1.649-.375-.536-.785-1.032-1.211-1.507.628-.936 1.196-1.818 1.672-2.612-.428-.436-.877-.858-1.355-1.258-.478-.401-.971-.77-1.475-1.116-.696.604-1.464 1.314-2.273 2.091-1.103-.687-2.283-1.216-3.502-1.613.074-1.127.123-2.175.138-3.107-.589-.163-1.189-.304-1.802-.413-.614-.108-1.226-.181-1.835-.229-.305.881-.617 1.882-.933 2.966-1.28-.044-2.568.05-3.838.317-.496-1.006-.975-1.932-1.425-2.742-.591.153-1.181.331-1.767.544-.586.213-1.152.456-1.703.719.176.913.406 1.934.674 3.028-.561.3-1.114.626-1.649 1-.536.375-1.032.785-1.507 1.211-.936-.628-1.818-1.196-2.612-1.672-.436.428-.858.877-1.258 1.355-.401.478-.77.971-1.116 1.475.604.696 1.314 1.464 2.091 2.273-.687 1.103-1.216 2.283-1.613 3.502-1.127-.074-2.175-.123-3.107-.138-.163.589-.304 1.189-.413 1.802-.108.614-.181 1.226-.229 1.835.881.305 1.882.617 2.966.933-.044 1.28.05 2.568.317 3.838-1.006.496-1.932.975-2.742 1.425.153.591.331 1.181.544 1.767.213.586.456 1.152.719 1.703.913-.176 1.934-.406 3.028-.674.3.561.626 1.114 1 1.649.375.536.785 1.032 1.211 1.507-.628.936-1.196 1.818-1.672 2.612.428.436.877.858 1.355 1.258.478.401.971.77 1.475 1.116.696-.604 1.464-1.314 2.273-2.091 1.103.687 2.283 1.216 3.502 1.613-.074 1.127-.123 2.175-.138 3.107.589.163 1.188.304 1.802.413.614.108 1.226.181 1.835.229.305-.881.617-1.882.933-2.966 1.281.044 2.569-.049 3.838-.317zm-15.939-12.626l7.974-1.275c.771 2.045 2.811 3.426 5.095 3.226.428-.037.83-.144 1.217-.28l4.143 6.919c-5.667 2.834-12.701 1.182-16.445-4.164-.965-1.379-1.614-2.882-1.984-4.426zm14.626-3.205c.096 1.1-.718 2.07-1.818 2.167-1.1.096-2.07-.718-2.167-1.818s.718-2.07 1.818-2.167c1.1-.096 2.07.718 2.167 1.818zm1.699-12.281l-2.881 7.539c-.405-.067-.819-.102-1.247-.064-2.284.2-4.054 1.913-4.457 4.061l-8.074.129c.235-3.817 2.135-7.495 5.511-9.858 3.375-2.364 7.482-2.892 11.148-1.807zm5.245 21.876l-5.077-6.25c.801-.975 1.239-2.25 1.121-3.606-.119-1.357-.772-2.535-1.73-3.357l3.918-7.043c1.324.875 2.515 1.999 3.48 3.379 3.744 5.346 2.89 12.521-1.712 16.877z"/><path fill="#fff" d="M55.027 91.435c.037.424.161.818.353 1.17l-11.14 1.781-.349-3.985 11.28-.18c-.128.38-.182.79-.144 1.214z"/><path fill="#F2F3F4" d="M46.063 90.367c-.044.609-.058 1.225-.003 1.853.055.628.176 1.232.324 1.824l-2.145.343-.349-3.985 2.173-.035z"/><path fill="#fff" d="M58.088 88.189l4.031-10.549 3.625 1.69-5.487 9.864c-.538-.609-1.314-.984-2.169-1.005zM58.605 94.1c.839-.169 1.537-.673 1.962-1.367l7.117 8.761-3.277 2.294-5.802-9.688z"/><path fill="#F2F3F4" d="M64.689 81.228c-.506-.342-1.031-.663-1.603-.93-.571-.266-1.155-.463-1.742-.63l.775-2.028 3.625 1.69-1.055 1.898zM63.292 101.926c.549-.267 1.09-.561 1.607-.923s.978-.769 1.417-1.194l1.369 1.685-3.277 2.294-1.116-1.862z"/><path fill="#fff" d="M58.451 96.155c2.751-.241 4.786-2.666 4.545-5.417-.241-2.751-2.666-4.786-5.417-4.545-2.751.241-4.786 2.666-4.545 5.417.241 2.75 2.666 4.785 5.417 4.545zm-.261-2.989c-1.1.096-2.07-.718-2.167-1.818-.096-1.1.718-2.07 1.818-2.167 1.1-.096 2.07.718 2.167 1.818s-.718 2.071-1.818 2.167zM61.321 106.83c.496 1.006.975 1.932 1.425 2.742.591-.153 1.181-.331 1.767-.544.586-.213 1.152-.456 1.703-.719-.176-.913-.406-1.934-.674-3.028.561-.3 1.114-.626 1.649-1 .536-.375 1.032-.785 1.507-1.211.936.628 1.818 1.196 2.612 1.672.436-.428.858-.877 1.258-1.355.401-.478.77-.971 1.116-1.475-.604-.696-1.314-1.464-2.091-2.273.687-1.103 1.216-2.283 1.613-3.502 1.127.074 2.175.123 3.107.138.163-.589.304-1.189.413-1.802.108-.614.181-1.226.229-1.835-.881-.305-1.882-.617-2.966-.933.044-1.28-.05-2.568-.317-3.838 1.006-.496 1.932-.975 2.742-1.425-.153-.591-.331-1.181-.544-1.767-.213-.586-.456-1.152-.719-1.703-.913.176-1.934.406-3.028.674-.3-.561-.626-1.114-1-1.649-.375-.536-.785-1.032-1.211-1.507.628-.936 1.196-1.818 1.672-2.612-.428-.436-.877-.858-1.355-1.258-.478-.401-.971-.77-1.475-1.116-.696.604-1.464 1.314-2.273 2.091-1.103-.687-2.283-1.216-3.502-1.613.074-1.127.123-2.175.138-3.107-.589-.163-1.189-.304-1.802-.413-.614-.108-1.226-.181-1.835-.229-.305.881-.617 1.882-.933 2.966-1.28-.044-2.568.05-3.838.317-.496-1.006-.975-1.932-1.425-2.742-.591.153-1.181.331-1.767.544-.586.213-1.152.456-1.703.719.176.913.406 1.934.674 3.028-.561.3-1.114.626-1.649 1-.536.375-1.032.785-1.507 1.211-.936-.628-1.818-1.196-2.612-1.672-.436.428-.858.877-1.258 1.355-.401.478-.77.971-1.116 1.475.604.696 1.314 1.464 2.091 2.273-.687 1.103-1.216 2.283-1.613 3.502-1.127-.074-2.175-.123-3.107-.138-.163.589-.304 1.189-.413 1.802-.108.614-.181 1.226-.229 1.835.881.305 1.882.617 2.966.933-.044 1.28.05 2.568.317 3.838-1.006.496-1.932.975-2.742 1.425.153.591.331 1.181.544 1.767.213.586.456 1.152.719 1.703.913-.176 1.934-.406 3.028-.674.3.561.626 1.114 1 1.649.375.536.785 1.032 1.211 1.507-.628.936-1.196 1.818-1.672 2.612.428.436.877.858 1.355 1.258.478.401.971.77 1.475 1.116.696-.604 1.464-1.314 2.273-2.091 1.103.687 2.283 1.216 3.502 1.613-.074 1.127-.123 2.175-.138 3.107.589.163 1.188.304 1.802.413.614.108 1.226.181 1.835.229.305-.881.617-1.882.933-2.966 1.281.044 2.569-.049 3.838-.317zm4.151-5.007c-5.881 4.118-13.987 2.689-18.105-3.192s-2.689-13.987 3.193-18.105c5.881-4.118 13.987-2.689 18.105 3.192 4.117 5.88 2.688 13.986-3.193 18.105z"/></g></svg>