<svg xmlns="http://www.w3.org/2000/svg" viewBox="0 0 128 128" enable-background="new 0 0 128 128"><symbol viewBox="-42 -31 84 61"><path d="M42-29c0-1.105-.895-2-2-2h-80c-1.105 0-2 .895-2 2v56c0 1.105.895 2 2 2h80c1.105 0 2-.895 2-2v-56z" opacity=".12"/><path fill="#fff" d="M42-28c0-1.105-.895-2-2-2h-80c-1.105 0-2 .895-2 2v56c0 1.105.895 2 2 2h80c1.105 0 2-.895 2-2v-56z"/><linearGradient id="a" gradientUnits="userSpaceOnUse" y1="-29" x2="0" y2="22"><stop offset="0" stop-color="#53B4F5"/><stop offset="1" stop-color="#65BCF6"/></linearGradient><path fill="url(#a)" d="M41 22v-49.5c0-.55-.45-1.5-1-1.5h-80c-.55 0-1 .95-1 1.5v49.5"/><path fill="#FF6259" d="M-36 26.5c0-1.105-.895-2-2-2s-2 .895-2 2 .895 2 2 2 2-.895 2-2z"/><path fill="#fff" d="M-39 26.5l-.035.139c-.016.075-.028.241.033.396.05.162.163.342.337.485.094.06.189.134.308.163.123.046.21.051.382.064.103-.017.178-.011.319-.061.135-.032.226-.106.321-.166.175-.143.287-.324.337-.486.061-.158.046-.306.033-.395l-.035-.139-.062.127c-.026.079-.104.178-.185.275-.072.108-.209.179-.33.25l-.194.065-.256.033-.192-.029-.207-.069c-.121-.071-.258-.142-.33-.25-.168-.179-.238-.413-.244-.402z" opacity=".6"/><path fill="#FFC933" d="M-30 26.5c0-1.105-.895-2-2-2s-2 .895-2 2 .895 2 2 2 2-.895 2-2z"/><path fill="#2ECC71" d="M-24 26.5c0-1.105-.895-2-2-2s-2 .895-2 2 .895 2 2 2 2-.895 2-2z"/><path fill="#75C3F7" d="M-40 16h80v1h-80zM-40 8h80v1h-80zM-40 0h80v1h-80zM-40-8h80v1h-80zM-40-16h80v1h-80zM-40-24h80v1h-80zM19 21v-49h1v49zM27 21v-49h1v49zM35 21v-49h1v49zM11 21v-49h1v49zM3 21v-49h1v49zM-5 21v-49h1v49zM-13 21v-49h1v49zM-21 21v-49h1v49zM-29 21v-49h1v49zM-37 21v-49h1v49z"/><path opacity=".08" d="M41 21h-82v1h82z"/><path fill="#fff" d="M-33 26.5l-.035.139c-.016.075-.028.241.033.396.05.162.163.342.337.485.094.06.189.134.308.163.123.046.21.051.382.064.103-.017.178-.011.319-.061.135-.032.226-.106.321-.166.175-.143.287-.324.337-.486.061-.158.046-.306.033-.395l-.035-.139-.062.127c-.026.079-.104.178-.185.275-.072.108-.209.179-.33.25l-.194.065-.256.033-.192-.029-.207-.069c-.121-.071-.258-.142-.33-.25-.168-.179-.238-.413-.244-.402zM-27 26.5l-.035.139c-.016.075-.028.241.033.396.05.162.163.342.337.485.094.06.189.134.308.163.123.046.21.051.382.064.103-.017.178-.011.319-.061.135-.032.226-.106.321-.166.175-.143.287-.324.337-.486.061-.158.046-.306.033-.395l-.035-.139-.062.127c-.026.079-.104.178-.185.275-.072.108-.209.179-.33.25l-.194.065-.256.033-.192-.029-.207-.069c-.121-.071-.258-.142-.33-.25-.168-.179-.238-.413-.244-.402z" opacity=".6"/></symbol><g><path d="M108 94c0 1.1-.9 2-2 2h-84c-1.1 0-2-.9-2-2v-56c0-1.1.9-2 2-2h84c1.1 0 2 .9 2 2v56z" opacity=".1"/><path fill="#fff" d="M108 92c0 1.1-.9 2-2 2h-84c-1.1 0-2-.9-2-2v-56c0-1.1.9-2 2-2h84c1.1 0 2 .9 2 2v56z"/><path fill="#D7DBDD" d="M106 42v49c0 .552-.448 1-1 1h-58c-.552 0-1-.448-1-1v-49h60zM42 42v49c0 .552-.149 1-.333 1h-19.334c-.184 0-.333-.448-.333-1v-49h20z"/><path opacity=".05" d="M106 42v1.96c0 .022-.448.04-1 .04h-58c-.552 0-1-.018-1-.04v-1.96h60z"/><path fill="#fff" d="M62 50h12v2h-12zM62 86h8v2h-8zM65 54h12v2h-12zM65 58h8v2h-8zM65 62h10v2h-10zM79 54h16v2h-16zM79 58h10v2h-10zM79 62h14v2h-14z"/><path fill="#BDC3C7" d="M50 50h4v2h-4z"/><path fill="#fff" d="M62 46h20v2h-20zM84 46h4v2h-4z"/><path fill="#BDC3C7" d="M50 46h4v2h-4zM50 54h4v2h-4zM50 58h4v2h-4z"/><path fill="#fff" d="M65 66h8v2h-8zM79 66h10v2h-10z"/><path fill="#BDC3C7" d="M50 66h4v2h-4zM50 62h4v2h-4z"/><path fill="#fff" d="M65 70h12v2h-12zM65 74h8v2h-8zM65 78h10v2h-10zM79 70h16v2h-16zM79 74h10v2h-10zM79 78h14v2h-14z"/><path fill="#BDC3C7" d="M50 70h4v2h-4z"/><path fill="#fff" d="M65 82h12v2h-12z"/><path fill="#BDC3C7" d="M26 50h8v2h-8zM26 86h8v2h-8zM26 54h12v2h-12zM26 58h8v2h-8zM26 62h10v2h-10zM26 46h12v2h-12zM26 66h8v2h-8zM26 70h12v2h-12zM26 74h8v2h-8zM26 78h10v2h-10zM26 82h12v2h-12z"/><path fill="#fff" d="M79 82h16v2h-16z"/><path fill="#BDC3C7" d="M50 82h4v2h-4zM50 74h4v2h-4zM50 78h4v2h-4zM50 86h4v2h-4zM57 46h2v42h-2z"/><path opacity=".1" fill="#5D5D5D" d="M44 73c-9.925 0-18 8.075-18 18 0 3.516 1.029 6.79 2.779 9.565l-11.607 11.607c-.755.755-1.172 1.759-1.172 2.828s.417 2.073 1.171 2.828c.755.755 1.76 1.172 2.829 1.172s2.074-.417 2.828-1.172l11.607-11.607c2.775 1.75 6.049 2.779 9.565 2.779 9.925 0 18-8.075 18-18s-8.075-18-18-18zm0 33c-2.689 0-5.206-.716-7.388-1.955l-5.656-5.656c-1.24-2.183-1.956-4.7-1.956-7.389 0-8.284 6.716-15 15-15s15 6.716 15 15c0 8.284-6.716 15-15 15z"/><path fill="#fff" d="M44 71c-9.925 0-18 8.075-18 18 0 3.516 1.029 6.79 2.779 9.565l-11.607 11.607c-.755.755-1.172 1.759-1.172 2.828s.417 2.073 1.171 2.828c.755.755 1.76 1.172 2.829 1.172s2.074-.417 2.828-1.172l11.607-11.607c2.775 1.75 6.049 2.779 9.565 2.779 9.925 0 18-8.075 18-18s-8.075-18-18-18zm0 33c-2.689 0-5.206-.716-7.388-1.955l-5.656-5.656c-1.24-2.183-1.956-4.7-1.956-7.389 0-8.284 6.716-15 15-15s15 6.716 15 15c0 8.284-6.716 15-15 15z"/><path fill="#5C7185" d="M20 115c-.512 0-1.024-.195-1.414-.586-.781-.781-.781-2.047 0-2.828l14-14c.78-.781 2.048-.781 2.828 0 .781.781.781 2.047 0 2.828l-14 14c-.39.391-.902.586-1.414.586z"/><path d="M32.586 97.586l-3.214 3.214c.822 1.057 1.771 2.006 2.828 2.828l3.214-3.214c.781-.781.781-2.047 0-2.828-.78-.781-2.048-.781-2.828 0z" opacity=".1"/><path fill="#5C7185" d="M44 77c6.617 0 12 5.383 12 12s-5.383 12-12 12-12-5.383-12-12 5.383-12 12-12m0-4c-8.837 0-16 7.163-16 16s7.163 16 16 16 16-7.163 16-16-7.163-16-16-16z"/><path opacity=".4" fill="#fff" d="M44 77c6.617 0 12 5.383 12 12s-5.383 12-12 12-12-5.383-12-12 5.383-12 12-12"/></g></svg>