<svg xmlns="http://www.w3.org/2000/svg" viewBox="0 0 128 128" enable-background="new 0 0 128 128"><symbol viewBox="-42 -31 84 61"><path d="M42-29c0-1.105-.895-2-2-2h-80c-1.105 0-2 .895-2 2v56c0 1.105.895 2 2 2h80c1.105 0 2-.895 2-2v-56z" opacity=".12"/><path fill="#fff" d="M42-28c0-1.105-.895-2-2-2h-80c-1.105 0-2 .895-2 2v56c0 1.105.895 2 2 2h80c1.105 0 2-.895 2-2v-56z"/><linearGradient id="a" gradientUnits="userSpaceOnUse" y1="-29" x2="0" y2="22"><stop offset="0" stop-color="#53B4F5"/><stop offset="1" stop-color="#65BCF6"/></linearGradient><path fill="url(#a)" d="M41 22v-49.5c0-.55-.45-1.5-1-1.5h-80c-.55 0-1 .95-1 1.5v49.5"/><path fill="#FF6259" d="M-36 26.5c0-1.105-.895-2-2-2s-2 .895-2 2 .895 2 2 2 2-.895 2-2z"/><path fill="#fff" d="M-39 26.5l-.035.139c-.016.075-.028.241.033.396.05.162.163.342.337.485.094.06.189.134.308.163.123.046.21.051.382.064.103-.017.178-.011.319-.061.135-.032.226-.106.321-.166.175-.143.287-.324.337-.486.061-.158.046-.306.033-.395l-.035-.139-.062.127c-.026.079-.104.178-.185.275-.072.108-.209.179-.33.25l-.194.065-.256.033-.192-.029-.207-.069c-.121-.071-.258-.142-.33-.25-.168-.179-.238-.413-.244-.402z" opacity=".6"/><path fill="#FFC933" d="M-30 26.5c0-1.105-.895-2-2-2s-2 .895-2 2 .895 2 2 2 2-.895 2-2z"/><path fill="#2ECC71" d="M-24 26.5c0-1.105-.895-2-2-2s-2 .895-2 2 .895 2 2 2 2-.895 2-2z"/><path fill="#75C3F7" d="M-40 16h80v1h-80zm0-8h80v1h-80zm0-8h80v1h-80zm0-8h80v1h-80zm0-8h80v1h-80zm0-8h80v1h-80zm59 45v-49h1v49zm8 0v-49h1v49zm8 0v-49h1v49zm-24 0v-49h1v49zm-8 0v-49h1v49zm-8 0v-49h1v49zm-8 0v-49h1v49zm-8 0v-49h1v49zm-8 0v-49h1v49zm-8 0v-49h1v49z"/><path opacity=".08" d="M41 21h-82v1h82z"/><path fill="#fff" d="M-33 26.5l-.035.139c-.016.075-.028.241.033.396.05.162.163.342.337.485.094.06.189.134.308.163.123.046.21.051.382.064.103-.017.178-.011.319-.061.135-.032.226-.106.321-.166.175-.143.287-.324.337-.486.061-.158.046-.306.033-.395l-.035-.139-.062.127c-.026.079-.104.178-.185.275-.072.108-.209.179-.33.25l-.194.065-.256.033-.192-.029-.207-.069c-.121-.071-.258-.142-.33-.25-.168-.179-.238-.413-.244-.402zm6 0l-.035.139c-.016.075-.028.241.033.396.05.162.163.342.337.485.094.06.189.134.308.163.123.046.21.051.382.064.103-.017.178-.011.319-.061.135-.032.226-.106.321-.166.175-.143.287-.324.337-.486.061-.158.046-.306.033-.395l-.035-.139-.062.127c-.026.079-.104.178-.185.275-.072.108-.209.179-.33.25l-.194.065-.256.033-.192-.029-.207-.069c-.121-.071-.258-.142-.33-.25-.168-.179-.238-.413-.244-.402z" opacity=".6"/></symbol><path d="M100 87c0 1.1-.9 2-2 2h-76c-1.1 0-2-.9-2-2v-56c0-1.1.9-2 2-2h76c1.1 0 2 .9 2 2v56z" opacity=".1"/><path fill="#fff" d="M100 85c0 1.1-.9 2-2 2h-76c-1.1 0-2-.9-2-2v-56c0-1.1.9-2 2-2h76c1.1 0 2 .9 2 2v56z"/><path fill="#64788B" d="M98 35v49c8 .552 7.552 1 7 1h-82c-.552 0-1-.448-1-1v-49h76z"/><path opacity=".05" d="M98 35v1.96c0 .022-.448.04-1 .04h-74c-.552 0-1-.018-1-.04v-1.96h76z"/><path fill="#FF8983" d="M38 43h12v2h-12zm0 36h8v2h-8z"/><path fill="#92C8F4" d="M41 47h16v2h-16zm0 4h12v2h-12zm0 4h14v2h-14z"/><path fill="#FFE066" d="M59 47h20v2h-20zm0 4h14v2h-14zm0 4h18v2h-18z"/><path fill="#BDC3C7" d="M26 43h4v2h-4z"/><path fill="#FF8983" d="M38 39h20v2h-20zm22 0h4v2h-4z"/><path fill="#BDC3C7" d="M26 39h4v2h-4zm0 8h4v2h-4zm0 4h4v2h-4z"/><path fill="#92C8F4" d="M41 59h12v2h-12z"/><path fill="#FFE066" d="M59 59h14v2h-14z"/><path fill="#BDC3C7" d="M26 59h4v2h-4zm0-4h4v2h-4z"/><path fill="#92C8F4" d="M41 63h16v2h-16zm0 4h12v2h-12zm0 4h14v2h-14z"/><path fill="#FFE066" d="M59 63h20v2h-20zm0 4h14v2h-14zm0 4h18v2h-18z"/><path fill="#BDC3C7" d="M26 63h4v2h-4z"/><path fill="#92C8F4" d="M41 75h16v2h-16z"/><path fill="#FFE066" d="M59 75h20v2h-20z"/><path fill="#BDC3C7" d="M26 75h4v2h-4zm0-8h4v2h-4zm0 4h4v2h-4zm0 8h4v2h-4zm7-40h2v42h-2z"/><path d="M111 102c0 1.1-.9 2-2 2h-54c-1.1 0-2-.9-2-2v-40c0-1.1.9-2 2-2h54c1.1 0 2 .9 2 2v40z" opacity=".1"/><path fill="#fff" d="M111 100c0 1.1-.9 2-2 2h-54c-1.1 0-2-.9-2-2v-40c0-1.1.9-2 2-2h54c1.1 0 2 .9 2 2v40z"/><path fill="#53B4F5" d="M55 60h54v40h-54z"/><path opacity=".05" d="M96.368 96c4.177 0 7.562-3.748 7.562-7.941s-3.386-7.766-7.562-7.766l-.548-.032c.348-.967.548-2.048.548-3.136 0-5.031-4.063-9.132-9.075-9.132-4.241 0-7.792 2.913-8.787 6.86-1.004-.495-2.118-.803-3.312-.803-4.177 0-7.562 3.396-7.562 7.589 0 .626.097 1.224.239 1.806-.558-.171-1.138-.29-1.752-.29-3.341 0-6.05 3.067-6.05 6.422 0 3.354 2.709 6.422 6.05 6.422h30.249z"/><path fill="#fff" d="M96.368 94c4.177 0 7.562-3.748 7.562-7.941s-3.386-7.766-7.562-7.766l-.548-.032c.348-.967.548-2.048.548-3.136 0-5.031-4.063-9.132-9.075-9.132-4.241 0-7.792 2.913-8.787 6.86-1.004-.495-2.118-.803-3.312-.803-4.177 0-7.562 3.396-7.562 7.589 0 .626.097 1.224.239 1.806-.558-.171-1.138-.29-1.752-.29-3.341 0-6.05 3.067-6.05 6.422 0 3.354 2.709 6.422 6.05 6.422h30.249z"/><path d="M75.057 82l8.332-8.331 8.331 8.331zm4.943-3h6v11h-6z" fill="#FA6855"/></svg>