<svg xmlns="http://www.w3.org/2000/svg" viewBox="0 0 64 64" enable-background="new 0 0 64 64"><path fill="#fff" d="M54.302 55.712c-.181-1.597-1.301-2.93-2.842-3.385l-10.137-2.991c-1.528-.451-2.643-1.765-2.838-3.346l-.615-4.979c4.796-2.538 8.13-8.073 8.13-14.511 0-8.837-6.268-16-14-16s-14 7.163-14 16c0 6.435 3.332 11.968 8.124 14.508l-.61 4.904c-.195 1.571-1.299 2.879-2.815 3.336l-10.18 3.069c-1.531.461-2.639 1.79-2.82 3.378l-.942 8.305h46.487l-.942-8.288z"/><path fill="#F0F0F0" d="M32 42.5c-2.101 0-4.087-.544-5.876-1.492l-.124 1.003c1.831.953 3.861 1.489 6 1.489 2.137 0 4.163-.535 5.993-1.486l-.124-1.003c-1.786.946-3.77 1.489-5.869 1.489z"/><path fill="#B1B1B1" d="M54.799 55.655c-.205-1.8-1.46-3.295-3.198-3.808l-10.137-2.991c-1.338-.395-2.312-1.543-2.483-2.928l-.639-5.177c4.541-2.644 7.658-8.026 7.658-14.251 0-8.837-6.268-16-14-16s-14 7.163-14 16c0 6.222 3.114 11.602 7.653 14.248l-.634 5.102c-.171 1.373-1.138 2.52-2.463 2.919l-10.179 3.069c-1.724.519-2.97 2.011-3.172 3.8l-.945 8.305.993.113.944-8.305c.158-1.392 1.126-2.552 2.468-2.956l10.18-3.069c1.704-.514 2.947-1.986 3.167-3.753l.586-4.712c1.661.797 3.486 1.239 5.402 1.239 1.913 0 3.736-.441 5.397-1.236l.591 4.787c.22 1.779 1.473 3.257 3.192 3.764l10.137 2.991c1.352.399 2.328 1.562 2.487 2.962l.941 8.288.994-.113-.94-8.288zm-35.799-29.155c0-8.271 5.832-15 13-15s13 6.729 13 15-5.832 15-13 15-13-6.729-13-15z"/></svg>