<?xml version="1.0" encoding="utf-8"?>
<!-- Generator: Adobe Illustrator 18.1.1, SVG Export Plug-In . SVG Version: 6.00 Build 0)  -->
<svg version="1.1" xmlns="http://www.w3.org/2000/svg" xmlns:xlink="http://www.w3.org/1999/xlink" x="0px" y="0px"
	 viewBox="0 0 256 164" enable-background="new 0 0 256 164" xml:space="preserve">
<g id="source" display="none">
	<g display="inline">
		<path fill="#F5F5F5" d="M2,163.5c-0.827,0-1.5-0.673-1.5-1.5V2c0-0.827,0.673-1.5,1.5-1.5h252c0.827,0,1.5,0.673,1.5,1.5v160
			c0,0.827-0.673,1.5-1.5,1.5H2z"/>
		<path fill="#CCCCCC" d="M254,1c0.551,0,1,0.449,1,1v160c0,0.551-0.449,1-1,1H2c-0.551,0-1-0.449-1-1V2c0-0.551,0.449-1,1-1H254
			 M254,0H2C0.895,0,0,0.895,0,2v160c0,1.105,0.895,2,2,2h252c1.105,0,2-0.895,2-2V2C256,0.895,255.105,0,254,0L254,0z"/>
	</g>
	<g display="inline">
		<path fill="#FFFFFF" d="M186,140.504c0,0.826-0.67,1.496-1.496,1.496H72.496C71.67,142,71,141.33,71,140.504V24.496
			C71,23.67,71.67,23,72.496,23h112.008c0.826,0,1.496,0.67,1.496,1.496V140.504z"/>
		<path fill="#CCCCCC" d="M184,23c0.547,0,1,0.453,1,1v116c0,0.547-0.453,1-1,1H72c-0.547,0-1-0.453-1-1V24c0-0.547,0.453-1,1-1H184
			 M184,22H72c-1.1,0-2,0.9-2,2v116c0,1.1,0.9,2,2,2h112c1.1,0,2-0.9,2-2V24C186,22.9,185.1,22,184,22L184,22z"/>
	</g>
	<g display="inline">
		<path fill="#F5F5F5" d="M116.857,57.5c-0.193,0-0.357-0.164-0.357-0.357V34.857c0-0.193,0.164-0.357,0.357-0.357h22.286
			c0.193,0,0.357,0.164,0.357,0.357v22.286c0,0.193-0.164,0.357-0.357,0.357H116.857z"/>
		<path fill="#D6D6D6" d="M139,35v22h-22V35H139 M139.143,34h-22.286c-0.471,0-0.857,0.386-0.857,0.857v22.286
			c0,0.471,0.386,0.857,0.857,0.857h22.286c0.471,0,0.857-0.386,0.857-0.857V34.857C140,34.386,139.614,34,139.143,34L139.143,34z"
			/>
	</g>
	<g display="inline">
		<path fill="#FAFAFA" d="M175,93.522c0,0.264-0.214,0.478-0.478,0.478H81.478C81.214,94,81,93.786,81,93.522V83.478
			C81,83.214,81.214,83,81.478,83h93.045c0.264,0,0.478,0.214,0.478,0.478V93.522z"/>
		<path fill="#C8CACC" d="M174,83v10H81V83H174 M174,82H81c-0.55,0-1,0.45-1,1v10c0,0.55,0.45,1,1,1h93c0.55,0,1-0.45,1-1V83
			C175,82.45,174.55,82,174,82L174,82z"/>
	</g>
	<g display="inline">
		<path fill="#D6D6D6" d="M116,88.763c0,0.13-0.107,0.237-0.237,0.237H84.237C84.107,89,84,88.893,84,88.763v-1.526
			C84,87.107,84.107,87,84.237,87h31.526c0.13,0,0.237,0.107,0.237,0.237V88.763z"/>
	</g>
	<g display="inline">
		<path fill="#FAFAFA" d="M175,112.522c0,0.264-0.214,0.478-0.478,0.478H81.478c-0.264,0-0.478-0.214-0.478-0.478v-10.045
			c0-0.264,0.214-0.478,0.478-0.478h93.045c0.264,0,0.478,0.214,0.478,0.478V112.522z"/>
		<path fill="#C8CACC" d="M174,102v10H81v-10H174 M174,101H81c-0.55,0-1,0.45-1,1v10c0,0.55,0.45,1,1,1h93c0.55,0,1-0.45,1-1v-10
			C175,101.45,174.55,101,174,101L174,101z"/>
	</g>
	<g display="inline">
		<path fill="#C2C2C2" d="M176,130c0,0.55-0.45,1-1,1H81c-0.55,0-1-0.45-1-1v-9c0-0.55,0.45-1,1-1h94c0.55,0,1,0.45,1,1V130z"/>
	</g>
	
		<text transform="matrix(1 0 0 1 102.9458 73.1152)" display="inline" fill="#C2C2C2" font-family="'HelveticaNeue'" font-size="10">Application</text>
	<text transform="matrix(1 0 0 1 84 110.7229)" display="inline" fill="#C2C2C2" font-family="'HelveticaNeue'" font-size="10">••••••••</text>
	<g display="inline">
		<text transform="matrix(1 0 0 1 116.8124 128.3224)" fill="#FFFFFF" font-family="'HelveticaNeue'" font-size="8">Log In</text>
	</g>
</g>
<g id="outline">
	<g>
		<path fill="#CCCCCC" d="M254,164H2c-1.105,0-2-0.895-2-2V2c0-1.105,0.895-2,2-2h252c1.105,0,2,0.895,2,2v160
			C256,163.105,255.105,164,254,164z"/>
	</g>
	<g>
		<path fill="#F5F5F5" d="M254,163H2c-0.552,0-1-0.448-1-1V2c0-0.552,0.448-1,1-1h252c0.552,0,1,0.448,1,1v160
			C255,162.552,254.552,163,254,163z"/>
	</g>
	<path opacity="0.04" d="M186,141c0,1.1-0.9,2-2,2H72c-1.1,0-2-0.9-2-2V25c0-1.1,0.9-2,2-2h112c1.1,0,2,0.9,2,2V141z"/>
	<path fill="#CCCCCC" d="M186,140c0,1.1-0.9,2-2,2H72c-1.1,0-2-0.9-2-2V24c0-1.1,0.9-2,2-2h112c1.1,0,2,0.9,2,2V140z"/>
	<path fill="#FFFFFF" d="M185,140c0,0.55-0.45,1-1,1H72c-0.55,0-1-0.45-1-1V24c0-0.55,0.45-1,1-1h112c0.55,0,1,0.45,1,1V140z"/>
	<g>
		<path fill="#EBEBEB" d="M140,57.143c0,0.471-0.386,0.857-0.857,0.857h-22.286c-0.471,0-0.857-0.386-0.857-0.857V34.857
			c0-0.471,0.386-0.857,0.857-0.857h22.286c0.471,0,0.857,0.386,0.857,0.857V57.143z"/>
	</g>
	<path fill="#C8CACC" d="M175,93c0,0.55-0.45,1-1,1H81c-0.55,0-1-0.45-1-1V83c0-0.55,0.45-1,1-1h93c0.55,0,1,0.45,1,1V93z"/>
	<g>
		<path fill="#FFFFFF" d="M174,83v10H81V83H174"/>
	</g>
	<path fill="#C8CACC" d="M175,112c0,0.55-0.45,1-1,1H81c-0.55,0-1-0.45-1-1v-10c0-0.55,0.45-1,1-1h93c0.55,0,1,0.45,1,1V112z"/>
	<g>
		<path fill="#FFFFFF" d="M174,102v10H81v-10H174"/>
	</g>
	<path fill="#CCCCCC" d="M176,130c0,0.55-0.45,1-1,1H81c-0.55,0-1-0.45-1-1v-9c0-0.55,0.45-1,1-1h94c0.55,0,1,0.45,1,1V130z"/>
	<g>
		<path fill="#CCCCCC" d="M104.59,65.975h1.33l2.75,7.14h-1.34l-0.67-1.89h-2.85l-0.67,1.89h-1.29L104.59,65.975z M104.15,70.275
			h2.18l-1.07-3.07h-0.03L104.15,70.275z"/>
		<path fill="#CCCCCC" d="M109.22,67.945h1.08v0.7h0.02c0.16-0.3,0.383-0.515,0.67-0.645c0.287-0.13,0.597-0.195,0.93-0.195
			c0.406,0,0.762,0.072,1.065,0.215c0.303,0.144,0.555,0.34,0.755,0.59c0.2,0.25,0.35,0.542,0.45,0.875s0.15,0.69,0.15,1.07
			c0,0.347-0.045,0.684-0.135,1.01c-0.09,0.327-0.227,0.615-0.41,0.865c-0.184,0.25-0.415,0.45-0.695,0.6
			c-0.28,0.15-0.61,0.225-0.99,0.225c-0.167,0-0.333-0.015-0.5-0.045c-0.167-0.03-0.327-0.079-0.48-0.145
			c-0.153-0.067-0.295-0.152-0.425-0.255c-0.13-0.103-0.239-0.225-0.325-0.365h-0.02v2.58h-1.14V67.945z M113.2,70.535
			c0-0.233-0.03-0.46-0.09-0.68c-0.06-0.22-0.15-0.415-0.27-0.585c-0.12-0.17-0.27-0.306-0.45-0.41
			c-0.18-0.104-0.387-0.155-0.62-0.155c-0.48,0-0.842,0.167-1.085,0.5c-0.244,0.333-0.365,0.777-0.365,1.33
			c0,0.26,0.032,0.502,0.095,0.725c0.063,0.224,0.158,0.415,0.285,0.575c0.126,0.16,0.278,0.287,0.455,0.38s0.382,0.14,0.615,0.14
			c0.26,0,0.48-0.054,0.66-0.16c0.18-0.106,0.329-0.245,0.445-0.415c0.116-0.17,0.2-0.363,0.25-0.58
			C113.175,70.984,113.2,70.762,113.2,70.535z"/>
		<path fill="#CCCCCC" d="M115.33,67.945h1.08v0.7h0.02c0.16-0.3,0.383-0.515,0.67-0.645c0.287-0.13,0.597-0.195,0.93-0.195
			c0.406,0,0.762,0.072,1.065,0.215c0.303,0.144,0.555,0.34,0.755,0.59c0.2,0.25,0.35,0.542,0.45,0.875s0.15,0.69,0.15,1.07
			c0,0.347-0.045,0.684-0.135,1.01c-0.09,0.327-0.227,0.615-0.41,0.865c-0.184,0.25-0.415,0.45-0.695,0.6
			c-0.28,0.15-0.61,0.225-0.99,0.225c-0.167,0-0.333-0.015-0.5-0.045c-0.167-0.03-0.327-0.079-0.48-0.145
			c-0.153-0.067-0.295-0.152-0.425-0.255c-0.13-0.103-0.239-0.225-0.325-0.365h-0.02v2.58h-1.14V67.945z M119.31,70.535
			c0-0.233-0.03-0.46-0.09-0.68c-0.06-0.22-0.15-0.415-0.27-0.585c-0.12-0.17-0.27-0.306-0.45-0.41
			c-0.18-0.104-0.387-0.155-0.62-0.155c-0.48,0-0.842,0.167-1.085,0.5c-0.244,0.333-0.365,0.777-0.365,1.33
			c0,0.26,0.032,0.502,0.095,0.725c0.063,0.224,0.158,0.415,0.285,0.575c0.126,0.16,0.278,0.287,0.455,0.38s0.382,0.14,0.615,0.14
			c0.26,0,0.48-0.054,0.66-0.16c0.18-0.106,0.329-0.245,0.445-0.415c0.116-0.17,0.2-0.363,0.25-0.58
			C119.285,70.984,119.31,70.762,119.31,70.535z"/>
		<path fill="#CCCCCC" d="M121.44,65.975h1.14v7.14h-1.14V65.975z"/>
		<path fill="#CCCCCC" d="M123.85,65.975h1.14v1.08h-1.14V65.975z M123.85,67.945h1.14v5.17h-1.14V67.945z"/>
		<path fill="#CCCCCC" d="M129.72,69.675c-0.046-0.32-0.175-0.562-0.385-0.725c-0.21-0.163-0.475-0.245-0.795-0.245
			c-0.147,0-0.304,0.025-0.47,0.075s-0.32,0.144-0.46,0.28c-0.14,0.137-0.257,0.327-0.35,0.57c-0.093,0.243-0.14,0.562-0.14,0.955
			c0,0.213,0.025,0.426,0.075,0.64c0.05,0.213,0.13,0.404,0.24,0.57c0.11,0.167,0.251,0.302,0.425,0.405
			c0.173,0.104,0.383,0.155,0.63,0.155c0.333,0,0.608-0.104,0.825-0.31c0.216-0.207,0.352-0.497,0.405-0.87h1.14
			c-0.107,0.673-0.362,1.188-0.765,1.545c-0.403,0.357-0.938,0.535-1.605,0.535c-0.407,0-0.765-0.068-1.075-0.205
			s-0.572-0.323-0.785-0.56c-0.213-0.236-0.375-0.518-0.485-0.845c-0.11-0.326-0.165-0.68-0.165-1.06c0-0.387,0.053-0.75,0.16-1.09
			c0.107-0.34,0.267-0.635,0.48-0.885c0.213-0.25,0.478-0.447,0.795-0.59c0.316-0.143,0.688-0.215,1.115-0.215
			c0.3,0,0.585,0.039,0.855,0.115s0.51,0.191,0.72,0.345s0.381,0.347,0.515,0.58c0.133,0.233,0.213,0.51,0.24,0.83H129.72z"/>
		<path fill="#CCCCCC" d="M136.12,71.965c0,0.14,0.018,0.24,0.055,0.3s0.108,0.09,0.215,0.09c0.033,0,0.073,0,0.12,0
			c0.047,0,0.1-0.007,0.16-0.02v0.79c-0.04,0.014-0.092,0.028-0.155,0.045c-0.063,0.017-0.128,0.031-0.195,0.045
			c-0.066,0.013-0.133,0.023-0.2,0.03c-0.067,0.007-0.124,0.01-0.17,0.01c-0.233,0-0.426-0.047-0.58-0.14
			c-0.154-0.093-0.253-0.256-0.3-0.49c-0.227,0.22-0.505,0.38-0.835,0.48c-0.33,0.1-0.648,0.15-0.955,0.15
			c-0.233,0-0.457-0.032-0.67-0.095c-0.213-0.063-0.402-0.156-0.565-0.28c-0.164-0.124-0.293-0.28-0.39-0.47
			s-0.145-0.412-0.145-0.665c0-0.32,0.059-0.58,0.175-0.78c0.116-0.2,0.27-0.356,0.46-0.47c0.19-0.113,0.403-0.195,0.64-0.245
			c0.236-0.05,0.475-0.088,0.715-0.115c0.207-0.04,0.403-0.068,0.59-0.085s0.352-0.045,0.495-0.085
			c0.143-0.04,0.256-0.102,0.34-0.185s0.125-0.208,0.125-0.375c0-0.146-0.035-0.267-0.105-0.36c-0.07-0.093-0.157-0.165-0.26-0.215
			c-0.104-0.05-0.219-0.083-0.345-0.1s-0.247-0.025-0.36-0.025c-0.32,0-0.583,0.067-0.79,0.2s-0.323,0.34-0.35,0.62h-1.14
			c0.02-0.333,0.1-0.61,0.24-0.83c0.14-0.22,0.318-0.396,0.535-0.53c0.216-0.133,0.461-0.227,0.735-0.28s0.553-0.08,0.84-0.08
			c0.253,0,0.503,0.027,0.75,0.08s0.468,0.14,0.665,0.26c0.197,0.12,0.355,0.275,0.475,0.465s0.18,0.421,0.18,0.695V71.965z
			 M134.98,70.525c-0.173,0.113-0.387,0.182-0.64,0.205s-0.507,0.058-0.76,0.105c-0.12,0.02-0.237,0.048-0.35,0.085
			s-0.213,0.086-0.3,0.15c-0.087,0.063-0.155,0.146-0.205,0.25c-0.05,0.104-0.075,0.229-0.075,0.375c0,0.126,0.037,0.233,0.11,0.32
			c0.073,0.087,0.162,0.155,0.265,0.205s0.217,0.085,0.34,0.105c0.124,0.02,0.235,0.03,0.335,0.03c0.127,0,0.264-0.017,0.41-0.05
			c0.146-0.033,0.285-0.09,0.415-0.17s0.238-0.182,0.325-0.305c0.086-0.123,0.13-0.275,0.13-0.455V70.525z"/>
		<path fill="#CCCCCC" d="M136.83,67.945h0.86v-1.55h1.14v1.55h1.03v0.85h-1.03v2.76c0,0.12,0.005,0.224,0.015,0.31
			c0.01,0.087,0.033,0.16,0.07,0.22c0.037,0.06,0.091,0.105,0.165,0.135c0.073,0.03,0.173,0.045,0.3,0.045
			c0.08,0,0.16-0.001,0.24-0.005s0.16-0.015,0.24-0.035v0.88c-0.126,0.013-0.25,0.026-0.37,0.04c-0.12,0.014-0.244,0.02-0.37,0.02
			c-0.3,0-0.542-0.028-0.725-0.085c-0.184-0.057-0.327-0.14-0.43-0.25c-0.104-0.11-0.173-0.248-0.21-0.415
			c-0.037-0.167-0.058-0.356-0.065-0.57v-3.05h-0.86V67.945z"/>
		<path fill="#CCCCCC" d="M140.71,65.975h1.14v1.08h-1.14V65.975z M140.71,67.945h1.14v5.17h-1.14V67.945z"/>
		<path fill="#CCCCCC" d="M145.46,73.255c-0.414,0-0.782-0.068-1.105-0.205c-0.324-0.137-0.597-0.325-0.82-0.565
			c-0.223-0.24-0.394-0.527-0.51-0.86c-0.117-0.333-0.175-0.7-0.175-1.1c0-0.394,0.059-0.757,0.175-1.09
			c0.116-0.333,0.287-0.62,0.51-0.86c0.223-0.24,0.497-0.428,0.82-0.565c0.323-0.137,0.691-0.205,1.105-0.205
			c0.413,0,0.781,0.068,1.105,0.205c0.323,0.137,0.596,0.325,0.82,0.565c0.223,0.24,0.393,0.527,0.51,0.86
			c0.117,0.333,0.175,0.697,0.175,1.09c0,0.4-0.059,0.767-0.175,1.1c-0.117,0.333-0.287,0.62-0.51,0.86
			c-0.224,0.24-0.497,0.428-0.82,0.565C146.242,73.187,145.874,73.255,145.46,73.255z M145.46,72.355c0.253,0,0.473-0.054,0.66-0.16
			s0.34-0.247,0.46-0.42c0.12-0.173,0.208-0.369,0.265-0.585c0.057-0.217,0.085-0.438,0.085-0.665c0-0.22-0.028-0.44-0.085-0.66
			s-0.145-0.415-0.265-0.585c-0.12-0.17-0.273-0.308-0.46-0.415c-0.187-0.106-0.407-0.16-0.66-0.16c-0.253,0-0.474,0.054-0.66,0.16
			c-0.187,0.107-0.34,0.245-0.46,0.415s-0.208,0.365-0.265,0.585s-0.085,0.44-0.085,0.66c0,0.227,0.028,0.448,0.085,0.665
			c0.057,0.216,0.145,0.412,0.265,0.585s0.273,0.313,0.46,0.42C144.987,72.302,145.207,72.355,145.46,72.355z"/>
		<path fill="#CCCCCC" d="M149.02,67.945h1.08v0.76l0.02,0.02c0.173-0.287,0.4-0.511,0.68-0.675c0.28-0.164,0.59-0.245,0.93-0.245
			c0.566,0,1.013,0.147,1.34,0.44c0.327,0.293,0.49,0.733,0.49,1.32v3.55h-1.14v-3.25c-0.014-0.407-0.1-0.702-0.26-0.885
			c-0.16-0.184-0.41-0.275-0.75-0.275c-0.194,0-0.367,0.035-0.52,0.105c-0.154,0.07-0.284,0.167-0.39,0.29
			c-0.107,0.124-0.19,0.269-0.25,0.435c-0.06,0.167-0.09,0.344-0.09,0.53v3.05h-1.14V67.945z"/>
	</g>
	<path fill="#CCCCCC" d="M134,40h-12c-0.55,0-1,0.45-1,1v10c0,0.55,0.45,1,1,1h12c0.55,0,1-0.45,1-1V41C135,40.45,134.55,40,134,40z
		 M122,51v-7h3v7H122z M134,51h-8v-3h8V51z M134,47h-8v-3h8V47z M126,43h-1h-3v-2h12v2H126z"/>
	<circle fill="#CCCCCC" cx="87" cy="107" r="2"/>
	<circle fill="#CCCCCC" cx="93" cy="107" r="2"/>
	<circle fill="#CCCCCC" cx="99" cy="107" r="2"/>
	<circle fill="#CCCCCC" cx="105" cy="107" r="2"/>
	<circle fill="#CCCCCC" cx="111" cy="107" r="2"/>
	<circle fill="#CCCCCC" cx="117" cy="107" r="2"/>
	<circle fill="#CCCCCC" cx="123" cy="107" r="2"/>
	<circle fill="#CCCCCC" cx="129" cy="107" r="2"/>
</g>
<g id="templates">
</g>
</svg>
