<?xml version="1.0" encoding="utf-8"?>
<!-- Generator: Adobe Illustrator 18.1.1, SVG Export Plug-In . SVG Version: 6.00 Build 0)  -->
<svg version="1.1" xmlns="http://www.w3.org/2000/svg" xmlns:xlink="http://www.w3.org/1999/xlink" x="0px" y="0px"
	 viewBox="0 0 256 164" enable-background="new 0 0 256 164" xml:space="preserve">
<g id="source" display="none">
	<path display="inline" fill="#E6E6E6" d="M256,13H0V2c0-1.105,0.895-2,2-2h252c1.105,0,2,0.895,2,2V13z"/>
	<path display="inline" fill="#E6E6E6" d="M0,13h40v151H2c-1.105,0-2-0.895-2-2V13z"/>
	<rect x="40" y="40" display="inline" fill="#FAFAFA" width="216" height="124"/>
	<line display="inline" fill="none" stroke="#C2C2C2" stroke-miterlimit="10" x1="87.5" y1="40" x2="87.5" y2="164"/>
	<line display="inline" fill="none" stroke="#C2C2C2" stroke-miterlimit="10" x1="0" y1="13.5" x2="256" y2="13.5"/>
	<line display="inline" fill="none" stroke="#C2C2C2" stroke-miterlimit="10" x1="40" y1="40.5" x2="256" y2="40.5"/>
	<line display="inline" fill="none" stroke="#C2C2C2" stroke-miterlimit="10" x1="39.5" y1="13" x2="39.5" y2="164"/>
	<g display="inline">
		<path fill="#C2C2C2" d="M254,1c0.551,0,1,0.449,1,1v160c0,0.551-0.449,1-1,1H2c-0.551,0-1-0.449-1-1V2c0-0.551,0.449-1,1-1H254
			 M254,0H2C0.9,0,0,0.9,0,2v160c0,1.1,0.9,2,2,2h252c1.1,0,2-0.9,2-2V2C256,0.9,255.1,0,254,0L254,0z"/>
	</g>
	<line display="inline" fill="none" stroke="#C2C2C2" stroke-miterlimit="10" x1="5" y1="5.5" x2="9" y2="5.5"/>
	<line display="inline" fill="none" stroke="#C2C2C2" stroke-miterlimit="10" x1="5" y1="8.5" x2="9" y2="8.5"/>
	<line display="inline" fill="none" stroke="#C2C2C2" stroke-miterlimit="10" x1="13.5" y1="0" x2="13.5" y2="14"/>
	<line display="inline" fill="none" stroke="#C2C2C2" stroke-miterlimit="10" x1="0" y1="25.5" x2="40" y2="25.5"/>
	<line display="inline" fill="none" stroke="#C2C2C2" stroke-miterlimit="10" x1="0" y1="37.5" x2="40" y2="37.5"/>
	<line display="inline" fill="none" stroke="#C2C2C2" stroke-miterlimit="10" x1="0" y1="49.5" x2="40" y2="49.5"/>
	<line display="inline" fill="none" stroke="#C2C2C2" stroke-miterlimit="10" x1="0" y1="61.5" x2="40" y2="61.5"/>
	<line display="inline" fill="none" stroke="#C2C2C2" stroke-miterlimit="10" x1="0" y1="73.5" x2="40" y2="73.5"/>
</g>
<g id="outline">
	<path fill="#C2C2C2" d="M0,2c0-1.1,0.9-2,2-2h252c1.1,0,2,0.9,2,2v160c0,1.105-0.895,2-2,2H2c-1.1,0-2-0.9-2-2V2z"/>
	<g>
		<path fill="#EBEBEB" d="M13,1H2C1.448,1,1,1.448,1,2v11h12V1z"/>
		<path fill="#EBEBEB" d="M254,1H14v12h241V2C255,1.448,254.552,1,254,1z"/>
	</g>
	<path fill="#EBEBEB" d="M1,74h38v89H2c-0.552,0-1-0.448-1-1V74z"/>
	<rect x="40" y="14" fill="#FFFFFF" width="215" height="26"/>
	<rect x="5" y="5" fill="#C2C2C2" width="4" height="1"/>
	<rect x="5" y="8" fill="#C2C2C2" width="4" height="1"/>
	<rect x="1" y="14" fill="#EBEBEB" width="38" height="11"/>
	<rect x="1" y="26" fill="#EBEBEB" width="38" height="11"/>
	<rect x="1" y="38" fill="#EBEBEB" width="38" height="11"/>
	<rect x="1" y="50" fill="#EBEBEB" width="38" height="11"/>
	<rect x="1" y="62" fill="#EBEBEB" width="38" height="11"/>
	<path fill="#FAFAFA" d="M88,41h167v121c0,0.552-0.448,1-1,1H88V41z"/>
	<rect x="40" y="41" fill="#FAFAFA" width="47" height="122"/>
</g>
<g id="templates">
</g>
</svg>
