<?xml version="1.0" encoding="utf-8"?>
<!-- Generator: Adobe Illustrator 18.1.1, SVG Export Plug-In . SVG Version: 6.00 Build 0)  -->
<svg version="1.1" xmlns="http://www.w3.org/2000/svg" xmlns:xlink="http://www.w3.org/1999/xlink" x="0px" y="0px"
	 viewBox="0 0 256 164" enable-background="new 0 0 256 164" xml:space="preserve">
<g id="source" display="none">
	<g display="inline">
		<path fill="#F5F5F5" d="M2,163.5c-0.827,0-1.5-0.673-1.5-1.5V2c0-0.827,0.673-1.5,1.5-1.5h252c0.827,0,1.5,0.673,1.5,1.5v160
			c0,0.827-0.673,1.5-1.5,1.5H2z"/>
		<path fill="#CCCCCC" d="M254,1c0.551,0,1,0.449,1,1v160c0,0.551-0.449,1-1,1H2c-0.551,0-1-0.449-1-1V2c0-0.551,0.449-1,1-1H254
			 M254,0H2C0.895,0,0,0.895,0,2v160c0,1.105,0.895,2,2,2h252c1.105,0,2-0.895,2-2V2C256,0.895,255.105,0,254,0L254,0z"/>
	</g>
	<g display="inline">
		<path fill="#FFFFFF" d="M186,140.504c0,0.826-0.67,1.496-1.496,1.496H72.496C71.67,142,71,141.33,71,140.504V24.496
			C71,23.67,71.67,23,72.496,23h112.008c0.826,0,1.496,0.67,1.496,1.496V140.504z"/>
		<path fill="#CCCCCC" d="M184,23c0.547,0,1,0.453,1,1v116c0,0.547-0.453,1-1,1H72c-0.547,0-1-0.453-1-1V24c0-0.547,0.453-1,1-1H184
			 M184,22H72c-1.1,0-2,0.9-2,2v116c0,1.1,0.9,2,2,2h112c1.1,0,2-0.9,2-2V24C186,22.9,185.1,22,184,22L184,22z"/>
	</g>
	<g display="inline">
		<path fill="#FAFAFA" d="M175,93.522c0,0.264-0.214,0.478-0.478,0.478H81.478C81.214,94,81,93.786,81,93.522V83.478
			C81,83.214,81.214,83,81.478,83h93.045c0.264,0,0.478,0.214,0.478,0.478V93.522z"/>
		<path fill="#C8CACC" d="M174,83v10H81V83H174 M174,82H81c-0.55,0-1,0.45-1,1v10c0,0.55,0.45,1,1,1h93c0.55,0,1-0.45,1-1V83
			C175,82.45,174.55,82,174,82L174,82z"/>
	</g>
	<g display="inline">
		<path fill="#D6D6D6" d="M116,88.763c0,0.13-0.107,0.237-0.237,0.237H84.237C84.107,89,84,88.893,84,88.763v-1.526
			C84,87.107,84.107,87,84.237,87h31.526c0.13,0,0.237,0.107,0.237,0.237V88.763z"/>
	</g>
	<g display="inline">
		<path fill="#FAFAFA" d="M175,112.522c0,0.264-0.214,0.478-0.478,0.478H81.478c-0.264,0-0.478-0.214-0.478-0.478v-10.045
			c0-0.264,0.214-0.478,0.478-0.478h93.045c0.264,0,0.478,0.214,0.478,0.478V112.522z"/>
		<path fill="#C8CACC" d="M174,102v10H81v-10H174 M174,101H81c-0.55,0-1,0.45-1,1v10c0,0.55,0.45,1,1,1h93c0.55,0,1-0.45,1-1v-10
			C175,101.45,174.55,101,174,101L174,101z"/>
	</g>
	<g display="inline">
		<path fill="#C2C2C2" d="M176,130c0,0.55-0.45,1-1,1H81c-0.55,0-1-0.45-1-1v-9c0-0.55,0.45-1,1-1h94c0.55,0,1,0.45,1,1V130z"/>
	</g>
	
		<text transform="matrix(1 0 0 1 102.9458 73.1152)" display="inline" fill="#C2C2C2" font-family="'HelveticaNeue'" font-size="10">Application</text>
	<text transform="matrix(1 0 0 1 84 110.7229)" display="inline" fill="#C2C2C2" font-family="'HelveticaNeue'" font-size="10">••••••••</text>
	<g display="inline">
		<text transform="matrix(1 0 0 1 116.8124 128.3224)" fill="#FFFFFF" font-family="'HelveticaNeue'" font-size="8">Log In</text>
	</g>
</g>
<g id="outline">
	<g>
		<path fill="#CCCCCC" d="M254,164H2c-1.105,0-2-0.895-2-2V2c0-1.105,0.895-2,2-2h252c1.105,0,2,0.895,2,2v160
			C256,163.105,255.105,164,254,164z"/>
	</g>
	<g>
		<path fill="#F5F5F5" d="M254,163H2c-0.552,0-1-0.448-1-1V2c0-0.552,0.448-1,1-1h252c0.552,0,1,0.448,1,1v160
			C255,162.552,254.552,163,254,163z"/>
	</g>
	<path opacity="0.04" d="M196,141c0,1.1-0.9,2-2,2H62c-1.1,0-2-0.9-2-2V25c0-1.1,0.9-2,2-2h132c1.1,0,2,0.9,2,2V141z"/>
	<path fill="#CCCCCC" d="M196,140c0,1.1-0.9,2-2,2H62c-1.1,0-2-0.9-2-2V24c0-1.1,0.9-2,2-2h132c1.1,0,2,0.9,2,2V140z"/>
	<path fill="#FFFFFF" d="M195,36v104c0,0.55-0.45,1-1,1H62c-0.55,0-1-0.45-1-1V36H195z"/>
	<path fill="#F8F8F8" d="M61,35V24c0-0.55,0.45-1,1-1h132c0.55,0,1,0.45,1,1v11H61z"/>
	<path fill="#C8CACC" d="M186,68c0,0.55-0.45,1-1,1H71c-0.55,0-1-0.45-1-1V43c0-0.55,0.45-1,1-1h114c0.55,0,1,0.45,1,1V68z"/>
	<g>
		<path fill="#F8F8F8" d="M185,43v25H71V43H185"/>
	</g>
	<path fill="#C8CACC" d="M186,101c0,0.55-0.45,1-1,1H71c-0.55,0-1-0.45-1-1V76c0-0.55,0.45-1,1-1h114c0.55,0,1,0.45,1,1V101z"/>
	<g>
		<path fill="#F8F8F8" d="M185,76v25H71V76H185"/>
	</g>
	<path fill="#C8CACC" d="M186,134c0,0.55-0.45,1-1,1H71c-0.55,0-1-0.45-1-1v-25c0-0.55,0.45-1,1-1h114c0.55,0,1,0.45,1,1V134z"/>
	<g>
		<path fill="#F8F8F8" d="M185,109v25H71v-25H185"/>
	</g>
	<circle fill="#CCCCCC" cx="189" cy="29" r="4"/>
	<circle fill="#FFFFFF" cx="189" cy="29" r="3"/>
	<polygon fill="#CCCCCC" points="190.854,27.854 190.146,27.146 189,28.293 187.854,27.146 187.146,27.854 188.293,29 
		187.146,30.146 187.854,30.854 189,29.707 190.146,30.854 190.854,30.146 189.707,29 	"/>
</g>
<g id="templates">
</g>
</svg>
