<?xml version="1.0" encoding="utf-8"?>
<!-- Generator: Adobe Illustrator 18.1.1, SVG Export Plug-In . SVG Version: 6.00 Build 0)  -->
<svg version="1.1" xmlns="http://www.w3.org/2000/svg" xmlns:xlink="http://www.w3.org/1999/xlink" x="0px" y="0px"
	 viewBox="0 0 256 164" enable-background="new 0 0 256 164" xml:space="preserve">
<g id="source" display="none">
</g>
<g id="outline">
	<g>
		<path fill="#CCCCCC" d="M254,164H2c-1.105,0-2-0.895-2-2V2c0-1.105,0.895-2,2-2h252c1.105,0,2,0.895,2,2v160
			C256,163.105,255.105,164,254,164z"/>
	</g>
	<g>
		<path fill="#F5F5F5" d="M254,163H2c-0.552,0-1-0.448-1-1V2c0-0.552,0.448-1,1-1h252c0.552,0,1,0.448,1,1v160
			C255,162.552,254.552,163,254,163z"/>
	</g>
	<path opacity="0.04" d="M196,141c0,1.1-0.9,2-2,2H62c-1.1,0-2-0.9-2-2V25c0-1.1,0.9-2,2-2h132c1.1,0,2,0.9,2,2V141z"/>
	<path fill="#CCCCCC" d="M196,140c0,1.1-0.9,2-2,2H62c-1.1,0-2-0.9-2-2V24c0-1.1,0.9-2,2-2h132c1.1,0,2,0.9,2,2V140z"/>
	<path fill="#FFFFFF" d="M61,119V24c0-0.55,0.45-1,1-1h132c0.55,0,1,0.45,1,1v95H61z"/>
	<path fill="#F8F8F8" d="M195,120v20c0,0.55-0.45,1-1,1H62c-0.55,0-1-0.45-1-1v-20H195z"/>
	<path fill="#C8CACC" d="M186,112c0,0.55-0.45,1-1,1H71c-0.55,0-1-0.45-1-1V78c0-0.55,0.45-1,1-1h114c0.55,0,1,0.45,1,1V112z"/>
	<g>
		<path fill="#F8F8F8" d="M185,78v34H71V78H185"/>
	</g>
	<circle fill="#CCCCCC" cx="189" cy="29" r="4"/>
	<circle fill="#FFFFFF" cx="189" cy="29" r="3"/>
	<polygon fill="#CCCCCC" points="190.854,27.854 190.146,27.146 189,28.293 187.854,27.146 187.146,27.854 188.293,29 
		187.146,30.146 187.854,30.854 189,29.707 190.146,30.854 190.854,30.146 189.707,29 	"/>
	<circle fill="#CCCCCC" cx="75" cy="46" r="4"/>
	<circle fill="#CCCCCC" cx="101" cy="46" r="4"/>
	<circle fill="#CCCCCC" cx="127" cy="46" r="6"/>
	<g>
		<path fill="#C8CACC" d="M74.916,68.5v-6.096h-2.208v-0.816c0.288,0,0.568-0.022,0.84-0.066s0.518-0.126,0.738-0.246
			c0.22-0.12,0.406-0.284,0.558-0.492c0.152-0.208,0.256-0.472,0.312-0.792h0.78V68.5H74.916z"/>
	</g>
	<g>
		<path fill="#C8CACC" d="M98.324,61.804c0.111-0.368,0.285-0.686,0.521-0.954s0.53-0.478,0.882-0.63
			c0.353-0.152,0.752-0.228,1.2-0.228c0.368,0,0.714,0.054,1.038,0.162c0.324,0.108,0.606,0.264,0.846,0.468
			c0.24,0.204,0.431,0.458,0.57,0.762c0.14,0.304,0.21,0.656,0.21,1.056c0,0.376-0.058,0.708-0.174,0.996s-0.271,0.546-0.462,0.774
			c-0.192,0.228-0.412,0.434-0.66,0.618s-0.504,0.36-0.769,0.528c-0.264,0.16-0.527,0.318-0.792,0.474
			c-0.264,0.156-0.506,0.322-0.726,0.498s-0.408,0.366-0.563,0.57c-0.156,0.204-0.259,0.438-0.307,0.702h4.368v0.9h-5.556
			c0.04-0.504,0.13-0.934,0.27-1.29s0.318-0.666,0.534-0.93c0.216-0.264,0.46-0.496,0.732-0.696c0.271-0.2,0.556-0.388,0.852-0.564
			c0.36-0.224,0.676-0.43,0.948-0.618c0.271-0.188,0.498-0.378,0.678-0.57s0.316-0.4,0.408-0.624s0.138-0.484,0.138-0.78
			c0-0.232-0.044-0.442-0.132-0.63c-0.088-0.188-0.206-0.35-0.354-0.486c-0.147-0.136-0.321-0.24-0.521-0.312
			s-0.412-0.108-0.636-0.108c-0.297,0-0.551,0.062-0.763,0.186s-0.386,0.286-0.521,0.486c-0.137,0.2-0.234,0.426-0.294,0.678
			c-0.061,0.252-0.086,0.506-0.078,0.762h-1.021C98.168,62.572,98.212,62.172,98.324,61.804z"/>
	</g>
	<g>
		<path fill="#C8CACC" d="M126.388,63.652c0.04,0,0.08,0,0.12,0h0.216c0.216,0,0.422-0.03,0.618-0.09s0.368-0.148,0.516-0.264
			c0.148-0.116,0.267-0.262,0.354-0.438c0.088-0.176,0.132-0.376,0.132-0.6c0-0.456-0.144-0.798-0.432-1.026
			s-0.648-0.342-1.08-0.342c-0.272,0-0.51,0.05-0.714,0.15s-0.372,0.234-0.504,0.402c-0.133,0.168-0.23,0.364-0.295,0.588
			c-0.063,0.224-0.096,0.46-0.096,0.708h-1.02c0.016-0.408,0.082-0.78,0.197-1.116c0.116-0.336,0.282-0.624,0.498-0.864
			c0.217-0.24,0.486-0.428,0.811-0.564c0.324-0.136,0.697-0.204,1.122-0.204c0.367,0,0.71,0.046,1.025,0.138
			c0.316,0.092,0.59,0.23,0.822,0.414s0.414,0.42,0.546,0.708s0.198,0.628,0.198,1.02c0,0.384-0.112,0.724-0.336,1.02
			c-0.225,0.296-0.504,0.52-0.84,0.672v0.024c0.52,0.112,0.906,0.356,1.158,0.732s0.378,0.82,0.378,1.332
			c0,0.424-0.078,0.798-0.234,1.122c-0.156,0.324-0.366,0.594-0.63,0.81c-0.264,0.216-0.574,0.378-0.93,0.486
			c-0.356,0.108-0.734,0.162-1.135,0.162c-0.432,0-0.823-0.06-1.176-0.18c-0.352-0.12-0.652-0.298-0.899-0.534
			c-0.248-0.236-0.438-0.526-0.57-0.87c-0.132-0.344-0.194-0.736-0.187-1.176h1.021c0.016,0.552,0.176,1.002,0.479,1.35
			c0.305,0.348,0.748,0.522,1.332,0.522c0.248,0,0.484-0.038,0.708-0.114c0.225-0.076,0.42-0.184,0.588-0.324
			s0.303-0.312,0.402-0.516s0.15-0.434,0.15-0.69c0-0.264-0.048-0.498-0.145-0.702c-0.096-0.204-0.224-0.376-0.384-0.516
			c-0.16-0.14-0.35-0.244-0.57-0.312c-0.22-0.068-0.458-0.102-0.714-0.102c-0.216,0-0.42,0.012-0.611,0.036V63.64
			C126.319,63.648,126.355,63.652,126.388,63.652z"/>
	</g>
	<g>
		<path fill="#CACACA" d="M156.844,65.608v0.9h-1.152V68.5h-0.96v-1.992H151v-0.984l3.876-5.532h0.815v5.616H156.844z
			 M154.731,61.444h-0.023l-2.832,4.164h2.855V61.444z"/>
	</g>
	<g>
		<path fill="#CACACA" d="M178.872,61.036l-0.456,2.448l0.024,0.024c0.184-0.208,0.422-0.362,0.714-0.462
			c0.292-0.1,0.582-0.15,0.87-0.15c0.376,0,0.732,0.06,1.068,0.18c0.336,0.12,0.628,0.302,0.876,0.546
			c0.248,0.244,0.444,0.548,0.588,0.912c0.144,0.364,0.216,0.79,0.216,1.278c0,0.36-0.062,0.71-0.186,1.05
			c-0.124,0.34-0.31,0.642-0.558,0.906s-0.558,0.474-0.93,0.63c-0.372,0.156-0.806,0.234-1.302,0.234
			c-0.368,0-0.714-0.054-1.038-0.162c-0.324-0.108-0.61-0.264-0.858-0.468s-0.444-0.458-0.588-0.762
			c-0.144-0.304-0.22-0.648-0.228-1.032h1.02c0.016,0.216,0.07,0.418,0.162,0.606c0.092,0.188,0.216,0.352,0.372,0.492
			c0.156,0.14,0.34,0.248,0.552,0.324c0.212,0.076,0.446,0.114,0.702,0.114c0.24,0,0.47-0.042,0.69-0.126
			c0.22-0.084,0.412-0.21,0.576-0.378c0.164-0.168,0.294-0.378,0.39-0.63c0.096-0.252,0.144-0.546,0.144-0.882
			c0-0.28-0.046-0.538-0.138-0.774c-0.092-0.236-0.222-0.44-0.39-0.612c-0.168-0.172-0.37-0.306-0.606-0.402
			c-0.236-0.096-0.498-0.144-0.786-0.144c-0.336,0-0.634,0.074-0.894,0.222s-0.49,0.342-0.69,0.582l-0.876-0.048l0.792-4.416h4.2
			v0.9H178.872z"/>
	</g>
	<line fill="#FFFFFF" stroke="#CCCCCC" stroke-miterlimit="10" x1="75" y1="46.5" x2="180" y2="46.5"/>
	<circle fill="#CCCCCC" cx="154" cy="46" r="4"/>
	<circle fill="#FFFFFF" cx="154" cy="46" r="3"/>
	<circle fill="#CCCCCC" cx="180" cy="46" r="4"/>
	<circle fill="#FFFFFF" cx="180" cy="46" r="3"/>
	<path fill="#CCCCCC" d="M83,125c0-0.552-0.448-1-1-1H71c-0.552,0-1,0.448-1,1v11c0,0.552,0.448,1,1,1h11c0.552,0,1-0.448,1-1V125z"
		/>
	<rect x="71" y="125" fill="#F8F8F8" width="11" height="11"/>
	<g>
		<path fill="#CCCCCC" d="M78,134.1c-0.153,0-0.307-0.059-0.424-0.176l-3.424-3.424l3.424-3.424c0.234-0.234,0.614-0.234,0.849,0
			s0.234,0.614,0,0.849l-2.576,2.576l2.576,2.576c0.234,0.234,0.234,0.614,0,0.849C78.307,134.042,78.153,134.1,78,134.1z"/>
	</g>
	<path fill="#CCCCCC" d="M186,135.818c0,0.653-0.529,1.182-1.182,1.182h-10.636c-0.653,0-1.182-0.529-1.182-1.182v-10.636
		c0-0.653,0.529-1.182,1.182-1.182h10.636c0.653,0,1.182,0.529,1.182,1.182V135.818z"/>
	<g>
		<path fill="#FFFFFF" d="M178,134.1c-0.153,0-0.307-0.059-0.424-0.176c-0.234-0.234-0.234-0.614,0-0.849l2.576-2.576l-2.576-2.576
			c-0.234-0.234-0.234-0.614,0-0.849s0.614-0.234,0.849,0l3.424,3.424l-3.424,3.424C178.307,134.042,178.153,134.1,178,134.1z"/>
	</g>
</g>
<g id="templates">
</g>
</svg>
