<?xml version="1.0" encoding="utf-8"?>
<!-- Generator: Adobe Illustrator 16.0.4, SVG Export Plug-In . SVG Version: 6.00 Build 0)  -->
<!DOCTYPE svg PUBLIC "-//W3C//DTD SVG 1.1//EN" "http://www.w3.org/Graphics/SVG/1.1/DTD/svg11.dtd">
<svg version="1.1" id="Layer_1" xmlns="http://www.w3.org/2000/svg" xmlns:xlink="http://www.w3.org/1999/xlink" x="0px" y="0px"
	 width="212px" height="20px" viewBox="0 0 212 20" enable-background="new 0 0 212 20" xml:space="preserve">
<path fill-rule="evenodd" clip-rule="evenodd" fill="#FF0000" d="M95.091,5.799c0,0.736-0.599,1.335-1.337,1.335
	c-0.735,0-1.334-0.599-1.334-1.335c0-0.739,0.599-1.336,1.334-1.336C94.492,4.462,95.091,5.06,95.091,5.799z M92.705,5.793
	c0,0.583,0.469,1.051,1.049,1.051s1.049-0.469,1.049-1.051c0-0.579-0.469-1.049-1.049-1.049S92.705,5.214,92.705,5.793z
	 M94.311,5.465c0,0.019-0.002,0.07-0.016,0.124c-0.016,0.057-0.049,0.171-0.186,0.257c-0.017,0.011-0.025,0.019-0.066,0.034
	l0.346,0.622h-0.336l-0.305-0.572h-0.203v0.572h-0.292V5.005h0.374c0.208,0,0.293,0.003,0.395,0.04
	C94.283,5.133,94.311,5.376,94.311,5.465z M93.904,5.278c-0.068-0.026-0.138-0.026-0.277-0.026h-0.082v0.431h0.188
	c0.092-0.002,0.191-0.01,0.25-0.094c0.023-0.037,0.034-0.077,0.034-0.129C94.017,5.379,93.973,5.312,93.904,5.278z M66.447,15.99
	c-0.317,0-0.613-0.123-0.835-0.344c-0.212-0.212-0.331-0.496-0.331-0.794V4.111h2.279v9.786h10.629l-1.342,2.094H66.447z
	 M83.762,13.897h8.223l-1.34,2.093h-7.039c-3.271,0-5.929-2.657-5.929-5.938s2.657-5.941,5.929-5.941h8.192l-1.343,2.095
	l-6.693-0.001c-1.758,0-3.241,1.186-3.693,2.803l11.094,0l-1.343,2.095H80.07C80.522,12.716,82.008,13.897,83.762,13.897z
	 M56.018,13.897h8.225l-1.34,2.093h-7.038c-3.273,0-5.931-2.657-5.931-5.938s2.657-5.941,5.931-5.941h8.192l-1.342,2.095
	l-6.697-0.001c-2.12,0-3.84,1.722-3.84,3.847C52.178,12.176,53.897,13.897,56.018,13.897z M36.61,15.99l-2.689,0.004l7.184-11.267
	c0.304-0.458,0.83-0.734,1.402-0.734c0.566,0,1.084,0.268,1.391,0.714l7.209,11.287l-2.692-0.004l-1.262-2.096h-6.167L39.641,11.8
	h6.085l-3.214-5.19L36.61,15.99z M19.851,15.99V4.111h9.979c2.214,0,4.009,1.799,4.009,4.017c0,2.218-1.795,4.017-4.009,4.017
	l-1.044-0.002l4.581,3.848h-3.313l-6.807-5.939l6.428,0.001c1.063,0,1.919-0.862,1.919-1.924c0-1.062-0.855-1.923-1.919-1.923H22.13
	v9.786H19.851z M12.708,4.111c3.275,0,5.929,2.66,5.929,5.941c0,3.282-2.654,5.942-5.929,5.942L5.814,15.99
	c-3.274,0-5.812-2.657-5.812-5.938s2.539-5.941,5.812-5.941H12.708z M2.128,10.052c0,2.124,1.719,3.846,3.839,3.846h6.586
	c2.122,0,3.84-1.722,3.84-3.846c0-2.125-1.718-3.846-3.84-3.846L5.967,6.205C3.847,6.205,2.128,7.927,2.128,10.052z"/>
<path opacity="0.9" fill-rule="evenodd" clip-rule="evenodd" fill="#231F20" d="M207.921,10.859c0.206,0.081,0.438,0.15,0.696,0.206
	s0.517,0.114,0.774,0.174c0.275,0.061,0.544,0.134,0.807,0.22c0.262,0.086,0.494,0.2,0.696,0.342c0.202,0.143,0.365,0.32,0.49,0.535
	c0.125,0.216,0.188,0.482,0.188,0.801c0,0.404-0.084,0.739-0.252,1.006s-0.387,0.481-0.658,0.646
	c-0.271,0.163-0.576,0.277-0.916,0.342s-0.677,0.097-1.013,0.097c-0.37,0-0.723-0.039-1.058-0.116
	c-0.336-0.077-0.633-0.204-0.891-0.381c-0.258-0.176-0.465-0.408-0.619-0.696c-0.155-0.288-0.241-0.639-0.258-1.052h1.097
	c0.008,0.241,0.064,0.445,0.167,0.613c0.104,0.167,0.239,0.301,0.407,0.399c0.167,0.1,0.356,0.17,0.567,0.213
	s0.428,0.064,0.651,0.064c0.172,0,0.353-0.013,0.542-0.038c0.189-0.026,0.363-0.073,0.522-0.143c0.159-0.068,0.29-0.169,0.394-0.303
	s0.155-0.304,0.155-0.51c0-0.284-0.108-0.499-0.323-0.646c-0.215-0.146-0.483-0.265-0.806-0.354
	c-0.323-0.09-0.674-0.172-1.052-0.245c-0.379-0.073-0.729-0.176-1.052-0.31s-0.592-0.32-0.807-0.562
	c-0.215-0.24-0.322-0.576-0.322-1.006c0-0.336,0.075-0.624,0.226-0.865s0.344-0.437,0.581-0.587c0.236-0.15,0.503-0.263,0.8-0.335
	c0.297-0.073,0.591-0.11,0.884-0.11c0.378,0,0.727,0.032,1.045,0.097s0.6,0.176,0.846,0.335c0.245,0.159,0.44,0.374,0.587,0.645
	c0.146,0.271,0.231,0.609,0.258,1.013h-1.097c-0.018-0.215-0.073-0.394-0.168-0.536s-0.215-0.256-0.361-0.342
	s-0.308-0.148-0.483-0.187c-0.177-0.039-0.355-0.058-0.536-0.058c-0.163,0-0.328,0.013-0.496,0.039s-0.321,0.071-0.458,0.135
	c-0.138,0.065-0.25,0.151-0.336,0.258s-0.129,0.248-0.129,0.419c0,0.189,0.066,0.347,0.2,0.472
	C207.544,10.674,207.714,10.777,207.921,10.859z M201.47,10.859c0.206,0.081,0.438,0.15,0.696,0.206s0.517,0.114,0.774,0.174
	c0.275,0.061,0.544,0.134,0.807,0.22c0.262,0.086,0.494,0.2,0.696,0.342c0.202,0.143,0.365,0.32,0.49,0.535
	c0.125,0.216,0.188,0.482,0.188,0.801c0,0.404-0.084,0.739-0.252,1.006s-0.387,0.481-0.658,0.646
	c-0.271,0.163-0.576,0.277-0.916,0.342s-0.677,0.097-1.013,0.097c-0.37,0-0.723-0.039-1.058-0.116
	c-0.336-0.077-0.633-0.204-0.891-0.381c-0.258-0.176-0.465-0.408-0.619-0.696c-0.155-0.288-0.241-0.639-0.258-1.052h1.097
	c0.008,0.241,0.064,0.445,0.167,0.613c0.104,0.167,0.239,0.301,0.407,0.399c0.167,0.1,0.356,0.17,0.567,0.213
	s0.428,0.064,0.651,0.064c0.172,0,0.353-0.013,0.542-0.038c0.189-0.026,0.363-0.073,0.522-0.143c0.159-0.068,0.29-0.169,0.394-0.303
	s0.155-0.304,0.155-0.51c0-0.284-0.108-0.499-0.323-0.646c-0.215-0.146-0.483-0.265-0.806-0.354
	c-0.323-0.09-0.674-0.172-1.052-0.245c-0.379-0.073-0.729-0.176-1.052-0.31s-0.592-0.32-0.807-0.562
	c-0.215-0.24-0.322-0.576-0.322-1.006c0-0.336,0.075-0.624,0.226-0.865s0.344-0.437,0.581-0.587c0.236-0.15,0.503-0.263,0.8-0.335
	c0.297-0.073,0.591-0.11,0.884-0.11c0.378,0,0.727,0.032,1.045,0.097s0.601,0.176,0.845,0.335c0.245,0.159,0.441,0.374,0.588,0.645
	c0.146,0.271,0.231,0.609,0.258,1.013h-1.097c-0.018-0.215-0.073-0.394-0.168-0.536s-0.215-0.256-0.361-0.342
	s-0.308-0.148-0.483-0.187c-0.177-0.039-0.355-0.058-0.536-0.058c-0.163,0-0.329,0.013-0.496,0.039
	c-0.168,0.026-0.321,0.071-0.458,0.135c-0.138,0.065-0.25,0.151-0.336,0.258s-0.129,0.248-0.129,0.419
	c0,0.189,0.066,0.347,0.2,0.472C201.093,10.674,201.263,10.777,201.47,10.859z M193.787,13.607c0.172,0.202,0.392,0.363,0.658,0.483
	c0.267,0.121,0.58,0.181,0.941,0.181c0.465,0,0.846-0.107,1.142-0.322c0.297-0.215,0.493-0.542,0.588-0.98h1.083
	c-0.146,0.748-0.469,1.312-0.967,1.69c-0.499,0.378-1.127,0.567-1.884,0.567c-0.534,0-0.996-0.086-1.388-0.258
	s-0.721-0.413-0.986-0.723c-0.268-0.31-0.467-0.68-0.601-1.109c-0.134-0.431-0.209-0.899-0.226-1.406
	c0-0.508,0.077-0.973,0.232-1.395c0.154-0.421,0.372-0.787,0.651-1.096s0.61-0.55,0.993-0.723c0.383-0.172,0.803-0.258,1.258-0.258
	c0.594,0,1.086,0.123,1.478,0.368s0.705,0.557,0.942,0.936c0.236,0.378,0.399,0.791,0.49,1.238c0.09,0.447,0.127,0.873,0.109,1.277
	h-4.993c-0.009,0.293,0.025,0.57,0.104,0.832C193.49,13.173,193.615,13.405,193.787,13.607z M197.142,11.11
	c-0.018-0.258-0.075-0.503-0.174-0.735c-0.1-0.232-0.232-0.432-0.4-0.6c-0.168-0.168-0.365-0.301-0.594-0.4
	c-0.228-0.099-0.479-0.148-0.755-0.148c-0.283,0-0.539,0.049-0.768,0.148c-0.228,0.099-0.424,0.234-0.587,0.406
	c-0.163,0.172-0.292,0.373-0.387,0.6s-0.15,0.471-0.168,0.729H197.142z M188.784,15.085V8.414h1.032V9.82h0.026
	c0.267-0.542,0.594-0.942,0.98-1.2c0.387-0.258,0.877-0.378,1.471-0.361V9.42c-0.438,0-0.812,0.06-1.122,0.181
	s-0.56,0.297-0.749,0.529c-0.188,0.232-0.327,0.515-0.412,0.846c-0.087,0.331-0.13,0.711-0.13,1.142v2.968H188.784z M181.489,17.626
	V8.414h1.097v0.903h0.025c0.181-0.37,0.465-0.639,0.852-0.807c0.388-0.167,0.813-0.251,1.277-0.251c0.517,0,0.966,0.095,1.349,0.284
	c0.383,0.189,0.701,0.445,0.955,0.768c0.253,0.322,0.445,0.695,0.574,1.116c0.129,0.422,0.193,0.869,0.193,1.342
	c0,0.474-0.062,0.921-0.188,1.342c-0.125,0.422-0.313,0.789-0.567,1.104c-0.254,0.313-0.572,0.561-0.955,0.742
	c-0.383,0.18-0.828,0.271-1.335,0.271c-0.164,0-0.347-0.018-0.549-0.052s-0.402-0.09-0.6-0.168
	c-0.198-0.077-0.385-0.183-0.562-0.315c-0.176-0.134-0.324-0.299-0.445-0.497h-0.025v3.432H181.489z M182.663,12.691
	c0.077,0.306,0.2,0.574,0.368,0.807c0.168,0.231,0.385,0.419,0.651,0.561c0.267,0.143,0.589,0.213,0.968,0.213
	c0.378,0,0.694-0.072,0.948-0.219s0.458-0.34,0.613-0.581c0.154-0.24,0.266-0.516,0.335-0.825c0.068-0.311,0.104-0.628,0.104-0.955
	c0-0.31-0.041-0.613-0.123-0.91s-0.206-0.561-0.374-0.793s-0.383-0.417-0.646-0.555c-0.262-0.137-0.569-0.206-0.922-0.206
	c-0.37,0-0.684,0.073-0.942,0.219c-0.258,0.146-0.469,0.337-0.632,0.574c-0.163,0.237-0.282,0.505-0.354,0.807
	c-0.073,0.301-0.11,0.606-0.11,0.916C182.547,12.07,182.586,12.386,182.663,12.691z M179.335,15.085l-1.858-2.762l-1.858,2.762
	h-1.328l2.503-3.51l-2.322-3.161h1.406l1.6,2.335l1.664-2.335h1.316l-2.297,3.07l2.581,3.601H179.335z M173.285,14.053v1.032h-6.399
	V5.872h6.36v1.032h-5.135v2.929h4.787v1.032h-4.787v3.188H173.285z M155.646,15.085V8.414h1.032v1.058h0.026
	c0.455-0.809,1.178-1.213,2.167-1.213c0.438,0,0.805,0.06,1.097,0.181c0.293,0.121,0.529,0.288,0.71,0.503
	c0.181,0.215,0.308,0.471,0.381,0.768c0.072,0.297,0.109,0.625,0.109,0.987v4.387h-1.097v-4.517c0-0.412-0.121-0.739-0.361-0.98
	c-0.241-0.241-0.572-0.361-0.993-0.361c-0.336,0-0.626,0.051-0.871,0.155c-0.245,0.103-0.449,0.25-0.613,0.438
	c-0.163,0.189-0.286,0.411-0.367,0.664c-0.082,0.254-0.123,0.531-0.123,0.833v3.768H155.646z M149.757,8.53
	c0.404-0.181,0.868-0.271,1.394-0.271c0.533,0,1,0.09,1.399,0.271c0.4,0.181,0.737,0.428,1.013,0.742
	c0.275,0.314,0.482,0.684,0.62,1.11c0.137,0.426,0.206,0.884,0.206,1.374s-0.069,0.946-0.206,1.367
	c-0.138,0.422-0.345,0.79-0.62,1.104c-0.275,0.314-0.612,0.56-1.013,0.735c-0.399,0.177-0.866,0.265-1.399,0.265
	c-0.525,0-0.989-0.088-1.394-0.265c-0.404-0.176-0.744-0.421-1.02-0.735c-0.275-0.313-0.481-0.682-0.619-1.104
	c-0.138-0.421-0.207-0.877-0.207-1.367s0.069-0.948,0.207-1.374s0.344-0.795,0.619-1.11C149.013,8.958,149.353,8.711,149.757,8.53z
	 M149.234,12.833c0.107,0.314,0.256,0.576,0.445,0.787c0.188,0.211,0.41,0.372,0.664,0.483c0.254,0.112,0.522,0.168,0.807,0.168
	c0.283,0,0.553-0.056,0.806-0.168c0.254-0.111,0.476-0.272,0.665-0.483s0.338-0.473,0.445-0.787
	c0.107-0.313,0.161-0.673,0.161-1.077s-0.054-0.764-0.161-1.077c-0.107-0.314-0.256-0.579-0.445-0.794s-0.411-0.378-0.665-0.49
	c-0.253-0.111-0.522-0.167-0.806-0.167c-0.284,0-0.553,0.056-0.807,0.167c-0.254,0.112-0.476,0.275-0.664,0.49
	c-0.189,0.215-0.338,0.479-0.445,0.794c-0.107,0.313-0.161,0.673-0.161,1.077S149.127,12.52,149.234,12.833z M146.669,15.085h-1.097
	V8.414h1.097V15.085z M145.572,5.872h1.097v1.342h-1.097V5.872z M143.376,13.833c0.021,0.077,0.062,0.138,0.123,0.181
	s0.144,0.071,0.252,0.084c0.107,0.013,0.247,0.02,0.419,0.02h0.503v0.968h-0.838c-0.284,0-0.527-0.02-0.729-0.059
	c-0.202-0.038-0.365-0.109-0.49-0.213s-0.218-0.249-0.277-0.438c-0.061-0.189-0.091-0.438-0.091-0.748V9.382h-1.135V8.414h1.135v-2
	h1.097v2h1.329v0.968h-1.329v4.142C143.344,13.652,143.354,13.756,143.376,13.833z M138.106,9.42
	c-0.142-0.078-0.301-0.129-0.478-0.155c-0.176-0.026-0.351-0.039-0.522-0.039c-0.464,0-0.852,0.088-1.161,0.264
	c-0.31,0.177-0.478,0.51-0.503,1h-1.097c0.018-0.413,0.104-0.761,0.258-1.045c0.155-0.284,0.361-0.514,0.619-0.69
	c0.259-0.176,0.555-0.303,0.891-0.38c0.336-0.078,0.688-0.116,1.058-0.116c0.302,0,0.601,0.021,0.897,0.064s0.565,0.131,0.806,0.265
	c0.241,0.133,0.435,0.32,0.581,0.561c0.146,0.241,0.22,0.555,0.22,0.942v3.432c0,0.258,0.015,0.447,0.045,0.567
	c0.03,0.121,0.131,0.181,0.303,0.181c0.095,0,0.207-0.021,0.336-0.064v0.852c-0.189,0.112-0.452,0.168-0.787,0.168
	c-0.284,0-0.51-0.08-0.678-0.238c-0.168-0.159-0.251-0.42-0.251-0.781c-0.302,0.361-0.652,0.622-1.052,0.781
	c-0.4,0.158-0.832,0.238-1.297,0.238c-0.301,0-0.585-0.032-0.852-0.097s-0.501-0.172-0.703-0.322s-0.361-0.345-0.478-0.581
	s-0.174-0.522-0.174-0.858c0-0.378,0.064-0.688,0.193-0.929c0.129-0.24,0.299-0.437,0.51-0.587s0.451-0.265,0.723-0.342
	c0.271-0.077,0.548-0.142,0.832-0.193c0.301-0.061,0.587-0.105,0.857-0.136c0.271-0.03,0.51-0.073,0.717-0.129
	c0.206-0.056,0.369-0.138,0.49-0.245c0.12-0.107,0.181-0.265,0.181-0.472c0-0.24-0.046-0.434-0.136-0.58
	C138.365,9.61,138.249,9.498,138.106,9.42z M138.578,11.64c-0.138,0.104-0.318,0.179-0.542,0.226
	c-0.225,0.048-0.458,0.086-0.703,0.116s-0.493,0.064-0.742,0.104c-0.25,0.038-0.474,0.101-0.671,0.187
	c-0.198,0.087-0.359,0.209-0.484,0.368c-0.124,0.159-0.187,0.376-0.187,0.651c0,0.181,0.036,0.334,0.109,0.458
	c0.073,0.125,0.168,0.226,0.284,0.304c0.116,0.077,0.254,0.133,0.413,0.167c0.158,0.035,0.32,0.052,0.483,0.052
	c0.361,0,0.671-0.049,0.929-0.148c0.259-0.099,0.469-0.224,0.633-0.374c0.163-0.15,0.283-0.313,0.361-0.49
	c0.077-0.176,0.116-0.342,0.116-0.497V11.64z M128.327,13.517c0.155,0.229,0.357,0.411,0.606,0.549
	c0.25,0.138,0.547,0.206,0.891,0.206c0.542,0,0.966-0.142,1.271-0.426c0.306-0.283,0.493-0.684,0.562-1.199h1.123
	c-0.121,0.825-0.429,1.462-0.923,1.909c-0.495,0.447-1.168,0.671-2.02,0.671c-0.507,0-0.957-0.082-1.348-0.245
	c-0.392-0.163-0.719-0.396-0.981-0.696c-0.262-0.302-0.46-0.66-0.593-1.078c-0.134-0.417-0.2-0.875-0.2-1.374
	s0.064-0.965,0.193-1.399s0.324-0.813,0.587-1.136s0.592-0.576,0.987-0.761s0.855-0.277,1.381-0.277
	c0.378,0,0.732,0.045,1.064,0.135c0.331,0.09,0.623,0.23,0.877,0.419c0.254,0.189,0.463,0.428,0.626,0.716s0.267,0.63,0.31,1.025
	h-1.136c-0.086-0.421-0.267-0.748-0.542-0.98s-0.645-0.348-1.109-0.348c-0.396,0-0.727,0.073-0.993,0.219
	c-0.267,0.146-0.479,0.34-0.639,0.581c-0.159,0.24-0.273,0.518-0.342,0.832c-0.069,0.313-0.104,0.639-0.104,0.974
	c0,0.31,0.036,0.611,0.109,0.903C128.059,13.029,128.173,13.289,128.327,13.517z M125.473,15.085h-1.097V8.414h1.097V15.085z
	 M124.376,5.872h1.097v1.342h-1.097V5.872z M121.611,15.085V5.872h1.097v9.213H121.611z M114.212,17.626V8.414h1.098v0.903h0.025
	c0.181-0.37,0.465-0.639,0.852-0.807c0.387-0.167,0.812-0.251,1.277-0.251c0.516,0,0.966,0.095,1.349,0.284
	c0.382,0.189,0.7,0.445,0.954,0.768c0.254,0.322,0.445,0.695,0.574,1.116c0.129,0.422,0.193,0.869,0.193,1.342
	c0,0.474-0.062,0.921-0.187,1.342c-0.125,0.422-0.314,0.789-0.567,1.104c-0.254,0.313-0.572,0.561-0.955,0.742
	c-0.383,0.18-0.828,0.271-1.336,0.271c-0.163,0-0.346-0.018-0.548-0.052s-0.402-0.09-0.601-0.168
	c-0.197-0.077-0.385-0.183-0.561-0.315c-0.177-0.134-0.325-0.299-0.445-0.497h-0.025v3.432H114.212z M115.387,12.691
	c0.077,0.306,0.2,0.574,0.367,0.807c0.168,0.231,0.385,0.419,0.652,0.561c0.266,0.143,0.589,0.213,0.967,0.213
	c0.379,0,0.695-0.072,0.949-0.219c0.253-0.146,0.458-0.34,0.612-0.581c0.155-0.24,0.267-0.516,0.336-0.825
	c0.068-0.311,0.103-0.628,0.103-0.955c0-0.31-0.041-0.613-0.122-0.91c-0.082-0.297-0.207-0.561-0.374-0.793
	c-0.168-0.232-0.383-0.417-0.646-0.555c-0.263-0.137-0.57-0.206-0.923-0.206c-0.369,0-0.684,0.073-0.941,0.219
	c-0.258,0.146-0.469,0.337-0.632,0.574c-0.164,0.237-0.282,0.505-0.355,0.807c-0.073,0.301-0.109,0.606-0.109,0.916
	C115.271,12.07,115.31,12.386,115.387,12.691z M106.84,17.626V8.414h1.097v0.903h0.025c0.181-0.37,0.465-0.639,0.852-0.807
	c0.388-0.167,0.813-0.251,1.277-0.251c0.517,0,0.966,0.095,1.349,0.284c0.383,0.189,0.701,0.445,0.955,0.768
	c0.253,0.322,0.444,0.695,0.573,1.116c0.13,0.422,0.194,0.869,0.194,1.342c0,0.474-0.062,0.921-0.188,1.342
	c-0.125,0.422-0.314,0.789-0.567,1.104c-0.254,0.313-0.572,0.561-0.955,0.742c-0.383,0.18-0.828,0.271-1.335,0.271
	c-0.164,0-0.347-0.018-0.549-0.052s-0.402-0.09-0.6-0.168c-0.198-0.077-0.386-0.183-0.562-0.315
	c-0.177-0.134-0.325-0.299-0.445-0.497h-0.025v3.432H106.84z M108.014,12.691c0.077,0.306,0.2,0.574,0.368,0.807
	c0.167,0.231,0.385,0.419,0.651,0.561c0.267,0.143,0.589,0.213,0.968,0.213c0.378,0,0.694-0.072,0.948-0.219
	c0.253-0.146,0.458-0.34,0.612-0.581c0.155-0.24,0.267-0.516,0.336-0.825c0.068-0.311,0.104-0.628,0.104-0.955
	c0-0.31-0.041-0.613-0.123-0.91s-0.206-0.561-0.374-0.793s-0.383-0.417-0.646-0.555c-0.262-0.137-0.569-0.206-0.922-0.206
	c-0.37,0-0.685,0.073-0.942,0.219c-0.258,0.146-0.469,0.337-0.632,0.574c-0.164,0.237-0.282,0.505-0.355,0.807
	c-0.072,0.301-0.109,0.606-0.109,0.916C107.897,12.07,107.937,12.386,108.014,12.691z M106.145,15.085h-1.354l-1.006-2.774h-3.896
	l-1.032,2.774h-1.251l3.587-9.213h1.354L106.145,15.085z M101.835,6.982l-1.562,4.296h3.123l-1.535-4.296H101.835z"/>
<g>
</g>
<g>
</g>
<g>
</g>
<g>
</g>
<g>
</g>
<g>
</g>
</svg>
