<?xml version="1.0" encoding="utf-8"?>
<!-- Generator: Adobe Illustrator 16.0.4, SVG Export Plug-In . SVG Version: 6.00 Build 0)  -->
<!DOCTYPE svg PUBLIC "-//W3C//DTD SVG 1.1//EN" "http://www.w3.org/Graphics/SVG/1.1/DTD/svg11.dtd">
<svg version="1.1" id="Layer_1" xmlns="http://www.w3.org/2000/svg" xmlns:xlink="http://www.w3.org/1999/xlink" x="0px" y="0px"
	 width="234px" height="20px" viewBox="0 0 234 20" enable-background="new 0 0 234 20" xml:space="preserve">
<path fill-rule="evenodd" clip-rule="evenodd" fill="#58595B" d="M227.229,9.48c0.262,0.104,0.557,0.19,0.885,0.258
	c0.33,0.068,0.664,0.143,1.006,0.224c0.342,0.08,0.676,0.175,1.006,0.282c0.328,0.109,0.623,0.256,0.885,0.439
	c0.262,0.186,0.469,0.418,0.627,0.699c0.156,0.281,0.234,0.635,0.234,1.059c0,0.459-0.104,0.85-0.307,1.176
	c-0.205,0.324-0.469,0.59-0.789,0.795c-0.322,0.203-0.682,0.352-1.078,0.445c-0.398,0.092-0.793,0.139-1.186,0.139
	c-0.482,0-0.938-0.061-1.367-0.182s-0.807-0.303-1.133-0.547c-0.324-0.246-0.582-0.559-0.77-0.939
	c-0.189-0.383-0.283-0.834-0.283-1.355h1.084c0,0.361,0.07,0.672,0.211,0.934c0.139,0.26,0.324,0.475,0.553,0.645
	c0.229,0.168,0.496,0.293,0.801,0.373s0.619,0.119,0.939,0.119c0.258,0,0.516-0.023,0.777-0.07c0.26-0.049,0.496-0.131,0.703-0.248
	c0.209-0.115,0.379-0.275,0.506-0.475c0.129-0.201,0.193-0.459,0.193-0.771c0-0.297-0.078-0.537-0.234-0.723
	c-0.156-0.184-0.365-0.336-0.627-0.451c-0.26-0.117-0.555-0.211-0.885-0.283s-0.664-0.146-1.006-0.223
	c-0.34-0.076-0.676-0.164-1.006-0.266c-0.328-0.1-0.623-0.232-0.885-0.396c-0.26-0.165-0.469-0.378-0.625-0.639
	s-0.236-0.588-0.236-0.981c0-0.434,0.09-0.809,0.266-1.126c0.176-0.317,0.412-0.578,0.705-0.783s0.625-0.357,1-0.458
	c0.373-0.1,0.756-0.15,1.148-0.15c0.441,0,0.852,0.052,1.229,0.156c0.377,0.104,0.709,0.269,0.994,0.494
	c0.285,0.225,0.51,0.508,0.674,0.849c0.164,0.341,0.256,0.749,0.271,1.222h-1.084c-0.064-0.618-0.287-1.065-0.668-1.342
	c-0.383-0.277-0.869-0.416-1.463-0.416c-0.242,0-0.479,0.024-0.711,0.072c-0.232,0.048-0.439,0.128-0.621,0.241
	c-0.18,0.112-0.324,0.263-0.434,0.452c-0.107,0.188-0.162,0.423-0.162,0.705c0,0.265,0.078,0.479,0.234,0.644
	C226.76,9.241,226.967,9.376,227.229,9.48z M222.746,14.412c-0.32,0.203-0.68,0.352-1.076,0.445
	c-0.398,0.092-0.793,0.139-1.188,0.139c-0.48,0-0.938-0.061-1.367-0.182c-0.428-0.121-0.807-0.303-1.131-0.547
	c-0.326-0.246-0.582-0.559-0.771-0.939c-0.188-0.383-0.283-0.834-0.283-1.355h1.084c0,0.361,0.07,0.672,0.211,0.934
	c0.141,0.26,0.326,0.475,0.555,0.645c0.229,0.168,0.496,0.293,0.801,0.373s0.617,0.119,0.939,0.119c0.256,0,0.516-0.023,0.775-0.07
	c0.262-0.049,0.496-0.131,0.705-0.248c0.209-0.115,0.377-0.275,0.506-0.475c0.129-0.201,0.193-0.459,0.193-0.771
	c0-0.297-0.078-0.537-0.234-0.723c-0.158-0.184-0.367-0.336-0.627-0.451c-0.262-0.117-0.557-0.211-0.885-0.283
	c-0.33-0.072-0.664-0.146-1.006-0.223s-0.676-0.164-1.006-0.266c-0.328-0.1-0.625-0.232-0.885-0.396
	c-0.262-0.165-0.471-0.378-0.627-0.639s-0.234-0.588-0.234-0.981c0-0.434,0.088-0.809,0.266-1.126
	c0.176-0.317,0.41-0.578,0.703-0.783s0.627-0.357,1-0.458c0.373-0.1,0.758-0.15,1.15-0.15c0.441,0,0.852,0.052,1.229,0.156
	c0.377,0.104,0.709,0.269,0.992,0.494c0.285,0.225,0.512,0.508,0.676,0.849c0.164,0.341,0.254,0.749,0.27,1.222h-1.082
	c-0.064-0.618-0.287-1.065-0.67-1.342c-0.381-0.277-0.869-0.416-1.463-0.416c-0.24,0-0.477,0.024-0.709,0.072
	c-0.234,0.048-0.441,0.128-0.621,0.241s-0.324,0.263-0.434,0.452c-0.107,0.188-0.162,0.423-0.162,0.705
	c0,0.265,0.078,0.479,0.234,0.644c0.156,0.165,0.365,0.3,0.627,0.404c0.26,0.104,0.555,0.19,0.885,0.258
	c0.328,0.068,0.664,0.143,1.006,0.224c0.34,0.08,0.676,0.175,1.004,0.282c0.33,0.109,0.625,0.256,0.887,0.439
	c0.26,0.186,0.469,0.418,0.625,0.699s0.234,0.635,0.234,1.059c0,0.459-0.102,0.85-0.307,1.176
	C223.33,13.941,223.068,14.207,222.746,14.412z M210.4,6.205h5.936v0.963h-4.793v2.733h4.469v0.964h-4.469v2.975h4.83v0.963H210.4
	V6.205z M207.893,14.441c-0.027-0.152-0.045-0.322-0.053-0.512c-0.01-0.189-0.018-0.391-0.025-0.607s-0.031-0.43-0.072-0.639
	c-0.031-0.209-0.072-0.408-0.119-0.596c-0.049-0.189-0.125-0.354-0.23-0.494c-0.104-0.141-0.24-0.254-0.408-0.338
	c-0.17-0.084-0.395-0.127-0.676-0.127h-2.793v3.674h-1.145V6.205h4.047c0.818,0,1.459,0.201,1.92,0.602
	c0.463,0.401,0.693,0.951,0.693,1.65c0,0.522-0.119,0.979-0.355,1.373s-0.615,0.663-1.139,0.808v0.023
	c0.25,0.049,0.453,0.129,0.609,0.24c0.156,0.113,0.281,0.248,0.373,0.404s0.16,0.33,0.205,0.523
	c0.043,0.193,0.078,0.393,0.102,0.602c0.016,0.209,0.027,0.422,0.037,0.639c0.008,0.217,0.027,0.43,0.059,0.639
	c0.033,0.209,0.078,0.408,0.139,0.596c0.061,0.189,0.15,0.355,0.271,0.5h-1.277C207.975,14.715,207.922,14.594,207.893,14.441z
	 M207.725,9.402c0.107-0.197,0.162-0.452,0.162-0.765c0-0.434-0.119-0.787-0.361-1.06c-0.24-0.273-0.629-0.41-1.168-0.41h-2.842
	v2.998h2.385c0.264,0,0.518-0.02,0.758-0.06c0.242-0.04,0.451-0.118,0.633-0.235C207.471,9.755,207.615,9.599,207.725,9.402z
	 M198.113,11.287h-2.625v3.516h-1.145V6.205h3.77c0.867,0,1.523,0.223,1.969,0.668c0.445,0.445,0.668,1.07,0.668,1.873
	c0,0.803-0.223,1.428-0.668,1.878S198.98,11.295,198.113,11.287z M199.154,7.571c-0.301-0.269-0.777-0.403-1.426-0.403h-2.24v3.154
	h2.24c0.648,0.009,1.125-0.123,1.426-0.396s0.451-0.666,0.451-1.18C199.605,8.232,199.455,7.84,199.154,7.571z M192.354,14.803
	l-2.312-3.553l-2.385,3.553h-1.275l2.986-4.42l-2.83-4.178h1.373l2.143,3.36l2.24-3.36h1.275l-2.842,4.178l3.023,4.42H192.354z
	 M180.295,6.205h5.938v0.963h-4.793v2.733h4.467v0.964h-4.467v2.975h4.828v0.963h-5.973V6.205z M169.348,7.902h-0.023v6.9h-1.084
	V6.205h1.217l4.527,6.973h0.025V6.205h1.082v8.598h-1.252L169.348,7.902z M165.941,13.635c-0.346,0.418-0.775,0.748-1.289,0.994
	c-0.514,0.244-1.111,0.367-1.795,0.367c-0.682,0-1.279-0.123-1.793-0.367c-0.514-0.246-0.943-0.576-1.289-0.994
	s-0.604-0.896-0.777-1.439c-0.172-0.541-0.258-1.105-0.258-1.691s0.086-1.15,0.258-1.692c0.174-0.542,0.432-1.021,0.777-1.439
	s0.775-0.75,1.289-1C161.578,6.125,162.176,6,162.857,6c0.684,0,1.281,0.125,1.795,0.373c0.514,0.249,0.943,0.582,1.289,1
	c0.344,0.417,0.604,0.897,0.775,1.439c0.174,0.542,0.26,1.106,0.26,1.692s-0.086,1.15-0.26,1.691
	C166.545,12.738,166.285,13.217,165.941,13.635z M165.664,9.221c-0.113-0.421-0.289-0.8-0.529-1.138
	c-0.242-0.337-0.551-0.608-0.928-0.812c-0.377-0.205-0.828-0.307-1.35-0.307s-0.971,0.102-1.348,0.307
	c-0.379,0.205-0.688,0.476-0.928,0.812c-0.24,0.337-0.418,0.717-0.529,1.138c-0.113,0.422-0.17,0.85-0.17,1.283
	s0.057,0.861,0.17,1.281c0.111,0.422,0.289,0.801,0.529,1.139s0.549,0.607,0.928,0.812c0.377,0.205,0.826,0.307,1.348,0.307
	s0.973-0.102,1.35-0.307s0.686-0.475,0.928-0.812c0.24-0.338,0.416-0.717,0.529-1.139c0.111-0.42,0.168-0.848,0.168-1.281
	S165.775,9.643,165.664,9.221z M156.26,6.205h1.143v8.598h-1.143V6.205z M152.281,14.803h-1.145V7.168h-2.865V6.205h6.875v0.963
	h-2.865V14.803z M147.857,14.803l-0.939-2.59h-3.637l-0.963,2.59h-1.168l3.348-8.598h1.264l3.361,8.598H147.857z M145.125,7.24
	H145.1l-1.457,4.01h2.914L145.125,7.24z M134.545,12.979c0.236,0.324,0.541,0.584,0.91,0.777c0.369,0.191,0.811,0.287,1.324,0.287
	c0.377,0,0.713-0.061,1.006-0.186s0.545-0.297,0.758-0.518s0.379-0.484,0.5-0.789s0.193-0.635,0.217-0.988h1.145
	c-0.113,1.084-0.486,1.928-1.121,2.529c-0.633,0.602-1.5,0.904-2.6,0.904c-0.668,0-1.25-0.115-1.746-0.344
	c-0.498-0.229-0.912-0.545-1.24-0.945c-0.33-0.402-0.578-0.875-0.742-1.422c-0.164-0.545-0.246-1.131-0.246-1.758
	c0-0.626,0.088-1.214,0.266-1.764c0.176-0.55,0.436-1.03,0.775-1.439c0.342-0.41,0.768-0.733,1.277-0.97
	C135.537,6.119,136.121,6,136.779,6c0.449,0,0.875,0.06,1.275,0.181c0.402,0.12,0.76,0.297,1.072,0.53s0.574,0.524,0.783,0.873
	s0.346,0.752,0.41,1.21h-1.145c-0.129-0.61-0.412-1.067-0.85-1.373s-0.957-0.458-1.559-0.458c-0.514,0-0.953,0.096-1.318,0.289
	c-0.365,0.192-0.668,0.451-0.904,0.776s-0.41,0.697-0.523,1.114c-0.113,0.418-0.168,0.852-0.168,1.301
	c0,0.49,0.055,0.953,0.168,1.391S134.309,12.652,134.545,12.979z M130.168,6.205h1.145v8.598h-1.145V6.205z M123.096,6.205h1.145
	v7.635h4.551v0.963h-5.695V6.205z M118.836,11.287h-2.625v3.516h-1.144V6.205h3.769c0.867,0,1.523,0.223,1.969,0.668
	c0.445,0.445,0.67,1.07,0.67,1.873c0,0.803-0.225,1.428-0.67,1.878S119.703,11.295,118.836,11.287z M119.879,7.571
	c-0.303-0.269-0.777-0.403-1.428-0.403h-2.24v3.154h2.24c0.65,0.009,1.125-0.123,1.428-0.396c0.301-0.273,0.451-0.666,0.451-1.18
	C120.33,8.232,120.18,7.84,119.879,7.571z M110.809,11.287h-2.625v3.516h-1.144V6.205h3.769c0.867,0,1.523,0.223,1.969,0.668
	c0.446,0.445,0.668,1.07,0.668,1.873c0,0.803-0.223,1.428-0.668,1.878C112.332,11.074,111.675,11.295,110.809,11.287z M111.85,7.571
	c-0.301-0.269-0.777-0.403-1.427-0.403h-2.24v3.154h2.24c0.65,0.009,1.125-0.123,1.427-0.396c0.301-0.273,0.452-0.666,0.452-1.18
	C112.302,8.232,112.151,7.84,111.85,7.571z M103.768,12.213h-3.637l-0.963,2.59H98l3.348-8.598h1.264l3.36,8.598h-1.265
	L103.768,12.213z M101.974,7.24h-0.024l-1.457,4.01h2.914L101.974,7.24z"/>
<path fill-rule="evenodd" clip-rule="evenodd" fill="#FF0000" d="M93.752,7.14c-0.735,0-1.334-0.599-1.334-1.335
	c0-0.739,0.599-1.336,1.334-1.336c0.738,0,1.337,0.598,1.337,1.336C95.089,6.541,94.49,7.14,93.752,7.14z M93.752,4.75
	c-0.58,0-1.049,0.47-1.049,1.049c0,0.583,0.469,1.051,1.049,1.051s1.049-0.469,1.049-1.051C94.801,5.221,94.332,4.75,93.752,4.75z
	 M94.107,5.852c-0.017,0.011-0.025,0.019-0.066,0.034l0.346,0.622h-0.336l-0.305-0.572h-0.203v0.572h-0.292V5.011h0.374
	c0.208,0,0.293,0.003,0.395,0.04c0.262,0.088,0.289,0.332,0.289,0.42c0,0.019-0.002,0.07-0.016,0.124
	C94.277,5.651,94.244,5.766,94.107,5.852z M93.902,5.284c-0.068-0.026-0.138-0.026-0.277-0.026h-0.082v0.431h0.188
	c0.092-0.002,0.191-0.01,0.25-0.094c0.023-0.037,0.034-0.077,0.034-0.129C94.015,5.385,93.971,5.319,93.902,5.284z M83.76,13.904
	h8.223l-1.34,2.092h-7.039c-3.271,0-5.929-2.656-5.929-5.938c0-3.282,2.657-5.941,5.929-5.941h8.192l-1.343,2.095L83.76,6.211
	c-1.758,0-3.241,1.186-3.693,2.803H91.16l-1.343,2.095h-9.749C80.521,12.723,82.006,13.904,83.76,13.904z M76.846,15.996h-10.4
	c-0.317,0-0.613-0.123-0.835-0.344c-0.212-0.211-0.331-0.496-0.331-0.793V4.117h2.279v9.785h10.629L76.846,15.996z M56.016,13.904
	h8.225l-1.34,2.092h-7.038c-3.273,0-5.931-2.656-5.931-5.938c0-3.282,2.657-5.941,5.931-5.941h8.192l-1.342,2.095l-6.697-0.001
	c-2.12,0-3.84,1.722-3.84,3.848C52.176,12.182,53.896,13.904,56.016,13.904z M48.414,15.996L47.151,13.9h-6.167l-1.346-2.094h6.085
	L42.51,6.616l-5.901,9.38L33.919,16l7.184-11.266C41.407,4.276,41.933,4,42.505,4c0.566,0,1.084,0.268,1.391,0.714L51.105,16
	L48.414,15.996z M29.829,12.15l-1.044-0.002l4.58,3.848h-3.313l-6.807-5.939l6.428,0.002c1.063,0,1.919-0.863,1.919-1.925
	s-0.855-1.923-1.919-1.923h-7.544v9.785h-2.279V4.117h9.979c2.214,0,4.009,1.799,4.009,4.017S32.042,12.15,29.829,12.15z M12.706,16
	l-6.894-0.004C2.539,15.996,0,13.34,0,10.059c0-3.282,2.539-5.941,5.812-5.941h6.894c3.275,0,5.929,2.66,5.929,5.941
	C18.635,13.34,15.981,16,12.706,16z M12.552,6.212L5.965,6.211c-2.12,0-3.839,1.722-3.839,3.848c0,2.123,1.719,3.846,3.839,3.846
	h6.586c2.122,0,3.84-1.723,3.84-3.846C16.392,7.933,14.674,6.212,12.552,6.212z"/>
<g>
</g>
<g>
</g>
<g>
</g>
<g>
</g>
<g>
</g>
<g>
</g>
</svg>
