<?xml version="1.0" encoding="utf-8"?>
<!-- Generator: Adobe Illustrator 18.1.1, SVG Export Plug-In . SVG Version: 6.00 Build 0)  -->
<svg version="1.1" xmlns="http://www.w3.org/2000/svg" xmlns:xlink="http://www.w3.org/1999/xlink" x="0px" y="0px"
	 viewBox="0 0 256 164" enable-background="new 0 0 256 164" xml:space="preserve">
<g id="source" display="none">
	<path display="inline" fill="#E6E6E6" d="M256,13H0V2c0-1.105,0.895-2,2-2h252c1.105,0,2,0.895,2,2V13z"/>
	<path display="inline" fill="#FAFAFA" d="M0,54h256v110H2c-1.105,0-2-0.895-2-2V54z"/>
	<rect y="27" display="inline" fill="#FFFFFF" width="256" height="28"/>
	<line display="inline" fill="none" stroke="#C2C2C2" stroke-miterlimit="10" x1="0" y1="54.5" x2="256" y2="54.5"/>
	<rect y="14" display="inline" fill="#E6E6E6" width="256" height="12"/>
	<g display="inline">
		<path fill="#C2C2C2" d="M254,1c0.551,0,1,0.449,1,1v160c0,0.551-0.449,1-1,1H2c-0.551,0-1-0.449-1-1V2c0-0.551,0.449-1,1-1H254
			 M254,0H2C0.9,0,0,0.9,0,2v160c0,1.1,0.9,2,2,2h252c1.105,0,2-0.895,2-2V2C256,0.9,255.1,0,254,0L254,0z"/>
	</g>
	<line display="inline" fill="none" stroke="#C2C2C2" stroke-miterlimit="10" x1="51.5" y1="14" x2="51.5" y2="26"/>
	<line display="inline" fill="none" stroke="#C2C2C2" stroke-miterlimit="10" x1="102.5" y1="14" x2="102.5" y2="27"/>
	<line display="inline" fill="none" stroke="#C2C2C2" stroke-miterlimit="10" x1="153.5" y1="14" x2="153.5" y2="27"/>
	<line display="inline" fill="none" stroke="#C2C2C2" stroke-miterlimit="10" x1="204.5" y1="14" x2="204.5" y2="27"/>
	<line display="inline" fill="none" stroke="#C2C2C2" stroke-miterlimit="10" x1="0" y1="26.5" x2="256" y2="26.5"/>
	<line display="inline" fill="none" stroke="#C2C2C2" stroke-miterlimit="10" x1="0" y1="13.5" x2="256" y2="13.5"/>
</g>
<g id="outline">
	<path fill="#C2C2C2" d="M0,2c0-1.1,0.9-2,2-2h252c1.1,0,2,0.9,2,2v160c0,1.105-0.895,2-2,2H2c-1.1,0-2-0.9-2-2V2z"/>
	<path fill="#EBEBEB" d="M254,1H2C1.448,1,1,1.448,1,2v11h254V2C255,1.448,254.552,1,254,1z"/>
	<rect x="1" y="27" fill="#FFFFFF" width="254" height="26"/>
	<rect x="1" y="14" fill="#EBEBEB" width="50" height="12"/>
	<rect x="52" y="14" fill="#EBEBEB" width="50" height="12"/>
	<rect x="103" y="14" fill="#EBEBEB" width="50" height="12"/>
	<rect x="154" y="14" fill="#EBEBEB" width="50" height="12"/>
	<rect x="205" y="14" fill="#EBEBEB" width="50" height="12"/>
	<path fill="#FAFAFA" d="M1,54h254v108c0,0.552-0.448,1-1,1H2c-0.552,0-1-0.448-1-1V54z"/>
</g>
<g id="templates">
</g>
</svg>
