<?xml version="1.0" encoding="utf-8"?>
<!-- Generator: Adobe Illustrator 18.1.1, SVG Export Plug-In . SVG Version: 6.00 Build 0)  -->
<svg version="1.1" xmlns="http://www.w3.org/2000/svg" xmlns:xlink="http://www.w3.org/1999/xlink" x="0px" y="0px"
	 viewBox="0 0 256 164" enable-background="new 0 0 256 164" xml:space="preserve">
<g id="source" display="none">
	<path display="inline" fill="#F5F5F5" d="M1,112h215v52H3c-1.105,0-2-0.895-2-2V112z"/>
	<path display="inline" fill="#E6E6E6" d="M257,13H1V2c0-1.105,0.895-2,2-2h252c1.105,0,2,0.895,2,2V13z"/>
	<path display="inline" fill="#FAFAFA" d="M217,26h40v136c0,1.105-0.895,2-2,2h-38V26z"/>
	<rect x="1" y="26" display="inline" fill="#FFFFFF" width="216" height="86"/>
	<rect x="206" y="27" display="inline" fill="#FAFAFA" width="11" height="11"/>
	<line display="inline" fill="none" stroke="#C2C2C2" stroke-miterlimit="10" x1="216.5" y1="26" x2="216.5" y2="164"/>
	<line display="inline" fill="none" stroke="#C2C2C2" stroke-miterlimit="10" x1="1" y1="13.5" x2="257" y2="13.5"/>
	<line display="inline" fill="none" stroke="#C2C2C2" stroke-miterlimit="10" x1="1" y1="54.5" x2="216" y2="54.5"/>
	<line display="inline" fill="none" stroke="#C2C2C2" stroke-miterlimit="10" x1="1" y1="112.5" x2="216" y2="112.5"/>
	<g display="inline">
		<path fill="#C2C2C2" d="M255,1c0.551,0,1,0.449,1,1v160c0,0.551-0.449,1-1,1H3c-0.551,0-1-0.449-1-1V2c0-0.551,0.449-1,1-1H255
			 M255,0H3C1.9,0,1,0.9,1,2v160c0,1.1,0.9,2,2,2h252c1.1,0,2-0.9,2-2V2C257,0.9,256.1,0,255,0L255,0z"/>
	</g>
	<polyline display="inline" fill="none" stroke="#C2C2C2" stroke-miterlimit="10" points="205.5,27 205.5,37.5 216,37.5 	"/>
	<line display="inline" fill="none" stroke="#C2C2C2" stroke-miterlimit="10" x1="209" y1="30.5" x2="213" y2="30.5"/>
	<line display="inline" fill="none" stroke="#C2C2C2" stroke-miterlimit="10" x1="209" y1="33.5" x2="213" y2="33.5"/>
	<rect x="7.5" y="118.5" display="inline" fill="#FFFFFF" stroke="#C8CACC" stroke-miterlimit="10" width="203" height="39"/>
	<rect x="1" y="14" display="inline" fill="#E6E6E6" width="256" height="12"/>
	<line display="inline" fill="none" stroke="#C2C2C2" stroke-miterlimit="10" x1="52.5" y1="14" x2="52.5" y2="26"/>
	<line display="inline" fill="none" stroke="#C2C2C2" stroke-miterlimit="10" x1="103.5" y1="14" x2="103.5" y2="27"/>
	<line display="inline" fill="none" stroke="#C2C2C2" stroke-miterlimit="10" x1="154.5" y1="14" x2="154.5" y2="27"/>
	<line display="inline" fill="none" stroke="#C2C2C2" stroke-miterlimit="10" x1="205.5" y1="14" x2="205.5" y2="27"/>
	<line display="inline" fill="none" stroke="#C2C2C2" stroke-miterlimit="10" x1="1" y1="26.5" x2="257" y2="26.5"/>
</g>
<g id="outline">
	<path fill="#C2C2C2" d="M0,2c0-1.1,0.9-2,2-2h252c1.1,0,2,0.9,2,2v160c0,1.105-0.895,2-2,2H2c-1.1,0-2-0.9-2-2V2z"/>
	<path fill="#EBEBEB" d="M254,1H2C1.448,1,1,1.448,1,2v11h254V2C255,1.448,254.552,1,254,1z"/>
	<rect x="1" y="14" fill="#EBEBEB" width="50" height="12"/>
	<rect x="52" y="14" fill="#EBEBEB" width="50" height="12"/>
	<rect x="103" y="14" fill="#EBEBEB" width="50" height="12"/>
	<rect x="154" y="14" fill="#EBEBEB" width="50" height="12"/>
	<rect x="205" y="14" fill="#EBEBEB" width="50" height="12"/>
	<g>
		<rect x="1" y="113" fill="#FAFAFA" width="214" height="50"/>
	</g>
	<g>
		<rect x="1" y="54" fill="#FFFFFF" width="214" height="58"/>
	</g>
	<polygon fill="#FFFFFF" points="1,27 204,27 204,38 215,38 215,53 1,53 	"/>
	<rect x="205" y="27" fill="#FAFAFA" width="10" height="10"/>
	<path fill="#FAFAFA" d="M216,27v136h38c0.552,0,1-0.448,1-1V27H216z"/>
	<g>
		<rect x="208" y="30" fill="#C2C2C2" width="4" height="1"/>
	</g>
	<g>
		<rect x="208" y="33" fill="#C2C2C2" width="4" height="1"/>
	</g>
	<rect x="7" y="119" fill="#C8CACC" width="202" height="38"/>
	<rect x="8" y="120" fill="#FFFFFF" width="200" height="36"/>
</g>
<g id="templates">
</g>
</svg>
