<?xml version="1.0" encoding="utf-8"?>
<!-- Generator: Adobe Illustrator 16.0.4, SVG Export Plug-In . SVG Version: 6.00 Build 0)  -->
<!DOCTYPE svg PUBLIC "-//W3C//DTD SVG 1.1//EN" "http://www.w3.org/Graphics/SVG/1.1/DTD/svg11.dtd">
<svg version="1.1" id="Layer_1" xmlns="http://www.w3.org/2000/svg" xmlns:xlink="http://www.w3.org/1999/xlink" x="0px" y="0px"
	 width="72px" height="36px" viewBox="64.5 0 72 36" enable-background="new 64.5 0 72 36" xml:space="preserve">
<g id="bkgd">
</g>
<g id="icons" opacity="0.05">
	<g>
		<path d="M89.336,19.551v0.547h-4.922v-0.547H89.336 M89.336,19.277h-4.922c-0.15,0-0.273,0.123-0.273,0.273v0.547
			c0,0.15,0.123,0.273,0.273,0.273h4.922c0.15,0,0.273-0.123,0.273-0.273v-0.547C89.609,19.4,89.486,19.277,89.336,19.277
			L89.336,19.277z"/>
		<path d="M89.336,21.465v0.547h-4.922v-0.547H89.336 M89.336,21.191h-4.922c-0.15,0-0.273,0.123-0.273,0.273v0.547
			c0,0.15,0.123,0.273,0.273,0.273h4.922c0.15,0,0.273-0.123,0.273-0.273v-0.547C89.609,21.314,89.486,21.191,89.336,21.191
			L89.336,21.191z"/>
		<path d="M89.336,23.379v0.547h-1.094v-0.547H89.336 M89.336,23.105h-1.094c-0.15,0-0.273,0.123-0.273,0.273v0.547
			c0,0.15,0.123,0.273,0.273,0.273h1.094c0.15,0,0.273-0.123,0.273-0.273v-0.547C89.609,23.229,89.486,23.105,89.336,23.105
			L89.336,23.105z"/>
		<path d="M87.148,23.379v0.547h-1.094v-0.547H87.148 M87.148,23.105h-1.094c-0.15,0-0.273,0.123-0.273,0.273v0.547
			c0,0.15,0.123,0.273,0.273,0.273h1.094c0.15,0,0.273-0.123,0.273-0.273v-0.547C87.422,23.229,87.299,23.105,87.148,23.105
			L87.148,23.105z"/>
	</g>
	<g>
		<path d="M71.836,19.141h-4.922c-0.15,0-0.273,0.123-0.273,0.273v4.922c0,0.15,0.123,0.273,0.273,0.273h4.922
			c0.15,0,0.273-0.123,0.273-0.273v-4.922C72.109,19.264,71.986,19.141,71.836,19.141z M68.008,24.336h-1.094v-4.102h1.094V24.336z
			 M70.469,24.336h-2.188v-4.102h2.188V24.336z M71.836,24.336h-1.094v-4.102h1.094V24.336z M71.836,19.961h-4.922v-0.547h4.922
			V19.961z"/>
	</g>
	<path d="M133.086,27.891h-4.922c-0.15,0-0.273,0.123-0.273,0.273v4.922c0,0.15,0.123,0.273,0.273,0.273h4.922
		c0.15,0,0.273-0.123,0.273-0.273v-4.922C133.359,28.014,133.236,27.891,133.086,27.891z M129.258,33.086h-1.094v-4.102h1.094
		V33.086z M132.812,33.086h-3.281v-0.273h3.281V33.086z M132.812,32.539h-3.281v-0.273h3.281V32.539z M131.98,30.625h0.552
		c-0.069,0.689-0.652,1.23-1.36,1.23c-0.318,0-0.621-0.109-0.865-0.309l0.391-0.391c0.138,0.099,0.302,0.152,0.475,0.152
		C131.578,31.309,131.914,31.012,131.98,30.625z M131.309,29.68v-0.552c0.645,0.064,1.159,0.579,1.223,1.224h-0.552
		C131.922,30.009,131.651,29.738,131.309,29.68z M131.035,29.68c-0.387,0.066-0.684,0.402-0.684,0.809
		c0,0.173,0.054,0.337,0.152,0.475l-0.391,0.391c-0.199-0.244-0.309-0.546-0.309-0.865c0-0.708,0.541-1.291,1.23-1.36V29.68z
		 M133.086,28.711h-4.922v-0.547h4.922V28.711z"/>
	<path d="M80.844,22.056l-1.006-1.094c-0.026-0.028-0.062-0.044-0.101-0.044h-4.073c-0.076,0-0.137,0.061-0.137,0.137v2.188
		c0,0.076,0.061,0.137,0.137,0.137h4.074c0.038,0,0.075-0.016,0.101-0.044l1.006-1.094C80.892,22.188,80.892,22.108,80.844,22.056z
		 M75.801,23.105v-1.914h0.784l0.88,0.957l-0.88,0.957H75.801z M76.956,23.105l0.88-0.957l-0.88-0.957h1.167l0.88,0.957l-0.88,0.957
		H76.956z M79.677,23.105h-1.184l0.88-0.957l-0.88-0.957h1.184l0.88,0.957L79.677,23.105z"/>
	<g>
		<g>
			<path d="M123.789,29.258h-3.828c-0.451,0-0.82,0.369-0.82,0.82v1.094c0,0.451,0.369,0.82,0.82,0.82h3.828
				c0.451,0,0.82-0.369,0.82-0.82v-1.094C124.609,29.627,124.24,29.258,123.789,29.258z M124.336,31.172
				c0,0.302-0.245,0.547-0.547,0.547h-3.828c-0.302,0-0.547-0.245-0.547-0.547v-1.094c0-0.302,0.245-0.547,0.547-0.547h3.828
				c0.302,0,0.547,0.245,0.547,0.547V31.172z"/>
			<path d="M123.13,31.309c-0.034,0-0.069-0.014-0.097-0.04c-0.053-0.054-0.053-0.14,0-0.193l0.45-0.45l-0.45-0.45
				c-0.053-0.054-0.053-0.14,0-0.193c0.054-0.054,0.141-0.054,0.193,0l0.644,0.644l-0.644,0.644
				C123.2,31.295,123.165,31.309,123.13,31.309z"/>
		</g>
	</g>
	<g>
		<path d="M96.445,19.961h-1.641v-0.273c0-0.15,0.123-0.273,0.273-0.273h1.094c0.151,0,0.273,0.123,0.273,0.273V19.961z"/>
		<path d="M98.359,19.961h-1.641v-0.273c0-0.15,0.123-0.273,0.273-0.273h1.094c0.151,0,0.273,0.123,0.273,0.273V19.961z"/>
		<path d="M94.531,20.234v-0.547c0-0.15-0.123-0.273-0.273-0.273h-1.094c-0.151,0-0.273,0.123-0.273,0.273v1.094h5.469v-0.547
			H94.531z"/>
		<polygon points="94.121,21.875 95.352,23.105 94.941,23.105 94.941,24.199 94.395,24.199 94.395,23.379 93.848,23.379 
			93.848,24.199 93.301,24.199 93.301,23.105 92.891,23.105 		"/>
		<path d="M98.223,21.738h-2.188c-0.075,0-0.137,0.062-0.137,0.137v2.461c0,0.075,0.062,0.137,0.137,0.137h2.188
			c0.075,0,0.137-0.062,0.137-0.137v-2.461C98.359,21.8,98.298,21.738,98.223,21.738z M97.129,22.148c0.227,0,0.41,0.184,0.41,0.41
			s-0.184,0.41-0.41,0.41s-0.41-0.184-0.41-0.41S96.902,22.148,97.129,22.148z M97.949,24.062h-1.641v-0.273h1.641V24.062z
			 M97.949,23.516h-1.641v-0.273h1.641V23.516z"/>
	</g>
	<path d="M124.336,19.277h-4.922c-0.15,0-0.273,0.123-0.273,0.273v4.375c0,0.15,0.123,0.273,0.273,0.273h4.922
		c0.15,0,0.273-0.123,0.273-0.273v-4.375C124.609,19.4,124.486,19.277,124.336,19.277z M120.508,23.789h-0.957v-0.82h0.957V23.789z
		 M120.508,22.695h-0.957v-0.82h0.957V22.695z M120.508,21.602h-0.957v-0.82h0.957V21.602z M121.738,23.789h-0.957v-0.82h0.957
		V23.789z M121.738,22.695h-0.957v-0.82h0.957V22.695z M121.738,21.602h-0.957v-0.82h0.957V21.602z M122.969,23.789h-0.957v-0.82
		h0.957V23.789z M122.969,22.695h-0.957v-0.82h0.957V22.695z M122.969,21.602h-0.957v-0.82h0.957V21.602z M124.199,23.789h-0.957
		v-0.82h0.957V23.789z M124.199,22.695h-0.957v-0.82h0.957V22.695z M124.199,21.602h-0.957v-0.82h0.957V21.602z M124.199,20.508
		h-4.648v-0.82h4.648V20.508z"/>
	<path d="M106.836,19.824h-4.922c-0.15,0-0.273,0.123-0.273,0.273v3.555c0,0.15,0.123,0.273,0.273,0.273h4.922
		c0.15,0,0.273-0.123,0.273-0.273v-3.555C107.109,19.947,106.986,19.824,106.836,19.824z M103.965,23.379h-1.914v-0.547h1.914
		V23.379z M103.965,22.559h-1.914v-0.547h1.914V22.559z M103.965,21.738h-1.914v-0.547h1.914V21.738z M103.965,20.918h-1.914v-0.547
		h1.914V20.918z M105.879,23.379h-1.641v-0.547h1.641V23.379z M105.879,22.559h-1.641v-0.547h1.641V22.559z M105.879,21.738h-1.641
		v-0.547h1.641V21.738z M105.879,20.918h-1.641v-0.547h1.641V20.918z M106.699,23.379h-0.547v-0.547h0.547V23.379z M106.699,22.559
		h-0.547v-0.547h0.547V22.559z M106.699,21.738h-0.547v-0.547h0.547V21.738z M106.699,20.918h-0.547v-0.547h0.547V20.918z"/>
	<g>
		<path d="M110.664,19.141c-0.303,0-0.547,0.245-0.547,0.547s0.244,0.547,0.547,0.547s0.547-0.245,0.547-0.547
			S110.967,19.141,110.664,19.141z M110.664,19.961c-0.15,0-0.273-0.123-0.273-0.273s0.123-0.273,0.273-0.273
			s0.273,0.123,0.273,0.273S110.814,19.961,110.664,19.961z"/>
		<path d="M110.664,21.328c-0.303,0-0.547,0.245-0.547,0.547s0.244,0.547,0.547,0.547s0.547-0.245,0.547-0.547
			S110.967,21.328,110.664,21.328z M110.664,22.148c-0.15,0-0.273-0.123-0.273-0.273s0.123-0.273,0.273-0.273
			s0.273,0.123,0.273,0.273S110.814,22.148,110.664,22.148z"/>
		<path d="M110.664,23.516c-0.303,0-0.547,0.245-0.547,0.547s0.244,0.547,0.547,0.547s0.547-0.245,0.547-0.547
			S110.967,23.516,110.664,23.516z M110.664,24.336c-0.15,0-0.273-0.123-0.273-0.273s0.123-0.273,0.273-0.273
			s0.273,0.123,0.273,0.273S110.814,24.336,110.664,24.336z"/>
		<rect x="112.305" y="19.961" width="3.281" height="0.273"/>
		<rect x="112.305" y="19.141" width="3.281" height="0.273"/>
		<rect x="112.305" y="22.148" width="3.281" height="0.273"/>
		<rect x="112.305" y="21.328" width="3.281" height="0.273"/>
		<rect x="112.305" y="24.336" width="3.281" height="0.273"/>
		<rect x="112.305" y="23.516" width="3.281" height="0.273"/>
	</g>
	<g>
		<circle cx="102.188" cy="28.711" r="0.547"/>
		<rect x="104.922" y="28.574" width="2.188" height="0.273"/>
		<rect x="104.922" y="30.488" width="2.188" height="0.273"/>
		<rect x="104.922" y="32.402" width="2.188" height="0.273"/>
		<circle cx="102.188" cy="30.625" r="0.547"/>
		<circle cx="102.188" cy="32.539" r="0.547"/>
		<circle cx="103.828" cy="28.711" r="0.547"/>
		<circle cx="103.828" cy="30.625" r="0.547"/>
		<circle cx="103.828" cy="32.539" r="0.547"/>
	</g>
	<path d="M98.086,28.027h-4.922c-0.15,0-0.273,0.123-0.273,0.273v1.094c0,0.15,0.123,0.273,0.273,0.273h4.922
		c0.15,0,0.273-0.123,0.273-0.273v-1.094C98.359,28.15,98.236,28.027,98.086,28.027z M93.711,29.121h-0.273v-0.547h0.273V29.121z
		 M94.258,29.121h-0.273v-0.547h0.273V29.121z M94.805,29.121h-0.273v-0.547h0.273V29.121z M97.539,29.121
		c-0.151,0-0.273-0.123-0.273-0.273s0.123-0.273,0.273-0.273s0.273,0.123,0.273,0.273S97.69,29.121,97.539,29.121z"/>
	<path d="M98.086,29.941h-4.922c-0.15,0-0.273,0.123-0.273,0.273v1.094c0,0.15,0.123,0.273,0.273,0.273h4.922
		c0.15,0,0.273-0.123,0.273-0.273v-1.094C98.359,30.064,98.236,29.941,98.086,29.941z M93.711,31.035h-0.273v-0.547h0.273V31.035z
		 M94.258,31.035h-0.273v-0.547h0.273V31.035z M94.805,31.035h-0.273v-0.547h0.273V31.035z M97.539,31.035
		c-0.151,0-0.273-0.123-0.273-0.273s0.123-0.273,0.273-0.273s0.273,0.123,0.273,0.273S97.69,31.035,97.539,31.035z"/>
	<path d="M98.086,31.855h-4.922c-0.15,0-0.273,0.123-0.273,0.273v1.094c0,0.15,0.123,0.273,0.273,0.273h4.922
		c0.15,0,0.273-0.123,0.273-0.273v-1.094C98.359,31.979,98.236,31.855,98.086,31.855z M93.711,32.949h-0.273v-0.547h0.273V32.949z
		 M94.258,32.949h-0.273v-0.547h0.273V32.949z M94.805,32.949h-0.273v-0.547h0.273V32.949z M97.539,32.949
		c-0.151,0-0.273-0.123-0.273-0.273s0.123-0.273,0.273-0.273s0.273,0.123,0.273,0.273S97.69,32.949,97.539,32.949z"/>
	<g>
		<circle cx="78.125" cy="29.121" r="0.684"/>
		<circle cx="80.039" cy="29.121" r="0.684"/>
		<circle cx="76.211" cy="29.121" r="0.684"/>
		<polygon points="79.589,32.772 79.396,32.579 80.119,31.855 79.396,31.132 79.589,30.938 80.506,31.855 		"/>
		<polygon points="76.661,32.772 75.744,31.855 76.661,30.938 76.854,31.132 76.131,31.855 76.854,32.579 		"/>
	</g>
	<g>
		<path d="M71.971,32.629c0,0-1.107-1.102-1.552-1.538c0.223-0.333,0.353-0.732,0.353-1.163c0-1.156-0.938-2.094-2.094-2.094
			c-1.156,0-2.094,0.938-2.094,2.094s0.938,2.095,2.094,2.095c0.427,0,0.823-0.128,1.154-0.348l1.546,1.546
			c0.109,0.109,0.286,0.109,0.395,0l0.197-0.197C72.08,32.914,72.08,32.738,71.971,32.629z M67.143,29.928
			c0-0.848,0.688-1.535,1.536-1.535s1.536,0.688,1.536,1.535c0,0.849-0.688,1.536-1.536,1.536S67.143,30.776,67.143,29.928z"/>
	</g>
	<path d="M133.086,19.141h-4.922c-0.15,0-0.273,0.123-0.273,0.273v4.922c0,0.15,0.123,0.273,0.273,0.273h4.922
		c0.15,0,0.273-0.123,0.273-0.273v-4.922C133.359,19.264,133.236,19.141,133.086,19.141z M133.086,24.336h-4.922v-3.828h4.922
		V24.336z M133.086,20.234h-4.922v-0.82h4.922V20.234z"/>
	<g>
		<path d="M112.031,29.531h2.188c0.15,0,0.273-0.123,0.273-0.273v-0.547h-0.547c0-0.453-0.367-0.82-0.82-0.82s-0.82,0.367-0.82,0.82
			h-0.547v0.547C111.758,29.408,111.881,29.531,112.031,29.531z M113.125,28.438c0.15,0,0.273,0.123,0.273,0.273
			s-0.123,0.273-0.273,0.273s-0.273-0.123-0.273-0.273S112.975,28.438,113.125,28.438z"/>
		<path d="M115.039,28.711h-0.273v0.547c0,0.302-0.245,0.547-0.547,0.547h-2.188c-0.302,0-0.547-0.245-0.547-0.547v-0.547h-0.273
			c-0.15,0-0.273,0.123-0.273,0.273v4.102c0,0.15,0.123,0.273,0.273,0.273h3.828c0.15,0,0.273-0.123,0.273-0.273v-4.102
			C115.312,28.834,115.189,28.711,115.039,28.711z M111.758,32.538c-0.15,0-0.273-0.122-0.273-0.273s0.123-0.273,0.273-0.273
			s0.273,0.122,0.273,0.273S111.908,32.538,111.758,32.538z M111.758,31.581c-0.15,0-0.273-0.122-0.273-0.273
			s0.123-0.273,0.273-0.273s0.273,0.122,0.273,0.273S111.908,31.581,111.758,31.581z M111.758,30.624
			c-0.15,0-0.273-0.122-0.273-0.273s0.123-0.273,0.273-0.273s0.273,0.122,0.273,0.273S111.908,30.624,111.758,30.624z
			 M114.766,32.402h-2.188v-0.273h2.188V32.402z M114.766,31.445h-2.188v-0.273h2.188V31.445z M114.766,30.488h-2.188v-0.273h2.188
			V30.488z"/>
	</g>
	<g>
		<path d="M88.804,27.891h-3.585c-0.217,0-0.395,0.178-0.395,0.395v0.426h-0.41c-0.226,0-0.41,0.184-0.41,0.41v1.094
			c0,0.227,0.184,0.41,0.41,0.41h2.324c0.075,0,0.137,0.061,0.137,0.137v0.424c-0.312,0.063-0.547,0.34-0.547,0.67v1.777
			c0,0.15,0.123,0.273,0.273,0.273h0.82c0.151,0,0.273-0.123,0.273-0.273v-1.777c0-0.33-0.235-0.606-0.547-0.67v-0.424
			c0-0.227-0.184-0.41-0.41-0.41h-2.324c-0.075,0-0.137-0.061-0.137-0.137v-1.094c0-0.076,0.062-0.137,0.137-0.137h0.41v0.289
			c0,0.217,0.178,0.395,0.395,0.395h3.585c0.217,0,0.395-0.178,0.395-0.395v-0.988C89.199,28.068,89.021,27.891,88.804,27.891z
			 M87.422,31.855v1.641c0,0.076-0.061,0.137-0.137,0.137h-0.547c-0.076,0-0.137-0.061-0.137-0.137v-1.641
			c0-0.227,0.184-0.41,0.41-0.41S87.422,31.629,87.422,31.855z M88.926,29.213c0,0.1-0.082,0.182-0.182,0.182H85.28
			c-0.101,0-0.183-0.082-0.183-0.182v-0.866c0-0.101,0.082-0.183,0.183-0.183h3.463c0.101,0,0.182,0.082,0.182,0.183V29.213z"/>
	</g>
	<path d="M88.683,30.268c0,0,0.205,0.268,0.205,0.479c0,0.136-0.092,0.205-0.205,0.205s-0.205-0.068-0.205-0.205
		C88.478,30.535,88.683,30.268,88.683,30.268z"/>
	<g>
		<path d="M124.336,2.051v0.547h-4.922V2.051H124.336 M124.336,1.777h-4.922c-0.15,0-0.273,0.123-0.273,0.273v0.547
			c0,0.15,0.123,0.273,0.273,0.273h4.922c0.15,0,0.273-0.123,0.273-0.273V2.051C124.609,1.9,124.486,1.777,124.336,1.777
			L124.336,1.777z"/>
		<path d="M124.336,3.965v0.547h-4.922V3.965H124.336 M124.336,3.691h-4.922c-0.15,0-0.273,0.123-0.273,0.273v0.547
			c0,0.15,0.123,0.273,0.273,0.273h4.922c0.15,0,0.273-0.123,0.273-0.273V3.965C124.609,3.814,124.486,3.691,124.336,3.691
			L124.336,3.691z"/>
		<path d="M124.336,5.879v0.547h-1.094V5.879H124.336 M124.336,5.605h-1.094c-0.15,0-0.273,0.123-0.273,0.273v0.547
			c0,0.15,0.123,0.273,0.273,0.273h1.094c0.15,0,0.273-0.123,0.273-0.273V5.879C124.609,5.729,124.486,5.605,124.336,5.605
			L124.336,5.605z"/>
		<path d="M122.148,5.879v0.547h-1.094V5.879H122.148 M122.148,5.605h-1.094c-0.15,0-0.273,0.123-0.273,0.273v0.547
			c0,0.15,0.123,0.273,0.273,0.273h1.094c0.15,0,0.273-0.123,0.273-0.273V5.879C122.422,5.729,122.299,5.605,122.148,5.605
			L122.148,5.605z"/>
	</g>
	<g>
		<path d="M106.836,1.641h-4.922c-0.15,0-0.273,0.123-0.273,0.273v4.922c0,0.15,0.123,0.273,0.273,0.273h4.922
			c0.15,0,0.273-0.123,0.273-0.273V1.914C107.109,1.764,106.986,1.641,106.836,1.641z M103.008,6.836h-1.094V2.734h1.094V6.836z
			 M105.469,6.836h-2.188V2.734h2.188V6.836z M106.836,6.836h-1.094V2.734h1.094V6.836z M106.836,2.461h-4.922V1.914h4.922V2.461z"
			/>
	</g>
	<path d="M115.844,4.556l-1.006-1.094c-0.025-0.028-0.062-0.044-0.101-0.044h-4.073c-0.076,0-0.137,0.061-0.137,0.137v2.188
		c0,0.076,0.061,0.137,0.137,0.137h4.074c0.037,0,0.074-0.016,0.1-0.044l1.006-1.094C115.893,4.688,115.893,4.608,115.844,4.556z
		 M110.801,5.605V3.691h0.783l0.881,0.957l-0.881,0.957H110.801z M111.955,5.605l0.881-0.957l-0.881-0.957h1.168l0.88,0.957
		l-0.88,0.957H111.955z M114.678,5.605h-1.184l0.88-0.957l-0.88-0.957h1.184l0.88,0.957L114.678,5.605z"/>
	<g>
		<path d="M131.445,2.461h-1.641V2.188c0-0.151,0.123-0.273,0.273-0.273h1.094c0.15,0,0.273,0.123,0.273,0.273V2.461z"/>
		<path d="M133.359,2.461h-1.641V2.188c0-0.151,0.123-0.273,0.273-0.273h1.094c0.15,0,0.273,0.123,0.273,0.273V2.461z"/>
		<path d="M129.531,2.734V2.188c0-0.151-0.123-0.273-0.273-0.273h-1.094c-0.15,0-0.273,0.123-0.273,0.273v1.094h5.469V2.734H129.531
			z"/>
		<polygon points="129.121,4.375 130.352,5.605 129.941,5.605 129.941,6.699 129.395,6.699 129.395,5.879 128.848,5.879 
			128.848,6.699 128.301,6.699 128.301,5.605 127.891,5.605 		"/>
		<path d="M133.223,4.238h-2.188c-0.075,0-0.137,0.062-0.137,0.137v2.461c0,0.075,0.062,0.137,0.137,0.137h2.188
			c0.075,0,0.137-0.062,0.137-0.137V4.375C133.359,4.3,133.298,4.238,133.223,4.238z M132.129,4.648c0.227,0,0.41,0.184,0.41,0.41
			s-0.184,0.41-0.41,0.41s-0.41-0.184-0.41-0.41S131.902,4.648,132.129,4.648z M132.949,6.562h-1.641V6.289h1.641V6.562z
			 M132.949,6.016h-1.641V5.742h1.641V6.016z"/>
	</g>
	<path d="M133.086,10.527h-4.922c-0.15,0-0.273,0.123-0.273,0.273v1.094c0,0.15,0.123,0.273,0.273,0.273h4.922
		c0.15,0,0.273-0.123,0.273-0.273v-1.094C133.359,10.65,133.236,10.527,133.086,10.527z M128.711,11.621h-0.273v-0.547h0.273V11.621
		z M129.258,11.621h-0.273v-0.547h0.273V11.621z M129.805,11.621h-0.273v-0.547h0.273V11.621z M132.539,11.621
		c-0.15,0-0.273-0.123-0.273-0.273s0.123-0.273,0.273-0.273s0.273,0.123,0.273,0.273S132.689,11.621,132.539,11.621z"/>
	<path d="M133.086,12.441h-4.922c-0.15,0-0.273,0.123-0.273,0.273v1.094c0,0.15,0.123,0.273,0.273,0.273h4.922
		c0.15,0,0.273-0.123,0.273-0.273v-1.094C133.359,12.564,133.236,12.441,133.086,12.441z M128.711,13.535h-0.273v-0.547h0.273
		V13.535z M129.258,13.535h-0.273v-0.547h0.273V13.535z M129.805,13.535h-0.273v-0.547h0.273V13.535z M132.539,13.535
		c-0.15,0-0.273-0.123-0.273-0.273s0.123-0.273,0.273-0.273s0.273,0.123,0.273,0.273S132.689,13.535,132.539,13.535z"/>
	<path d="M133.086,14.355h-4.922c-0.15,0-0.273,0.123-0.273,0.273v1.094c0,0.15,0.123,0.273,0.273,0.273h4.922
		c0.15,0,0.273-0.123,0.273-0.273v-1.094C133.359,14.479,133.236,14.355,133.086,14.355z M128.711,15.449h-0.273v-0.547h0.273
		V15.449z M129.258,15.449h-0.273v-0.547h0.273V15.449z M129.805,15.449h-0.273v-0.547h0.273V15.449z M132.539,15.449
		c-0.15,0-0.273-0.123-0.273-0.273s0.123-0.273,0.273-0.273s0.273,0.123,0.273,0.273S132.689,15.449,132.539,15.449z"/>
	<g>
		<circle cx="113.125" cy="11.621" r="0.684"/>
		<circle cx="115.039" cy="11.621" r="0.684"/>
		<circle cx="111.211" cy="11.621" r="0.684"/>
		<polygon points="114.589,15.272 114.396,15.079 115.119,14.355 114.396,13.632 114.589,13.438 115.506,14.355 		"/>
		<polygon points="111.661,15.272 110.744,14.355 111.661,13.438 111.854,13.632 111.131,14.355 111.854,15.079 		"/>
	</g>
	<g>
		<path d="M106.971,15.128c0,0-1.106-1.101-1.551-1.538c0.223-0.333,0.353-0.732,0.353-1.163c0-1.157-0.938-2.094-2.095-2.094
			c-1.156,0-2.094,0.938-2.094,2.094c0,1.156,0.938,2.094,2.094,2.094c0.428,0,0.824-0.128,1.154-0.348l1.547,1.546
			c0.109,0.109,0.285,0.109,0.395,0l0.197-0.198C107.08,15.415,107.08,15.238,106.971,15.128z M102.143,12.428
			c0-0.848,0.688-1.536,1.535-1.536c0.849,0,1.536,0.688,1.536,1.536s-0.688,1.536-1.536,1.536
			C102.83,13.964,102.143,13.276,102.143,12.428z"/>
	</g>
	<path d="M98.086,10.391h-4.922c-0.15,0-0.273,0.123-0.273,0.273v4.922c0,0.15,0.123,0.273,0.273,0.273h4.922
		c0.15,0,0.273-0.123,0.273-0.273v-4.922C98.359,10.514,98.236,10.391,98.086,10.391z M94.258,15.586h-1.094v-4.102h1.094V15.586z
		 M97.812,15.586h-3.281v-0.273h3.281V15.586z M97.812,15.039h-3.281v-0.273h3.281V15.039z M96.98,13.125h0.552
		c-0.069,0.69-0.652,1.23-1.36,1.23c-0.319,0-0.622-0.109-0.865-0.309l0.391-0.39c0.138,0.098,0.302,0.152,0.475,0.152
		C96.578,13.809,96.915,13.512,96.98,13.125z M96.309,12.18v-0.552c0.645,0.064,1.159,0.579,1.223,1.224H96.98
		C96.922,12.509,96.651,12.238,96.309,12.18z M96.035,12.18c-0.387,0.065-0.684,0.402-0.684,0.808c0,0.173,0.054,0.337,0.152,0.475
		l-0.391,0.391c-0.2-0.244-0.309-0.546-0.309-0.865c0-0.708,0.541-1.292,1.23-1.36V12.18z M98.086,11.211h-4.922v-0.547h4.922
		V11.211z"/>
	<g>
		<g>
			<path d="M88.789,11.758h-3.828c-0.451,0-0.82,0.369-0.82,0.82v1.094c0,0.451,0.369,0.82,0.82,0.82h3.828
				c0.451,0,0.82-0.369,0.82-0.82v-1.094C89.609,12.127,89.24,11.758,88.789,11.758z M89.336,13.672
				c0,0.302-0.245,0.547-0.547,0.547h-3.828c-0.302,0-0.547-0.245-0.547-0.547v-1.094c0-0.302,0.245-0.547,0.547-0.547h3.828
				c0.302,0,0.547,0.245,0.547,0.547V13.672z"/>
			<path d="M89.336,15.586v0.273V15.586L89.336,15.586L89.336,15.586z"/>
			<path d="M88.13,13.809c-0.035,0-0.07-0.013-0.097-0.04c-0.053-0.054-0.053-0.14,0-0.193l0.45-0.45l-0.45-0.45
				c-0.053-0.054-0.053-0.14,0-0.193c0.054-0.053,0.14-0.053,0.193,0l0.644,0.644l-0.644,0.644
				C88.2,13.795,88.165,13.809,88.13,13.809z"/>
		</g>
	</g>
	<path d="M89.336,1.777h-4.922c-0.151,0-0.273,0.123-0.273,0.273v4.375c0,0.151,0.123,0.273,0.273,0.273h4.922
		c0.151,0,0.273-0.123,0.273-0.273V2.051C89.609,1.9,89.487,1.777,89.336,1.777z M85.508,6.289h-0.957v-0.82h0.957V6.289z
		 M85.508,5.195h-0.957v-0.82h0.957V5.195z M85.508,4.102h-0.957v-0.82h0.957V4.102z M86.738,6.289h-0.957v-0.82h0.957V6.289z
		 M86.738,5.195h-0.957v-0.82h0.957V5.195z M86.738,4.102h-0.957v-0.82h0.957V4.102z M87.969,6.289h-0.957v-0.82h0.957V6.289z
		 M87.969,5.195h-0.957v-0.82h0.957V5.195z M87.969,4.102h-0.957v-0.82h0.957V4.102z M89.199,6.289h-0.957v-0.82h0.957V6.289z
		 M89.199,5.195h-0.957v-0.82h0.957V5.195z M89.199,4.102h-0.957v-0.82h0.957V4.102z M89.199,3.008h-4.648v-0.82h4.648V3.008z"/>
	<path d="M71.836,2.324h-4.922c-0.15,0-0.273,0.123-0.273,0.273v3.555c0,0.15,0.123,0.273,0.273,0.273h4.922
		c0.15,0,0.273-0.123,0.273-0.273V2.598C72.109,2.447,71.986,2.324,71.836,2.324z M68.965,5.879h-1.914V5.332h1.914V5.879z
		 M68.965,5.059h-1.914V4.512h1.914V5.059z M68.965,4.238h-1.914V3.691h1.914V4.238z M68.965,3.418h-1.914V2.871h1.914V3.418z
		 M70.879,5.879h-1.641V5.332h1.641V5.879z M70.879,5.059h-1.641V4.512h1.641V5.059z M70.879,4.238h-1.641V3.691h1.641V4.238z
		 M70.879,3.418h-1.641V2.871h1.641V3.418z M71.699,5.879h-0.547V5.332h0.547V5.879z M71.699,5.059h-0.547V4.512h0.547V5.059z
		 M71.699,4.238h-0.547V3.691h0.547V4.238z M71.699,3.418h-0.547V2.871h0.547V3.418z"/>
	<g>
		<path d="M75.664,1.641c-0.302,0-0.547,0.245-0.547,0.547s0.245,0.547,0.547,0.547s0.547-0.245,0.547-0.547
			S75.966,1.641,75.664,1.641z M75.664,2.461c-0.151,0-0.273-0.123-0.273-0.273s0.123-0.273,0.273-0.273s0.273,0.123,0.273,0.273
			S75.815,2.461,75.664,2.461z"/>
		<path d="M75.664,3.828c-0.302,0-0.547,0.245-0.547,0.547s0.245,0.547,0.547,0.547s0.547-0.245,0.547-0.547
			S75.966,3.828,75.664,3.828z M75.664,4.648c-0.151,0-0.273-0.123-0.273-0.273s0.123-0.273,0.273-0.273s0.273,0.123,0.273,0.273
			S75.815,4.648,75.664,4.648z"/>
		<path d="M75.664,6.016c-0.302,0-0.547,0.245-0.547,0.547s0.245,0.547,0.547,0.547s0.547-0.245,0.547-0.547
			S75.966,6.016,75.664,6.016z M75.664,6.836c-0.151,0-0.273-0.123-0.273-0.273s0.123-0.273,0.273-0.273s0.273,0.123,0.273,0.273
			S75.815,6.836,75.664,6.836z"/>
		<rect x="77.305" y="2.461" width="3.281" height="0.273"/>
		<rect x="77.305" y="1.641" width="3.281" height="0.273"/>
		<rect x="77.305" y="4.648" width="3.281" height="0.273"/>
		<rect x="77.305" y="3.828" width="3.281" height="0.273"/>
		<rect x="77.305" y="6.836" width="3.281" height="0.273"/>
		<rect x="77.305" y="6.016" width="3.281" height="0.273"/>
	</g>
	<g>
		<circle cx="67.188" cy="11.211" r="0.547"/>
		<rect x="69.922" y="11.074" width="2.188" height="0.273"/>
		<rect x="69.922" y="12.988" width="2.188" height="0.273"/>
		<rect x="69.922" y="14.902" width="2.188" height="0.273"/>
		<circle cx="67.188" cy="13.125" r="0.547"/>
		<circle cx="67.188" cy="15.039" r="0.547"/>
		<circle cx="68.828" cy="11.211" r="0.547"/>
		<circle cx="68.828" cy="13.125" r="0.547"/>
		<circle cx="68.828" cy="15.039" r="0.547"/>
	</g>
	<path d="M98.086,1.641h-4.922c-0.15,0-0.273,0.123-0.273,0.273v4.922c0,0.15,0.123,0.273,0.273,0.273h4.922
		c0.15,0,0.273-0.123,0.273-0.273V1.914C98.359,1.764,98.236,1.641,98.086,1.641z M98.086,6.836h-4.922V3.008h4.922V6.836z
		 M98.086,2.734h-4.922v-0.82h4.922V2.734z"/>
	<g>
		<path d="M77.031,12.031h2.188c0.151,0,0.273-0.123,0.273-0.273v-0.547h-0.547c0-0.453-0.367-0.82-0.82-0.82s-0.82,0.367-0.82,0.82
			h-0.547v0.547C76.758,11.909,76.88,12.031,77.031,12.031z M78.125,10.938c0.151,0,0.273,0.123,0.273,0.273
			s-0.123,0.273-0.273,0.273s-0.273-0.123-0.273-0.273S77.974,10.938,78.125,10.938z"/>
		<path d="M80.039,11.211h-0.273v0.547c0,0.302-0.245,0.547-0.547,0.547h-2.188c-0.302,0-0.547-0.245-0.547-0.547v-0.547h-0.273
			c-0.151,0-0.273,0.123-0.273,0.273v4.102c0,0.151,0.123,0.273,0.273,0.273h3.828c0.151,0,0.273-0.123,0.273-0.273v-4.102
			C80.312,11.333,80.19,11.211,80.039,11.211z M76.758,15.038c-0.151,0-0.273-0.123-0.273-0.273c0-0.151,0.123-0.273,0.273-0.273
			s0.273,0.122,0.273,0.273C77.031,14.916,76.909,15.038,76.758,15.038z M76.758,14.081c-0.151,0-0.273-0.123-0.273-0.273
			c0-0.151,0.123-0.273,0.273-0.273s0.273,0.122,0.273,0.273C77.031,13.958,76.909,14.081,76.758,14.081z M76.758,13.124
			c-0.151,0-0.273-0.123-0.273-0.273c0-0.151,0.123-0.273,0.273-0.273s0.273,0.122,0.273,0.273
			C77.031,13.001,76.909,13.124,76.758,13.124z M79.766,14.902h-2.188v-0.273h2.188V14.902z M79.766,13.945h-2.188v-0.273h2.188
			V13.945z M79.766,12.988h-2.188v-0.273h2.188V12.988z"/>
	</g>
	<g>
		<path d="M123.805,10.391h-3.586c-0.217,0-0.395,0.178-0.395,0.395v0.425h-0.41c-0.227,0-0.41,0.184-0.41,0.41v1.094
			c0,0.226,0.184,0.41,0.41,0.41h2.324c0.075,0,0.137,0.061,0.137,0.137v0.424c-0.312,0.063-0.547,0.339-0.547,0.67v1.777
			c0,0.151,0.123,0.273,0.273,0.273h0.82c0.15,0,0.273-0.123,0.273-0.273v-1.777c0-0.331-0.234-0.606-0.547-0.67v-0.424
			c0-0.226-0.184-0.41-0.41-0.41h-2.324c-0.075,0-0.137-0.061-0.137-0.137v-1.094c0-0.076,0.062-0.137,0.137-0.137h0.41v0.289
			c0,0.217,0.178,0.395,0.395,0.395h3.586c0.217,0,0.395-0.178,0.395-0.395v-0.987C124.199,10.568,124.021,10.391,123.805,10.391z
			 M122.422,14.355v1.641c0,0.076-0.061,0.137-0.137,0.137h-0.547c-0.076,0-0.137-0.061-0.137-0.137v-1.641
			c0-0.227,0.184-0.41,0.41-0.41S122.422,14.129,122.422,14.355z M123.926,11.712c0,0.101-0.082,0.182-0.182,0.182h-3.464
			c-0.101,0-0.183-0.082-0.183-0.182v-0.866c0-0.101,0.082-0.183,0.183-0.183h3.464c0.1,0,0.182,0.082,0.182,0.183V11.712z"/>
	</g>
	<path d="M123.684,12.768c0,0,0.205,0.268,0.205,0.479c0,0.136-0.092,0.205-0.205,0.205s-0.205-0.069-0.205-0.205
		C123.479,13.036,123.684,12.768,123.684,12.768z"/>
</g>
</svg>
