<?xml version="1.0" encoding="UTF-8" standalone="no"?>
<svg version="1.1" xmlns="http://www.w3.org/2000/svg" xmlns:xlink="http://www.w3.org/1999/xlink" width="200" height="200">
    <defs>
        <linearGradient id="grad">
            <stop offset="0%" stop-color="rgba(0,0,0,1)"></stop>
            <stop offset="100%" stop-color="rgba(0,0,0,0)"></stop>
        </linearGradient>
        <linearGradient id="grad2" x1="0%" y1="0%" x2="0%" y2="100%">
            <stop offset="0%" stop-color="rgba(255,255,255,0)"></stop>
            <stop offset="100%" stop-color="rgba(255,255,255,1)"></stop>
        </linearGradient>
    </defs>
    <rect width="1" height="0" x="0" y="100" fill="url(#grad2)"></rect>
    <rect width="1" height="28.21347195933177" x="1" y="85.89326402033412" fill="url(#grad2)"></rect>
    <rect width="1" height="39.7994974842648" x="2" y="80.1002512578676" fill="url(#grad2)"></rect>
    <rect width="1" height="48.620983124572874" x="3" y="75.68950843771356" fill="url(#grad2)"></rect>
    <rect width="1" height="56" x="4" y="72" fill="url(#grad2)"></rect>
    <rect width="1" height="62.44997998398398" x="5" y="68.77501000800801" fill="url(#grad2)"></rect>
    <rect width="1" height="68.23488843692792" x="6" y="65.88255578153604" fill="url(#grad2)"></rect>
    <rect width="1" height="73.51190379795642" x="7" y="63.24404810102179" fill="url(#grad2)"></rect>
    <rect width="1" height="78.38367176906169" x="8" y="60.808164115469154" fill="url(#grad2)"></rect>
    <rect width="1" height="82.92164976651152" x="9" y="58.53917511674424" fill="url(#grad2)"></rect>
    <rect width="1" height="87.17797887081348" x="10" y="56.41101056459326" fill="url(#grad2)"></rect>
    <rect width="1" height="91.19210492142398" x="11" y="54.40394753928801" fill="url(#grad2)"></rect>
    <rect width="1" height="94.99473669630333" x="12" y="52.50263165184833" fill="url(#grad2)"></rect>
    <rect width="1" height="98.6103442849684" x="13" y="50.6948278575158" fill="url(#grad2)"></rect>
    <rect width="1" height="102.05880657738459" x="14" y="48.97059671130771" fill="url(#grad2)"></rect>
    <rect width="1" height="105.35653752852738" x="15" y="47.32173123573631" fill="url(#grad2)"></rect>
    <rect width="1" height="108.51727973000429" x="16" y="45.741360134997855" fill="url(#grad2)"></rect>
    <rect width="1" height="111.55267813907473" x="17" y="44.223660930462636" fill="url(#grad2)"></rect>
    <rect width="1" height="114.47270417003348" x="18" y="42.76364791498326" fill="url(#grad2)"></rect>
    <rect width="1" height="117.285975291166" x="19" y="41.357012354417" fill="url(#grad2)"></rect>
    <rect width="1" height="120" x="20" y="40" fill="url(#grad2)"></rect>
    <rect width="1" height="122.62136844775465" x="21" y="38.689315776122676" fill="url(#grad2)"></rect>
    <rect width="1" height="125.15590277729612" x="22" y="37.42204861135194" fill="url(#grad2)"></rect>
    <rect width="1" height="127.60877712759417" x="23" y="36.19561143620292" fill="url(#grad2)"></rect>
    <rect width="1" height="129.98461447417537" x="24" y="35.00769276291231" fill="url(#grad2)"></rect>
    <rect width="1" height="132.28756555322954" x="25" y="33.85621722338523" fill="url(#grad2)"></rect>
    <rect width="1" height="134.5213737664019" x="26" y="32.73931311679905" fill="url(#grad2)"></rect>
    <rect width="1" height="136.6894289987342" x="27" y="31.6552855006329" fill="url(#grad2)"></rect>
    <rect width="1" height="138.79481258317978" x="28" y="30.60259370841011" fill="url(#grad2)"></rect>
    <rect width="1" height="140.84033513166602" x="29" y="29.57983243416699" fill="url(#grad2)"></rect>
    <rect width="1" height="142.828568570857" x="30" y="28.585715714571506" fill="url(#grad2)"></rect>
    <rect width="1" height="144.76187343358058" x="31" y="27.619063283209712" fill="url(#grad2)"></rect>
    <rect width="1" height="146.64242223858687" x="32" y="26.678788880706563" fill="url(#grad2)"></rect>
    <rect width="1" height="148.4722196237397" x="33" y="25.763890188130148" fill="url(#grad2)"></rect>
    <rect width="1" height="150.2531197679436" x="34" y="24.873440116028206" fill="url(#grad2)"></rect>
    <rect width="1" height="151.98684153570665" x="35" y="24.006579232146677" fill="url(#grad2)"></rect>
    <rect width="1" height="153.67498169838836" x="36" y="23.162509150805818" fill="url(#grad2)"></rect>
    <rect width="1" height="155.3190265228314" x="37" y="22.340486738584303" fill="url(#grad2)"></rect>
    <rect width="1" height="156.92036196746426" x="38" y="21.53981901626787" fill="url(#grad2)"></rect>
    <rect width="1" height="158.48028268526025" x="39" y="20.759858657369875" fill="url(#grad2)"></rect>
    <rect width="1" height="160" x="40" y="20" fill="url(#grad2)"></rect>
    <rect width="1" height="161.4806489954756" x="41" y="19.259675502262198" fill="url(#grad2)"></rect>
    <rect width="1" height="162.9232948353304" x="42" y="18.538352582334795" fill="url(#grad2)"></rect>
    <rect width="1" height="164.32893841317176" x="43" y="17.835530793414122" fill="url(#grad2)"></rect>
    <rect width="1" height="165.69852141766384" x="44" y="17.15073929116808" fill="url(#grad2)"></rect>
    <rect width="1" height="167.03293088490065" x="45" y="16.483534557549675" fill="url(#grad2)"></rect>
    <rect width="1" height="168.3330033000065" x="46" y="15.833498349996745" fill="url(#grad2)"></rect>
    <rect width="1" height="169.59952830123083" x="47" y="15.200235849384583" fill="url(#grad2)"></rect>
    <rect width="1" height="170.83325203250098" x="48" y="14.58337398374951" fill="url(#grad2)"></rect>
    <rect width="1" height="172.0348801842231" x="49" y="13.982559907888444" fill="url(#grad2)"></rect>
    <rect width="1" height="173.20508075688772" x="50" y="13.397459621556138" fill="url(#grad2)"></rect>
    <rect width="1" height="174.34448657758008" x="51" y="12.827756711209958" fill="url(#grad2)"></rect>
    <rect width="1" height="175.45369759569047" x="52" y="12.273151202154764" fill="url(#grad2)"></rect>
    <rect width="1" height="176.53328298085887" x="53" y="11.733358509570564" fill="url(#grad2)"></rect>
    <rect width="1" height="177.5837830433849" x="54" y="11.208108478307551" fill="url(#grad2)"></rect>
    <rect width="1" height="178.60571099491753" x="55" y="10.697144502541235" fill="url(#grad2)"></rect>
    <rect width="1" height="179.5995545651492" x="56" y="10.200222717425405" fill="url(#grad2)"></rect>
    <rect width="1" height="180.56577748842665" x="57" y="9.717111255786676" fill="url(#grad2)"></rect>
    <rect width="1" height="181.50482087261483" x="58" y="9.247589563692586" fill="url(#grad2)"></rect>
    <rect width="1" height="182.4171044611771" x="59" y="8.791447769411448" fill="url(#grad2)"></rect>
    <rect width="1" height="183.3030277982336" x="60" y="8.348486100883207" fill="url(#grad2)"></rect>
    <rect width="1" height="184.16297130530882" x="61" y="7.918514347345592" fill="url(#grad2)"></rect>
    <rect width="1" height="184.99729727755485" x="62" y="7.501351361222575" fill="url(#grad2)"></rect>
    <rect width="1" height="185.80635080642426" x="63" y="7.096824596787869" fill="url(#grad2)"></rect>
    <rect width="1" height="186.59046063504962" x="64" y="6.704769682475188" fill="url(#grad2)"></rect>
    <rect width="1" height="187.34993995195194" x="65" y="6.325030024024031" fill="url(#grad2)"></rect>
    <rect width="1" height="188.08508712813995" x="66" y="5.957456435930027" fill="url(#grad2)"></rect>
    <rect width="1" height="188.79618640216228" x="67" y="5.601906798918861" fill="url(#grad2)"></rect>
    <rect width="1" height="189.48350851723217" x="68" y="5.2582457413839165" fill="url(#grad2)"></rect>
    <rect width="1" height="190.14731131414928" x="69" y="4.926344342925361" fill="url(#grad2)"></rect>
    <rect width="1" height="190.78784028338913" x="70" y="4.606079858305435" fill="url(#grad2)"></rect>
    <rect width="1" height="191.4053290794172" x="71" y="4.297335460291393" fill="url(#grad2)"></rect>
    <rect width="1" height="192" x="72" y="4" fill="url(#grad2)"></rect>
    <rect width="1" height="192.57206443303244" x="73" y="3.713967783483781" fill="url(#grad2)"></rect>
    <rect width="1" height="193.12172327317296" x="74" y="3.4391383634135195" fill="url(#grad2)"></rect>
    <rect width="1" height="193.64916731037084" x="75" y="3.175416344814579" fill="url(#grad2)"></rect>
    <rect width="1" height="194.15457759218555" x="76" y="2.9227112039072267" fill="url(#grad2)"></rect>
    <rect width="1" height="194.63812576162977" x="77" y="2.680937119185117" fill="url(#grad2)"></rect>
    <rect width="1" height="195.09997437211518" x="78" y="2.4500128139424078" fill="url(#grad2)"></rect>
    <rect width="1" height="195.54027718094295" x="79" y="2.2298614095285245" fill="url(#grad2)"></rect>
    <rect width="1" height="195.95917942265424" x="80" y="2.0204102886728776" fill="url(#grad2)"></rect>
    <rect width="1" height="196.35681806344286" x="81" y="1.8215909682785707" fill="url(#grad2)"></rect>
    <rect width="1" height="196.733322037727" x="82" y="1.6333389811365038" fill="url(#grad2)"></rect>
    <rect width="1" height="197.0888124678821" x="83" y="1.4555937660589535" fill="url(#grad2)"></rect>
    <rect width="1" height="197.42340286804907" x="84" y="1.2882985659754667" fill="url(#grad2)"></rect>
    <rect width="1" height="197.73719933285187" x="85" y="1.1314003335740637" fill="url(#grad2)"></rect>
    <rect width="1" height="198.030300711785" x="86" y="0.9848496441074985" fill="url(#grad2)"></rect>
    <rect width="1" height="198.3027987699619" x="87" y="0.8486006150190519" fill="url(#grad2)"></rect>
    <rect width="1" height="198.5547783358537" x="88" y="0.7226108320731441" fill="url(#grad2)"></rect>
    <rect width="1" height="198.78631743658818" x="89" y="0.6068412817059112" fill="url(#grad2)"></rect>
    <rect width="1" height="198.997487421324" x="90" y="0.5012562893380021" fill="url(#grad2)"></rect>
    <rect width="1" height="199.1883530731654" x="91" y="0.40582346341730613" fill="url(#grad2)"></rect>
    <rect width="1" height="199.35897271003378" x="92" y="0.32051364498310875" fill="url(#grad2)"></rect>
    <rect width="1" height="199.50939827486823" x="93" y="0.2453008625658839" fill="url(#grad2)"></rect>
    <rect width="1" height="199.63967541548448" x="94" y="0.18016229225776215" fill="url(#grad2)"></rect>
    <rect width="1" height="199.74984355438178" x="95" y="0.1250782228091083" fill="url(#grad2)"></rect>
    <rect width="1" height="199.83993594874875" x="96" y="0.08003202562562706" fill="url(#grad2)"></rect>
    <rect width="1" height="199.90997974088236" x="97" y="0.045010129558818335" fill="url(#grad2)"></rect>
    <rect width="1" height="199.9599959991998" x="98" y="0.020002000400097586" fill="url(#grad2)"></rect>
    <rect width="1" height="199.9899997499875" x="99" y="0.005000125006247913" fill="url(#grad2)"></rect>
    <rect width="1" height="200" x="100" y="0" fill="url(#grad2)"></rect>
    <rect width="1" height="199.9899997499875" x="101" y="0.005000125006247913" fill="url(#grad2)"></rect>
    <rect width="1" height="199.9599959991998" x="102" y="0.020002000400097586" fill="url(#grad2)"></rect>
    <rect width="1" height="199.90997974088236" x="103" y="0.045010129558818335" fill="url(#grad2)"></rect>
    <rect width="1" height="199.83993594874875" x="104" y="0.08003202562562706" fill="url(#grad2)"></rect>
    <rect width="1" height="199.74984355438178" x="105" y="0.1250782228091083" fill="url(#grad2)"></rect>
    <rect width="1" height="199.63967541548448" x="106" y="0.18016229225776215" fill="url(#grad2)"></rect>
    <rect width="1" height="199.50939827486823" x="107" y="0.2453008625658839" fill="url(#grad2)"></rect>
    <rect width="1" height="199.35897271003378" x="108" y="0.32051364498310875" fill="url(#grad2)"></rect>
    <rect width="1" height="199.1883530731654" x="109" y="0.40582346341730613" fill="url(#grad2)"></rect>
    <rect width="1" height="198.997487421324" x="110" y="0.5012562893380021" fill="url(#grad2)"></rect>
    <rect width="1" height="198.78631743658818" x="111" y="0.6068412817059112" fill="url(#grad2)"></rect>
    <rect width="1" height="198.5547783358537" x="112" y="0.7226108320731441" fill="url(#grad2)"></rect>
    <rect width="1" height="198.3027987699619" x="113" y="0.8486006150190519" fill="url(#grad2)"></rect>
    <rect width="1" height="198.030300711785" x="114" y="0.9848496441074985" fill="url(#grad2)"></rect>
    <rect width="1" height="197.73719933285187" x="115" y="1.1314003335740637" fill="url(#grad2)"></rect>
    <rect width="1" height="197.42340286804907" x="116" y="1.2882985659754667" fill="url(#grad2)"></rect>
    <rect width="1" height="197.0888124678821" x="117" y="1.4555937660589535" fill="url(#grad2)"></rect>
    <rect width="1" height="196.733322037727" x="118" y="1.6333389811365038" fill="url(#grad2)"></rect>
    <rect width="1" height="196.35681806344286" x="119" y="1.8215909682785707" fill="url(#grad2)"></rect>
    <rect width="1" height="195.95917942265424" x="120" y="2.0204102886728776" fill="url(#grad2)"></rect>
    <rect width="1" height="195.54027718094295" x="121" y="2.2298614095285245" fill="url(#grad2)"></rect>
    <rect width="1" height="195.09997437211518" x="122" y="2.4500128139424078" fill="url(#grad2)"></rect>
    <rect width="1" height="194.63812576162977" x="123" y="2.680937119185117" fill="url(#grad2)"></rect>
    <rect width="1" height="194.15457759218555" x="124" y="2.9227112039072267" fill="url(#grad2)"></rect>
    <rect width="1" height="193.64916731037084" x="125" y="3.175416344814579" fill="url(#grad2)"></rect>
    <rect width="1" height="193.12172327317296" x="126" y="3.4391383634135195" fill="url(#grad2)"></rect>
    <rect width="1" height="192.57206443303244" x="127" y="3.713967783483781" fill="url(#grad2)"></rect>
    <rect width="1" height="192" x="128" y="4" fill="url(#grad2)"></rect>
    <rect width="1" height="191.4053290794172" x="129" y="4.297335460291393" fill="url(#grad2)"></rect>
    <rect width="1" height="190.78784028338913" x="130" y="4.606079858305435" fill="url(#grad2)"></rect>
    <rect width="1" height="190.14731131414928" x="131" y="4.926344342925361" fill="url(#grad2)"></rect>
    <rect width="1" height="189.48350851723217" x="132" y="5.2582457413839165" fill="url(#grad2)"></rect>
    <rect width="1" height="188.79618640216228" x="133" y="5.601906798918861" fill="url(#grad2)"></rect>
    <rect width="1" height="188.08508712813995" x="134" y="5.957456435930027" fill="url(#grad2)"></rect>
    <rect width="1" height="187.34993995195194" x="135" y="6.325030024024031" fill="url(#grad2)"></rect>
    <rect width="1" height="186.59046063504962" x="136" y="6.704769682475188" fill="url(#grad2)"></rect>
    <rect width="1" height="185.80635080642426" x="137" y="7.096824596787869" fill="url(#grad2)"></rect>
    <rect width="1" height="184.99729727755485" x="138" y="7.501351361222575" fill="url(#grad2)"></rect>
    <rect width="1" height="184.16297130530882" x="139" y="7.918514347345592" fill="url(#grad2)"></rect>
    <rect width="1" height="183.3030277982336" x="140" y="8.348486100883207" fill="url(#grad2)"></rect>
    <rect width="1" height="182.4171044611771" x="141" y="8.791447769411448" fill="url(#grad2)"></rect>
    <rect width="1" height="181.50482087261483" x="142" y="9.247589563692586" fill="url(#grad2)"></rect>
    <rect width="1" height="180.56577748842665" x="143" y="9.717111255786676" fill="url(#grad2)"></rect>
    <rect width="1" height="179.5995545651492" x="144" y="10.200222717425405" fill="url(#grad2)"></rect>
    <rect width="1" height="178.60571099491753" x="145" y="10.697144502541235" fill="url(#grad2)"></rect>
    <rect width="1" height="177.5837830433849" x="146" y="11.208108478307551" fill="url(#grad2)"></rect>
    <rect width="1" height="176.53328298085887" x="147" y="11.733358509570564" fill="url(#grad2)"></rect>
    <rect width="1" height="175.45369759569047" x="148" y="12.273151202154764" fill="url(#grad2)"></rect>
    <rect width="1" height="174.34448657758008" x="149" y="12.827756711209958" fill="url(#grad2)"></rect>
    <rect width="1" height="173.20508075688772" x="150" y="13.397459621556138" fill="url(#grad2)"></rect>
    <rect width="1" height="172.0348801842231" x="151" y="13.982559907888444" fill="url(#grad2)"></rect>
    <rect width="1" height="170.83325203250098" x="152" y="14.58337398374951" fill="url(#grad2)"></rect>
    <rect width="1" height="169.59952830123083" x="153" y="15.200235849384583" fill="url(#grad2)"></rect>
    <rect width="1" height="168.3330033000065" x="154" y="15.833498349996745" fill="url(#grad2)"></rect>
    <rect width="1" height="167.03293088490065" x="155" y="16.483534557549675" fill="url(#grad2)"></rect>
    <rect width="1" height="165.69852141766384" x="156" y="17.15073929116808" fill="url(#grad2)"></rect>
    <rect width="1" height="164.32893841317176" x="157" y="17.835530793414122" fill="url(#grad2)"></rect>
    <rect width="1" height="162.9232948353304" x="158" y="18.538352582334795" fill="url(#grad2)"></rect>
    <rect width="1" height="161.4806489954756" x="159" y="19.259675502262198" fill="url(#grad2)"></rect>
    <rect width="1" height="160" x="160" y="20" fill="url(#grad2)"></rect>
    <rect width="1" height="158.48028268526025" x="161" y="20.759858657369875" fill="url(#grad2)"></rect>
    <rect width="1" height="156.92036196746426" x="162" y="21.53981901626787" fill="url(#grad2)"></rect>
    <rect width="1" height="155.3190265228314" x="163" y="22.340486738584303" fill="url(#grad2)"></rect>
    <rect width="1" height="153.67498169838836" x="164" y="23.162509150805818" fill="url(#grad2)"></rect>
    <rect width="1" height="151.98684153570665" x="165" y="24.006579232146677" fill="url(#grad2)"></rect>
    <rect width="1" height="150.2531197679436" x="166" y="24.873440116028206" fill="url(#grad2)"></rect>
    <rect width="1" height="148.4722196237397" x="167" y="25.763890188130148" fill="url(#grad2)"></rect>
    <rect width="1" height="146.64242223858687" x="168" y="26.678788880706563" fill="url(#grad2)"></rect>
    <rect width="1" height="144.76187343358058" x="169" y="27.619063283209712" fill="url(#grad2)"></rect>
    <rect width="1" height="142.828568570857" x="170" y="28.585715714571506" fill="url(#grad2)"></rect>
    <rect width="1" height="140.84033513166602" x="171" y="29.57983243416699" fill="url(#grad2)"></rect>
    <rect width="1" height="138.79481258317978" x="172" y="30.60259370841011" fill="url(#grad2)"></rect>
    <rect width="1" height="136.6894289987342" x="173" y="31.6552855006329" fill="url(#grad2)"></rect>
    <rect width="1" height="134.5213737664019" x="174" y="32.73931311679905" fill="url(#grad2)"></rect>
    <rect width="1" height="132.28756555322954" x="175" y="33.85621722338523" fill="url(#grad2)"></rect>
    <rect width="1" height="129.98461447417537" x="176" y="35.00769276291231" fill="url(#grad2)"></rect>
    <rect width="1" height="127.60877712759417" x="177" y="36.19561143620292" fill="url(#grad2)"></rect>
    <rect width="1" height="125.15590277729612" x="178" y="37.42204861135194" fill="url(#grad2)"></rect>
    <rect width="1" height="122.62136844775465" x="179" y="38.689315776122676" fill="url(#grad2)"></rect>
    <rect width="1" height="120" x="180" y="40" fill="url(#grad2)"></rect>
    <rect width="1" height="117.285975291166" x="181" y="41.357012354417" fill="url(#grad2)"></rect>
    <rect width="1" height="114.47270417003348" x="182" y="42.76364791498326" fill="url(#grad2)"></rect>
    <rect width="1" height="111.55267813907473" x="183" y="44.223660930462636" fill="url(#grad2)"></rect>
    <rect width="1" height="108.51727973000429" x="184" y="45.741360134997855" fill="url(#grad2)"></rect>
    <rect width="1" height="105.35653752852738" x="185" y="47.32173123573631" fill="url(#grad2)"></rect>
    <rect width="1" height="102.05880657738459" x="186" y="48.97059671130771" fill="url(#grad2)"></rect>
    <rect width="1" height="98.6103442849684" x="187" y="50.6948278575158" fill="url(#grad2)"></rect>
    <rect width="1" height="94.99473669630333" x="188" y="52.50263165184833" fill="url(#grad2)"></rect>
    <rect width="1" height="91.19210492142398" x="189" y="54.40394753928801" fill="url(#grad2)"></rect>
    <rect width="1" height="87.17797887081348" x="190" y="56.41101056459326" fill="url(#grad2)"></rect>
    <rect width="1" height="82.92164976651152" x="191" y="58.53917511674424" fill="url(#grad2)"></rect>
    <rect width="1" height="78.38367176906169" x="192" y="60.808164115469154" fill="url(#grad2)"></rect>
    <rect width="1" height="73.51190379795642" x="193" y="63.24404810102179" fill="url(#grad2)"></rect>
    <rect width="1" height="68.23488843692792" x="194" y="65.88255578153604" fill="url(#grad2)"></rect>
    <rect width="1" height="62.44997998398398" x="195" y="68.77501000800801" fill="url(#grad2)"></rect>
    <rect width="1" height="56" x="196" y="72" fill="url(#grad2)"></rect>
    <rect width="1" height="48.620983124572874" x="197" y="75.68950843771356" fill="url(#grad2)"></rect>
    <rect width="1" height="39.7994974842648" x="198" y="80.1002512578676" fill="url(#grad2)"></rect>
    <rect width="1" height="28.21347195933177" x="199" y="85.89326402033412" fill="url(#grad2)"></rect>
    <rect width="0" height="1" x="100" y="0" fill="url(#grad)"></rect>
    <rect width="28.21347195933177" height="1" x="85.89326402033412" y="1" fill="url(#grad)"></rect>
    <rect width="39.7994974842648" height="1" x="80.1002512578676" y="2" fill="url(#grad)"></rect>
    <rect width="48.620983124572874" height="1" x="75.68950843771356" y="3" fill="url(#grad)"></rect>
    <rect width="56" height="1" x="72" y="4" fill="url(#grad)"></rect>
    <rect width="62.44997998398398" height="1" x="68.77501000800801" y="5" fill="url(#grad)"></rect>
    <rect width="68.23488843692792" height="1" x="65.88255578153604" y="6" fill="url(#grad)"></rect>
    <rect width="73.51190379795642" height="1" x="63.24404810102179" y="7" fill="url(#grad)"></rect>
    <rect width="78.38367176906169" height="1" x="60.808164115469154" y="8" fill="url(#grad)"></rect>
    <rect width="82.92164976651152" height="1" x="58.53917511674424" y="9" fill="url(#grad)"></rect>
    <rect width="87.17797887081348" height="1" x="56.41101056459326" y="10" fill="url(#grad)"></rect>
    <rect width="91.19210492142398" height="1" x="54.40394753928801" y="11" fill="url(#grad)"></rect>
    <rect width="94.99473669630333" height="1" x="52.50263165184833" y="12" fill="url(#grad)"></rect>
    <rect width="98.6103442849684" height="1" x="50.6948278575158" y="13" fill="url(#grad)"></rect>
    <rect width="102.05880657738459" height="1" x="48.97059671130771" y="14" fill="url(#grad)"></rect>
    <rect width="105.35653752852738" height="1" x="47.32173123573631" y="15" fill="url(#grad)"></rect>
    <rect width="108.51727973000429" height="1" x="45.741360134997855" y="16" fill="url(#grad)"></rect>
    <rect width="111.55267813907473" height="1" x="44.223660930462636" y="17" fill="url(#grad)"></rect>
    <rect width="114.47270417003348" height="1" x="42.76364791498326" y="18" fill="url(#grad)"></rect>
    <rect width="117.285975291166" height="1" x="41.357012354417" y="19" fill="url(#grad)"></rect>
    <rect width="120" height="1" x="40" y="20" fill="url(#grad)"></rect>
    <rect width="122.62136844775465" height="1" x="38.689315776122676" y="21" fill="url(#grad)"></rect>
    <rect width="125.15590277729612" height="1" x="37.42204861135194" y="22" fill="url(#grad)"></rect>
    <rect width="127.60877712759417" height="1" x="36.19561143620292" y="23" fill="url(#grad)"></rect>
    <rect width="129.98461447417537" height="1" x="35.00769276291231" y="24" fill="url(#grad)"></rect>
    <rect width="132.28756555322954" height="1" x="33.85621722338523" y="25" fill="url(#grad)"></rect>
    <rect width="134.5213737664019" height="1" x="32.73931311679905" y="26" fill="url(#grad)"></rect>
    <rect width="136.6894289987342" height="1" x="31.6552855006329" y="27" fill="url(#grad)"></rect>
    <rect width="138.79481258317978" height="1" x="30.60259370841011" y="28" fill="url(#grad)"></rect>
    <rect width="140.84033513166602" height="1" x="29.57983243416699" y="29" fill="url(#grad)"></rect>
    <rect width="142.828568570857" height="1" x="28.585715714571506" y="30" fill="url(#grad)"></rect>
    <rect width="144.76187343358058" height="1" x="27.619063283209712" y="31" fill="url(#grad)"></rect>
    <rect width="146.64242223858687" height="1" x="26.678788880706563" y="32" fill="url(#grad)"></rect>
    <rect width="148.4722196237397" height="1" x="25.763890188130148" y="33" fill="url(#grad)"></rect>
    <rect width="150.2531197679436" height="1" x="24.873440116028206" y="34" fill="url(#grad)"></rect>
    <rect width="151.98684153570665" height="1" x="24.006579232146677" y="35" fill="url(#grad)"></rect>
    <rect width="153.67498169838836" height="1" x="23.162509150805818" y="36" fill="url(#grad)"></rect>
    <rect width="155.3190265228314" height="1" x="22.340486738584303" y="37" fill="url(#grad)"></rect>
    <rect width="156.92036196746426" height="1" x="21.53981901626787" y="38" fill="url(#grad)"></rect>
    <rect width="158.48028268526025" height="1" x="20.759858657369875" y="39" fill="url(#grad)"></rect>
    <rect width="160" height="1" x="20" y="40" fill="url(#grad)"></rect>
    <rect width="161.4806489954756" height="1" x="19.259675502262198" y="41" fill="url(#grad)"></rect>
    <rect width="162.9232948353304" height="1" x="18.538352582334795" y="42" fill="url(#grad)"></rect>
    <rect width="164.32893841317176" height="1" x="17.835530793414122" y="43" fill="url(#grad)"></rect>
    <rect width="165.69852141766384" height="1" x="17.15073929116808" y="44" fill="url(#grad)"></rect>
    <rect width="167.03293088490065" height="1" x="16.483534557549675" y="45" fill="url(#grad)"></rect>
    <rect width="168.3330033000065" height="1" x="15.833498349996745" y="46" fill="url(#grad)"></rect>
    <rect width="169.59952830123083" height="1" x="15.200235849384583" y="47" fill="url(#grad)"></rect>
    <rect width="170.83325203250098" height="1" x="14.58337398374951" y="48" fill="url(#grad)"></rect>
    <rect width="172.0348801842231" height="1" x="13.982559907888444" y="49" fill="url(#grad)"></rect>
    <rect width="173.20508075688772" height="1" x="13.397459621556138" y="50" fill="url(#grad)"></rect>
    <rect width="174.34448657758008" height="1" x="12.827756711209958" y="51" fill="url(#grad)"></rect>
    <rect width="175.45369759569047" height="1" x="12.273151202154764" y="52" fill="url(#grad)"></rect>
    <rect width="176.53328298085887" height="1" x="11.733358509570564" y="53" fill="url(#grad)"></rect>
    <rect width="177.5837830433849" height="1" x="11.208108478307551" y="54" fill="url(#grad)"></rect>
    <rect width="178.60571099491753" height="1" x="10.697144502541235" y="55" fill="url(#grad)"></rect>
    <rect width="179.5995545651492" height="1" x="10.200222717425405" y="56" fill="url(#grad)"></rect>
    <rect width="180.56577748842665" height="1" x="9.717111255786676" y="57" fill="url(#grad)"></rect>
    <rect width="181.50482087261483" height="1" x="9.247589563692586" y="58" fill="url(#grad)"></rect>
    <rect width="182.4171044611771" height="1" x="8.791447769411448" y="59" fill="url(#grad)"></rect>
    <rect width="183.3030277982336" height="1" x="8.348486100883207" y="60" fill="url(#grad)"></rect>
    <rect width="184.16297130530882" height="1" x="7.918514347345592" y="61" fill="url(#grad)"></rect>
    <rect width="184.99729727755485" height="1" x="7.501351361222575" y="62" fill="url(#grad)"></rect>
    <rect width="185.80635080642426" height="1" x="7.096824596787869" y="63" fill="url(#grad)"></rect>
    <rect width="186.59046063504962" height="1" x="6.704769682475188" y="64" fill="url(#grad)"></rect>
    <rect width="187.34993995195194" height="1" x="6.325030024024031" y="65" fill="url(#grad)"></rect>
    <rect width="188.08508712813995" height="1" x="5.957456435930027" y="66" fill="url(#grad)"></rect>
    <rect width="188.79618640216228" height="1" x="5.601906798918861" y="67" fill="url(#grad)"></rect>
    <rect width="189.48350851723217" height="1" x="5.2582457413839165" y="68" fill="url(#grad)"></rect>
    <rect width="190.14731131414928" height="1" x="4.926344342925361" y="69" fill="url(#grad)"></rect>
    <rect width="190.78784028338913" height="1" x="4.606079858305435" y="70" fill="url(#grad)"></rect>
    <rect width="191.4053290794172" height="1" x="4.297335460291393" y="71" fill="url(#grad)"></rect>
    <rect width="192" height="1" x="4" y="72" fill="url(#grad)"></rect>
    <rect width="192.57206443303244" height="1" x="3.713967783483781" y="73" fill="url(#grad)"></rect>
    <rect width="193.12172327317296" height="1" x="3.4391383634135195" y="74" fill="url(#grad)"></rect>
    <rect width="193.64916731037084" height="1" x="3.175416344814579" y="75" fill="url(#grad)"></rect>
    <rect width="194.15457759218555" height="1" x="2.9227112039072267" y="76" fill="url(#grad)"></rect>
    <rect width="194.63812576162977" height="1" x="2.680937119185117" y="77" fill="url(#grad)"></rect>
    <rect width="195.09997437211518" height="1" x="2.4500128139424078" y="78" fill="url(#grad)"></rect>
    <rect width="195.54027718094295" height="1" x="2.2298614095285245" y="79" fill="url(#grad)"></rect>
    <rect width="195.95917942265424" height="1" x="2.0204102886728776" y="80" fill="url(#grad)"></rect>
    <rect width="196.35681806344286" height="1" x="1.8215909682785707" y="81" fill="url(#grad)"></rect>
    <rect width="196.733322037727" height="1" x="1.6333389811365038" y="82" fill="url(#grad)"></rect>
    <rect width="197.0888124678821" height="1" x="1.4555937660589535" y="83" fill="url(#grad)"></rect>
    <rect width="197.42340286804907" height="1" x="1.2882985659754667" y="84" fill="url(#grad)"></rect>
    <rect width="197.73719933285187" height="1" x="1.1314003335740637" y="85" fill="url(#grad)"></rect>
    <rect width="198.030300711785" height="1" x="0.9848496441074985" y="86" fill="url(#grad)"></rect>
    <rect width="198.3027987699619" height="1" x="0.8486006150190519" y="87" fill="url(#grad)"></rect>
    <rect width="198.5547783358537" height="1" x="0.7226108320731441" y="88" fill="url(#grad)"></rect>
    <rect width="198.78631743658818" height="1" x="0.6068412817059112" y="89" fill="url(#grad)"></rect>
    <rect width="198.997487421324" height="1" x="0.5012562893380021" y="90" fill="url(#grad)"></rect>
    <rect width="199.1883530731654" height="1" x="0.40582346341730613" y="91" fill="url(#grad)"></rect>
    <rect width="199.35897271003378" height="1" x="0.32051364498310875" y="92" fill="url(#grad)"></rect>
    <rect width="199.50939827486823" height="1" x="0.2453008625658839" y="93" fill="url(#grad)"></rect>
    <rect width="199.63967541548448" height="1" x="0.18016229225776215" y="94" fill="url(#grad)"></rect>
    <rect width="199.74984355438178" height="1" x="0.1250782228091083" y="95" fill="url(#grad)"></rect>
    <rect width="199.83993594874875" height="1" x="0.08003202562562706" y="96" fill="url(#grad)"></rect>
    <rect width="199.90997974088236" height="1" x="0.045010129558818335" y="97" fill="url(#grad)"></rect>
    <rect width="199.9599959991998" height="1" x="0.020002000400097586" y="98" fill="url(#grad)"></rect>
    <rect width="199.9899997499875" height="1" x="0.005000125006247913" y="99" fill="url(#grad)"></rect>
    <rect width="200" height="1" x="0" y="100" fill="url(#grad)"></rect>
    <rect width="199.9899997499875" height="1" x="0.005000125006247913" y="101" fill="url(#grad)"></rect>
    <rect width="199.9599959991998" height="1" x="0.020002000400097586" y="102" fill="url(#grad)"></rect>
    <rect width="199.90997974088236" height="1" x="0.045010129558818335" y="103" fill="url(#grad)"></rect>
    <rect width="199.83993594874875" height="1" x="0.08003202562562706" y="104" fill="url(#grad)"></rect>
    <rect width="199.74984355438178" height="1" x="0.1250782228091083" y="105" fill="url(#grad)"></rect>
    <rect width="199.63967541548448" height="1" x="0.18016229225776215" y="106" fill="url(#grad)"></rect>
    <rect width="199.50939827486823" height="1" x="0.2453008625658839" y="107" fill="url(#grad)"></rect>
    <rect width="199.35897271003378" height="1" x="0.32051364498310875" y="108" fill="url(#grad)"></rect>
    <rect width="199.1883530731654" height="1" x="0.40582346341730613" y="109" fill="url(#grad)"></rect>
    <rect width="198.997487421324" height="1" x="0.5012562893380021" y="110" fill="url(#grad)"></rect>
    <rect width="198.78631743658818" height="1" x="0.6068412817059112" y="111" fill="url(#grad)"></rect>
    <rect width="198.5547783358537" height="1" x="0.7226108320731441" y="112" fill="url(#grad)"></rect>
    <rect width="198.3027987699619" height="1" x="0.8486006150190519" y="113" fill="url(#grad)"></rect>
    <rect width="198.030300711785" height="1" x="0.9848496441074985" y="114" fill="url(#grad)"></rect>
    <rect width="197.73719933285187" height="1" x="1.1314003335740637" y="115" fill="url(#grad)"></rect>
    <rect width="197.42340286804907" height="1" x="1.2882985659754667" y="116" fill="url(#grad)"></rect>
    <rect width="197.0888124678821" height="1" x="1.4555937660589535" y="117" fill="url(#grad)"></rect>
    <rect width="196.733322037727" height="1" x="1.6333389811365038" y="118" fill="url(#grad)"></rect>
    <rect width="196.35681806344286" height="1" x="1.8215909682785707" y="119" fill="url(#grad)"></rect>
    <rect width="195.95917942265424" height="1" x="2.0204102886728776" y="120" fill="url(#grad)"></rect>
    <rect width="195.54027718094295" height="1" x="2.2298614095285245" y="121" fill="url(#grad)"></rect>
    <rect width="195.09997437211518" height="1" x="2.4500128139424078" y="122" fill="url(#grad)"></rect>
    <rect width="194.63812576162977" height="1" x="2.680937119185117" y="123" fill="url(#grad)"></rect>
    <rect width="194.15457759218555" height="1" x="2.9227112039072267" y="124" fill="url(#grad)"></rect>
    <rect width="193.64916731037084" height="1" x="3.175416344814579" y="125" fill="url(#grad)"></rect>
    <rect width="193.12172327317296" height="1" x="3.4391383634135195" y="126" fill="url(#grad)"></rect>
    <rect width="192.57206443303244" height="1" x="3.713967783483781" y="127" fill="url(#grad)"></rect>
    <rect width="192" height="1" x="4" y="128" fill="url(#grad)"></rect>
    <rect width="191.4053290794172" height="1" x="4.297335460291393" y="129" fill="url(#grad)"></rect>
    <rect width="190.78784028338913" height="1" x="4.606079858305435" y="130" fill="url(#grad)"></rect>
    <rect width="190.14731131414928" height="1" x="4.926344342925361" y="131" fill="url(#grad)"></rect>
    <rect width="189.48350851723217" height="1" x="5.2582457413839165" y="132" fill="url(#grad)"></rect>
    <rect width="188.79618640216228" height="1" x="5.601906798918861" y="133" fill="url(#grad)"></rect>
    <rect width="188.08508712813995" height="1" x="5.957456435930027" y="134" fill="url(#grad)"></rect>
    <rect width="187.34993995195194" height="1" x="6.325030024024031" y="135" fill="url(#grad)"></rect>
    <rect width="186.59046063504962" height="1" x="6.704769682475188" y="136" fill="url(#grad)"></rect>
    <rect width="185.80635080642426" height="1" x="7.096824596787869" y="137" fill="url(#grad)"></rect>
    <rect width="184.99729727755485" height="1" x="7.501351361222575" y="138" fill="url(#grad)"></rect>
    <rect width="184.16297130530882" height="1" x="7.918514347345592" y="139" fill="url(#grad)"></rect>
    <rect width="183.3030277982336" height="1" x="8.348486100883207" y="140" fill="url(#grad)"></rect>
    <rect width="182.4171044611771" height="1" x="8.791447769411448" y="141" fill="url(#grad)"></rect>
    <rect width="181.50482087261483" height="1" x="9.247589563692586" y="142" fill="url(#grad)"></rect>
    <rect width="180.56577748842665" height="1" x="9.717111255786676" y="143" fill="url(#grad)"></rect>
    <rect width="179.5995545651492" height="1" x="10.200222717425405" y="144" fill="url(#grad)"></rect>
    <rect width="178.60571099491753" height="1" x="10.697144502541235" y="145" fill="url(#grad)"></rect>
    <rect width="177.5837830433849" height="1" x="11.208108478307551" y="146" fill="url(#grad)"></rect>
    <rect width="176.53328298085887" height="1" x="11.733358509570564" y="147" fill="url(#grad)"></rect>
    <rect width="175.45369759569047" height="1" x="12.273151202154764" y="148" fill="url(#grad)"></rect>
    <rect width="174.34448657758008" height="1" x="12.827756711209958" y="149" fill="url(#grad)"></rect>
    <rect width="173.20508075688772" height="1" x="13.397459621556138" y="150" fill="url(#grad)"></rect>
    <rect width="172.0348801842231" height="1" x="13.982559907888444" y="151" fill="url(#grad)"></rect>
    <rect width="170.83325203250098" height="1" x="14.58337398374951" y="152" fill="url(#grad)"></rect>
    <rect width="169.59952830123083" height="1" x="15.200235849384583" y="153" fill="url(#grad)"></rect>
    <rect width="168.3330033000065" height="1" x="15.833498349996745" y="154" fill="url(#grad)"></rect>
    <rect width="167.03293088490065" height="1" x="16.483534557549675" y="155" fill="url(#grad)"></rect>
    <rect width="165.69852141766384" height="1" x="17.15073929116808" y="156" fill="url(#grad)"></rect>
    <rect width="164.32893841317176" height="1" x="17.835530793414122" y="157" fill="url(#grad)"></rect>
    <rect width="162.9232948353304" height="1" x="18.538352582334795" y="158" fill="url(#grad)"></rect>
    <rect width="161.4806489954756" height="1" x="19.259675502262198" y="159" fill="url(#grad)"></rect>
    <rect width="160" height="1" x="20" y="160" fill="url(#grad)"></rect>
    <rect width="158.48028268526025" height="1" x="20.759858657369875" y="161" fill="url(#grad)"></rect>
    <rect width="156.92036196746426" height="1" x="21.53981901626787" y="162" fill="url(#grad)"></rect>
    <rect width="155.3190265228314" height="1" x="22.340486738584303" y="163" fill="url(#grad)"></rect>
    <rect width="153.67498169838836" height="1" x="23.162509150805818" y="164" fill="url(#grad)"></rect>
    <rect width="151.98684153570665" height="1" x="24.006579232146677" y="165" fill="url(#grad)"></rect>
    <rect width="150.2531197679436" height="1" x="24.873440116028206" y="166" fill="url(#grad)"></rect>
    <rect width="148.4722196237397" height="1" x="25.763890188130148" y="167" fill="url(#grad)"></rect>
    <rect width="146.64242223858687" height="1" x="26.678788880706563" y="168" fill="url(#grad)"></rect>
    <rect width="144.76187343358058" height="1" x="27.619063283209712" y="169" fill="url(#grad)"></rect>
    <rect width="142.828568570857" height="1" x="28.585715714571506" y="170" fill="url(#grad)"></rect>
    <rect width="140.84033513166602" height="1" x="29.57983243416699" y="171" fill="url(#grad)"></rect>
    <rect width="138.79481258317978" height="1" x="30.60259370841011" y="172" fill="url(#grad)"></rect>
    <rect width="136.6894289987342" height="1" x="31.6552855006329" y="173" fill="url(#grad)"></rect>
    <rect width="134.5213737664019" height="1" x="32.73931311679905" y="174" fill="url(#grad)"></rect>
    <rect width="132.28756555322954" height="1" x="33.85621722338523" y="175" fill="url(#grad)"></rect>
    <rect width="129.98461447417537" height="1" x="35.00769276291231" y="176" fill="url(#grad)"></rect>
    <rect width="127.60877712759417" height="1" x="36.19561143620292" y="177" fill="url(#grad)"></rect>
    <rect width="125.15590277729612" height="1" x="37.42204861135194" y="178" fill="url(#grad)"></rect>
    <rect width="122.62136844775465" height="1" x="38.689315776122676" y="179" fill="url(#grad)"></rect>
    <rect width="120" height="1" x="40" y="180" fill="url(#grad)"></rect>
    <rect width="117.285975291166" height="1" x="41.357012354417" y="181" fill="url(#grad)"></rect>
    <rect width="114.47270417003348" height="1" x="42.76364791498326" y="182" fill="url(#grad)"></rect>
    <rect width="111.55267813907473" height="1" x="44.223660930462636" y="183" fill="url(#grad)"></rect>
    <rect width="108.51727973000429" height="1" x="45.741360134997855" y="184" fill="url(#grad)"></rect>
    <rect width="105.35653752852738" height="1" x="47.32173123573631" y="185" fill="url(#grad)"></rect>
    <rect width="102.05880657738459" height="1" x="48.97059671130771" y="186" fill="url(#grad)"></rect>
    <rect width="98.6103442849684" height="1" x="50.6948278575158" y="187" fill="url(#grad)"></rect>
    <rect width="94.99473669630333" height="1" x="52.50263165184833" y="188" fill="url(#grad)"></rect>
    <rect width="91.19210492142398" height="1" x="54.40394753928801" y="189" fill="url(#grad)"></rect>
    <rect width="87.17797887081348" height="1" x="56.41101056459326" y="190" fill="url(#grad)"></rect>
    <rect width="82.92164976651152" height="1" x="58.53917511674424" y="191" fill="url(#grad)"></rect>
    <rect width="78.38367176906169" height="1" x="60.808164115469154" y="192" fill="url(#grad)"></rect>
    <rect width="73.51190379795642" height="1" x="63.24404810102179" y="193" fill="url(#grad)"></rect>
    <rect width="68.23488843692792" height="1" x="65.88255578153604" y="194" fill="url(#grad)"></rect>
    <rect width="62.44997998398398" height="1" x="68.77501000800801" y="195" fill="url(#grad)"></rect>
    <rect width="56" height="1" x="72" y="196" fill="url(#grad)"></rect>
    <rect width="48.620983124572874" height="1" x="75.68950843771356" y="197" fill="url(#grad)"></rect>
    <rect width="39.7994974842648" height="1" x="80.1002512578676" y="198" fill="url(#grad)"></rect>
    <rect width="28.21347195933177" height="1" x="85.89326402033412" y="199" fill="url(#grad)"></rect>
</svg>