<svg xmlns="http://www.w3.org/2000/svg" 
     xmlns:xlink="http://www.w3.org/1999/xlink"
     width="195" height="195">
    <defs>
    	<linearGradient id="grad">
    		<stop offset="0%" stop-color="rgba(0,0,0,1)"></stop>
    		<stop offset="100%" stop-color="rgba(0,0,0,0)"></stop>
    	</linearGradient>
    	<linearGradient id="grad2">
    		<stop offset="0%" stop-color="rgba(255,255,255,1)"></stop>
    		<stop offset="100%" stop-color="rgba(255,255,255,0)"></stop>
    	</linearGradient>
    </defs>
    <g>
    	<rect width="0" height="1" x="97.5" y="0" fill="url(#grad2)"></rect><rect width="27.85677655436824" height="1" x="83.57161172281587" y="1" fill="url(#grad2)"></rect><rect width="39.293765408777" height="1" x="77.8531172956115" y="2" fill="url(#grad2)"></rect><rect width="48" height="1" x="73.5" y="3" fill="url(#grad2)"></rect><rect width="55.281099844341014" height="1" x="69.8594500778295" y="4" fill="url(#grad2)"></rect><rect width="61.644140029689765" height="1" x="66.67792998515512" y="5" fill="url(#grad2)"></rect><rect width="67.34983296193094" height="1" x="63.82508351903453" y="6" fill="url(#grad2)"></rect><rect width="72.55342858886821" height="1" x="61.22328570556589" y="7" fill="url(#grad2)"></rect><rect width="77.35631842325486" height="1" x="58.82184078837257" y="8" fill="url(#grad2)"></rect><rect width="81.82909018191513" height="1" x="56.58545490904243" y="9" fill="url(#grad2)"></rect><rect width="86.02325267042627" height="1" x="54.48837366478686" y="10" fill="url(#grad2)"></rect><rect width="89.97777503361594" height="1" x="52.51111248319203" y="11" fill="url(#grad2)"></rect><rect width="93.72299611087985" height="1" x="50.638501944560076" y="12" fill="url(#grad2)"></rect><rect width="97.28309205612247" height="1" x="48.858453971938765" y="13" fill="url(#grad2)"></rect><rect width="100.67770358922576" height="1" x="47.16114820538712" y="14" fill="url(#grad2)"></rect><rect width="103.92304845413264" height="1" x="45.53847577293368" y="15" fill="url(#grad2)"></rect><rect width="107.03270528207722" height="1" x="43.98364735896139" y="16" fill="url(#grad2)"></rect><rect width="110.01818031580054" height="1" x="42.49090984209973" y="17" fill="url(#grad2)"></rect><rect width="112.88932633336067" height="1" x="41.055336833319664" y="18" fill="url(#grad2)"></rect><rect width="115.65465835840769" height="1" x="39.67267082079616" y="19" fill="url(#grad2)"></rect><rect width="118.32159566199232" height="1" x="38.33920216900384" y="20" fill="url(#grad2)"></rect><rect width="120.8966500776593" height="1" x="37.05167496117035" y="21" fill="url(#grad2)"></rect><rect width="123.38557452149745" height="1" x="35.80721273925128" y="22" fill="url(#grad2)"></rect><rect width="125.7934815481311" height="1" x="34.60325922593445" y="23" fill="url(#grad2)"></rect><rect width="128.12493902437572" height="1" x="33.43753048781214" y="24" fill="url(#grad2)"></rect><rect width="130.38404810405297" height="1" x="32.30797594797352" y="25" fill="url(#grad2)"></rect><rect width="132.5745073534124" height="1" x="31.2127463232938" y="26" fill="url(#grad2)"></rect><rect width="134.6996659238619" height="1" x="30.150167038069057" y="27" fill="url(#grad2)"></rect><rect width="136.76256797823007" height="1" x="29.118716010884967" y="28" fill="url(#grad2)"></rect><rect width="138.76599006961325" height="1" x="28.117004965193374" y="29" fill="url(#grad2)"></rect><rect width="140.71247279470288" height="1" x="27.143763602648562" y="30" fill="url(#grad2)"></rect><rect width="142.6043477598071" height="1" x="26.19782612009645" y="31" fill="url(#grad2)"></rect><rect width="144.4437606821423" height="1" x="25.278119658928844" y="32" fill="url(#grad2)"></rect><rect width="146.23269128344728" height="1" x="24.38365435827636" y="33" fill="url(#grad2)"></rect><rect width="147.97297050475132" height="1" x="23.513514747624342" y="34" fill="url(#grad2)"></rect><rect width="149.66629547095766" height="1" x="22.666852264521168" y="35" fill="url(#grad2)"></rect><rect width="151.3142425550219" height="1" x="21.842878722489047" y="36" fill="url(#grad2)"></rect><rect width="152.9182788289222" height="1" x="21.040860585538894" y="37" fill="url(#grad2)"></rect><rect width="154.47977213862015" height="1" x="20.260113930689926" y="38" fill="url(#grad2)"></rect><rect width="156" height="1" x="19.5" y="39" fill="url(#grad2)"></rect><rect width="157.48015748023622" height="1" x="18.759921259881892" y="40" fill="url(#grad2)"></rect><rect width="158.92136420255144" height="1" x="18.039317898724278" y="41" fill="url(#grad2)"></rect><rect width="160.32467059064865" height="1" x="17.337664704675674" y="42" fill="url(#grad2)"></rect><rect width="161.6910634512619" height="1" x="16.65446827436905" y="43" fill="url(#grad2)"></rect><rect width="163.02147097851866" height="1" x="15.989264510740668" y="44" fill="url(#grad2)"></rect><rect width="164.31676725154983" height="1" x="15.341616374225083" y="45" fill="url(#grad2)"></rect><rect width="165.57777628655361" height="1" x="14.711111856723193" y="46" fill="url(#grad2)"></rect><rect width="166.80527569594435" height="1" x="14.097362152027827" y="47" fill="url(#grad2)"></rect><rect width="168" height="1" x="13.5" y="48" fill="url(#grad2)"></rect><rect width="169.162643630324" height="1" x="12.918678184838" y="49" fill="url(#grad2)"></rect><rect width="170.29386365926402" height="1" x="12.35306817036799" y="50" fill="url(#grad2)"></rect><rect width="171.3942822850284" height="1" x="11.802858857485802" y="51" fill="url(#grad2)"></rect><rect width="172.46448909848078" height="1" x="11.267755450759608" y="52" fill="url(#grad2)"></rect><rect width="173.50504315437058" height="1" x="10.747478422814709" y="53" fill="url(#grad2)"></rect><rect width="174.51647486698783" height="1" x="10.241762566506083" y="54" fill="url(#grad2)"></rect><rect width="175.49928774784243" height="1" x="9.750356126078785" y="55" fill="url(#grad2)"></rect><rect width="176.4539600009022" height="1" x="9.273019999548893" y="56" fill="url(#grad2)"></rect><rect width="177.3809459891338" height="1" x="8.809527005433097" y="57" fill="url(#grad2)"></rect><rect width="178.2806775845324" height="1" x="8.359661207733794" y="58" fill="url(#grad2)"></rect><rect width="179.15356541246953" height="1" x="7.923217293765234" y="59" fill="url(#grad2)"></rect><rect width="180" height="1" x="7.5" y="60" fill="url(#grad2)"></rect><rect width="180.8203528367313" height="1" x="7.089823581634349" y="61" fill="url(#grad2)"></rect><rect width="181.61497735594386" height="1" x="6.692511322028068" y="62" fill="url(#grad2)"></rect><rect width="182.38420984284795" height="1" x="6.307895078576024" y="63" fill="url(#grad2)"></rect><rect width="183.12837027615356" height="1" x="5.93581486192322" y="64" fill="url(#grad2)"></rect><rect width="183.84776310850236" height="1" x="5.576118445748818" y="65" fill="url(#grad2)"></rect><rect width="184.54267799075637" height="1" x="5.228661004621813" y="66" fill="url(#grad2)"></rect><rect width="185.2133904446436" height="1" x="4.893304777678196" y="67" fill="url(#grad2)"></rect><rect width="185.8601624878231" height="1" x="4.569918756088455" y="68" fill="url(#grad2)"></rect><rect width="186.48324321504063" height="1" x="4.258378392479685" y="69" fill="url(#grad2)"></rect><rect width="187.08286933869707" height="1" x="3.958565330651467" y="70" fill="url(#grad2)"></rect><rect width="187.6592656918384" height="1" x="3.670367154080793" y="71" fill="url(#grad2)"></rect><rect width="188.21264569629747" height="1" x="3.3936771518512643" y="72" fill="url(#grad2)"></rect><rect width="188.74321179846442" height="1" x="3.1283941007677925" y="73" fill="url(#grad2)"></rect><rect width="189.25115587493778" height="1" x="2.87442206253111" y="74" fill="url(#grad2)"></rect><rect width="189.73665961010275" height="1" x="2.631670194948626" y="75" fill="url(#grad2)"></rect><rect width="190.19989484749985" height="1" x="2.4000525762500757" y="76" fill="url(#grad2)"></rect><rect width="190.6410239166796" height="1" x="2.179488041660207" y="77" fill="url(#grad2)"></rect><rect width="191.0601999370879" height="1" x="1.9699000314560493" y="78" fill="url(#grad2)"></rect><rect width="191.45756710038913" height="1" x="1.7712164498054364" y="79" fill="url(#grad2)"></rect><rect width="191.83326093250878" height="1" x="1.5833695337456106" y="80" fill="url(#grad2)"></rect><rect width="192.1874085365636" height="1" x="1.4062957317182025" y="81" fill="url(#grad2)"></rect><rect width="192.52012881774206" height="1" x="1.239935591128969" y="82" fill="url(#grad2)"></rect><rect width="192.8315326911032" height="1" x="1.084233654448397" y="83" fill="url(#grad2)"></rect><rect width="193.12172327317296" height="1" x="0.9391383634135195" y="84" fill="url(#grad2)"></rect><rect width="193.39079605813717" height="1" x="0.8046019709314152" y="85" fill="url(#grad2)"></rect><rect width="193.6388390793541" height="1" x="0.6805804603229433" y="86" fill="url(#grad2)"></rect><rect width="193.86593305684215" height="1" x="0.5670334715789238" y="87" fill="url(#grad2)"></rect><rect width="194.07215153133126" height="1" x="0.463924234334371" y="88" fill="url(#grad2)"></rect><rect width="194.25756098540927" height="1" x="0.3712195072953648" y="89" fill="url(#grad2)"></rect><rect width="194.42222095223582" height="1" x="0.28888952388209077" y="90" fill="url(#grad2)"></rect><rect width="194.56618411224494" height="1" x="0.21690794387752987" y="91" fill="url(#grad2)"></rect><rect width="194.6894963782073" height="1" x="0.15525181089634543" y="92" fill="url(#grad2)"></rect><rect width="194.79219696897513" height="1" x="0.1039015155124332" y="93" fill="url(#grad2)"></rect><rect width="194.87431847218863" height="1" x="0.06284076390568316" y="94" fill="url(#grad2)"></rect><rect width="194.93588689617928" height="1" x="0.032056551910358166" y="95" fill="url(#grad2)"></rect><rect width="194.97692171126306" height="1" x="0.011539144368470033" y="96" fill="url(#grad2)"></rect><rect width="194.99743588057768" height="1" x="0.0012820597111584675" y="97" fill="url(#grad2)"></rect><rect width="194.99743588057768" height="1" x="0.0012820597111584675" y="98" fill="url(#grad2)"></rect><rect width="194.97692171126306" height="1" x="0.011539144368470033" y="99" fill="url(#grad2)"></rect><rect width="194.93588689617928" height="1" x="0.032056551910358166" y="100" fill="url(#grad2)"></rect><rect width="194.87431847218863" height="1" x="0.06284076390568316" y="101" fill="url(#grad2)"></rect><rect width="194.79219696897513" height="1" x="0.1039015155124332" y="102" fill="url(#grad2)"></rect><rect width="194.6894963782073" height="1" x="0.15525181089634543" y="103" fill="url(#grad2)"></rect><rect width="194.56618411224494" height="1" x="0.21690794387752987" y="104" fill="url(#grad2)"></rect><rect width="194.42222095223582" height="1" x="0.28888952388209077" y="105" fill="url(#grad2)"></rect><rect width="194.25756098540927" height="1" x="0.3712195072953648" y="106" fill="url(#grad2)"></rect><rect width="194.07215153133126" height="1" x="0.463924234334371" y="107" fill="url(#grad2)"></rect><rect width="193.86593305684215" height="1" x="0.5670334715789238" y="108" fill="url(#grad2)"></rect><rect width="193.6388390793541" height="1" x="0.6805804603229433" y="109" fill="url(#grad2)"></rect><rect width="193.39079605813717" height="1" x="0.8046019709314152" y="110" fill="url(#grad2)"></rect><rect width="193.12172327317296" height="1" x="0.9391383634135195" y="111" fill="url(#grad2)"></rect><rect width="192.8315326911032" height="1" x="1.084233654448397" y="112" fill="url(#grad2)"></rect><rect width="192.52012881774206" height="1" x="1.239935591128969" y="113" fill="url(#grad2)"></rect><rect width="192.1874085365636" height="1" x="1.4062957317182025" y="114" fill="url(#grad2)"></rect><rect width="191.83326093250878" height="1" x="1.5833695337456106" y="115" fill="url(#grad2)"></rect><rect width="191.45756710038913" height="1" x="1.7712164498054364" y="116" fill="url(#grad2)"></rect><rect width="191.0601999370879" height="1" x="1.9699000314560493" y="117" fill="url(#grad2)"></rect><rect width="190.6410239166796" height="1" x="2.179488041660207" y="118" fill="url(#grad2)"></rect><rect width="190.19989484749985" height="1" x="2.4000525762500757" y="119" fill="url(#grad2)"></rect><rect width="189.73665961010275" height="1" x="2.631670194948626" y="120" fill="url(#grad2)"></rect><rect width="189.25115587493778" height="1" x="2.87442206253111" y="121" fill="url(#grad2)"></rect><rect width="188.74321179846442" height="1" x="3.1283941007677925" y="122" fill="url(#grad2)"></rect><rect width="188.21264569629747" height="1" x="3.3936771518512643" y="123" fill="url(#grad2)"></rect><rect width="187.6592656918384" height="1" x="3.670367154080793" y="124" fill="url(#grad2)"></rect><rect width="187.08286933869707" height="1" x="3.958565330651467" y="125" fill="url(#grad2)"></rect><rect width="186.48324321504063" height="1" x="4.258378392479685" y="126" fill="url(#grad2)"></rect><rect width="185.8601624878231" height="1" x="4.569918756088455" y="127" fill="url(#grad2)"></rect><rect width="185.2133904446436" height="1" x="4.893304777678196" y="128" fill="url(#grad2)"></rect><rect width="184.54267799075637" height="1" x="5.228661004621813" y="129" fill="url(#grad2)"></rect><rect width="183.84776310850236" height="1" x="5.576118445748818" y="130" fill="url(#grad2)"></rect><rect width="183.12837027615356" height="1" x="5.93581486192322" y="131" fill="url(#grad2)"></rect><rect width="182.38420984284795" height="1" x="6.307895078576024" y="132" fill="url(#grad2)"></rect><rect width="181.61497735594386" height="1" x="6.692511322028068" y="133" fill="url(#grad2)"></rect><rect width="180.8203528367313" height="1" x="7.089823581634349" y="134" fill="url(#grad2)"></rect><rect width="180" height="1" x="7.5" y="135" fill="url(#grad2)"></rect><rect width="179.15356541246953" height="1" x="7.923217293765234" y="136" fill="url(#grad2)"></rect><rect width="178.2806775845324" height="1" x="8.359661207733794" y="137" fill="url(#grad2)"></rect><rect width="177.3809459891338" height="1" x="8.809527005433097" y="138" fill="url(#grad2)"></rect><rect width="176.4539600009022" height="1" x="9.273019999548893" y="139" fill="url(#grad2)"></rect><rect width="175.49928774784243" height="1" x="9.750356126078785" y="140" fill="url(#grad2)"></rect><rect width="174.51647486698783" height="1" x="10.241762566506083" y="141" fill="url(#grad2)"></rect><rect width="173.50504315437058" height="1" x="10.747478422814709" y="142" fill="url(#grad2)"></rect><rect width="172.46448909848078" height="1" x="11.267755450759608" y="143" fill="url(#grad2)"></rect><rect width="171.3942822850284" height="1" x="11.802858857485802" y="144" fill="url(#grad2)"></rect><rect width="170.29386365926402" height="1" x="12.35306817036799" y="145" fill="url(#grad2)"></rect><rect width="169.162643630324" height="1" x="12.918678184838" y="146" fill="url(#grad2)"></rect><rect width="168" height="1" x="13.5" y="147" fill="url(#grad2)"></rect><rect width="166.80527569594435" height="1" x="14.097362152027827" y="148" fill="url(#grad2)"></rect><rect width="165.57777628655361" height="1" x="14.711111856723193" y="149" fill="url(#grad2)"></rect><rect width="164.31676725154983" height="1" x="15.341616374225083" y="150" fill="url(#grad2)"></rect><rect width="163.02147097851866" height="1" x="15.989264510740668" y="151" fill="url(#grad2)"></rect><rect width="161.6910634512619" height="1" x="16.65446827436905" y="152" fill="url(#grad2)"></rect><rect width="160.32467059064865" height="1" x="17.337664704675674" y="153" fill="url(#grad2)"></rect><rect width="158.92136420255144" height="1" x="18.039317898724278" y="154" fill="url(#grad2)"></rect><rect width="157.48015748023622" height="1" x="18.759921259881892" y="155" fill="url(#grad2)"></rect><rect width="156" height="1" x="19.5" y="156" fill="url(#grad2)"></rect><rect width="154.47977213862015" height="1" x="20.260113930689926" y="157" fill="url(#grad2)"></rect><rect width="152.9182788289222" height="1" x="21.040860585538894" y="158" fill="url(#grad2)"></rect><rect width="151.3142425550219" height="1" x="21.842878722489047" y="159" fill="url(#grad2)"></rect><rect width="149.66629547095766" height="1" x="22.666852264521168" y="160" fill="url(#grad2)"></rect><rect width="147.97297050475132" height="1" x="23.513514747624342" y="161" fill="url(#grad2)"></rect><rect width="146.23269128344728" height="1" x="24.38365435827636" y="162" fill="url(#grad2)"></rect><rect width="144.4437606821423" height="1" x="25.278119658928844" y="163" fill="url(#grad2)"></rect><rect width="142.6043477598071" height="1" x="26.19782612009645" y="164" fill="url(#grad2)"></rect><rect width="140.71247279470288" height="1" x="27.143763602648562" y="165" fill="url(#grad2)"></rect><rect width="138.76599006961325" height="1" x="28.117004965193374" y="166" fill="url(#grad2)"></rect><rect width="136.76256797823007" height="1" x="29.118716010884967" y="167" fill="url(#grad2)"></rect><rect width="134.6996659238619" height="1" x="30.150167038069057" y="168" fill="url(#grad2)"></rect><rect width="132.5745073534124" height="1" x="31.2127463232938" y="169" fill="url(#grad2)"></rect><rect width="130.38404810405297" height="1" x="32.30797594797352" y="170" fill="url(#grad2)"></rect><rect width="128.12493902437572" height="1" x="33.43753048781214" y="171" fill="url(#grad2)"></rect><rect width="125.7934815481311" height="1" x="34.60325922593445" y="172" fill="url(#grad2)"></rect><rect width="123.38557452149745" height="1" x="35.80721273925128" y="173" fill="url(#grad2)"></rect><rect width="120.8966500776593" height="1" x="37.05167496117035" y="174" fill="url(#grad2)"></rect><rect width="118.32159566199232" height="1" x="38.33920216900384" y="175" fill="url(#grad2)"></rect><rect width="115.65465835840769" height="1" x="39.67267082079616" y="176" fill="url(#grad2)"></rect><rect width="112.88932633336067" height="1" x="41.055336833319664" y="177" fill="url(#grad2)"></rect><rect width="110.01818031580054" height="1" x="42.49090984209973" y="178" fill="url(#grad2)"></rect><rect width="107.03270528207722" height="1" x="43.98364735896139" y="179" fill="url(#grad2)"></rect><rect width="103.92304845413264" height="1" x="45.53847577293368" y="180" fill="url(#grad2)"></rect><rect width="100.67770358922576" height="1" x="47.16114820538712" y="181" fill="url(#grad2)"></rect><rect width="97.28309205612247" height="1" x="48.858453971938765" y="182" fill="url(#grad2)"></rect><rect width="93.72299611087985" height="1" x="50.638501944560076" y="183" fill="url(#grad2)"></rect><rect width="89.97777503361594" height="1" x="52.51111248319203" y="184" fill="url(#grad2)"></rect><rect width="86.02325267042627" height="1" x="54.48837366478686" y="185" fill="url(#grad2)"></rect><rect width="81.82909018191513" height="1" x="56.58545490904243" y="186" fill="url(#grad2)"></rect><rect width="77.35631842325486" height="1" x="58.82184078837257" y="187" fill="url(#grad2)"></rect><rect width="72.55342858886821" height="1" x="61.22328570556589" y="188" fill="url(#grad2)"></rect><rect width="67.34983296193094" height="1" x="63.82508351903453" y="189" fill="url(#grad2)"></rect><rect width="61.644140029689765" height="1" x="66.67792998515512" y="190" fill="url(#grad2)"></rect><rect width="55.281099844341014" height="1" x="69.8594500778295" y="191" fill="url(#grad2)"></rect><rect width="48" height="1" x="73.5" y="192" fill="url(#grad2)"></rect><rect width="39.293765408777" height="1" x="77.8531172956115" y="193" fill="url(#grad2)"></rect><rect width="27.85677655436824" height="1" x="83.57161172281587" y="194" fill="url(#grad2)"></rect>
	</g>

    <g transform="translate(-1,195) rotate(-90)">
    	<rect width="0" height="1" x="97.5" y="0" fill="url(#grad)"></rect><rect width="27.85677655436824" height="1" x="83.57161172281587" y="1" fill="url(#grad)"></rect><rect width="39.293765408777" height="1" x="77.8531172956115" y="2" fill="url(#grad)"></rect><rect width="48" height="1" x="73.5" y="3" fill="url(#grad)"></rect><rect width="55.281099844341014" height="1" x="69.8594500778295" y="4" fill="url(#grad)"></rect><rect width="61.644140029689765" height="1" x="66.67792998515512" y="5" fill="url(#grad)"></rect><rect width="67.34983296193094" height="1" x="63.82508351903453" y="6" fill="url(#grad)"></rect><rect width="72.55342858886821" height="1" x="61.22328570556589" y="7" fill="url(#grad)"></rect><rect width="77.35631842325486" height="1" x="58.82184078837257" y="8" fill="url(#grad)"></rect><rect width="81.82909018191513" height="1" x="56.58545490904243" y="9" fill="url(#grad)"></rect><rect width="86.02325267042627" height="1" x="54.48837366478686" y="10" fill="url(#grad)"></rect><rect width="89.97777503361594" height="1" x="52.51111248319203" y="11" fill="url(#grad)"></rect><rect width="93.72299611087985" height="1" x="50.638501944560076" y="12" fill="url(#grad)"></rect><rect width="97.28309205612247" height="1" x="48.858453971938765" y="13" fill="url(#grad)"></rect><rect width="100.67770358922576" height="1" x="47.16114820538712" y="14" fill="url(#grad)"></rect><rect width="103.92304845413264" height="1" x="45.53847577293368" y="15" fill="url(#grad)"></rect><rect width="107.03270528207722" height="1" x="43.98364735896139" y="16" fill="url(#grad)"></rect><rect width="110.01818031580054" height="1" x="42.49090984209973" y="17" fill="url(#grad)"></rect><rect width="112.88932633336067" height="1" x="41.055336833319664" y="18" fill="url(#grad)"></rect><rect width="115.65465835840769" height="1" x="39.67267082079616" y="19" fill="url(#grad)"></rect><rect width="118.32159566199232" height="1" x="38.33920216900384" y="20" fill="url(#grad)"></rect><rect width="120.8966500776593" height="1" x="37.05167496117035" y="21" fill="url(#grad)"></rect><rect width="123.38557452149745" height="1" x="35.80721273925128" y="22" fill="url(#grad)"></rect><rect width="125.7934815481311" height="1" x="34.60325922593445" y="23" fill="url(#grad)"></rect><rect width="128.12493902437572" height="1" x="33.43753048781214" y="24" fill="url(#grad)"></rect><rect width="130.38404810405297" height="1" x="32.30797594797352" y="25" fill="url(#grad)"></rect><rect width="132.5745073534124" height="1" x="31.2127463232938" y="26" fill="url(#grad)"></rect><rect width="134.6996659238619" height="1" x="30.150167038069057" y="27" fill="url(#grad)"></rect><rect width="136.76256797823007" height="1" x="29.118716010884967" y="28" fill="url(#grad)"></rect><rect width="138.76599006961325" height="1" x="28.117004965193374" y="29" fill="url(#grad)"></rect><rect width="140.71247279470288" height="1" x="27.143763602648562" y="30" fill="url(#grad)"></rect><rect width="142.6043477598071" height="1" x="26.19782612009645" y="31" fill="url(#grad)"></rect><rect width="144.4437606821423" height="1" x="25.278119658928844" y="32" fill="url(#grad)"></rect><rect width="146.23269128344728" height="1" x="24.38365435827636" y="33" fill="url(#grad)"></rect><rect width="147.97297050475132" height="1" x="23.513514747624342" y="34" fill="url(#grad)"></rect><rect width="149.66629547095766" height="1" x="22.666852264521168" y="35" fill="url(#grad)"></rect><rect width="151.3142425550219" height="1" x="21.842878722489047" y="36" fill="url(#grad)"></rect><rect width="152.9182788289222" height="1" x="21.040860585538894" y="37" fill="url(#grad)"></rect><rect width="154.47977213862015" height="1" x="20.260113930689926" y="38" fill="url(#grad)"></rect><rect width="156" height="1" x="19.5" y="39" fill="url(#grad)"></rect><rect width="157.48015748023622" height="1" x="18.759921259881892" y="40" fill="url(#grad)"></rect><rect width="158.92136420255144" height="1" x="18.039317898724278" y="41" fill="url(#grad)"></rect><rect width="160.32467059064865" height="1" x="17.337664704675674" y="42" fill="url(#grad)"></rect><rect width="161.6910634512619" height="1" x="16.65446827436905" y="43" fill="url(#grad)"></rect><rect width="163.02147097851866" height="1" x="15.989264510740668" y="44" fill="url(#grad)"></rect><rect width="164.31676725154983" height="1" x="15.341616374225083" y="45" fill="url(#grad)"></rect><rect width="165.57777628655361" height="1" x="14.711111856723193" y="46" fill="url(#grad)"></rect><rect width="166.80527569594435" height="1" x="14.097362152027827" y="47" fill="url(#grad)"></rect><rect width="168" height="1" x="13.5" y="48" fill="url(#grad)"></rect><rect width="169.162643630324" height="1" x="12.918678184838" y="49" fill="url(#grad)"></rect><rect width="170.29386365926402" height="1" x="12.35306817036799" y="50" fill="url(#grad)"></rect><rect width="171.3942822850284" height="1" x="11.802858857485802" y="51" fill="url(#grad)"></rect><rect width="172.46448909848078" height="1" x="11.267755450759608" y="52" fill="url(#grad)"></rect><rect width="173.50504315437058" height="1" x="10.747478422814709" y="53" fill="url(#grad)"></rect><rect width="174.51647486698783" height="1" x="10.241762566506083" y="54" fill="url(#grad)"></rect><rect width="175.49928774784243" height="1" x="9.750356126078785" y="55" fill="url(#grad)"></rect><rect width="176.4539600009022" height="1" x="9.273019999548893" y="56" fill="url(#grad)"></rect><rect width="177.3809459891338" height="1" x="8.809527005433097" y="57" fill="url(#grad)"></rect><rect width="178.2806775845324" height="1" x="8.359661207733794" y="58" fill="url(#grad)"></rect><rect width="179.15356541246953" height="1" x="7.923217293765234" y="59" fill="url(#grad)"></rect><rect width="180" height="1" x="7.5" y="60" fill="url(#grad)"></rect><rect width="180.8203528367313" height="1" x="7.089823581634349" y="61" fill="url(#grad)"></rect><rect width="181.61497735594386" height="1" x="6.692511322028068" y="62" fill="url(#grad)"></rect><rect width="182.38420984284795" height="1" x="6.307895078576024" y="63" fill="url(#grad)"></rect><rect width="183.12837027615356" height="1" x="5.93581486192322" y="64" fill="url(#grad)"></rect><rect width="183.84776310850236" height="1" x="5.576118445748818" y="65" fill="url(#grad)"></rect><rect width="184.54267799075637" height="1" x="5.228661004621813" y="66" fill="url(#grad)"></rect><rect width="185.2133904446436" height="1" x="4.893304777678196" y="67" fill="url(#grad)"></rect><rect width="185.8601624878231" height="1" x="4.569918756088455" y="68" fill="url(#grad)"></rect><rect width="186.48324321504063" height="1" x="4.258378392479685" y="69" fill="url(#grad)"></rect><rect width="187.08286933869707" height="1" x="3.958565330651467" y="70" fill="url(#grad)"></rect><rect width="187.6592656918384" height="1" x="3.670367154080793" y="71" fill="url(#grad)"></rect><rect width="188.21264569629747" height="1" x="3.3936771518512643" y="72" fill="url(#grad)"></rect><rect width="188.74321179846442" height="1" x="3.1283941007677925" y="73" fill="url(#grad)"></rect><rect width="189.25115587493778" height="1" x="2.87442206253111" y="74" fill="url(#grad)"></rect><rect width="189.73665961010275" height="1" x="2.631670194948626" y="75" fill="url(#grad)"></rect><rect width="190.19989484749985" height="1" x="2.4000525762500757" y="76" fill="url(#grad)"></rect><rect width="190.6410239166796" height="1" x="2.179488041660207" y="77" fill="url(#grad)"></rect><rect width="191.0601999370879" height="1" x="1.9699000314560493" y="78" fill="url(#grad)"></rect><rect width="191.45756710038913" height="1" x="1.7712164498054364" y="79" fill="url(#grad)"></rect><rect width="191.83326093250878" height="1" x="1.5833695337456106" y="80" fill="url(#grad)"></rect><rect width="192.1874085365636" height="1" x="1.4062957317182025" y="81" fill="url(#grad)"></rect><rect width="192.52012881774206" height="1" x="1.239935591128969" y="82" fill="url(#grad)"></rect><rect width="192.8315326911032" height="1" x="1.084233654448397" y="83" fill="url(#grad)"></rect><rect width="193.12172327317296" height="1" x="0.9391383634135195" y="84" fill="url(#grad)"></rect><rect width="193.39079605813717" height="1" x="0.8046019709314152" y="85" fill="url(#grad)"></rect><rect width="193.6388390793541" height="1" x="0.6805804603229433" y="86" fill="url(#grad)"></rect><rect width="193.86593305684215" height="1" x="0.5670334715789238" y="87" fill="url(#grad)"></rect><rect width="194.07215153133126" height="1" x="0.463924234334371" y="88" fill="url(#grad)"></rect><rect width="194.25756098540927" height="1" x="0.3712195072953648" y="89" fill="url(#grad)"></rect><rect width="194.42222095223582" height="1" x="0.28888952388209077" y="90" fill="url(#grad)"></rect><rect width="194.56618411224494" height="1" x="0.21690794387752987" y="91" fill="url(#grad)"></rect><rect width="194.6894963782073" height="1" x="0.15525181089634543" y="92" fill="url(#grad)"></rect><rect width="194.79219696897513" height="1" x="0.1039015155124332" y="93" fill="url(#grad)"></rect><rect width="194.87431847218863" height="1" x="0.06284076390568316" y="94" fill="url(#grad)"></rect><rect width="194.93588689617928" height="1" x="0.032056551910358166" y="95" fill="url(#grad)"></rect><rect width="194.97692171126306" height="1" x="0.011539144368470033" y="96" fill="url(#grad)"></rect><rect width="194.99743588057768" height="1" x="0.0012820597111584675" y="97" fill="url(#grad)"></rect><rect width="194.99743588057768" height="1" x="0.0012820597111584675" y="98" fill="url(#grad)"></rect><rect width="194.97692171126306" height="1" x="0.011539144368470033" y="99" fill="url(#grad)"></rect><rect width="194.93588689617928" height="1" x="0.032056551910358166" y="100" fill="url(#grad)"></rect><rect width="194.87431847218863" height="1" x="0.06284076390568316" y="101" fill="url(#grad)"></rect><rect width="194.79219696897513" height="1" x="0.1039015155124332" y="102" fill="url(#grad)"></rect><rect width="194.6894963782073" height="1" x="0.15525181089634543" y="103" fill="url(#grad)"></rect><rect width="194.56618411224494" height="1" x="0.21690794387752987" y="104" fill="url(#grad)"></rect><rect width="194.42222095223582" height="1" x="0.28888952388209077" y="105" fill="url(#grad)"></rect><rect width="194.25756098540927" height="1" x="0.3712195072953648" y="106" fill="url(#grad)"></rect><rect width="194.07215153133126" height="1" x="0.463924234334371" y="107" fill="url(#grad)"></rect><rect width="193.86593305684215" height="1" x="0.5670334715789238" y="108" fill="url(#grad)"></rect><rect width="193.6388390793541" height="1" x="0.6805804603229433" y="109" fill="url(#grad)"></rect><rect width="193.39079605813717" height="1" x="0.8046019709314152" y="110" fill="url(#grad)"></rect><rect width="193.12172327317296" height="1" x="0.9391383634135195" y="111" fill="url(#grad)"></rect><rect width="192.8315326911032" height="1" x="1.084233654448397" y="112" fill="url(#grad)"></rect><rect width="192.52012881774206" height="1" x="1.239935591128969" y="113" fill="url(#grad)"></rect><rect width="192.1874085365636" height="1" x="1.4062957317182025" y="114" fill="url(#grad)"></rect><rect width="191.83326093250878" height="1" x="1.5833695337456106" y="115" fill="url(#grad)"></rect><rect width="191.45756710038913" height="1" x="1.7712164498054364" y="116" fill="url(#grad)"></rect><rect width="191.0601999370879" height="1" x="1.9699000314560493" y="117" fill="url(#grad)"></rect><rect width="190.6410239166796" height="1" x="2.179488041660207" y="118" fill="url(#grad)"></rect><rect width="190.19989484749985" height="1" x="2.4000525762500757" y="119" fill="url(#grad)"></rect><rect width="189.73665961010275" height="1" x="2.631670194948626" y="120" fill="url(#grad)"></rect><rect width="189.25115587493778" height="1" x="2.87442206253111" y="121" fill="url(#grad)"></rect><rect width="188.74321179846442" height="1" x="3.1283941007677925" y="122" fill="url(#grad)"></rect><rect width="188.21264569629747" height="1" x="3.3936771518512643" y="123" fill="url(#grad)"></rect><rect width="187.6592656918384" height="1" x="3.670367154080793" y="124" fill="url(#grad)"></rect><rect width="187.08286933869707" height="1" x="3.958565330651467" y="125" fill="url(#grad)"></rect><rect width="186.48324321504063" height="1" x="4.258378392479685" y="126" fill="url(#grad)"></rect><rect width="185.8601624878231" height="1" x="4.569918756088455" y="127" fill="url(#grad)"></rect><rect width="185.2133904446436" height="1" x="4.893304777678196" y="128" fill="url(#grad)"></rect><rect width="184.54267799075637" height="1" x="5.228661004621813" y="129" fill="url(#grad)"></rect><rect width="183.84776310850236" height="1" x="5.576118445748818" y="130" fill="url(#grad)"></rect><rect width="183.12837027615356" height="1" x="5.93581486192322" y="131" fill="url(#grad)"></rect><rect width="182.38420984284795" height="1" x="6.307895078576024" y="132" fill="url(#grad)"></rect><rect width="181.61497735594386" height="1" x="6.692511322028068" y="133" fill="url(#grad)"></rect><rect width="180.8203528367313" height="1" x="7.089823581634349" y="134" fill="url(#grad)"></rect><rect width="180" height="1" x="7.5" y="135" fill="url(#grad)"></rect><rect width="179.15356541246953" height="1" x="7.923217293765234" y="136" fill="url(#grad)"></rect><rect width="178.2806775845324" height="1" x="8.359661207733794" y="137" fill="url(#grad)"></rect><rect width="177.3809459891338" height="1" x="8.809527005433097" y="138" fill="url(#grad)"></rect><rect width="176.4539600009022" height="1" x="9.273019999548893" y="139" fill="url(#grad)"></rect><rect width="175.49928774784243" height="1" x="9.750356126078785" y="140" fill="url(#grad)"></rect><rect width="174.51647486698783" height="1" x="10.241762566506083" y="141" fill="url(#grad)"></rect><rect width="173.50504315437058" height="1" x="10.747478422814709" y="142" fill="url(#grad)"></rect><rect width="172.46448909848078" height="1" x="11.267755450759608" y="143" fill="url(#grad)"></rect><rect width="171.3942822850284" height="1" x="11.802858857485802" y="144" fill="url(#grad)"></rect><rect width="170.29386365926402" height="1" x="12.35306817036799" y="145" fill="url(#grad)"></rect><rect width="169.162643630324" height="1" x="12.918678184838" y="146" fill="url(#grad)"></rect><rect width="168" height="1" x="13.5" y="147" fill="url(#grad)"></rect><rect width="166.80527569594435" height="1" x="14.097362152027827" y="148" fill="url(#grad)"></rect><rect width="165.57777628655361" height="1" x="14.711111856723193" y="149" fill="url(#grad)"></rect><rect width="164.31676725154983" height="1" x="15.341616374225083" y="150" fill="url(#grad)"></rect><rect width="163.02147097851866" height="1" x="15.989264510740668" y="151" fill="url(#grad)"></rect><rect width="161.6910634512619" height="1" x="16.65446827436905" y="152" fill="url(#grad)"></rect><rect width="160.32467059064865" height="1" x="17.337664704675674" y="153" fill="url(#grad)"></rect><rect width="158.92136420255144" height="1" x="18.039317898724278" y="154" fill="url(#grad)"></rect><rect width="157.48015748023622" height="1" x="18.759921259881892" y="155" fill="url(#grad)"></rect><rect width="156" height="1" x="19.5" y="156" fill="url(#grad)"></rect><rect width="154.47977213862015" height="1" x="20.260113930689926" y="157" fill="url(#grad)"></rect><rect width="152.9182788289222" height="1" x="21.040860585538894" y="158" fill="url(#grad)"></rect><rect width="151.3142425550219" height="1" x="21.842878722489047" y="159" fill="url(#grad)"></rect><rect width="149.66629547095766" height="1" x="22.666852264521168" y="160" fill="url(#grad)"></rect><rect width="147.97297050475132" height="1" x="23.513514747624342" y="161" fill="url(#grad)"></rect><rect width="146.23269128344728" height="1" x="24.38365435827636" y="162" fill="url(#grad)"></rect><rect width="144.4437606821423" height="1" x="25.278119658928844" y="163" fill="url(#grad)"></rect><rect width="142.6043477598071" height="1" x="26.19782612009645" y="164" fill="url(#grad)"></rect><rect width="140.71247279470288" height="1" x="27.143763602648562" y="165" fill="url(#grad)"></rect><rect width="138.76599006961325" height="1" x="28.117004965193374" y="166" fill="url(#grad)"></rect><rect width="136.76256797823007" height="1" x="29.118716010884967" y="167" fill="url(#grad)"></rect><rect width="134.6996659238619" height="1" x="30.150167038069057" y="168" fill="url(#grad)"></rect><rect width="132.5745073534124" height="1" x="31.2127463232938" y="169" fill="url(#grad)"></rect><rect width="130.38404810405297" height="1" x="32.30797594797352" y="170" fill="url(#grad)"></rect><rect width="128.12493902437572" height="1" x="33.43753048781214" y="171" fill="url(#grad)"></rect><rect width="125.7934815481311" height="1" x="34.60325922593445" y="172" fill="url(#grad)"></rect><rect width="123.38557452149745" height="1" x="35.80721273925128" y="173" fill="url(#grad)"></rect><rect width="120.8966500776593" height="1" x="37.05167496117035" y="174" fill="url(#grad)"></rect><rect width="118.32159566199232" height="1" x="38.33920216900384" y="175" fill="url(#grad)"></rect><rect width="115.65465835840769" height="1" x="39.67267082079616" y="176" fill="url(#grad)"></rect><rect width="112.88932633336067" height="1" x="41.055336833319664" y="177" fill="url(#grad)"></rect><rect width="110.01818031580054" height="1" x="42.49090984209973" y="178" fill="url(#grad)"></rect><rect width="107.03270528207722" height="1" x="43.98364735896139" y="179" fill="url(#grad)"></rect><rect width="103.92304845413264" height="1" x="45.53847577293368" y="180" fill="url(#grad)"></rect><rect width="100.67770358922576" height="1" x="47.16114820538712" y="181" fill="url(#grad)"></rect><rect width="97.28309205612247" height="1" x="48.858453971938765" y="182" fill="url(#grad)"></rect><rect width="93.72299611087985" height="1" x="50.638501944560076" y="183" fill="url(#grad)"></rect><rect width="89.97777503361594" height="1" x="52.51111248319203" y="184" fill="url(#grad)"></rect><rect width="86.02325267042627" height="1" x="54.48837366478686" y="185" fill="url(#grad)"></rect><rect width="81.82909018191513" height="1" x="56.58545490904243" y="186" fill="url(#grad)"></rect><rect width="77.35631842325486" height="1" x="58.82184078837257" y="187" fill="url(#grad)"></rect><rect width="72.55342858886821" height="1" x="61.22328570556589" y="188" fill="url(#grad)"></rect><rect width="67.34983296193094" height="1" x="63.82508351903453" y="189" fill="url(#grad)"></rect><rect width="61.644140029689765" height="1" x="66.67792998515512" y="190" fill="url(#grad)"></rect><rect width="55.281099844341014" height="1" x="69.8594500778295" y="191" fill="url(#grad)"></rect><rect width="48" height="1" x="73.5" y="192" fill="url(#grad)"></rect><rect width="39.293765408777" height="1" x="77.8531172956115" y="193" fill="url(#grad)"></rect><rect width="27.85677655436824" height="1" x="83.57161172281587" y="194" fill="url(#grad)"></rect>
    </g>
	<circle r="97.5" cx="97.5" cy="97.5" fill="none" stroke="#888" stroke-width="1"></circle>
</svg>