<svg xmlns="http://www.w3.org/2000/svg" viewBox="0 0 128 128" enable-background="new 0 0 128 128"><symbol viewBox="-42 -31 84 61"><path d="M42-29c0-1.105-.895-2-2-2h-80c-1.105 0-2 .895-2 2v56c0 1.105.895 2 2 2h80c1.105 0 2-.895 2-2v-56z" opacity=".12"/><path fill="#fff" d="M42-28c0-1.105-.895-2-2-2h-80c-1.105 0-2 .895-2 2v56c0 1.105.895 2 2 2h80c1.105 0 2-.895 2-2v-56z"/><linearGradient id="a" gradientUnits="userSpaceOnUse" y1="-29" x2="0" y2="22"><stop offset="0" stop-color="#53B4F5"/><stop offset="1" stop-color="#65BCF6"/></linearGradient><path fill="url(#a)" d="M41 22v-49.5c0-.55-.45-1.5-1-1.5h-80c-.55 0-1 .95-1 1.5v49.5"/><path fill="#FF6259" d="M-36 26.5c0-1.105-.895-2-2-2s-2 .895-2 2 .895 2 2 2 2-.895 2-2z"/><path fill="#fff" d="M-39 26.5l-.035.139c-.016.075-.028.241.033.396.05.162.163.342.337.485.094.06.189.134.308.163.123.046.21.051.382.064.103-.017.178-.011.319-.061.135-.032.226-.106.321-.166.175-.143.287-.324.337-.486.061-.158.046-.306.033-.395l-.035-.139-.062.127c-.026.079-.104.178-.185.275-.072.108-.209.179-.33.25l-.194.065-.256.033-.192-.029-.207-.069c-.121-.071-.258-.142-.33-.25-.168-.179-.238-.413-.244-.402z" opacity=".6"/><path fill="#FFC933" d="M-30 26.5c0-1.105-.895-2-2-2s-2 .895-2 2 .895 2 2 2 2-.895 2-2z"/><path fill="#2ECC71" d="M-24 26.5c0-1.105-.895-2-2-2s-2 .895-2 2 .895 2 2 2 2-.895 2-2z"/><path fill="#75C3F7" d="M-40 16h80v1h-80zM-40 8h80v1h-80zM-40 0h80v1h-80zM-40-8h80v1h-80zM-40-16h80v1h-80zM-40-24h80v1h-80zM19 21v-49h1v49zM27 21v-49h1v49zM35 21v-49h1v49zM11 21v-49h1v49zM3 21v-49h1v49zM-5 21v-49h1v49zM-13 21v-49h1v49zM-21 21v-49h1v49zM-29 21v-49h1v49zM-37 21v-49h1v49z"/><path opacity=".08" d="M41 21h-82v1h82z"/><path fill="#fff" d="M-33 26.5l-.035.139c-.016.075-.028.241.033.396.05.162.163.342.337.485.094.06.189.134.308.163.123.046.21.051.382.064.103-.017.178-.011.319-.061.135-.032.226-.106.321-.166.175-.143.287-.324.337-.486.061-.158.046-.306.033-.395l-.035-.139-.062.127c-.026.079-.104.178-.185.275-.072.108-.209.179-.33.25l-.194.065-.256.033-.192-.029-.207-.069c-.121-.071-.258-.142-.33-.25-.168-.179-.238-.413-.244-.402zM-27 26.5l-.035.139c-.016.075-.028.241.033.396.05.162.163.342.337.485.094.06.189.134.308.163.123.046.21.051.382.064.103-.017.178-.011.319-.061.135-.032.226-.106.321-.166.175-.143.287-.324.337-.486.061-.158.046-.306.033-.395l-.035-.139-.062.127c-.026.079-.104.178-.185.275-.072.108-.209.179-.33.25l-.194.065-.256.033-.192-.029-.207-.069c-.121-.071-.258-.142-.33-.25-.168-.179-.238-.413-.244-.402z" opacity=".6"/></symbol><g><path d="M94 94.057c0 1.069-.874 1.943-1.943 1.943h-64.114c-1.069 0-1.943-.874-1.943-1.943v-64.114c0-1.069.874-1.943 1.943-1.943h64.114c1.069 0 1.943.874 1.943 1.943v64.114z" opacity=".1"/><path fill="#fff" d="M94 92.057c0 1.069-.874 1.943-1.943 1.943h-64.114c-1.069 0-1.943-.874-1.943-1.943v-64.114c0-1.069.874-1.943 1.943-1.943h64.114c1.069 0 1.943.874 1.943 1.943v64.114z"/><path fill="#92C8F4" d="M28 28h64v64h-64z"/><path fill="#51677D" d="M89 92c-.308-.998-1.335-2.043-2.256-2.545l-16.092-8.639c-.921-.502-2.201-1.667-2.201-2.713 0-.997-.451-1.612-2.451-1.674v-4.24c2-.591 4.503-2.459 4.951-6.128 1.18.295 2.955-1.43 3.777-4.295.822-2.865.516-5.427-.664-5.722-.316-.079-.805-.233-1.16-.002 1.004-2.004 2.095-6.75 2.009-9.017-.347-9.12-6.229-13.025-15.046-13.025-4.445 0-8.213 1.838-10.083 4.609-.185-.067-.322-.112-.514-.112-2.158 0-4.261 3.516-4.261 8.916-.086 2.267 1.11 6.625 2.113 8.628-.356-.231-.839-.077-1.155.002-1.18.295-1.47 2.857-.648 5.722s2.556 4.59 3.736 4.295c.449 3.668 2.945 5.536 4.945 6.128v4.24c-2 .062-2.445.717-2.445 1.714 0 1.046-1.312 2.25-2.233 2.753l-16.073 8.56c-.921.502-1.941 1.547-2.249 2.545h58z"/><g opacity=".05"><path d="M74.064 56.043c-.191-.048-.444-.114-.693-.115-.155.422-.312.803-.467 1.113.356-.231.845-.077 1.16.002.645.161 1.018 1.012 1.099 2.206.1-1.713-.286-3.003-1.099-3.206zM49.27 39.497c.192 0 .329.044.514.111 1.869-2.77 5.638-4.608 10.083-4.608 8.757 0 14.613 3.857 15.032 12.844.017-.296.023-.574.014-.819-.347-9.12-6.229-13.025-15.046-13.025-4.445 0-8.213 1.838-10.083 4.609-.185-.067-.322-.111-.514-.111-2.158 0-4.261 3.516-4.261 8.916l.013.479c.131-5.102 2.161-8.396 4.248-8.396zM68.451 78.102c0-.997-.451-1.612-2.451-1.674v1c2 .062 2.451.677 2.451 1.674 0 1.046 1.281 2.211 2.201 2.713l16.092 8.639c.611.333 1.264.906 1.728 1.545h.528c-.308-.998-1.335-2.043-2.256-2.545l-16.092-8.639c-.921-.502-2.201-1.666-2.201-2.713zM33.248 90.455l16.073-8.56c.921-.502 2.233-1.707 2.233-2.753 0-.997.445-1.652 2.445-1.714v-1c-2 .062-2.445.717-2.445 1.714 0 1.046-1.312 2.25-2.233 2.753l-16.073 8.56c-.92.502-1.94 1.547-2.248 2.545h.527c.461-.639 1.111-1.212 1.721-1.545zM45.967 57.043c.316-.079.799-.233 1.155-.002-.157-.314-.319-.7-.48-1.113-.243.004-.488.068-.675.115-.809.202-1.187 1.479-1.089 3.178.081-1.179.449-2.018 1.089-2.178z"/></g><g><circle opacity=".1" cx="96.999" cy="99.001" r="20"/><circle fill="#fff" cx="96.999" cy="97.001" r="20"/><circle fill="#64788B" cx="96.999" cy="97.001" r="18"/><path opacity=".05" d="M96.999 80.126c9.751 0 17.672 7.759 17.972 17.438l.028-.562c0-9.941-8.059-18-18-18s-18 8.059-18 18l.028.562c.3-9.679 8.221-17.438 17.972-17.438z"/><g fill="#fff"><path d="M94.999 86.001h4v22h-4zM85.999 95.001h22v4h-22z"/></g><g fill="#fff"><path d="M87.806 90.637l2.828-2.828 15.556 15.556-2.828 2.828zM103.363 87.807l2.828 2.828-15.556 15.556-2.828-2.828z"/></g><circle fill="#fff" cx="96.999" cy="97.001" r="8"/><circle fill="#64788B" cx="96.999" cy="97.001" r="3"/></g></g></svg>