<svg xmlns="http://www.w3.org/2000/svg" viewBox="0 0 128 128" enable-background="new 0 0 128 128"><symbol viewBox="-42 -31 84 61"><path d="M42-29c0-1.105-.895-2-2-2h-80c-1.105 0-2 .895-2 2v56c0 1.105.895 2 2 2h80c1.105 0 2-.895 2-2v-56z" opacity=".12"/><path fill="#fff" d="M42-28c0-1.105-.895-2-2-2h-80c-1.105 0-2 .895-2 2v56c0 1.105.895 2 2 2h80c1.105 0 2-.895 2-2v-56z"/><linearGradient id="a" gradientUnits="userSpaceOnUse" y1="-29" x2="0" y2="22"><stop offset="0" stop-color="#53B4F5"/><stop offset="1" stop-color="#65BCF6"/></linearGradient><path fill="url(#a)" d="M41 22v-49.5c0-.55-.45-1.5-1-1.5h-80c-.55 0-1 .95-1 1.5v49.5"/><path fill="#FF6259" d="M-36 26.5c0-1.105-.895-2-2-2s-2 .895-2 2 .895 2 2 2 2-.895 2-2z"/><path fill="#fff" d="M-39 26.5l-.035.139c-.016.075-.028.241.033.396.05.162.163.342.337.485.094.06.189.134.308.163.123.046.21.051.382.064.103-.017.178-.011.319-.061.135-.032.226-.106.321-.166.175-.143.287-.324.337-.486.061-.158.046-.306.033-.395l-.035-.139-.062.127c-.026.079-.104.178-.185.275-.072.108-.209.179-.33.25l-.194.065-.256.033-.192-.029-.207-.069c-.121-.071-.258-.142-.33-.25-.168-.179-.238-.413-.244-.402z" opacity=".6"/><path fill="#FFC933" d="M-30 26.5c0-1.105-.895-2-2-2s-2 .895-2 2 .895 2 2 2 2-.895 2-2z"/><path fill="#2ECC71" d="M-24 26.5c0-1.105-.895-2-2-2s-2 .895-2 2 .895 2 2 2 2-.895 2-2z"/><path fill="#75C3F7" d="M-40 16h80v1h-80zM-40 8h80v1h-80zM-40 0h80v1h-80zM-40-8h80v1h-80zM-40-16h80v1h-80zM-40-24h80v1h-80zM19 21v-49h1v49zM27 21v-49h1v49zM35 21v-49h1v49zM11 21v-49h1v49zM3 21v-49h1v49zM-5 21v-49h1v49zM-13 21v-49h1v49zM-21 21v-49h1v49zM-29 21v-49h1v49zM-37 21v-49h1v49z"/><path opacity=".08" d="M41 21h-82v1h82z"/><path fill="#fff" d="M-33 26.5l-.035.139c-.016.075-.028.241.033.396.05.162.163.342.337.485.094.06.189.134.308.163.123.046.21.051.382.064.103-.017.178-.011.319-.061.135-.032.226-.106.321-.166.175-.143.287-.324.337-.486.061-.158.046-.306.033-.395l-.035-.139-.062.127c-.026.079-.104.178-.185.275-.072.108-.209.179-.33.25l-.194.065-.256.033-.192-.029-.207-.069c-.121-.071-.258-.142-.33-.25-.168-.179-.238-.413-.244-.402zM-27 26.5l-.035.139c-.016.075-.028.241.033.396.05.162.163.342.337.485.094.06.189.134.308.163.123.046.21.051.382.064.103-.017.178-.011.319-.061.135-.032.226-.106.321-.166.175-.143.287-.324.337-.486.061-.158.046-.306.033-.395l-.035-.139-.062.127c-.026.079-.104.178-.185.275-.072.108-.209.179-.33.25l-.194.065-.256.033-.192-.029-.207-.069c-.121-.071-.258-.142-.33-.25-.168-.179-.238-.413-.244-.402z" opacity=".6"/></symbol><g><circle cx="37" cy="49" r="22" opacity=".1"/><circle fill="#fff" cx="37" cy="47" r="22"/><circle fill="#51677D" cx="37" cy="47" r="20"/><circle fill="#fff" cx="37" cy="47" r="16"/><path fill="#FF6259" d="M32.346 39.881s1.368 12.004 2.011 13.771c.514 1.411 2.149 2.212 3.612 1.679s2.202-2.197 1.688-3.609c-.643-1.767-7.311-11.841-7.311-11.841z"/><circle fill="#fff" cx="37" cy="52.677" r="1.5"/><path fill="#E0E0E0" d="M51 47c0 .552-.448 1-1 1h-1c-.552 0-1-.448-1-1s.448-1 1-1h1c.552 0 1 .448 1 1zM38 35c0 .552-.448 1-1 1s-1-.448-1-1v-1c0-.552.448-1 1-1s1 .448 1 1v1zM26 47c0 .552-.448 1-1 1h-1c-.552 0-1-.448-1-1s.448-1 1-1h1c.552 0 1 .448 1 1zM47.892 41.866c-.476.275-1.091.11-1.366-.366-.275-.476-.11-1.091.366-1.366l.866-.5c.476-.275 1.091-.11 1.366.366.275.476.11 1.091-.366 1.366l-.866.5zM26.108 52.134c.476-.275 1.091-.11 1.366.366.275.476.11 1.091-.366 1.366l-.866.5c-.476.275-1.091.11-1.366-.366-.275-.476-.11-1.091.366-1.366l.866-.5zM43.866 37.108c-.275.476-.89.641-1.366.366-.476-.275-.641-.89-.366-1.366l.5-.866c.275-.476.89-.641 1.366-.366.476.275.641.89.366 1.366l-.5.866zM31.866 36.108c.275.476.11 1.091-.366 1.366-.476.275-1.091.11-1.366-.366l-.5-.866c-.275-.476-.11-1.091.366-1.366.476-.275 1.091-.11 1.366.366l.5.866zM27.108 40.134c.476.275.641.89.366 1.366-.275.476-.89.641-1.366.366l-.866-.5c-.476-.275-.641-.89-.366-1.366.275-.476.89-.641 1.366-.366l.866.5zM46.892 53.866c-.476-.275-.641-.89-.366-1.366.275-.476.89-.641 1.366-.366l.866.5c.476.275.641.89.366 1.366-.275.476-.89.641-1.366.366l-.866-.5z"/><path d="M63 62.869c0 1.172.959 2.131 2.131 2.131h41.737c1.172 0 2.131-.959 2.131-2.131v-27.738c0-1.172-.959-2.131-2.131-2.131h-41.737c-1.172 0-2.131.959-2.131 2.131v27.738z" opacity=".1"/><path fill="#fff" d="M63 60.869c0 1.172.959 2.131 2.131 2.131h41.737c1.172 0 2.131-.959 2.131-2.131v-27.738c0-1.172-.959-2.131-2.131-2.131h-41.737c-1.172 0-2.131.959-2.131 2.131v27.738z"/><path fill="#92C8F4" d="M107 34.225c0-.674-.551-1.225-1.225-1.225h-39.55c-.674 0-1.225.551-1.225 1.225v25.551c0 .673.551 1.224 1.225 1.224h39.551c.674 0 1.225-.551 1.225-1.225v-25.55z"/><path fill="#4AA4EC" d="M107 46l-6.3-5-4.9 4-4.9-6-4.9 10-4.9-4-4.9 8-4.9-4-6.3 5v7h41.866z"/><path opacity=".05" d="M107 45.906l-6.309-5.007-4.749 3.877-5.254-6.433-5.032 10.269-4.811-3.928-4.9 8.001-4.636-3.786-6.309 5.007v2.554l6.291-4.993 5.164 4.215 4.9-8 4.989 4.072 4.768-9.731 4.546 5.567 5.051-4.123 6.291 4.993z"/><path fill="#fff" d="M107 44.723l-6.309-5.007-4.749 3.877-5.254-6.433-5.032 10.269-4.811-3.928-4.9 8-4.636-3.785-6.309 5.007v2.553l6.291-4.992 5.164 4.215 4.9-8 4.989 4.072 4.768-9.731 4.546 5.567 5.051-4.123 6.291 4.992z"/><path opacity=".1" d="M96.08 104.5c-8.271 0-15-6.729-15-15s6.729-15 15-15 15 6.729 15 15-6.729 15-15 15zm0-22c-3.86 0-7 3.14-7 7s3.14 7 7 7 7-3.14 7-7-3.14-7-7-7zM64.08 104.5c-8.271 0-15-6.729-15-15s6.729-15 15-15 15 6.729 15 15-6.729 15-15 15zm0-22c-3.86 0-7 3.14-7 7s3.14 7 7 7 7-3.14 7-7-3.14-7-7-7zM32.08 104.5c-8.271 0-15-6.729-15-15s6.729-15 15-15 15 6.729 15 15-6.729 15-15 15zm0-22c-3.86 0-7 3.14-7 7s3.14 7 7 7 7-3.14 7-7-3.14-7-7-7z"/><path fill="#fff" d="M96.08 102.5c-8.271 0-15-6.729-15-15s6.729-15 15-15 15 6.729 15 15-6.729 15-15 15zm0-22c-3.86 0-7 3.14-7 7s3.14 7 7 7 7-3.14 7-7-3.14-7-7-7zM64.08 102.5c-8.271 0-15-6.729-15-15s6.729-15 15-15 15 6.729 15 15-6.729 15-15 15zm0-22c-3.86 0-7 3.14-7 7s3.14 7 7 7 7-3.14 7-7-3.14-7-7-7zM32.08 102.5c-8.271 0-15-6.729-15-15s6.729-15 15-15 15 6.729 15 15-6.729 15-15 15zm0-22c-3.86 0-7 3.14-7 7s3.14 7 7 7 7-3.14 7-7-3.14-7-7-7zM31 74h2v5h-2z"/><path fill="#FF6259" d="M97 74.547v4c4.532.462 8.08 4.301 8.08 8.953s-3.548 8.491-8.08 8.953v4c6.739-.475 12.08-6.095 12.08-12.953s-5.341-12.478-12.08-12.953z"/><path fill="#CACFD2" d="M95 96.428c-4.454-.536-7.92-4.332-7.92-8.928s3.466-8.392 7.92-8.928v-4.012c-6.663.552-11.92 6.136-11.92 12.939s5.257 12.388 11.92 12.94v-4.011z"/><path fill="#50D599" d="M33 74.547v4c4.532.462 8.08 4.301 8.08 8.953 0 4.962-4.038 9-9 9-4.45 0-8.141-3.251-8.858-7.5h-4.029c.748 6.461 6.228 11.5 12.887 11.5 7.168 0 13-5.832 13-13 0-6.858-5.341-12.478-12.08-12.953z"/><path fill="#CACFD2" d="M19.104 87h3.999c.242-4.368 3.606-7.912 7.896-8.428v-4.012c-6.497.539-11.643 5.867-11.895 12.44zM51.08 87.5c0 3.332 1.274 6.361 3.343 8.663l2.828-2.828c-1.348-1.572-2.171-3.606-2.171-5.835 0-4.596 3.466-8.392 7.92-8.928v-4.012c-6.663.553-11.92 6.137-11.92 12.94z"/><path fill="#FFBE2A" d="M65 74.547v4c4.532.462 8.08 4.301 8.08 8.953 0 4.962-4.038 9-9 9-2.014 0-3.867-.675-5.367-1.799l-2.845 2.845c2.241 1.838 5.095 2.953 8.212 2.953 7.168 0 13-5.832 13-13 0-6.857-5.341-12.477-12.08-12.952z"/></g></svg>