<svg xmlns="http://www.w3.org/2000/svg" viewBox="0 0 128 128" enable-background="new 0 0 128 128"><symbol viewBox="-42 -31 84 61"><path d="M42-29c0-1.105-.895-2-2-2h-80c-1.105 0-2 .895-2 2v56c0 1.105.895 2 2 2h80c1.105 0 2-.895 2-2v-56z" opacity=".12"/><path fill="#fff" d="M42-28c0-1.105-.895-2-2-2h-80c-1.105 0-2 .895-2 2v56c0 1.105.895 2 2 2h80c1.105 0 2-.895 2-2v-56z"/><linearGradient id="a" gradientUnits="userSpaceOnUse" y1="-29" x2="0" y2="22"><stop offset="0" stop-color="#53B4F5"/><stop offset="1" stop-color="#65BCF6"/></linearGradient><path fill="url(#a)" d="M41 22v-49.5c0-.55-.45-1.5-1-1.5h-80c-.55 0-1 .95-1 1.5v49.5"/><path fill="#FF6259" d="M-36 26.5c0-1.105-.895-2-2-2s-2 .895-2 2 .895 2 2 2 2-.895 2-2z"/><path fill="#fff" d="M-39 26.5l-.035.139c-.016.075-.028.241.033.396.05.162.163.342.337.485.094.06.189.134.308.163.123.046.21.051.382.064.103-.017.178-.011.319-.061.135-.032.226-.106.321-.166.175-.143.287-.324.337-.486.061-.158.046-.306.033-.395l-.035-.139-.062.127c-.026.079-.104.178-.185.275-.072.108-.209.179-.33.25l-.194.065-.256.033-.192-.029-.207-.069c-.121-.071-.258-.142-.33-.25-.168-.179-.238-.413-.244-.402z" opacity=".6"/><path fill="#FFC933" d="M-30 26.5c0-1.105-.895-2-2-2s-2 .895-2 2 .895 2 2 2 2-.895 2-2z"/><path fill="#2ECC71" d="M-24 26.5c0-1.105-.895-2-2-2s-2 .895-2 2 .895 2 2 2 2-.895 2-2z"/><path fill="#75C3F7" d="M-40 16h80v1h-80zM-40 8h80v1h-80zM-40 0h80v1h-80zM-40-8h80v1h-80zM-40-16h80v1h-80zM-40-24h80v1h-80zM19 21v-49h1v49zM27 21v-49h1v49zM35 21v-49h1v49zM11 21v-49h1v49zM3 21v-49h1v49zM-5 21v-49h1v49zM-13 21v-49h1v49zM-21 21v-49h1v49zM-29 21v-49h1v49zM-37 21v-49h1v49z"/><path opacity=".08" d="M41 21h-82v1h82z"/><path fill="#fff" d="M-33 26.5l-.035.139c-.016.075-.028.241.033.396.05.162.163.342.337.485.094.06.189.134.308.163.123.046.21.051.382.064.103-.017.178-.011.319-.061.135-.032.226-.106.321-.166.175-.143.287-.324.337-.486.061-.158.046-.306.033-.395l-.035-.139-.062.127c-.026.079-.104.178-.185.275-.072.108-.209.179-.33.25l-.194.065-.256.033-.192-.029-.207-.069c-.121-.071-.258-.142-.33-.25-.168-.179-.238-.413-.244-.402zM-27 26.5l-.035.139c-.016.075-.028.241.033.396.05.162.163.342.337.485.094.06.189.134.308.163.123.046.21.051.382.064.103-.017.178-.011.319-.061.135-.032.226-.106.321-.166.175-.143.287-.324.337-.486.061-.158.046-.306.033-.395l-.035-.139-.062.127c-.026.079-.104.178-.185.275-.072.108-.209.179-.33.25l-.194.065-.256.033-.192-.029-.207-.069c-.121-.071-.258-.142-.33-.25-.168-.179-.238-.413-.244-.402z" opacity=".6"/></symbol><g><path opacity=".1" d="M20 102v-40.99l44-33.525 44 33.525v40.99z"/><path fill="#fff" d="M20 100v-40.99l44-33.525 44 33.525v40.99z"/><path fill="#FFBE2A" d="M64 28l42 32v38h-84v-38z"/><path opacity=".12" d="M22 60l42-32 42 32-42 20z"/><path fill="#fff" d="M64 80l34-16.19v-27.81h-68v27.81z"/><path opacity=".04" d="M22 98h84l-42-18z"/><path fill="#E5E7E9" d="M41 51h46v2h-46zM41 56h46v2h-46zM41 61h46v2h-46z"/><path fill="#FB8E7F" d="M90 42h-8l-4-4h8z"/><path fill="#4AA4EC" d="M80 42h-8l-4-4h8z"/><path fill="#FB8E7F" d="M70 42h-8l-4-4h8z"/><path fill="#4AA4EC" d="M60 42h-8l-4-4h8z"/><path fill="#FB8E7F" d="M50 42h-8l-4-4h8z"/><path fill="#4AA4EC" d="M96 42h-4l-4-4h8zM32 38h4l4 4h-8z"/></g></svg>