<svg xmlns="http://www.w3.org/2000/svg" viewBox="0 0 128 128" enable-background="new 0 0 128 128"><symbol viewBox="-42 -31 84 61"><path d="M42-29c0-1.105-.895-2-2-2h-80c-1.105 0-2 .895-2 2v56c0 1.105.895 2 2 2h80c1.105 0 2-.895 2-2v-56z" opacity=".12"/><path fill="#fff" d="M42-28c0-1.105-.895-2-2-2h-80c-1.105 0-2 .895-2 2v56c0 1.105.895 2 2 2h80c1.105 0 2-.895 2-2v-56z"/><linearGradient id="a" gradientUnits="userSpaceOnUse" y1="-29" x2="0" y2="22"><stop offset="0" stop-color="#53B4F5"/><stop offset="1" stop-color="#65BCF6"/></linearGradient><path fill="url(#a)" d="M41 22v-49.5c0-.55-.45-1.5-1-1.5h-80c-.55 0-1 .95-1 1.5v49.5"/><path fill="#FF6259" d="M-36 26.5c0-1.105-.895-2-2-2s-2 .895-2 2 .895 2 2 2 2-.895 2-2z"/><path fill="#fff" d="M-39 26.5l-.035.139c-.016.075-.028.241.033.396.05.162.163.342.337.485.094.06.189.134.308.163.123.046.21.051.382.064.103-.017.178-.011.319-.061.135-.032.226-.106.321-.166.175-.143.287-.324.337-.486.061-.158.046-.306.033-.395l-.035-.139-.062.127c-.026.079-.104.178-.185.275-.072.108-.209.179-.33.25l-.194.065-.256.033-.192-.029-.207-.069c-.121-.071-.258-.142-.33-.25-.168-.179-.238-.413-.244-.402z" opacity=".6"/><path fill="#FFC933" d="M-30 26.5c0-1.105-.895-2-2-2s-2 .895-2 2 .895 2 2 2 2-.895 2-2z"/><path fill="#2ECC71" d="M-24 26.5c0-1.105-.895-2-2-2s-2 .895-2 2 .895 2 2 2 2-.895 2-2z"/><path fill="#75C3F7" d="M-40 16h80v1h-80zM-40 8h80v1h-80zM-40 0h80v1h-80zM-40-8h80v1h-80zM-40-16h80v1h-80zM-40-24h80v1h-80zM19 21v-49h1v49zM27 21v-49h1v49zM35 21v-49h1v49zM11 21v-49h1v49zM3 21v-49h1v49zM-5 21v-49h1v49zM-13 21v-49h1v49zM-21 21v-49h1v49zM-29 21v-49h1v49zM-37 21v-49h1v49z"/><path opacity=".08" d="M41 21h-82v1h82z"/><path fill="#fff" d="M-33 26.5l-.035.139c-.016.075-.028.241.033.396.05.162.163.342.337.485.094.06.189.134.308.163.123.046.21.051.382.064.103-.017.178-.011.319-.061.135-.032.226-.106.321-.166.175-.143.287-.324.337-.486.061-.158.046-.306.033-.395l-.035-.139-.062.127c-.026.079-.104.178-.185.275-.072.108-.209.179-.33.25l-.194.065-.256.033-.192-.029-.207-.069c-.121-.071-.258-.142-.33-.25-.168-.179-.238-.413-.244-.402zM-27 26.5l-.035.139c-.016.075-.028.241.033.396.05.162.163.342.337.485.094.06.189.134.308.163.123.046.21.051.382.064.103-.017.178-.011.319-.061.135-.032.226-.106.321-.166.175-.143.287-.324.337-.486.061-.158.046-.306.033-.395l-.035-.139-.062.127c-.026.079-.104.178-.185.275-.072.108-.209.179-.33.25l-.194.065-.256.033-.192-.029-.207-.069c-.121-.071-.258-.142-.33-.25-.168-.179-.238-.413-.244-.402z" opacity=".6"/></symbol><g><g opacity=".1"><path d="M94.602 62.772c4.745-4.745 5.053-12.124 2.734-18.29l-10.512 10.512 7.778 7.778zM94.602 62.772l-7.47-7.47-9.192-9.192-2.43-2.43 11.926-11.926c-6.379-2.106-14.555-1.001-19.951 4.396-5.396 5.396-6.501 13.571-4.395 19.951l-31.486 31.485c-3.124 3.124-3.132 8.198-.008 11.323 3.124 3.124 8.198 3.115 11.322-.009l31.462-31.462c7.05 2.849 14.615.941 20.012-4.455l.21-.211z"/></g><path fill="#E5E7E9" d="M94.602 60.772c4.745-4.745 5.053-12.124 2.734-18.29l-10.512 10.512 7.778 7.778z"/><path fill="#fff" d="M94.602 60.772l-7.47-7.47-9.192-9.192-2.43-2.43 11.926-11.926c-6.379-2.106-14.555-1.001-19.951 4.396-5.396 5.396-6.501 13.571-4.395 19.951l-31.486 31.485c-3.124 3.124-3.132 8.198-.008 11.323 3.124 3.124 8.198 3.115 11.322-.009l31.462-31.462c7.05 2.849 14.615.941 20.012-4.455l.21-.211zM63.09 54.1l-31.486 31.486c-3.124 3.124-3.132 8.198-.008 11.323 3.124 3.124 8.198 3.115 11.322-.009l31.462-31.462-11.29-11.338z"/><path fill="#E5E7E9" d="M63.087 56.932l-30.068 30.068c-2.344 2.344-2.348 6.155-.008 8.495 1.13 1.13 2.636 1.752 4.238 1.753 1.607 0 3.119-.626 4.255-1.762l30.05-30.051-8.467-8.503z"/><circle fill="#BDC3C7" cx="37.966" cy="90.55" r="3"/><path fill="#CACFD2" d="M79.045 60.772c-.778.778-2.051.778-2.828 0l-8.485-8.485c-.778-.778-.778-2.051 0-2.828l2.828-2.828c.778-.778 2.051-.778 2.828 0l8.485 8.485c.778.778.778 2.051 0 2.828l-2.828 2.828z"/><path fill="#F2F3F4" d="M72.99 56.131l-1.414-1.415 5.657-2.828 1.414 1.414zM70.162 53.302l-1.415-1.414 5.657-2.828 1.414 1.414zM75.818 58.959l-1.414-1.414 5.657-2.829 1.414 1.415z"/></g></svg>