<svg xmlns="http://www.w3.org/2000/svg" viewBox="0 0 128 128" enable-background="new 0 0 128 128"><symbol viewBox="-42 -31 84 61"><path d="M42-29c0-1.105-.895-2-2-2h-80c-1.105 0-2 .895-2 2v56c0 1.105.895 2 2 2h80c1.105 0 2-.895 2-2v-56z" opacity=".12"/><path fill="#fff" d="M42-28c0-1.105-.895-2-2-2h-80c-1.105 0-2 .895-2 2v56c0 1.105.895 2 2 2h80c1.105 0 2-.895 2-2v-56z"/><linearGradient id="a" gradientUnits="userSpaceOnUse" y1="-29" x2="0" y2="22"><stop offset="0" stop-color="#53B4F5"/><stop offset="1" stop-color="#65BCF6"/></linearGradient><path fill="url(#a)" d="M41 22v-49.5c0-.55-.45-1.5-1-1.5h-80c-.55 0-1 .95-1 1.5v49.5"/><path fill="#FF6259" d="M-36 26.5c0-1.105-.895-2-2-2s-2 .895-2 2 .895 2 2 2 2-.895 2-2z"/><path fill="#fff" d="M-39 26.5l-.035.139c-.016.075-.028.241.033.396.05.162.163.342.337.485.094.06.189.134.308.163.123.046.21.051.382.064.103-.017.178-.011.319-.061.135-.032.226-.106.321-.166.175-.143.287-.324.337-.486.061-.158.046-.306.033-.395l-.035-.139-.062.127c-.026.079-.104.178-.185.275-.072.108-.209.179-.33.25l-.194.065-.256.033-.192-.029-.207-.069c-.121-.071-.258-.142-.33-.25-.168-.179-.238-.413-.244-.402z" opacity=".6"/><path fill="#FFC933" d="M-30 26.5c0-1.105-.895-2-2-2s-2 .895-2 2 .895 2 2 2 2-.895 2-2z"/><path fill="#2ECC71" d="M-24 26.5c0-1.105-.895-2-2-2s-2 .895-2 2 .895 2 2 2 2-.895 2-2z"/><path fill="#75C3F7" d="M-40 16h80v1h-80zM-40 8h80v1h-80zM-40 0h80v1h-80zM-40-8h80v1h-80zM-40-16h80v1h-80zM-40-24h80v1h-80zM19 21v-49h1v49zM27 21v-49h1v49zM35 21v-49h1v49zM11 21v-49h1v49zM3 21v-49h1v49zM-5 21v-49h1v49zM-13 21v-49h1v49zM-21 21v-49h1v49zM-29 21v-49h1v49zM-37 21v-49h1v49z"/><path opacity=".08" d="M41 21h-82v1h82z"/><path fill="#fff" d="M-33 26.5l-.035.139c-.016.075-.028.241.033.396.05.162.163.342.337.485.094.06.189.134.308.163.123.046.21.051.382.064.103-.017.178-.011.319-.061.135-.032.226-.106.321-.166.175-.143.287-.324.337-.486.061-.158.046-.306.033-.395l-.035-.139-.062.127c-.026.079-.104.178-.185.275-.072.108-.209.179-.33.25l-.194.065-.256.033-.192-.029-.207-.069c-.121-.071-.258-.142-.33-.25-.168-.179-.238-.413-.244-.402zM-27 26.5l-.035.139c-.016.075-.028.241.033.396.05.162.163.342.337.485.094.06.189.134.308.163.123.046.21.051.382.064.103-.017.178-.011.319-.061.135-.032.226-.106.321-.166.175-.143.287-.324.337-.486.061-.158.046-.306.033-.395l-.035-.139-.062.127c-.026.079-.104.178-.185.275-.072.108-.209.179-.33.25l-.194.065-.256.033-.192-.029-.207-.069c-.121-.071-.258-.142-.33-.25-.168-.179-.238-.413-.244-.402z" opacity=".6"/></symbol><g><path opacity=".1" d="M92 105h-53c-1.105 0-2-.895-2-2v-74c0-1.105.895-2 2-2h41l14 14v62c0 1.105-.895 2-2 2z"/><path fill="#fff" d="M92 103h-53c-1.105 0-2-.895-2-2v-74c0-1.105.895-2 2-2h41l14 14v62c0 1.105-.895 2-2 2z"/><path fill="#D7DBDD" d="M80 25v12c0 1.105.895 2 2 2h12l-14-14zM55 54h12v2h-12zM55 74h8v2h-8zM58 58h12v2h-12zM58 62h8v2h-8zM58 66h10v2h-10zM72 58h16v2h-16zM72 62h10v2h-10zM72 66h14v2h-14zM43 54h4v2h-4zM55 50h20v2h-20zM77 50h4v2h-4zM43 50h4v2h-4zM43 58h4v2h-4zM43 62h4v2h-4zM58 70h8v2h-8zM72 70h10v2h-10zM43 70h4v2h-4zM43 66h4v2h-4zM43 74h4v2h-4z"/><path fill="#BDC3C7" d="M90 97c0 1.1-.9 2-2 2h-45c-1.1 0-2-.9-2-2v-14c0-1.1.9-2 2-2h45c1.1 0 2 .9 2 2v14z"/><g fill="#fff"><path d="M53.312 91.252c0 .344.059.637.176.879.117.243.281.442.49.597.209.156.45.268.722.34.272.071.567.107.886.107.344 0 .636-.04.879-.12.242-.079.439-.182.59-.307.15-.126.259-.27.327-.433.067-.163.1-.329.1-.496 0-.344-.077-.597-.232-.761-.155-.163-.325-.278-.509-.345-.318-.117-.689-.228-1.112-.333-.422-.105-.944-.241-1.564-.409-.385-.1-.705-.232-.961-.396-.255-.163-.459-.345-.61-.547-.15-.201-.257-.414-.32-.64-.063-.226-.094-.456-.094-.691 0-.452.094-.844.282-1.175.189-.331.438-.605.748-.823.31-.218.662-.379 1.056-.484.393-.105.791-.157 1.193-.157.469 0 .911.061 1.326.182.414.121.778.304 1.093.546.314.243.563.543.748.899.184.356.276.768.276 1.238h-1.57c-.042-.578-.238-.987-.59-1.225-.352-.238-.8-.358-1.344-.358-.184 0-.373.019-.565.057-.193.038-.369.1-.528.189-.159.087-.291.207-.396.358-.105.15-.157.339-.157.565 0 .318.098.567.295.748.196.18.454.316.772.408l.396.107.772.207.836.22.584.156c.293.093.548.219.766.377.218.159.399.341.547.547.146.205.255.425.327.659.071.235.107.469.107.703 0 .503-.103.932-.307 1.288-.205.356-.476.646-.81.873-.335.226-.716.392-1.143.496-.427.105-.863.157-1.307.157-.511 0-.992-.063-1.445-.188-.452-.126-.846-.318-1.181-.578-.335-.26-.603-.593-.804-.999-.201-.406-.306-.886-.314-1.438h1.569zM69.504 94.205l-.766.854-1.307-1.143c-.335.192-.683.33-1.043.414-.36.084-.716.126-1.068.126-.67 0-1.271-.123-1.803-.37s-.982-.584-1.35-1.011c-.369-.427-.652-.925-.848-1.495-.197-.569-.295-1.176-.295-1.821 0-.636.098-1.24.295-1.81.196-.569.479-1.067.848-1.494.368-.427.818-.767 1.35-1.017.532-.251 1.132-.377 1.803-.377s1.271.126 1.803.377.982.59 1.351 1.017c.368.427.651.925.847 1.494.197.57.295 1.173.295 1.81 0 .31-.025.622-.075.935-.05.314-.126.622-.226.923-.1.302-.23.589-.39.861-.159.272-.351.513-.577.722l1.156 1.005zm-4.083-2.036l.754-.866 1.093.955c.284-.344.485-.733.603-1.169.117-.435.176-.879.176-1.331 0-.427-.052-.846-.156-1.257-.105-.41-.266-.777-.484-1.099-.218-.323-.501-.58-.848-.773-.347-.192-.76-.289-1.238-.289-.477 0-.89.097-1.238.289-.347.192-.63.45-.848.773-.218.322-.379.689-.483 1.099-.105.411-.157.83-.157 1.257 0 .427.052.846.157 1.256.104.41.265.777.483 1.1.218.322.501.58.848.772.347.193.761.289 1.238.289.168 0 .337-.017.509-.05.171-.034.337-.088.496-.163l-.905-.793zM72.127 85.273h1.57v7.612h4.561v1.357h-6.131v-8.969z"/></g><path fill="#D7DBDD" d="M50 50h2v26h-2z"/></g></svg>