<svg xmlns="http://www.w3.org/2000/svg" viewBox="0 0 128 128" enable-background="new 0 0 128 128"><symbol viewBox="-42 -31 84 61"><path d="M42-29c0-1.105-.895-2-2-2h-80c-1.105 0-2 .895-2 2v56c0 1.105.895 2 2 2h80c1.105 0 2-.895 2-2v-56z" opacity=".12"/><path fill="#fff" d="M42-28c0-1.105-.895-2-2-2h-80c-1.105 0-2 .895-2 2v56c0 1.105.895 2 2 2h80c1.105 0 2-.895 2-2v-56z"/><linearGradient id="a" gradientUnits="userSpaceOnUse" y1="-29" x2="0" y2="22"><stop offset="0" stop-color="#53B4F5"/><stop offset="1" stop-color="#65BCF6"/></linearGradient><path fill="url(#a)" d="M41 22v-49.5c0-.55-.45-1.5-1-1.5h-80c-.55 0-1 .95-1 1.5v49.5"/><path fill="#FF6259" d="M-36 26.5c0-1.105-.895-2-2-2s-2 .895-2 2 .895 2 2 2 2-.895 2-2z"/><path fill="#fff" d="M-39 26.5l-.035.139c-.016.075-.028.241.033.396.05.162.163.342.337.485.094.06.189.134.308.163.123.046.21.051.382.064.103-.017.178-.011.319-.061.135-.032.226-.106.321-.166.175-.143.287-.324.337-.486.061-.158.046-.306.033-.395l-.035-.139-.062.127c-.026.079-.104.178-.185.275-.072.108-.209.179-.33.25l-.194.065-.256.033-.192-.029-.207-.069c-.121-.071-.258-.142-.33-.25-.168-.179-.238-.413-.244-.402z" opacity=".6"/><path fill="#FFC933" d="M-30 26.5c0-1.105-.895-2-2-2s-2 .895-2 2 .895 2 2 2 2-.895 2-2z"/><path fill="#2ECC71" d="M-24 26.5c0-1.105-.895-2-2-2s-2 .895-2 2 .895 2 2 2 2-.895 2-2z"/><path fill="#75C3F7" d="M-40 16h80v1h-80zM-40 8h80v1h-80zM-40 0h80v1h-80zM-40-8h80v1h-80zM-40-16h80v1h-80zM-40-24h80v1h-80zM19 21v-49h1v49zM27 21v-49h1v49zM35 21v-49h1v49zM11 21v-49h1v49zM3 21v-49h1v49zM-5 21v-49h1v49zM-13 21v-49h1v49zM-21 21v-49h1v49zM-29 21v-49h1v49zM-37 21v-49h1v49z"/><path opacity=".08" d="M41 21h-82v1h82z"/><path fill="#fff" d="M-33 26.5l-.035.139c-.016.075-.028.241.033.396.05.162.163.342.337.485.094.06.189.134.308.163.123.046.21.051.382.064.103-.017.178-.011.319-.061.135-.032.226-.106.321-.166.175-.143.287-.324.337-.486.061-.158.046-.306.033-.395l-.035-.139-.062.127c-.026.079-.104.178-.185.275-.072.108-.209.179-.33.25l-.194.065-.256.033-.192-.029-.207-.069c-.121-.071-.258-.142-.33-.25-.168-.179-.238-.413-.244-.402zM-27 26.5l-.035.139c-.016.075-.028.241.033.396.05.162.163.342.337.485.094.06.189.134.308.163.123.046.21.051.382.064.103-.017.178-.011.319-.061.135-.032.226-.106.321-.166.175-.143.287-.324.337-.486.061-.158.046-.306.033-.395l-.035-.139-.062.127c-.026.079-.104.178-.185.275-.072.108-.209.179-.33.25l-.194.065-.256.033-.192-.029-.207-.069c-.121-.071-.258-.142-.33-.25-.168-.179-.238-.413-.244-.402z" opacity=".6"/></symbol><g><circle opacity=".1" cx="84" cy="86" r="18"/><circle fill="#fff" cx="84" cy="84" r="18"/><circle fill="#4AA4EC" cx="84" cy="84" r="16"/><path opacity=".05" d="M84 69c8.668 0 15.708 6.897 15.975 15.5l.025-.5c0-8.837-7.163-16-16-16s-16 7.163-16 16l.025.5c.267-8.603 7.307-15.5 15.975-15.5z"/><circle opacity=".1" cx="84" cy="46" r="18"/><circle fill="#fff" cx="84" cy="44" r="18"/><circle fill="#FA5540" cx="84" cy="44" r="16"/><path opacity=".05" d="M84 29c8.668 0 15.708 6.897 15.975 15.5l.025-.5c0-8.837-7.163-16-16-16s-16 7.163-16 16l.025.5c.267-8.603 7.307-15.5 15.975-15.5z"/><circle opacity=".1" cx="44" cy="86" r="18"/><circle fill="#fff" cx="44" cy="84" r="18"/><circle fill="#24CB7F" cx="44" cy="84" r="16"/><path opacity=".05" d="M44 69c8.668 0 15.708 6.897 15.975 15.5l.025-.5c0-8.837-7.163-16-16-16s-16 7.163-16 16l.025.5c.267-8.603 7.307-15.5 15.975-15.5z"/><circle opacity=".1" cx="44" cy="46" r="18"/><circle fill="#fff" cx="44" cy="44" r="18"/><circle fill="#FFBE2A" cx="44" cy="44" r="16"/><path opacity=".05" d="M44 29c8.668 0 15.708 6.897 15.975 15.5l.025-.5c0-8.837-7.163-16-16-16s-16 7.163-16 16l.025.5c.267-8.603 7.307-15.5 15.975-15.5z"/><path fill="#fff" d="M91 41h-2v-3.137c0-2.636-2.29-4.863-5-4.863s-5 2.179-5 4.758v3.242h-2c-.55 0-1 .45-1 1v10c0 .55.45 1 1 1h14c.55 0 1-.45 1-1v-10c0-.55-.45-1-1-1zm-4 9h-6v-1h6v1zm0-2h-6v-1h6v1zm0-2h-6v-1h6v1zm0-5h-6v-3.242c0-1.495 1.374-2.758 3-2.758 1.598 0 3 1.338 3 2.863v3.137zM53 82h-2.294c-.139-.465-.321-.911-.548-1.33l1.62-1.62c.389-.389.389-1.025 0-1.414l-1.414-1.414c-.389-.389-1.025-.389-1.414 0l-1.62 1.62c-.419-.227-.865-.409-1.33-.548v-2.294c0-.552-.448-1-1-1h-2c-.552 0-1 .448-1 1v2.294c-.465.138-.911.321-1.33.548l-1.62-1.62c-.389-.389-1.025-.389-1.414 0l-1.414 1.414c-.389.389-.389 1.025 0 1.414l1.62 1.62c-.227.419-.409.865-.548 1.33h-2.294c-.552 0-1 .448-1 1v2c0 .552.448 1 1 1h2.294c.139.465.321.911.548 1.33l-1.62 1.62c-.389.389-.389 1.025 0 1.414l1.414 1.414c.389.389 1.025.389 1.414 0l1.62-1.62c.419.227.865.409 1.33.548v2.294c0 .552.448 1 1 1h2c.552 0 1-.448 1-1v-2.294c.465-.139.911-.321 1.33-.548l1.62 1.62c.389.389 1.025.389 1.414 0l1.414-1.414c.389-.389.389-1.025 0-1.414l-1.62-1.62c.227-.419.409-.865.548-1.33h2.294c.552 0 1-.448 1-1v-2c0-.552-.448-1-1-1zm-9 5c-1.657 0-3-1.343-3-3s1.343-3 3-3 3 1.343 3 3-1.343 3-3 3z"/><g><circle fill="#fff" cx="44" cy="55" r="2"/><circle fill="#fff" cx="44" cy="33" r="2"/><circle fill="#fff" cx="33" cy="44" r="2"/><circle fill="#fff" cx="55" cy="44" r="2"/><circle fill="#fff" cx="36.222" cy="51.778" r="2"/><circle fill="#fff" cx="51.778" cy="36.222" r="2"/><path fill="#fff" d="M53.047 52.563s-3.832-1.003-6.128-3.3c-1.302-1.302-1.347-2.613-.565-3.394.781-.781 2.092-.736 3.394.565 2.296 2.298 3.299 6.129 3.299 6.129zM35.849 33.771c-.194-.194-.513-.194-.707 0l-.707.707c-.194.194-.194.513 0 .707l10.021 10.021c.194.194.513.194.707 0l.707-.707c.194-.194.194-.513 0-.707l-10.021-10.021z"/></g><path fill="#fff" d="M83.538 82.124l10.393-7.055-7.055 10.393zM85.462 86.876l-10.393 7.055 7.055-10.393zM85 74c0 .55-.45 1-1 1s-1-.45-1-1v-2c0-.55.45-1 1-1s1 .45 1 1v2zM94 85c-.55 0-1-.45-1-1s.45-1 1-1h2c.55 0 1 .45 1 1s-.45 1-1 1h-2zM83 94c0-.55.45-1 1-1s1 .45 1 1v2c0 .55-.45 1-1 1s-1-.45-1-1v-2zM74 83c.55 0 1 .45 1 1s-.45 1-1 1h-2c-.55 0-1-.45-1-1s.45-1 1-1h2z"/></g></svg>