<svg xmlns="http://www.w3.org/2000/svg" viewBox="0 0 128 128" enable-background="new 0 0 128 128"><symbol viewBox="-42 -31 84 61"><path d="M42-29c0-1.105-.895-2-2-2h-80c-1.105 0-2 .895-2 2v56c0 1.105.895 2 2 2h80c1.105 0 2-.895 2-2v-56z" opacity=".12"/><path fill="#fff" d="M42-28c0-1.105-.895-2-2-2h-80c-1.105 0-2 .895-2 2v56c0 1.105.895 2 2 2h80c1.105 0 2-.895 2-2v-56z"/><linearGradient id="a" gradientUnits="userSpaceOnUse" y1="-29" x2="0" y2="22"><stop offset="0" stop-color="#53B4F5"/><stop offset="1" stop-color="#65BCF6"/></linearGradient><path fill="url(#a)" d="M41 22v-49.5c0-.55-.45-1.5-1-1.5h-80c-.55 0-1 .95-1 1.5v49.5"/><path fill="#FF6259" d="M-36 26.5c0-1.105-.895-2-2-2s-2 .895-2 2 .895 2 2 2 2-.895 2-2z"/><path fill="#fff" d="M-39 26.5l-.035.139c-.016.075-.028.241.033.396.05.162.163.342.337.485.094.06.189.134.308.163.123.046.21.051.382.064.103-.017.178-.011.319-.061.135-.032.226-.106.321-.166.175-.143.287-.324.337-.486.061-.158.046-.306.033-.395l-.035-.139-.062.127c-.026.079-.104.178-.185.275-.072.108-.209.179-.33.25l-.194.065-.256.033-.192-.029-.207-.069c-.121-.071-.258-.142-.33-.25-.168-.179-.238-.413-.244-.402z" opacity=".6"/><path fill="#FFC933" d="M-30 26.5c0-1.105-.895-2-2-2s-2 .895-2 2 .895 2 2 2 2-.895 2-2z"/><path fill="#2ECC71" d="M-24 26.5c0-1.105-.895-2-2-2s-2 .895-2 2 .895 2 2 2 2-.895 2-2z"/><path fill="#75C3F7" d="M-40 16h80v1h-80zM-40 8h80v1h-80zM-40 0h80v1h-80zM-40-8h80v1h-80zM-40-16h80v1h-80zM-40-24h80v1h-80zM19 21v-49h1v49zM27 21v-49h1v49zM35 21v-49h1v49zM11 21v-49h1v49zM3 21v-49h1v49zM-5 21v-49h1v49zM-13 21v-49h1v49zM-21 21v-49h1v49zM-29 21v-49h1v49zM-37 21v-49h1v49z"/><path opacity=".08" d="M41 21h-82v1h82z"/><path fill="#fff" d="M-33 26.5l-.035.139c-.016.075-.028.241.033.396.05.162.163.342.337.485.094.06.189.134.308.163.123.046.21.051.382.064.103-.017.178-.011.319-.061.135-.032.226-.106.321-.166.175-.143.287-.324.337-.486.061-.158.046-.306.033-.395l-.035-.139-.062.127c-.026.079-.104.178-.185.275-.072.108-.209.179-.33.25l-.194.065-.256.033-.192-.029-.207-.069c-.121-.071-.258-.142-.33-.25-.168-.179-.238-.413-.244-.402zM-27 26.5l-.035.139c-.016.075-.028.241.033.396.05.162.163.342.337.485.094.06.189.134.308.163.123.046.21.051.382.064.103-.017.178-.011.319-.061.135-.032.226-.106.321-.166.175-.143.287-.324.337-.486.061-.158.046-.306.033-.395l-.035-.139-.062.127c-.026.079-.104.178-.185.275-.072.108-.209.179-.33.25l-.194.065-.256.033-.192-.029-.207-.069c-.121-.071-.258-.142-.33-.25-.168-.179-.238-.413-.244-.402z" opacity=".6"/></symbol><g><path d="M108 94c0 1.1-.9 2-2 2h-84c-1.1 0-2-.9-2-2v-56c0-1.1.9-2 2-2h84c1.1 0 2 .9 2 2v56z" opacity=".1"/><path fill="#fff" d="M108 92c0 1.105-.895 2-2 2h-84c-1.105 0-2-.895-2-2v-56c0-1.105.895-2 2-2h84c1.105 0 2 .895 2 2v56z"/><path fill="#E5E7E9" d="M106 42v49c0 .552-.448 1-1 1h-82c-.552 0-1-.448-1-1v-49h84z"/><path fill="#D7DBDD" d="M22 47h84v1h-84zM22 55h84v1h-84zM22 63h84v1h-84zM22 71h84v1h-84zM22 79h84v1h-84zM22 87h84v1h-84zM83 42h1v50h-1zM91 42h1v50h-1zM99 42h1v50h-1zM75 42h1v50h-1zM67 42h1v50h-1zM59 42h1v50h-1zM51 42h1v50h-1zM43 42h1v50h-1zM35 42h1v50h-1zM27 42h1v50h-1zM22 42h84v1h-84z"/><g><path opacity=".1" d="M31 70h89v14h-89z"/><path fill="#fff" d="M31 68h89v14h-89z"/><path fill="#FFBE2A" d="M32 69h87v12h-87z"/><path opacity=".1" d="M55 69h1v8h-1zM63 69h1v8h-1zM59 69h1v4h-1zM61 69h1v4h-1zM57 69h1v4h-1zM71 69h1v8h-1zM67 69h1v4h-1zM69 69h1v4h-1zM65 69h1v4h-1zM79 69h1v8h-1zM75 69h1v4h-1zM77 69h1v4h-1zM73 69h1v4h-1zM87 69h1v8h-1zM83 69h1v4h-1zM85 69h1v4h-1zM81 69h1v4h-1zM95 69h1v8h-1zM91 69h1v4h-1zM93 69h1v4h-1zM89 69h1v4h-1zM103 69h1v8h-1zM99 69h1v4h-1zM101 69h1v4h-1zM97 69h1v4h-1zM111 69h1v8h-1zM107 69h1v4h-1zM109 69h1v4h-1zM105 69h1v4h-1zM115 69h1v4h-1zM117 69h1v4h-1zM113 69h1v4h-1zM51 69h1v4h-1zM53 69h1v4h-1zM49 69h1v4h-1zM39 69h1v8h-1zM35 69h1v4h-1zM37 69h1v4h-1zM33 69h1v4h-1zM47 69h1v8h-1zM43 69h1v4h-1zM45 69h1v4h-1zM41 69h1v4h-1z"/></g><g><path opacity=".1" d="M50.773 55.56c-.511.511-1.608 1.515-2.483 2.039l-7.97 4.873c-1.052.631-1.653.279-1.919.013s-.618-.867.009-1.912l4.786-8.062c.384-.641 1.218-1.907 1.92-2.608l33.29-33.29c1.56-1.56 4.097-1.56 5.657 0s1.56 4.097 0 5.657l-33.29 33.29z"/><path fill="#fff" d="M50.773 53.56c-.511.511-1.608 1.515-2.483 2.039l-7.97 4.873c-1.052.631-1.653.279-1.919.013s-.618-.867.009-1.912l4.786-8.062c.384-.641 1.218-1.907 1.92-2.608l33.29-33.29c1.56-1.56 4.097-1.56 5.657 0s1.56 4.097 0 5.657l-33.29 33.29z"/><path fill="#F0CCA7" d="M50.066 52.853c-.583.583-1.639 1.408-2.347 1.832l-8.034 4.82c-.707.424-.939.193-.514-.514l4.82-8.034c.424-.707 1.249-1.764 1.832-2.347l5.303-1.061-1.06 5.304z"/><path fill="#8E8E93" d="M41.808 54.596l-2.637 4.395c-.424.707-.193.939.514.514l4.395-2.637-2.272-2.272z"/><path fill="#4AA4EC" d="M75.527 27.392l-25.461 25.461v-2.122h-2.121v-2.121h-2.121l25.46-25.46z"/><path fill="#FF6259" d="M76.941 17.493l2.172-2.172c1.167-1.167 3.076-1.167 4.243 0 1.167 1.167 1.167 3.076 0 4.243l-2.172 2.172-4.243-4.243z"/><path fill="#E5E7E9" d="M71.284 23.15l5.657-5.657 4.243 4.243-5.657 5.657z"/><path fill="#CACFD2" d="M74.763 19.67l.707-.707 4.243 4.243-.707.707zM72.697 21.736l.707-.707 4.243 4.243-.707.707z"/><path fill="#6EB6F0" d="M46.535 49.312l25.456-25.456.707.707-25.456 25.456zM48.656 51.434l25.456-25.456.707.707-25.456 25.456z"/></g></g></svg>