<svg xmlns="http://www.w3.org/2000/svg" viewBox="0 0 128 128" enable-background="new 0 0 128 128"><symbol viewBox="-42 -31 84 61"><path d="M42-29c0-1.105-.895-2-2-2h-80c-1.105 0-2 .895-2 2v56c0 1.105.895 2 2 2h80c1.105 0 2-.895 2-2v-56z" opacity=".12"/><path fill="#fff" d="M42-28c0-1.105-.895-2-2-2h-80c-1.105 0-2 .895-2 2v56c0 1.105.895 2 2 2h80c1.105 0 2-.895 2-2v-56z"/><linearGradient id="a" gradientUnits="userSpaceOnUse" y1="-29" x2="0" y2="22"><stop offset="0" stop-color="#53B4F5"/><stop offset="1" stop-color="#65BCF6"/></linearGradient><path fill="url(#a)" d="M41 22v-49.5c0-.55-.45-1.5-1-1.5h-80c-.55 0-1 .95-1 1.5v49.5"/><path fill="#FF6259" d="M-36 26.5c0-1.105-.895-2-2-2s-2 .895-2 2 .895 2 2 2 2-.895 2-2z"/><path fill="#fff" d="M-39 26.5l-.035.139c-.016.075-.028.241.033.396.05.162.163.342.337.485.094.06.189.134.308.163.123.046.21.051.382.064.103-.017.178-.011.319-.061.135-.032.226-.106.321-.166.175-.143.287-.324.337-.486.061-.158.046-.306.033-.395l-.035-.139-.062.127c-.026.079-.104.178-.185.275-.072.108-.209.179-.33.25l-.194.065-.256.033-.192-.029-.207-.069c-.121-.071-.258-.142-.33-.25-.168-.179-.238-.413-.244-.402z" opacity=".6"/><path fill="#FFC933" d="M-30 26.5c0-1.105-.895-2-2-2s-2 .895-2 2 .895 2 2 2 2-.895 2-2z"/><path fill="#2ECC71" d="M-24 26.5c0-1.105-.895-2-2-2s-2 .895-2 2 .895 2 2 2 2-.895 2-2z"/><path fill="#75C3F7" d="M-40 16h80v1h-80zM-40 8h80v1h-80zM-40 0h80v1h-80zM-40-8h80v1h-80zM-40-16h80v1h-80zM-40-24h80v1h-80zM19 21v-49h1v49zM27 21v-49h1v49zM35 21v-49h1v49zM11 21v-49h1v49zM3 21v-49h1v49zM-5 21v-49h1v49zM-13 21v-49h1v49zM-21 21v-49h1v49zM-29 21v-49h1v49zM-37 21v-49h1v49z"/><path opacity=".08" d="M41 21h-82v1h82z"/><path fill="#fff" d="M-33 26.5l-.035.139c-.016.075-.028.241.033.396.05.162.163.342.337.485.094.06.189.134.308.163.123.046.21.051.382.064.103-.017.178-.011.319-.061.135-.032.226-.106.321-.166.175-.143.287-.324.337-.486.061-.158.046-.306.033-.395l-.035-.139-.062.127c-.026.079-.104.178-.185.275-.072.108-.209.179-.33.25l-.194.065-.256.033-.192-.029-.207-.069c-.121-.071-.258-.142-.33-.25-.168-.179-.238-.413-.244-.402zM-27 26.5l-.035.139c-.016.075-.028.241.033.396.05.162.163.342.337.485.094.06.189.134.308.163.123.046.21.051.382.064.103-.017.178-.011.319-.061.135-.032.226-.106.321-.166.175-.143.287-.324.337-.486.061-.158.046-.306.033-.395l-.035-.139-.062.127c-.026.079-.104.178-.185.275-.072.108-.209.179-.33.25l-.194.065-.256.033-.192-.029-.207-.069c-.121-.071-.258-.142-.33-.25-.168-.179-.238-.413-.244-.402z" opacity=".6"/></symbol><g><path d="M67 60c0 1.1.9 2 2 2h32c1.1 0 2-.9 2-2v-32c0-1.1-.9-2-2-2h-32c-1.1 0-2 .9-2 2v32zM61 28c0-1.1-.9-2-2-2h-32c-1.1 0-2 .9-2 2v32c0 1.1.9 2 2 2h32c1.1 0 2-.9 2-2v-32z" opacity=".12"/><path fill="#fff" d="M67 59c0 1.1.9 2 2 2h32c1.1 0 2-.9 2-2v-32c0-1.1-.9-2-2-2h-32c-1.1 0-2 .9-2 2v32z"/><path fill="#7CE0B2" d="M69 27h32v32h-32z"/><path d="M103 70c0-1.1-.9-2-2-2h-32c-1.1 0-2 .9-2 2v32c0 1.1.9 2 2 2h32c1.1 0 2-.9 2-2v-32z" opacity=".12"/><path fill="#fff" d="M103 69c0-1.1-.9-2-2-2h-32c-1.1 0-2 .9-2 2v32c0 1.1.9 2 2 2h32c1.1 0 2-.9 2-2v-32zM61 27c0-1.1-.9-2-2-2h-32c-1.1 0-2 .9-2 2v32c0 1.1.9 2 2 2h32c1.1 0 2-.9 2-2v-32z"/><path d="M61 70c0-1.1-.9-2-2-2h-32c-1.1 0-2 .9-2 2v32c0 1.1.9 2 2 2h32c1.1 0 2-.9 2-2v-32z" opacity=".12"/><path fill="#fff" d="M61 69c0-1.1-.9-2-2-2h-32c-1.1 0-2 .9-2 2v32c0 1.1.9 2 2 2h32c1.1 0 2-.9 2-2v-32z"/><path opacity=".8" fill="#FA6855" d="M27 27h32v6h-32z"/><path fill="#98D2F9" d="M27 69h32v32h-32z"/><path fill="#24CB7F" d="M102 42l-6.5-5-3.5 4-3.5-6-3.5 10-3.5-4-3.5 8-3.5-4-6.5 5 1 9h32z"/><path stroke="#000" stroke-width="2" stroke-miterlimit="10" fill="none" d="M102 43l-6.5-5-3.5 4-3.5-6-3.5 10-3.5-4-3.5 8-3.5-4-6.5 5" opacity=".08"/><path stroke="#fff" stroke-width="2" stroke-miterlimit="10" fill="none" d="M102 42l-6.5-5-3.5 4-3.5-6-3.5 10-3.5-4-3.5 8-3.5-4-6.5 5"/><path fill="#fff" d="M67 46h2v13h-2zM101 37h2v22h-2z"/><path opacity=".8" fill="#FFBE2A" d="M69 69h32v32h-32z"/><g opacity=".08"><ellipse cx="85" cy="84.773" rx="10" ry="8"/><path d="M82 92l-7 4 3-6"/></g><g fill="#fff"><ellipse cx="85" cy="83.773" rx="10" ry="8"/><path d="M82 91l-7 4 3-6"/></g><path fill="#E5E7E9" d="M28 36h6v6h-6zM36 36h6v6h-6zM44 36h6v6h-6zM52 36h6v6h-6zM28 44h6v6h-6zM36 44h6v6h-6zM44 44h6v6h-6zM52 44h6v6h-6zM28 52h6v6h-6zM36 52h6v6h-6zM44 52h6v6h-6zM52 52h6v6h-6z"/><path fill="#B7DBF7" d="M27 69h32v32h-32z"/><path fill="#64788B" d="M57.5 101c-.154-.499-.668-1.021-1.128-1.273l-8.046-4.32c-.46-.251-1.101-.833-1.101-1.356 0-.499-.225-.806-1.225-.837v-2.12c1-.296 2.251-1.23 2.475-3.064.59.148 1.477-.715 1.888-2.148.411-1.433.258-2.713-.332-2.861-.158-.04-.402-.117-.58-.001.502-1.002 1.048-3.375 1.005-4.508-.173-4.56-3.114-6.512-7.523-6.512-2.223 0-4.107.919-5.041 2.304-.092-.034-.161-.056-.257-.056-1.079 0-2.131 1.758-2.131 4.458-.043 1.134.555 3.312 1.057 4.314-.178-.116-.42-.039-.577.001-.59.148-.735 1.428-.324 2.861.411 1.432 1.278 2.295 1.868 2.148.224 1.834 1.472 2.768 2.472 3.064v2.12c-1 .031-1.223.358-1.223.857 0 .523-.656 1.125-1.117 1.376l-8.037 4.28c-.46.251-.97.774-1.124 1.273h29.001z"/><g opacity=".08"><path d="M50.032 83.022c-.095-.024-.222-.057-.347-.057-.077.211-.156.401-.233.556.178-.116.422-.039.58.001.322.081.509.506.549 1.103.05-.857-.142-1.502-.549-1.603zM37.635 74.749c.096 0 .164.022.257.056.935-1.385 2.819-2.304 5.041-2.304 4.379 0 7.306 1.929 7.516 6.422l.007-.41c-.173-4.561-3.114-6.513-7.523-6.513-2.223 0-4.107.919-5.041 2.304-.092-.034-.161-.056-.257-.056-1.079 0-2.131 1.758-2.131 4.458l.006.24c.066-2.55 1.081-4.197 2.125-4.197zM47.225 94.051c0-.499-.225-.806-1.225-.837v.5c1 .031 1.225.338 1.225.837 0 .523.64 1.105 1.101 1.357l8.046 4.32c.305.167.632.453.864.773h.264c-.154-.499-.668-1.021-1.128-1.273l-8.046-4.32c-.46-.252-1.101-.834-1.101-1.357zM29.624 100.227l8.037-4.28c.46-.251 1.116-.853 1.116-1.376 0-.499.223-.826 1.223-.857v-.5c-1 .031-1.223.358-1.223.857 0 .523-.656 1.125-1.116 1.376l-8.037 4.28c-.46.251-.97.774-1.124 1.273h.263c.231-.319.556-.606.861-.773zM35.983 83.522c.158-.04.4-.117.577-.001-.079-.157-.159-.35-.24-.556-.122.002-.244.034-.337.057-.404.101-.594.74-.544 1.589.041-.59.225-1.009.544-1.089z"/></g></g></svg>