<svg xmlns="http://www.w3.org/2000/svg" viewBox="0 0 128 128" enable-background="new 0 0 128 128"><symbol viewBox="-42 -31 84 61"><path d="M42-29c0-1.105-.895-2-2-2h-80c-1.105 0-2 .895-2 2v56c0 1.105.895 2 2 2h80c1.105 0 2-.895 2-2v-56z" opacity=".12"/><path fill="#fff" d="M42-28c0-1.105-.895-2-2-2h-80c-1.105 0-2 .895-2 2v56c0 1.105.895 2 2 2h80c1.105 0 2-.895 2-2v-56z"/><linearGradient id="a" gradientUnits="userSpaceOnUse" y1="-29" x2="0" y2="22"><stop offset="0" stop-color="#53B4F5"/><stop offset="1" stop-color="#65BCF6"/></linearGradient><path fill="url(#a)" d="M41 22v-49.5c0-.55-.45-1.5-1-1.5h-80c-.55 0-1 .95-1 1.5v49.5"/><path fill="#FF6259" d="M-36 26.5c0-1.105-.895-2-2-2s-2 .895-2 2 .895 2 2 2 2-.895 2-2z"/><path fill="#fff" d="M-39 26.5l-.035.139c-.016.075-.028.241.033.396.05.162.163.342.337.485.094.06.189.134.308.163.123.046.21.051.382.064.103-.017.178-.011.319-.061.135-.032.226-.106.321-.166.175-.143.287-.324.337-.486.061-.158.046-.306.033-.395l-.035-.139-.062.127c-.026.079-.104.178-.185.275-.072.108-.209.179-.33.25l-.194.065-.256.033-.192-.029-.207-.069c-.121-.071-.258-.142-.33-.25-.168-.179-.238-.413-.244-.402z" opacity=".6"/><path fill="#FFC933" d="M-30 26.5c0-1.105-.895-2-2-2s-2 .895-2 2 .895 2 2 2 2-.895 2-2z"/><path fill="#2ECC71" d="M-24 26.5c0-1.105-.895-2-2-2s-2 .895-2 2 .895 2 2 2 2-.895 2-2z"/><path fill="#75C3F7" d="M-40 16h80v1h-80zM-40 8h80v1h-80zM-40 0h80v1h-80zM-40-8h80v1h-80zM-40-16h80v1h-80zM-40-24h80v1h-80zM19 21v-49h1v49zM27 21v-49h1v49zM35 21v-49h1v49zM11 21v-49h1v49zM3 21v-49h1v49zM-5 21v-49h1v49zM-13 21v-49h1v49zM-21 21v-49h1v49zM-29 21v-49h1v49zM-37 21v-49h1v49z"/><path opacity=".08" d="M41 21h-82v1h82z"/><path fill="#fff" d="M-33 26.5l-.035.139c-.016.075-.028.241.033.396.05.162.163.342.337.485.094.06.189.134.308.163.123.046.21.051.382.064.103-.017.178-.011.319-.061.135-.032.226-.106.321-.166.175-.143.287-.324.337-.486.061-.158.046-.306.033-.395l-.035-.139-.062.127c-.026.079-.104.178-.185.275-.072.108-.209.179-.33.25l-.194.065-.256.033-.192-.029-.207-.069c-.121-.071-.258-.142-.33-.25-.168-.179-.238-.413-.244-.402zM-27 26.5l-.035.139c-.016.075-.028.241.033.396.05.162.163.342.337.485.094.06.189.134.308.163.123.046.21.051.382.064.103-.017.178-.011.319-.061.135-.032.226-.106.321-.166.175-.143.287-.324.337-.486.061-.158.046-.306.033-.395l-.035-.139-.062.127c-.026.079-.104.178-.185.275-.072.108-.209.179-.33.25l-.194.065-.256.033-.192-.029-.207-.069c-.121-.071-.258-.142-.33-.25-.168-.179-.238-.413-.244-.402z" opacity=".6"/></symbol><g><path opacity=".08" d="M75.475 95l-2.902-11h-17.142l-2.901 11h-4.53v2h32v-2z"/><path fill="#fff" d="M75.475 93l-2.902-11h-17.142l-2.901 11h-4.53v2h32v-2z"/><path opacity=".08" d="M106 83c0 1.1-.9 2-2 2h-80c-1.1 0-2-.9-2-2v-46c0-1.1.9-2 2-2h80c1.1 0 2 .9 2 2v46z"/><path fill="#fff" d="M106 81c0 1.1-.9 2-2 2h-80c-1.1 0-2-.9-2-2v-46c0-1.1.9-2 2-2h80c1.1 0 2 .9 2 2v46z"/><path fill="#64788B" d="M24 35h80v46h-80z"/><path opacity=".08" d="M90 73c0 1.1-.9 2-2 2h-48c-1.1 0-2-.9-2-2v-28c0-1.1.9-2 2-2h48c1.1 0 2 .9 2 2v28z"/><path fill="#fff" d="M90 72c0 1.1-.9 2-2 2h-48c-1.1 0-2-.9-2-2v-28c0-1.1.9-2 2-2h48c1.1 0 2 .9 2 2v28z"/><path fill="#6EB6F0" d="M40 44h48v4h-48z"/><path opacity=".8" fill="#FA6855" d="M70 61h4v7h-4z"/><path opacity=".8" fill="#24CB7F" d="M76 59h4v9h-4z"/><path fill="#6EB6F0" d="M64 54h4v14h-4z"/><path opacity=".8" fill="#FFCD00" d="M82 56h4v12h-4z"/><path fill="#D7DBDD" d="M52 52.059v9.355l-6.614 6.614c1.54 1.231 3.489 1.972 5.614 1.972 4.971 0 9-4.03 9-9 0-4.632-3.501-8.443-8-8.941z"/><path opacity=".8" fill="#FA6855" d="M50 60.586v-8.527c-4.499.498-8 4.309-8 8.941 0 2.125.741 4.074 1.972 5.614l6.028-6.028z"/></g></svg>