<svg xmlns="http://www.w3.org/2000/svg" viewBox="0 0 64 64" enable-background="new 0 0 64 64"><g><path fill="#F2F3F4" d="M0 0h64v64h-64z"/><path fill="#D7DBDD" d="M36 30c0 1.1-.9 2-2 2h-25c-1.1 0-2-.9-2-2v-21c0-1.1.9-2 2-2h25c1.1 0 2 .9 2 2v21z"/><path fill="#fff" d="M35 30c0 .55-.45 1-1 1h-25c-.55 0-1-.45-1-1v-21c0-.55.45-1 1-1h25c.55 0 1 .45 1 1v21z"/><path fill="#D7DBDD" d="M57 55c0 1.1-.9 2-2 2h-13c-1.1 0-2-.9-2-2v-46c0-1.1.9-2 2-2h13c1.1 0 2 .9 2 2v46z"/><path fill="#fff" d="M56 55c0 .55-.45 1-1 1h-13c-.55 0-1-.45-1-1v-46c0-.55.45-1 1-1h13c.55 0 1 .45 1 1v46z"/><path fill="#D7DBDD" d="M45 15h7v1h-7zM40 11h17v1h-17zM45 19h7v1h-7zM45 23h7v1h-7zM45 27h7v1h-7zM45 31h7v1h-7zM45 35h7v1h-7zM45 39h7v1h-7zM45 43h7v1h-7zM45 47h7v1h-7zM45 51h7v1h-7zM36 56c0 .55-.45 1-1 1h-27c-.55 0-1-.45-1-1v-19c0-.55.45-1 1-1h27c.55 0 1 .45 1 1v19z"/><path fill="#fff" d="M8 37h27v19h-27z"/><path fill="#D7DBDD" d="M7 40h29v1h-29zM7 44h29v1h-29zM7 48h29v1h-29zM7 52h29v1h-29zM21 40h1v17h-1zM17 15l-8 7.889v7.111h22z"/><circle fill="#D7DBDD" cx="27.933" cy="15" r="3.067"/></g></svg>