<?xml version="1.0" encoding="utf-8"?>
<!-- Generator: Adobe Illustrator 17.1.0, SVG Export Plug-In . SVG Version: 6.00 Build 0)  -->
<!DOCTYPE svg PUBLIC "-//W3C//DTD SVG 1.1//EN" "http://www.w3.org/Graphics/SVG/1.1/DTD/svg11.dtd">
<svg version="1.1" xmlns="http://www.w3.org/2000/svg" xmlns:xlink="http://www.w3.org/1999/xlink" x="0px" y="0px"
	 viewBox="0 0 96 96" enable-background="new 0 0 96 96" xml:space="preserve">
<symbol  id="window-graphpaper_1_" viewBox="-42 -31 84 61">
	<g opacity="0.12">
		<path d="M42-29c0-1.105-0.895-2-2-2h-80c-1.105,0-2,0.895-2,2v56c0,1.105,0.895,2,2,2h80c1.105,0,2-0.895,2-2V-29z"/>
	</g>
	<g>
		<path fill="#FFFFFF" d="M42-28c0-1.105-0.895-2-2-2h-80c-1.105,0-2,0.895-2,2v56c0,1.105,0.895,2,2,2h80c1.105,0,2-0.895,2-2V-28z
			"/>
	</g>
	<g>
		<linearGradient id="SVGID_1_" gradientUnits="userSpaceOnUse" x1="-1.178705e-09" y1="-29" x2="1.111021e-09" y2="22">
			<stop  offset="0" style="stop-color:#53B4F5"/>
			<stop  offset="1" style="stop-color:#65BCF6"/>
		</linearGradient>
		<path fill="url(#SVGID_1_)" d="M41,22v-49.5c0-0.55-0.45-1.5-1-1.5h-80c-0.55,0-1,0.95-1,1.5V22"/>
	</g>
	<path fill="#FF6259" d="M-36,26.5c0-1.105-0.895-2-2-2s-2,0.895-2,2s0.895,2,2,2S-36,27.605-36,26.5z"/>
	<g opacity="0.6">
		<path fill="#FFFFFF" d="M-39,26.5c0,0-0.017,0.051-0.035,0.139c-0.016,0.075-0.028,0.241,0.033,0.396
			c0.05,0.162,0.163,0.342,0.337,0.485c0.094,0.06,0.189,0.134,0.308,0.163c0.123,0.046,0.21,0.051,0.382,0.064
			c0.103-0.017,0.178-0.011,0.319-0.061c0.135-0.032,0.226-0.106,0.321-0.166c0.175-0.143,0.287-0.324,0.337-0.486
			c0.061-0.158,0.046-0.306,0.033-0.395C-36.982,26.548-37,26.5-37,26.5s-0.027,0.05-0.062,0.127
			c-0.026,0.079-0.104,0.178-0.185,0.275c-0.072,0.108-0.209,0.179-0.33,0.25c-0.067,0.028-0.138,0.055-0.194,0.065
			c-0.04,0.025-0.165,0.024-0.256,0.033c-0.022-0.013-0.135-0.001-0.192-0.029c-0.073-0.014-0.139-0.042-0.207-0.069
			c-0.121-0.071-0.258-0.142-0.33-0.25C-38.924,26.723-38.994,26.489-39,26.5z"/>
	</g>
	<path fill="#FFC933" d="M-30,26.5c0-1.105-0.895-2-2-2c-1.105,0-2,0.895-2,2s0.895,2,2,2C-30.895,28.5-30,27.605-30,26.5z"/>
	<path fill="#2ECC71" d="M-24,26.5c0-1.105-0.895-2-2-2s-2,0.895-2,2s0.895,2,2,2S-24,27.605-24,26.5z"/>
	<polygon fill="#75C3F7" points="-40,16 40,16 40,17 -40,17 	"/>
	<polygon fill="#75C3F7" points="-40,8 40,8 40,9 -40,9 	"/>
	<polygon fill="#75C3F7" points="-40,0 40,0 40,1 -40,1 	"/>
	<polygon fill="#75C3F7" points="-40,-8 40,-8 40,-7 -40,-7 	"/>
	<polygon fill="#75C3F7" points="-40,-16 40,-16 40,-15 -40,-15 	"/>
	<polygon fill="#75C3F7" points="-40,-24 40,-24 40,-23 -40,-23 	"/>
	<polygon fill="#75C3F7" points="19,21 19,-28 20,-28 20,21 	"/>
	<polygon fill="#75C3F7" points="27,21 27,-28 28,-28 28,21 	"/>
	<polygon fill="#75C3F7" points="35,21 35,-28 36,-28 36,21 	"/>
	<polygon fill="#75C3F7" points="11,21 11,-28 12,-28 12,21 	"/>
	<polygon fill="#75C3F7" points="3,21 3,-28 4,-28 4,21 	"/>
	<polygon fill="#75C3F7" points="-5,21 -5,-28 -4,-28 -4,21 	"/>
	<polygon fill="#75C3F7" points="-13,21 -13,-28 -12,-28 -12,21 	"/>
	<polygon fill="#75C3F7" points="-21,21 -21,-28 -20,-28 -20,21 	"/>
	<polygon fill="#75C3F7" points="-29,21 -29,-28 -28,-28 -28,21 	"/>
	<polygon fill="#75C3F7" points="-37,21 -37,-28 -36,-28 -36,21 	"/>
	<polygon opacity="0.08" points="41,21 -41,21 -41,22 41,22 	"/>
	<g opacity="0.6">
		<path fill="#FFFFFF" d="M-33,26.5c0,0-0.017,0.051-0.035,0.139c-0.016,0.075-0.028,0.241,0.033,0.396
			c0.05,0.162,0.163,0.342,0.337,0.485c0.094,0.06,0.189,0.134,0.308,0.163c0.123,0.046,0.21,0.051,0.382,0.064
			c0.103-0.017,0.178-0.011,0.319-0.061c0.135-0.032,0.226-0.106,0.321-0.166c0.175-0.143,0.287-0.324,0.337-0.486
			c0.061-0.158,0.046-0.306,0.033-0.395C-30.982,26.548-31,26.5-31,26.5s-0.027,0.05-0.062,0.127
			c-0.026,0.079-0.104,0.178-0.185,0.275c-0.072,0.108-0.209,0.179-0.33,0.25c-0.067,0.028-0.138,0.055-0.194,0.065
			c-0.04,0.025-0.165,0.024-0.256,0.033c-0.022-0.013-0.135-0.001-0.192-0.029c-0.073-0.014-0.139-0.042-0.207-0.069
			c-0.121-0.071-0.258-0.142-0.33-0.25C-32.924,26.723-32.994,26.489-33,26.5z"/>
	</g>
	<g opacity="0.6">
		<path fill="#FFFFFF" d="M-27,26.5c0,0-0.017,0.051-0.035,0.139c-0.016,0.075-0.028,0.241,0.033,0.396
			c0.05,0.162,0.163,0.342,0.337,0.485c0.094,0.06,0.189,0.134,0.308,0.163c0.123,0.046,0.21,0.051,0.382,0.064
			c0.103-0.017,0.178-0.011,0.319-0.061c0.135-0.032,0.226-0.106,0.321-0.166c0.175-0.143,0.287-0.324,0.337-0.486
			c0.061-0.158,0.046-0.306,0.033-0.395C-24.982,26.548-25,26.5-25,26.5s-0.027,0.05-0.062,0.127
			c-0.026,0.079-0.104,0.178-0.185,0.275c-0.072,0.108-0.209,0.179-0.33,0.25c-0.067,0.028-0.138,0.055-0.194,0.065
			c-0.04,0.025-0.165,0.024-0.256,0.033c-0.022-0.013-0.135-0.001-0.192-0.029c-0.073-0.014-0.139-0.042-0.207-0.069
			c-0.121-0.071-0.258-0.142-0.33-0.25C-26.924,26.723-26.994,26.489-27,26.5z"/>
	</g>
	<polygon display="none" fill="none" points="-42,30 42,30 42,-31 -42,-31 	"/>
</symbol>
<g id="Icons-backup">
	<g id="db-white_copy_1_">
	</g>
	<g id="db-white_copy">
	</g>
	<g id="plus_copy">
		<g id="gear-manage_2_copy">
		</g>
	</g>
</g>
<g id="Icons">
	<g id="db-white_1_">
	</g>
	<g id="db-white">
	</g>
	<g id="plus">
		<g id="gear-manage_2">
		</g>
	</g>
	<g id="window-app">
		<g id="window_-_app">
		</g>
	</g>
	<g id="circle36-green-run_2_">
	</g>
	<g id="circle36-green-run">
	</g>
	<g id="circle36-green-run_1_">
		<g id="circle36-blue_2">
		</g>
	</g>
	<g id="circle36-green">
	</g>
	<g id="circle36-blue">
	</g>
	<g id="Gear-Large">
	</g>
</g>
<g id="Layer_19">
	<path opacity="0.1" d="M66,51H38V33.345c0-5.574,4.486-10.108,10-10.108s10,4.438,10,9.892V44c0,0.552,0.448,1,1,1h4
		c0.552,0,1-0.448,1-1V33.128c0-8.763-7.178-15.892-16-15.892s-16,7.227-16,16.108V51h-2c-1.1,0-2,0.9-2,2v24c0,1.1,0.9,2,2,2h36
		c1.1,0,2-0.9,2-2V53C68,51.9,67.1,51,66,51z"/>
	<path fill="#FFFFFF" d="M48,15.236c-8.822,0-16,7.227-16,16.108V55h6V31.345c0-5.574,4.486-10.108,10-10.108s10,4.438,10,9.892V42
		c0,0.552,0.448,1,1,1h4c0.552,0,1-0.448,1-1V31.128C64,22.365,56.822,15.236,48,15.236z"/>
	<g>
		<path fill="#FFFFFF" d="M28,75c0,1.1,0.9,2,2,2h36c1.1,0,2-0.9,2-2V51c0-1.1-0.9-2-2-2H30c-1.1,0-2,0.9-2,2V75z"/>
	</g>
	<g id="window-graphpaper">
	</g>
	<g id="circle36-blue_1_">
	</g>
	<g id="circle36-gray">
	</g>
	<g id="dingbat-lock">
	</g>
	<g id="dingbat-compass">
	</g>
	<g id="dingbat-gear">
	</g>
	<g id="dingbat-palette">
	</g>
	<g id="Ruler">
	</g>
	<g id="Pencil-6">
	</g>
	<g id="dingbat-palette_1_">
	</g>
	<g id="key-blue">
	</g>
	<g id="database-blue">
	</g>
	<rect x="32" y="47" opacity="0.1" width="6" height="2"/>
	<rect x="28" y="53" opacity="0.1" width="40" height="4"/>
	<rect x="28" y="61" opacity="0.1" width="40" height="4"/>
	<rect x="28" y="69" opacity="0.1" width="40" height="4"/>
</g>
</svg>
