<?xml version="1.0" encoding="utf-8"?>
<!-- Generator: Adobe Illustrator 17.1.0, SVG Export Plug-In . SVG Version: 6.00 Build 0)  -->
<!DOCTYPE svg PUBLIC "-//W3C//DTD SVG 1.1//EN" "http://www.w3.org/Graphics/SVG/1.1/DTD/svg11.dtd">
<svg version="1.1" xmlns="http://www.w3.org/2000/svg" xmlns:xlink="http://www.w3.org/1999/xlink" x="0px" y="0px"
	 viewBox="0 0 96 96" enable-background="new 0 0 96 96" xml:space="preserve">
<symbol  id="window-graphpaper_1_" viewBox="-42 -31 84 61">
	<g opacity="0.12">
		<path d="M42-29c0-1.105-0.895-2-2-2h-80c-1.105,0-2,0.895-2,2v56c0,1.105,0.895,2,2,2h80c1.105,0,2-0.895,2-2V-29z"/>
	</g>
	<g>
		<path fill="#FFFFFF" d="M42-28c0-1.105-0.895-2-2-2h-80c-1.105,0-2,0.895-2,2v56c0,1.105,0.895,2,2,2h80c1.105,0,2-0.895,2-2V-28z
			"/>
	</g>
	<g>
		<linearGradient id="SVGID_1_" gradientUnits="userSpaceOnUse" x1="-1.178705e-09" y1="-29" x2="1.111021e-09" y2="22">
			<stop  offset="0" style="stop-color:#53B4F5"/>
			<stop  offset="1" style="stop-color:#65BCF6"/>
		</linearGradient>
		<path fill="url(#SVGID_1_)" d="M41,22v-49.5c0-0.55-0.45-1.5-1-1.5h-80c-0.55,0-1,0.95-1,1.5V22"/>
	</g>
	<path fill="#FF6259" d="M-36,26.5c0-1.105-0.895-2-2-2s-2,0.895-2,2s0.895,2,2,2S-36,27.605-36,26.5z"/>
	<g opacity="0.6">
		<path fill="#FFFFFF" d="M-39,26.5c0,0-0.017,0.051-0.035,0.139c-0.016,0.075-0.028,0.241,0.033,0.396
			c0.05,0.162,0.163,0.342,0.337,0.485c0.094,0.06,0.189,0.134,0.308,0.163c0.123,0.046,0.21,0.051,0.382,0.064
			c0.103-0.017,0.178-0.011,0.319-0.061c0.135-0.032,0.226-0.106,0.321-0.166c0.175-0.143,0.287-0.324,0.337-0.486
			c0.061-0.158,0.046-0.306,0.033-0.395C-36.982,26.548-37,26.5-37,26.5s-0.027,0.05-0.062,0.127
			c-0.026,0.079-0.104,0.178-0.185,0.275c-0.072,0.108-0.209,0.179-0.33,0.25c-0.067,0.028-0.138,0.055-0.194,0.065
			c-0.04,0.025-0.165,0.024-0.256,0.033c-0.022-0.013-0.135-0.001-0.192-0.029c-0.073-0.014-0.139-0.042-0.207-0.069
			c-0.121-0.071-0.258-0.142-0.33-0.25C-38.924,26.723-38.994,26.489-39,26.5z"/>
	</g>
	<path fill="#FFC933" d="M-30,26.5c0-1.105-0.895-2-2-2c-1.105,0-2,0.895-2,2s0.895,2,2,2C-30.895,28.5-30,27.605-30,26.5z"/>
	<path fill="#2ECC71" d="M-24,26.5c0-1.105-0.895-2-2-2s-2,0.895-2,2s0.895,2,2,2S-24,27.605-24,26.5z"/>
	<polygon fill="#75C3F7" points="-40,16 40,16 40,17 -40,17 	"/>
	<polygon fill="#75C3F7" points="-40,8 40,8 40,9 -40,9 	"/>
	<polygon fill="#75C3F7" points="-40,0 40,0 40,1 -40,1 	"/>
	<polygon fill="#75C3F7" points="-40,-8 40,-8 40,-7 -40,-7 	"/>
	<polygon fill="#75C3F7" points="-40,-16 40,-16 40,-15 -40,-15 	"/>
	<polygon fill="#75C3F7" points="-40,-24 40,-24 40,-23 -40,-23 	"/>
	<polygon fill="#75C3F7" points="19,21 19,-28 20,-28 20,21 	"/>
	<polygon fill="#75C3F7" points="27,21 27,-28 28,-28 28,21 	"/>
	<polygon fill="#75C3F7" points="35,21 35,-28 36,-28 36,21 	"/>
	<polygon fill="#75C3F7" points="11,21 11,-28 12,-28 12,21 	"/>
	<polygon fill="#75C3F7" points="3,21 3,-28 4,-28 4,21 	"/>
	<polygon fill="#75C3F7" points="-5,21 -5,-28 -4,-28 -4,21 	"/>
	<polygon fill="#75C3F7" points="-13,21 -13,-28 -12,-28 -12,21 	"/>
	<polygon fill="#75C3F7" points="-21,21 -21,-28 -20,-28 -20,21 	"/>
	<polygon fill="#75C3F7" points="-29,21 -29,-28 -28,-28 -28,21 	"/>
	<polygon fill="#75C3F7" points="-37,21 -37,-28 -36,-28 -36,21 	"/>
	<polygon opacity="0.08" points="41,21 -41,21 -41,22 41,22 	"/>
	<g opacity="0.6">
		<path fill="#FFFFFF" d="M-33,26.5c0,0-0.017,0.051-0.035,0.139c-0.016,0.075-0.028,0.241,0.033,0.396
			c0.05,0.162,0.163,0.342,0.337,0.485c0.094,0.06,0.189,0.134,0.308,0.163c0.123,0.046,0.21,0.051,0.382,0.064
			c0.103-0.017,0.178-0.011,0.319-0.061c0.135-0.032,0.226-0.106,0.321-0.166c0.175-0.143,0.287-0.324,0.337-0.486
			c0.061-0.158,0.046-0.306,0.033-0.395C-30.982,26.548-31,26.5-31,26.5s-0.027,0.05-0.062,0.127
			c-0.026,0.079-0.104,0.178-0.185,0.275c-0.072,0.108-0.209,0.179-0.33,0.25c-0.067,0.028-0.138,0.055-0.194,0.065
			c-0.04,0.025-0.165,0.024-0.256,0.033c-0.022-0.013-0.135-0.001-0.192-0.029c-0.073-0.014-0.139-0.042-0.207-0.069
			c-0.121-0.071-0.258-0.142-0.33-0.25C-32.924,26.723-32.994,26.489-33,26.5z"/>
	</g>
	<g opacity="0.6">
		<path fill="#FFFFFF" d="M-27,26.5c0,0-0.017,0.051-0.035,0.139c-0.016,0.075-0.028,0.241,0.033,0.396
			c0.05,0.162,0.163,0.342,0.337,0.485c0.094,0.06,0.189,0.134,0.308,0.163c0.123,0.046,0.21,0.051,0.382,0.064
			c0.103-0.017,0.178-0.011,0.319-0.061c0.135-0.032,0.226-0.106,0.321-0.166c0.175-0.143,0.287-0.324,0.337-0.486
			c0.061-0.158,0.046-0.306,0.033-0.395C-24.982,26.548-25,26.5-25,26.5s-0.027,0.05-0.062,0.127
			c-0.026,0.079-0.104,0.178-0.185,0.275c-0.072,0.108-0.209,0.179-0.33,0.25c-0.067,0.028-0.138,0.055-0.194,0.065
			c-0.04,0.025-0.165,0.024-0.256,0.033c-0.022-0.013-0.135-0.001-0.192-0.029c-0.073-0.014-0.139-0.042-0.207-0.069
			c-0.121-0.071-0.258-0.142-0.33-0.25C-26.924,26.723-26.994,26.489-27,26.5z"/>
	</g>
	<polygon display="none" fill="none" points="-42,30 42,30 42,-31 -42,-31 	"/>
</symbol>
<g id="Icons-backup">
	<g id="db-white_copy_1_">
	</g>
	<g id="db-white_copy">
	</g>
	<g id="plus_copy">
		<g id="gear-manage_2_copy">
		</g>
	</g>
</g>
<g id="Icons">
	<g id="db-white_1_">
	</g>
	<g id="db-white">
	</g>
	<g id="plus">
		<g id="gear-manage_2">
		</g>
	</g>
	<g id="window-app">
		<g id="window_-_app">
		</g>
	</g>
	<g id="circle36-green-run_2_">
	</g>
	<g id="circle36-green-run">
	</g>
	<g id="circle36-green-run_1_">
		<g id="circle36-blue_2">
		</g>
	</g>
	<g id="circle36-green">
	</g>
	<g id="circle36-blue">
	</g>
	<g id="Gear-Large">
	</g>
</g>
<g id="Layer_19">
	<g id="window-graphpaper">
	</g>
	<g id="circle36-blue_1_">
	</g>
	<g id="circle36-gray">
	</g>
	<g id="dingbat-lock">
	</g>
	<g id="dingbat-compass">
	</g>
	<g id="dingbat-gear">
	</g>
	<g id="dingbat-palette">
	</g>
	<g id="Ruler">
	</g>
	<g id="Pencil-6">
	</g>
	<g id="dingbat-palette_1_">
	</g>
	<g id="key-blue">
	</g>
	<g id="database-blue">
	</g>
	<path opacity="0.1" d="M73,29c0-1.657-1.343-3-3-3H56v-2.5c0-1.93-1.57-3.5-3.5-3.5h-9c-1.93,0-3.5,1.57-3.5,3.5V26H26
		c-1.657,0-3,1.343-3,3v4h4.655l7.59,46.323C35.404,80.29,36.239,81,37.219,81h21.562c0.98,0,1.815-0.71,1.974-1.677L68.345,33H73
		V29z M43,23.5c0-0.271,0.229-0.5,0.5-0.5h9c0.271,0,0.5,0.229,0.5,0.5V26H43V23.5z"/>
	<g>
		<path fill="#FFFFFF" d="M69,27H27l8.245,50.323C35.404,78.29,36.239,79,37.219,79h21.562c0.98,0,1.815-0.71,1.974-1.677L69,27z"/>
		<polygon opacity="0.1" points="68.017,33 68.836,28 27.164,28 27.983,33 		"/>
		<path opacity="0.1" d="M52.94,69.311c-0.032,0-0.063-0.001-0.096-0.003c-0.827-0.052-1.455-0.765-1.403-1.591l1.759-28
			c0.052-0.827,0.762-1.456,1.591-1.403c0.827,0.052,1.455,0.765,1.403,1.591l-1.759,28C54.386,68.699,53.726,69.311,52.94,69.311z"
			/>
		<path opacity="0.1" d="M43.06,69.311c-0.786,0-1.446-0.611-1.496-1.406l-1.759-28c-0.052-0.826,0.576-1.539,1.403-1.591
			c0.832-0.054,1.54,0.576,1.591,1.403l1.759,28c0.052,0.826-0.576,1.539-1.403,1.591C43.124,69.31,43.092,69.311,43.06,69.311z"/>
		<path fill="#FFFFFF" d="M23,31v-4c0-1.657,1.343-3,3-3h44c1.657,0,3,1.343,3,3v4H23z"/>
		<path fill="#FFFFFF" d="M56,27h-3v-5.5c0-0.271-0.229-0.5-0.5-0.5h-9c-0.271,0-0.5,0.229-0.5,0.5V27h-3v-5.5
			c0-1.93,1.57-3.5,3.5-3.5h9c1.93,0,3.5,1.57,3.5,3.5V27z"/>
	</g>
</g>
</svg>
