<?xml version="1.0" encoding="utf-8"?>
<!-- Generator: Adobe Illustrator 17.1.0, SVG Export Plug-In . SVG Version: 6.00 Build 0)  -->
<!DOCTYPE svg PUBLIC "-//W3C//DTD SVG 1.1//EN" "http://www.w3.org/Graphics/SVG/1.1/DTD/svg11.dtd">
<svg version="1.1" xmlns="http://www.w3.org/2000/svg" xmlns:xlink="http://www.w3.org/1999/xlink" x="0px" y="0px"
	 viewBox="0 0 96 96" enable-background="new 0 0 96 96" xml:space="preserve">
<symbol  id="window-graphpaper_1_" viewBox="-42 -31 84 61">
	<g opacity="0.12">
		<path d="M42-29c0-1.105-0.895-2-2-2h-80c-1.105,0-2,0.895-2,2v56c0,1.105,0.895,2,2,2h80c1.105,0,2-0.895,2-2V-29z"/>
	</g>
	<g>
		<path fill="#FFFFFF" d="M42-28c0-1.105-0.895-2-2-2h-80c-1.105,0-2,0.895-2,2v56c0,1.105,0.895,2,2,2h80c1.105,0,2-0.895,2-2V-28z
			"/>
	</g>
	<g>
		<linearGradient id="SVGID_1_" gradientUnits="userSpaceOnUse" x1="-1.178705e-09" y1="-29" x2="1.111021e-09" y2="22">
			<stop  offset="0" style="stop-color:#53B4F5"/>
			<stop  offset="1" style="stop-color:#65BCF6"/>
		</linearGradient>
		<path fill="url(#SVGID_1_)" d="M41,22v-49.5c0-0.55-0.45-1.5-1-1.5h-80c-0.55,0-1,0.95-1,1.5V22"/>
	</g>
	<path fill="#FF6259" d="M-36,26.5c0-1.105-0.895-2-2-2s-2,0.895-2,2s0.895,2,2,2S-36,27.605-36,26.5z"/>
	<g opacity="0.6">
		<path fill="#FFFFFF" d="M-39,26.5c0,0-0.017,0.051-0.035,0.139c-0.016,0.075-0.028,0.241,0.033,0.396
			c0.05,0.162,0.163,0.342,0.337,0.485c0.094,0.06,0.189,0.134,0.308,0.163c0.123,0.046,0.21,0.051,0.382,0.064
			c0.103-0.017,0.178-0.011,0.319-0.061c0.135-0.032,0.226-0.106,0.321-0.166c0.175-0.143,0.287-0.324,0.337-0.486
			c0.061-0.158,0.046-0.306,0.033-0.395C-36.982,26.548-37,26.5-37,26.5s-0.027,0.05-0.062,0.127
			c-0.026,0.079-0.104,0.178-0.185,0.275c-0.072,0.108-0.209,0.179-0.33,0.25c-0.067,0.028-0.138,0.055-0.194,0.065
			c-0.04,0.025-0.165,0.024-0.256,0.033c-0.022-0.013-0.135-0.001-0.192-0.029c-0.073-0.014-0.139-0.042-0.207-0.069
			c-0.121-0.071-0.258-0.142-0.33-0.25C-38.924,26.723-38.994,26.489-39,26.5z"/>
	</g>
	<path fill="#FFC933" d="M-30,26.5c0-1.105-0.895-2-2-2c-1.105,0-2,0.895-2,2s0.895,2,2,2C-30.895,28.5-30,27.605-30,26.5z"/>
	<path fill="#2ECC71" d="M-24,26.5c0-1.105-0.895-2-2-2s-2,0.895-2,2s0.895,2,2,2S-24,27.605-24,26.5z"/>
	<polygon fill="#75C3F7" points="-40,16 40,16 40,17 -40,17 	"/>
	<polygon fill="#75C3F7" points="-40,8 40,8 40,9 -40,9 	"/>
	<polygon fill="#75C3F7" points="-40,0 40,0 40,1 -40,1 	"/>
	<polygon fill="#75C3F7" points="-40,-8 40,-8 40,-7 -40,-7 	"/>
	<polygon fill="#75C3F7" points="-40,-16 40,-16 40,-15 -40,-15 	"/>
	<polygon fill="#75C3F7" points="-40,-24 40,-24 40,-23 -40,-23 	"/>
	<polygon fill="#75C3F7" points="19,21 19,-28 20,-28 20,21 	"/>
	<polygon fill="#75C3F7" points="27,21 27,-28 28,-28 28,21 	"/>
	<polygon fill="#75C3F7" points="35,21 35,-28 36,-28 36,21 	"/>
	<polygon fill="#75C3F7" points="11,21 11,-28 12,-28 12,21 	"/>
	<polygon fill="#75C3F7" points="3,21 3,-28 4,-28 4,21 	"/>
	<polygon fill="#75C3F7" points="-5,21 -5,-28 -4,-28 -4,21 	"/>
	<polygon fill="#75C3F7" points="-13,21 -13,-28 -12,-28 -12,21 	"/>
	<polygon fill="#75C3F7" points="-21,21 -21,-28 -20,-28 -20,21 	"/>
	<polygon fill="#75C3F7" points="-29,21 -29,-28 -28,-28 -28,21 	"/>
	<polygon fill="#75C3F7" points="-37,21 -37,-28 -36,-28 -36,21 	"/>
	<polygon opacity="0.08" points="41,21 -41,21 -41,22 41,22 	"/>
	<g opacity="0.6">
		<path fill="#FFFFFF" d="M-33,26.5c0,0-0.017,0.051-0.035,0.139c-0.016,0.075-0.028,0.241,0.033,0.396
			c0.05,0.162,0.163,0.342,0.337,0.485c0.094,0.06,0.189,0.134,0.308,0.163c0.123,0.046,0.21,0.051,0.382,0.064
			c0.103-0.017,0.178-0.011,0.319-0.061c0.135-0.032,0.226-0.106,0.321-0.166c0.175-0.143,0.287-0.324,0.337-0.486
			c0.061-0.158,0.046-0.306,0.033-0.395C-30.982,26.548-31,26.5-31,26.5s-0.027,0.05-0.062,0.127
			c-0.026,0.079-0.104,0.178-0.185,0.275c-0.072,0.108-0.209,0.179-0.33,0.25c-0.067,0.028-0.138,0.055-0.194,0.065
			c-0.04,0.025-0.165,0.024-0.256,0.033c-0.022-0.013-0.135-0.001-0.192-0.029c-0.073-0.014-0.139-0.042-0.207-0.069
			c-0.121-0.071-0.258-0.142-0.33-0.25C-32.924,26.723-32.994,26.489-33,26.5z"/>
	</g>
	<g opacity="0.6">
		<path fill="#FFFFFF" d="M-27,26.5c0,0-0.017,0.051-0.035,0.139c-0.016,0.075-0.028,0.241,0.033,0.396
			c0.05,0.162,0.163,0.342,0.337,0.485c0.094,0.06,0.189,0.134,0.308,0.163c0.123,0.046,0.21,0.051,0.382,0.064
			c0.103-0.017,0.178-0.011,0.319-0.061c0.135-0.032,0.226-0.106,0.321-0.166c0.175-0.143,0.287-0.324,0.337-0.486
			c0.061-0.158,0.046-0.306,0.033-0.395C-24.982,26.548-25,26.5-25,26.5s-0.027,0.05-0.062,0.127
			c-0.026,0.079-0.104,0.178-0.185,0.275c-0.072,0.108-0.209,0.179-0.33,0.25c-0.067,0.028-0.138,0.055-0.194,0.065
			c-0.04,0.025-0.165,0.024-0.256,0.033c-0.022-0.013-0.135-0.001-0.192-0.029c-0.073-0.014-0.139-0.042-0.207-0.069
			c-0.121-0.071-0.258-0.142-0.33-0.25C-26.924,26.723-26.994,26.489-27,26.5z"/>
	</g>
	<polygon display="none" fill="none" points="-42,30 42,30 42,-31 -42,-31 	"/>
</symbol>
<g id="Icons-backup">
	<g id="db-white_copy_1_">
	</g>
	<g id="db-white_copy">
	</g>
	<g id="plus_copy">
		<g id="gear-manage_2_copy">
		</g>
	</g>
</g>
<g id="Icons">
	<g id="db-white_1_">
	</g>
	<g id="db-white">
	</g>
	<g id="plus">
		<g id="gear-manage_2">
		</g>
	</g>
	<g id="window-app">
		<g id="window_-_app">
		</g>
	</g>
	<g id="circle36-green-run_2_">
	</g>
	<g id="circle36-green-run">
	</g>
	<g id="circle36-green-run_1_">
		<g id="circle36-blue_2">
		</g>
	</g>
	<g id="circle36-green">
	</g>
	<g id="circle36-blue">
	</g>
	<g id="Gear-Large">
	</g>
</g>
<g id="Layer_19">
	<g id="window-graphpaper">
	</g>
	<g id="circle36-blue_1_">
	</g>
	<g id="circle36-gray">
	</g>
	<g id="dingbat-lock">
	</g>
	<g id="dingbat-compass">
	</g>
	<g id="dingbat-gear">
	</g>
	<g id="dingbat-palette">
	</g>
	<g id="Ruler">
	</g>
	<g id="Pencil-6">
	</g>
	<g id="dingbat-palette_1_">
	</g>
	<g id="key-blue">
		<path opacity="0.1" d="M78.139,72.637l-23.1-22.872c-0.52-0.52-1.039-1.225-1.039-1.96v-3.919C54,42.356,53.164,41,51.634,41
			h-1.995c1.498-5,0.598-10.59-2.724-14.87c-6.722-8.661-19.658-8.632-26.38,0.028c-4.58,5.901-4.58,14.379,0,20.28
			c4.838,6.234,12.888,7.962,19.531,5.222l0.23,2.384c0.216,1.515,1.62,2.57,3.135,2.353l2.744-0.391
			c0.864-0.123,1.735,0.167,2.352,0.784l1.895,2.128c0.52,0.52,0.579,1.225,0.579,1.96v1.623c0,0.735,0.525,1.44,1.045,1.96
			l2.412,2.511c0.52,0.52,1.341,1.027,2.076,1.027h3.345C60.644,68,61,68.191,61,68.956v3.345c0,0.735,0.424,1.44,0.944,1.96
			l5.301,5.081c0.52,0.52,1.291,0.658,2.026,0.658h5.543c0.735,0,1.44-0.138,1.96-0.658l1.365-1.239
			c0.52-0.52,0.861-1.148,0.861-1.883v-1.623C79,73.862,78.658,73.157,78.139,72.637z"/>
		<path fill="#FFFFFF" d="M46.566,39.115h5.067c1.531,0,2.771,1.241,2.771,2.771v3.919c0,0.735,0.292,1.44,0.812,1.96l22.872,22.872
			c0.52,0.52,0.812,1.225,0.812,1.96v1.623c0,0.735-0.292,1.44-0.812,1.96l-1.316,1.316c-0.52,0.52-1.225,0.812-1.96,0.812h-5.543
			c-0.735,0-1.44-0.292-1.96-0.812l-5.235-5.235c-0.52-0.52-0.812-1.225-0.812-1.96v-3.345c0-0.765-0.62-1.386-1.386-1.386h-3.345
			c-0.735,0-1.44-0.292-1.96-0.812l-2.296-2.296c-0.52-0.52-0.812-1.225-0.812-1.96V58.88c0-0.735-0.292-1.44-0.812-1.96
			l-2.128-2.128c-0.617-0.617-1.488-0.907-2.352-0.784L43.431,54.4c-1.515,0.216-2.919-0.836-3.135-2.352l-0.588-6.075
			L46.566,39.115z"/>
		<path opacity="0.15" d="M20.899,33.683c0.693-6.363,5.859-11.538,12.224-12.211c4.182-0.442,7.986,0.95,10.771,3.468
			c-2.709-2.996-6.691-4.783-11.143-4.499c-6.823,0.435-12.426,6.047-12.885,12.868c-0.301,4.475,1.483,8.474,4.487,11.189
			C21.829,41.706,20.441,37.886,20.899,33.683z"/>
		<path opacity="0.1" d="M50.469,51.065l26.367,26.367l1.253-1.253c0.284-0.284,0.641-0.774,0.525-0.889L52.625,49.302
			c-0.541-0.541-1.517-0.639-2.058-0.098S49.928,50.524,50.469,51.065z"/>
		<path fill="#FFFFFF" d="M46.914,44.453c4.58-5.901,4.58-14.365,0-20.266c-6.722-8.661-19.658-8.661-26.38,0
			c-4.58,5.901-4.58,14.365,0,20.266C27.256,53.114,40.192,53.114,46.914,44.453z M28.825,35.3c-1.623-1.623-1.623-4.256,0-5.879
			s4.256-1.623,5.879,0c1.623,1.623,1.623,4.256,0,5.879S30.448,36.923,28.825,35.3z"/>
		<path opacity="0.1" d="M33.292,20.416c-7.226,0.19-13.235,6.205-13.453,13.43c-0.238,7.858,5.922,14.167,13.815,14.261
			l13.857-13.857C47.417,26.377,41.123,20.211,33.292,20.416z M28.825,35.3c-1.623-1.623-1.623-4.256,0-5.879s4.256-1.623,5.879,0
			c1.623,1.623,1.623,4.256,0,5.879S30.448,36.923,28.825,35.3z"/>
	</g>
	<g id="database-blue">
	</g>
</g>
</svg>
