<svg xmlns="http://www.w3.org/2000/svg" viewBox="0 0 128 128" enable-background="new 0 0 128 128"><symbol viewBox="-42 -31 84 61"><path d="M42-29c0-1.105-.895-2-2-2h-80c-1.105 0-2 .895-2 2v56c0 1.105.895 2 2 2h80c1.105 0 2-.895 2-2v-56z" opacity=".12"/><path fill="#fff" d="M42-28c0-1.105-.895-2-2-2h-80c-1.105 0-2 .895-2 2v56c0 1.105.895 2 2 2h80c1.105 0 2-.895 2-2v-56z"/><linearGradient id="a" gradientUnits="userSpaceOnUse" y1="-29" x2="0" y2="22"><stop offset="0" stop-color="#53B4F5"/><stop offset="1" stop-color="#65BCF6"/></linearGradient><path fill="url(#a)" d="M41 22v-49.5c0-.55-.45-1.5-1-1.5h-80c-.55 0-1 .95-1 1.5v49.5"/><path fill="#FF6259" d="M-36 26.5c0-1.105-.895-2-2-2s-2 .895-2 2 .895 2 2 2 2-.895 2-2z"/><path fill="#fff" d="M-39 26.5l-.035.139c-.016.075-.028.241.033.396.05.162.163.342.337.485.094.06.189.134.308.163.123.046.21.051.382.064.103-.017.178-.011.319-.061.135-.032.226-.106.321-.166.175-.143.287-.324.337-.486.061-.158.046-.306.033-.395l-.035-.139-.062.127c-.026.079-.104.178-.185.275-.072.108-.209.179-.33.25l-.194.065-.256.033-.192-.029-.207-.069c-.121-.071-.258-.142-.33-.25-.168-.179-.238-.413-.244-.402z" opacity=".6"/><path fill="#FFC933" d="M-30 26.5c0-1.105-.895-2-2-2s-2 .895-2 2 .895 2 2 2 2-.895 2-2z"/><path fill="#2ECC71" d="M-24 26.5c0-1.105-.895-2-2-2s-2 .895-2 2 .895 2 2 2 2-.895 2-2z"/><path fill="#75C3F7" d="M-40 16h80v1h-80zm0-8h80v1h-80zm0-8h80v1h-80zm0-8h80v1h-80zm0-8h80v1h-80zm0-8h80v1h-80zm59 45v-49h1v49zm8 0v-49h1v49zm8 0v-49h1v49zm-24 0v-49h1v49zm-8 0v-49h1v49zm-8 0v-49h1v49zm-8 0v-49h1v49zm-8 0v-49h1v49zm-8 0v-49h1v49zm-8 0v-49h1v49z"/><path opacity=".08" d="M41 21h-82v1h82z"/><path fill="#fff" d="M-33 26.5l-.035.139c-.016.075-.028.241.033.396.05.162.163.342.337.485.094.06.189.134.308.163.123.046.21.051.382.064.103-.017.178-.011.319-.061.135-.032.226-.106.321-.166.175-.143.287-.324.337-.486.061-.158.046-.306.033-.395l-.035-.139-.062.127c-.026.079-.104.178-.185.275-.072.108-.209.179-.33.25l-.194.065-.256.033-.192-.029-.207-.069c-.121-.071-.258-.142-.33-.25-.168-.179-.238-.413-.244-.402zm6 0l-.035.139c-.016.075-.028.241.033.396.05.162.163.342.337.485.094.06.189.134.308.163.123.046.21.051.382.064.103-.017.178-.011.319-.061.135-.032.226-.106.321-.166.175-.143.287-.324.337-.486.061-.158.046-.306.033-.395l-.035-.139-.062.127c-.026.079-.104.178-.185.275-.072.108-.209.179-.33.25l-.194.065-.256.033-.192-.029-.207-.069c-.121-.071-.258-.142-.33-.25-.168-.179-.238-.413-.244-.402z" opacity=".6"/></symbol><path d="M108 94c0 1.1-.9 2-2 2h-84c-1.1 0-2-.9-2-2v-56c0-1.1.9-2 2-2h84c1.1 0 2 .9 2 2v56z" opacity=".1"/><path fill="#fff" d="M108 92c0 1.1-.9 2-2 2h-84c-1.1 0-2-.9-2-2v-56c0-1.1.9-2 2-2h84c1.1 0 2 .9 2 2v56z"/><path fill="#64788B" d="M106 42v49c0 .552-.448 1-1 1h-82c-.552 0-1-.448-1-1v-49h84z"/><path opacity=".05" d="M106 42v1.96c0 .022-.448.04-1 .04h-82c-.552 0-1-.018-1-.04v-1.96h84z"/><path fill="#FF8983" d="M38 50h12v2h-12zm0 36h8v2h-8z"/><path fill="#92C8F4" d="M41 54h16v2h-16zm0 4h12v2h-12zm0 4h14v2h-14z"/><path fill="#FFE066" d="M59 54h20v2h-20zm0 4h14v2h-14zm0 4h18v2h-18z"/><path fill="#BDC3C7" d="M26 50h4v2h-4z"/><path fill="#FF8983" d="M38 46h20v2h-20zm22 0h4v2h-4z"/><path fill="#BDC3C7" d="M26 46h4v2h-4zm0 8h4v2h-4zm0 4h4v2h-4z"/><path fill="#92C8F4" d="M41 66h12v2h-12z"/><path fill="#FFE066" d="M59 66h14v2h-14z"/><path fill="#BDC3C7" d="M26 66h4v2h-4zm0-4h4v2h-4z"/><path fill="#92C8F4" d="M41 70h16v2h-16zm0 4h12v2h-12zm0 4h14v2h-14z"/><path fill="#FFE066" d="M59 70h20v2h-20zm0 4h14v2h-14zm0 4h18v2h-18z"/><path fill="#BDC3C7" d="M26 70h4v2h-4z"/><path fill="#92C8F4" d="M41 82h16v2h-16z"/><path fill="#FFE066" d="M59 82h20v2h-20z"/><path fill="#BDC3C7" d="M26 82h4v2h-4zm0-8h4v2h-4zm0 4h4v2h-4zm0 8h4v2h-4zm7-40h2v42h-2z"/></svg>