<svg xmlns="http://www.w3.org/2000/svg" viewBox="0 0 128 128" enable-background="new 0 0 128 128"><symbol viewBox="-42 -31 84 61"><path d="M42-29c0-1.105-.895-2-2-2h-80c-1.105 0-2 .895-2 2v56c0 1.105.895 2 2 2h80c1.105 0 2-.895 2-2v-56z" opacity=".12"/><path fill="#fff" d="M42-28c0-1.105-.895-2-2-2h-80c-1.105 0-2 .895-2 2v56c0 1.105.895 2 2 2h80c1.105 0 2-.895 2-2v-56z"/><linearGradient id="a" gradientUnits="userSpaceOnUse" y1="-29" x2="0" y2="22"><stop offset="0" stop-color="#53B4F5"/><stop offset="1" stop-color="#65BCF6"/></linearGradient><path fill="url(#a)" d="M41 22v-49.5c0-.55-.45-1.5-1-1.5h-80c-.55 0-1 .95-1 1.5v49.5"/><path fill="#FF6259" d="M-36 26.5c0-1.105-.895-2-2-2s-2 .895-2 2 .895 2 2 2 2-.895 2-2z"/><path fill="#fff" d="M-39 26.5l-.035.139c-.016.075-.028.241.033.396.05.162.163.342.337.485.094.06.189.134.308.163.123.046.21.051.382.064.103-.017.178-.011.319-.061.135-.032.226-.106.321-.166.175-.143.287-.324.337-.486.061-.158.046-.306.033-.395l-.035-.139-.062.127c-.026.079-.104.178-.185.275-.072.108-.209.179-.33.25l-.194.065-.256.033-.192-.029-.207-.069c-.121-.071-.258-.142-.33-.25-.168-.179-.238-.413-.244-.402z" opacity=".6"/><path fill="#FFC933" d="M-30 26.5c0-1.105-.895-2-2-2s-2 .895-2 2 .895 2 2 2 2-.895 2-2z"/><path fill="#2ECC71" d="M-24 26.5c0-1.105-.895-2-2-2s-2 .895-2 2 .895 2 2 2 2-.895 2-2z"/><path fill="#75C3F7" d="M-40 16h80v1h-80zm0-8h80v1h-80zm0-8h80v1h-80zm0-8h80v1h-80zm0-8h80v1h-80zm0-8h80v1h-80zm59 45v-49h1v49zm8 0v-49h1v49zm8 0v-49h1v49zm-24 0v-49h1v49zm-8 0v-49h1v49zm-8 0v-49h1v49zm-8 0v-49h1v49zm-8 0v-49h1v49zm-8 0v-49h1v49zm-8 0v-49h1v49z"/><path opacity=".08" d="M41 21h-82v1h82z"/><path fill="#fff" d="M-33 26.5l-.035.139c-.016.075-.028.241.033.396.05.162.163.342.337.485.094.06.189.134.308.163.123.046.21.051.382.064.103-.017.178-.011.319-.061.135-.032.226-.106.321-.166.175-.143.287-.324.337-.486.061-.158.046-.306.033-.395l-.035-.139-.062.127c-.026.079-.104.178-.185.275-.072.108-.209.179-.33.25l-.194.065-.256.033-.192-.029-.207-.069c-.121-.071-.258-.142-.33-.25-.168-.179-.238-.413-.244-.402zm6 0l-.035.139c-.016.075-.028.241.033.396.05.162.163.342.337.485.094.06.189.134.308.163.123.046.21.051.382.064.103-.017.178-.011.319-.061.135-.032.226-.106.321-.166.175-.143.287-.324.337-.486.061-.158.046-.306.033-.395l-.035-.139-.062.127c-.026.079-.104.178-.185.275-.072.108-.209.179-.33.25l-.194.065-.256.033-.192-.029-.207-.069c-.121-.071-.258-.142-.33-.25-.168-.179-.238-.413-.244-.402z" opacity=".6"/></symbol><path d="M108 94c0 1.1-.9 2-2 2h-84c-1.1 0-2-.9-2-2v-56c0-1.1.9-2 2-2h84c1.1 0 2 .9 2 2v56z" opacity=".1"/><path fill="#fff" d="M108 92c0 1.1-.9 2-2 2h-84c-1.1 0-2-.9-2-2v-56c0-1.1.9-2 2-2h84c1.1 0 2 .9 2 2v56z"/><path fill="#6EB6F0" d="M106 36v55c0 .552-.448 1-1 1h-82c-.552 0-1-.448-1-1v-55h84z"/><path opacity=".05" d="M84.52 86c5.965 0 10.8-5.355 10.8-11.343 0-5.988-4.835-11.092-10.8-11.092-.268 0-.519-.065-.782-.046.497-1.381.782-2.926.782-4.479 0-7.186-5.802-13.042-12.96-13.042-6.056 0-11.128 4.161-12.549 9.797-1.434-.707-3.025-1.147-4.731-1.147-5.965 0-10.8 4.85-10.8 10.838 0 .894.139 1.748.342 2.58-.797-.244-1.626-.414-2.502-.414-4.772 0-8.64 4.383-8.64 9.174s3.868 9.174 8.64 9.174h43.2z"/><path fill="#fff" d="M84.52 84c5.965 0 10.8-5.355 10.8-11.343 0-5.988-4.835-11.092-10.8-11.092-.268 0-.519-.065-.782-.046.497-1.381.782-2.926.782-4.479 0-7.186-5.802-13.042-12.96-13.042-6.056 0-11.128 4.161-12.549 9.797-1.434-.707-3.025-1.147-4.731-1.147-5.965 0-10.8 4.85-10.8 10.838 0 .894.139 1.748.342 2.58-.797-.244-1.626-.414-2.502-.414-4.772 0-8.64 4.383-8.64 9.174s3.868 9.174 8.64 9.174h43.2z"/><path d="M54 67l12-12 12 12zm8-3h8v14h-8z" fill="#FA6855"/></svg>