<?xml version="1.0" encoding="UTF-8"?>
<!DOCTYPE svg PUBLIC "-//W3C//DTD SVG 1.1//EN" "http://www.w3.org/Graphics/SVG/1.1/DTD/svg11.dtd">
<svg version="1.1" xmlns="http://www.w3.org/2000/svg" xmlns:xlink="http://www.w3.org/1999/xlink" x="0" y="0" width="512" height="512" viewBox="0, 0, 512, 512">
  <g id="Background">
    <rect x="0" y="0" width="512" height="512" fill="#000000" fill-opacity="0"/>
  </g>
  <g id="All" display="none">
    <path d="M257.397,137.202 C209.385,137.202 170.463,98.281 170.463,50.269 C170.463,2.257 209.385,-36.665 257.397,-36.665 C305.409,-36.665 344.33,2.257 344.33,50.269 C344.33,98.281 305.409,137.202 257.397,137.202 z" fill="#FFFFFF"/>
    <path d="M257.395,29.304 C382.691,29.307 484.261,130.877 484.26,256.166 C484.261,381.462 382.691,483.032 257.395,483.032 C132.105,483.032 30.535,381.462 30.533,256.166 C30.535,130.877 132.105,29.307 257.395,29.304 z M257.395,59.513 C148.789,59.515 60.744,147.56 60.742,256.166 C60.744,364.778 148.789,452.823 257.395,452.823 C366.007,452.823 454.052,364.778 454.052,256.166 C454.052,147.56 366.007,59.515 257.395,59.513 z" fill="#FFFFFF"/>
    <g>
      <path d="M257.397,375.133 C305.409,375.133 344.33,414.055 344.33,462.067 C344.33,510.079 305.409,549 257.397,549 C209.385,549 170.463,510.079 170.463,462.067 C170.463,414.055 209.385,375.133 257.397,375.133 z" fill="#FFFFFF"/>
      <g>
        <path d="M281.55,378.625 C279.044,377.846 279.953,378.04 278.88,377.82 C276.47,377.017 273.968,376.588 271.458,376.303 C268.599,375.719 270.914,376.163 264.431,375.506 C263.448,375.394 263.82,375.415 263.319,375.393 C260.386,375.096 262.355,375.259 257.397,375.133 C252.683,375.252 254.407,375.096 252.206,375.319 C250.28,375.388 251.585,375.315 248.305,375.714 C243.809,376.17 245.519,375.857 243.128,376.345 C240.461,376.67 242.48,376.393 237.139,377.57 C234.841,378.04 236.148,377.722 233.243,378.625 L232.548,378.625 L257.397,256.168 L282.245,378.625 L281.55,378.625 z" fill="#FFFFFF"/>
        <path d="M257.397,411.544 C285.299,411.544 307.919,434.164 307.919,462.067 C307.919,489.969 285.299,512.589 257.397,512.589 C229.494,512.589 206.874,489.969 206.874,462.067 C206.874,434.164 229.494,411.544 257.397,411.544 z" fill="#FFFFFF"/>
      </g>
    </g>
    <g>
      <path d="M257.397,137.202 C209.385,137.202 170.463,98.281 170.463,50.269 C170.463,2.257 209.385,-36.665 257.397,-36.665 C305.409,-36.665 344.33,2.257 344.33,50.269 C344.33,98.281 305.409,137.202 257.397,137.202 z" fill="#FFFFFF"/>
      <g>
        <path d="M233.243,133.71 C235.749,134.49 234.84,134.295 235.913,134.515 C238.323,135.318 240.825,135.747 243.335,136.032 C246.194,136.617 243.879,136.172 250.362,136.829 C251.346,136.941 250.974,136.92 251.474,136.942 C254.407,137.239 252.438,137.077 257.396,137.202 C262.11,137.083 260.386,137.239 262.587,137.016 C264.513,136.947 263.208,137.021 266.488,136.621 C270.984,136.165 269.274,136.479 271.665,135.99 C274.332,135.665 272.313,135.942 277.654,134.765 C279.953,134.295 278.645,134.613 281.55,133.711 L282.245,133.711 L257.397,256.168 L232.548,133.71 L233.243,133.71 z" fill="#FFFFFF"/>
        <path d="M257.397,100.791 C229.494,100.791 206.874,78.172 206.874,50.269 C206.874,22.366 229.494,-0.254 257.397,-0.254 C285.299,-0.254 307.919,22.366 307.919,50.269 C307.919,78.172 285.299,100.791 257.397,100.791 z" fill="#FFFFFF"/>
      </g>
    </g>
    <g>
      <path d="M159.946,187.932 C132.407,227.261 78.2,236.819 38.871,209.281 C-0.458,181.742 -10.016,127.535 17.522,88.206 C45.061,48.877 99.268,39.319 138.597,66.857 C177.926,94.396 187.484,148.603 159.946,187.932 z" fill="#FFFFFF"/>
      <g>
        <path d="M143.232,205.715 C145.308,204.108 144.627,204.742 145.422,203.988 C147.463,202.475 149.249,200.672 150.922,198.779 C153.041,196.773 151.349,198.414 155.606,193.48 C156.261,192.739 156.031,193.032 156.336,192.634 C158.261,190.402 156.999,191.922 159.946,187.932 C162.552,184.002 161.691,185.504 162.771,183.574 C163.819,181.956 163.13,183.067 164.684,180.151 C166.89,176.207 166.166,177.787 167.137,175.549 C168.4,173.178 167.469,174.99 169.569,169.94 C170.502,167.788 170.013,169.041 170.939,166.144 L171.338,165.575 L257.397,256.168 L142.833,206.284 L143.232,205.715 z" fill="#FFFFFF"/>
        <path d="M130.12,167.047 C114.115,189.904 82.612,195.459 59.756,179.455 C36.899,163.45 31.344,131.947 47.348,109.09 C63.353,86.234 94.856,80.679 117.713,96.683 C140.569,112.688 146.124,144.191 130.12,167.047 z" fill="#FFFFFF"/>
      </g>
    </g>
    <g>
      <path d="M354.847,187.932 C327.309,148.603 336.867,94.396 376.196,66.857 C415.525,39.319 469.732,48.877 497.271,88.206 C524.809,127.535 515.251,181.742 475.922,209.281 C436.593,236.819 382.386,227.261 354.847,187.932 z" fill="#FFFFFF"/>
      <g>
        <path d="M343.854,166.144 C344.653,168.644 344.291,167.788 344.727,168.793 C345.451,171.227 346.534,173.523 347.74,175.742 C348.902,178.42 347.938,176.268 351.118,181.956 C351.591,182.825 351.394,182.509 351.664,182.932 C353.102,185.504 352.106,183.798 354.847,187.932 C357.649,191.725 356.532,190.402 357.977,192.077 C359.138,193.615 358.33,192.588 360.538,195.046 C363.49,198.467 362.253,197.246 364.024,198.924 C365.82,200.923 364.435,199.428 368.463,203.128 C370.166,204.741 369.156,203.853 371.561,205.714 L371.96,206.284 L257.397,256.168 L343.455,165.575 L343.854,166.144 z" fill="#FFFFFF"/>
        <path d="M384.674,167.047 C368.669,144.191 374.224,112.688 397.081,96.683 C419.937,80.679 451.44,86.234 467.445,109.09 C483.449,131.947 477.894,163.45 455.038,179.454 C432.181,195.459 400.678,189.904 384.674,167.047 z" fill="#FFFFFF"/>
      </g>
    </g>
    <g>
      <path d="M159.946,324.404 C187.484,363.733 177.926,417.94 138.597,445.478 C99.268,473.017 45.061,463.459 17.522,424.129 C-10.016,384.8 -0.458,330.593 38.871,303.055 C78.2,275.516 132.407,285.074 159.946,324.404 z" fill="#FFFFFF"/>
      <g>
        <path d="M170.939,346.192 C170.14,343.692 170.502,344.548 170.067,343.543 C169.343,341.108 168.259,338.813 167.053,336.593 C165.892,333.916 166.855,336.067 163.675,330.379 C163.202,329.51 163.399,329.827 163.13,329.404 C161.691,326.831 162.687,328.538 159.946,324.404 C157.144,320.611 158.262,321.933 156.816,320.258 C155.655,318.72 156.464,319.747 154.255,317.29 C151.303,313.868 152.54,315.089 150.769,313.411 C148.973,311.413 150.358,312.907 146.33,309.207 C144.627,307.594 145.637,308.482 143.232,306.621 L142.833,306.052 L257.397,256.168 L171.338,346.761 L170.939,346.192 z" fill="#FFFFFF"/>
        <path d="M130.12,345.288 C146.124,368.145 140.569,399.648 117.713,415.652 C94.856,431.656 63.353,426.102 47.348,403.245 C31.344,380.388 36.899,348.885 59.756,332.881 C82.612,316.877 114.115,322.431 130.12,345.288 z" fill="#FFFFFF"/>
      </g>
    </g>
    <g>
      <path d="M354.847,324.403 C382.386,285.074 436.593,275.516 475.922,303.055 C515.251,330.593 524.809,384.8 497.271,424.129 C469.732,463.458 415.525,473.017 376.196,445.478 C336.867,417.94 327.309,363.733 354.847,324.403 z" fill="#FFFFFF"/>
      <g>
        <path d="M371.562,306.621 C369.486,308.227 370.166,307.594 369.371,308.347 C367.33,309.86 365.544,311.663 363.871,313.556 C361.752,315.563 363.444,313.921 359.187,318.855 C358.532,319.597 358.763,319.304 358.457,319.701 C356.532,321.933 357.794,320.413 354.848,324.403 C352.241,328.333 353.102,326.831 352.023,328.762 C350.974,330.379 351.663,329.268 350.109,332.184 C347.904,336.129 348.627,334.548 347.656,336.787 C346.393,339.158 347.324,337.345 345.224,342.395 C344.291,344.548 344.78,343.294 343.854,346.191 L343.455,346.761 L257.397,256.168 L371.96,306.052 L371.562,306.621 z" fill="#FFFFFF"/>
        <path d="M384.674,345.288 C400.678,322.431 432.181,316.876 455.038,332.881 C477.894,348.885 483.449,380.388 467.445,403.245 C451.44,426.102 419.937,431.656 397.081,415.652 C374.224,399.648 368.669,368.145 384.674,345.288 z" fill="#FFFFFF"/>
      </g>
    </g>
  </g>
  <g id="Mono" display="none">
    <path d="M342.84,46.841 C428.204,82.178 481.703,164.658 482.864,256.42 C482.864,381.716 381.294,483.286 255.999,483.286 C130.709,483.286 29.139,381.716 29.136,256.42 C28.899,165.13 85.543,82.206 169.16,46.841 L169.066,50.522 C169.182,55.098 169.029,53.512 169.21,55.301 C169.251,56.635 169.202,55.776 169.471,57.869 C170.141,64.476 169.673,61.827 170.5,65.873 C170.863,68.7 170.557,66.553 171.803,72.248 C172.912,76.012 172.33,74.139 173.55,77.868 L173.551,77.871 C102.837,111.292 61.652,179.002 59.345,256.42 C59.348,365.032 147.393,453.077 255.999,453.077 C364.611,453.077 452.655,365.032 452.655,256.42 C452.496,178.816 407.833,111.303 338.448,77.871 L338.449,77.869 C339.683,74.174 339.276,75.687 339.845,73.378 C340.371,71.687 340.117,72.635 340.549,70.522 C341.392,67.103 341.079,68.73 341.545,65.653 C342.066,63.105 341.867,64.402 342.134,61.762 C342.35,60.339 342.237,61.216 342.402,59.123 C342.971,53.512 342.785,56.378 342.933,50.522 L342.84,46.841 z" fill="#FFFFFF"/>
    <g>
      <path d="M231.846,133.964 C234.353,134.743 233.444,134.549 234.517,134.769 C236.927,135.572 239.428,136.001 241.939,136.286 C244.798,136.87 242.482,136.426 248.966,137.083 C249.949,137.195 249.577,137.174 250.078,137.196 C253.01,137.493 251.041,137.33 256,137.456 C260.714,137.337 258.989,137.493 261.19,137.27 C263.117,137.201 261.812,137.274 265.091,136.875 C269.587,136.419 267.878,136.732 270.268,136.244 C272.935,135.919 270.917,136.196 276.257,135.019 C278.556,134.549 277.249,134.867 280.153,133.964 L280.848,133.964 L256,256.421 L231.152,133.964 L231.846,133.964 z" fill="#FFFFFF"/>
      <path d="M256,101.045 C228.097,101.045 205.477,78.425 205.477,50.522 C205.477,22.62 228.097,0 256,0 C283.903,0 306.522,22.62 306.522,50.522 C306.522,78.425 283.903,101.045 256,101.045 z" fill="#FFFFFF"/>
    </g>
  </g>
  <g id="Mono_With_Complement" display="none">
    <path d="M344.237,46.587 C429.6,81.924 483.101,164.405 484.26,256.166 C484.5,347.46 427.856,430.385 344.237,465.75 L344.33,462.067 C344.366,454.734 343.349,447.452 341.593,440.341 C341.123,438.436 340.428,436.593 339.846,434.72 C409.968,401.898 453.076,333.291 454.052,256.166 C453.893,178.563 409.23,111.048 339.845,77.617 C343.06,68.844 344.095,59.548 344.33,50.269 L344.237,46.587 z" fill="#FFFFFF"/>
    <path d="M170.556,46.587 L170.463,50.269 C170.427,57.601 171.444,64.883 173.2,71.995 C173.67,73.9 174.365,75.743 174.948,77.618 C104.83,110.439 61.719,179.044 60.741,256.166 C60.903,333.77 105.561,401.287 174.948,434.719 C171.733,443.492 170.698,452.788 170.463,462.067 L170.556,465.75 C85.191,430.412 31.695,347.928 30.533,256.166 C30.297,164.876 86.939,81.953 170.556,46.587 z" fill="#FFFFFF"/>
    <g>
      <path d="M281.55,378.625 C279.044,377.846 279.953,378.04 278.88,377.82 C276.47,377.017 273.968,376.588 271.458,376.303 C268.599,375.719 270.914,376.163 264.431,375.506 C263.448,375.394 263.82,375.415 263.319,375.393 C260.386,375.096 262.355,375.259 257.397,375.133 C252.683,375.252 254.407,375.096 252.206,375.319 C250.28,375.388 251.585,375.315 248.305,375.714 C243.809,376.17 245.519,375.857 243.128,376.345 C240.461,376.67 242.48,376.393 237.139,377.57 C234.841,378.04 236.148,377.722 233.243,378.625 L232.548,378.625 L257.397,256.168 L282.245,378.625 L281.55,378.625 z" fill="#FFFFFF"/>
      <path d="M257.397,411.544 C285.299,411.544 307.919,434.164 307.919,462.067 C307.919,489.969 285.299,512.589 257.397,512.589 C229.494,512.589 206.874,489.969 206.874,462.067 C206.874,434.164 229.494,411.544 257.397,411.544 z" fill="#FFFFFF"/>
    </g>
    <g>
      <path d="M233.243,133.71 C235.749,134.49 234.84,134.295 235.913,134.515 C238.323,135.318 240.825,135.747 243.335,136.032 C246.194,136.617 243.879,136.172 250.362,136.829 C251.346,136.941 250.974,136.92 251.474,136.942 C254.407,137.239 252.438,137.077 257.396,137.202 C262.11,137.083 260.386,137.239 262.587,137.016 C264.513,136.947 263.208,137.021 266.488,136.621 C270.984,136.165 269.274,136.479 271.665,135.99 C274.332,135.665 272.313,135.942 277.654,134.765 C279.953,134.295 278.645,134.613 281.55,133.711 L282.245,133.711 L257.397,256.168 L232.548,133.71 L233.243,133.71 z" fill="#FFFFFF"/>
      <path d="M257.397,100.791 C229.494,100.791 206.874,78.172 206.874,50.269 C206.874,22.366 229.494,-0.254 257.397,-0.254 C285.299,-0.254 307.919,22.366 307.919,50.269 C307.919,78.172 285.299,100.791 257.397,100.791 z" fill="#FFFFFF"/>
    </g>
  </g>
  <g id="Triad" display="none">
    <path d="M158.431,426.112 C188.199,444.05 222.857,452.386 257.395,452.823 C291.795,452.52 326.779,444.087 356.362,426.113 C361.706,433.781 368.728,439.962 376.196,445.478 L379.286,447.527 C342.829,470.964 300.556,482.486 257.395,483.032 C212.554,483.027 173.585,470.663 135.508,447.527 L138.597,445.478 C146.37,440.259 152.741,433.466 158.431,426.112 z" fill="#FFFFFF"/>
    <path d="M170.556,46.587 L170.463,50.269 C170.427,57.601 171.444,64.883 173.2,71.995 C173.67,73.9 174.365,75.743 174.948,77.618 C104.83,110.439 61.719,179.044 60.741,256.166 C60.742,264.537 61.268,272.908 62.322,281.213 C62.819,284.468 63.316,287.723 63.814,290.978 C63.818,291.001 63.823,291.025 63.828,291.048 C54.804,293.446 46.601,297.928 38.871,303.055 L35.902,305.247 C32.135,289.154 30.742,272.657 30.533,256.166 C30.297,164.876 86.939,81.953 170.556,46.587 z" fill="#FFFFFF"/>
    <path d="M344.237,46.587 C429.6,81.924 483.101,164.405 484.26,256.166 C484.284,269.628 483.046,283.07 480.717,296.326 C480.192,299.316 479.5,302.274 478.892,305.248 L475.922,303.055 C468.367,297.542 459.814,293.877 450.966,291.048 C453.132,279.54 453.904,267.855 454.052,256.166 C453.893,178.563 409.23,111.048 339.845,77.617 C343.06,68.844 344.095,59.548 344.33,50.269 L344.237,46.587 z" fill="#FFFFFF"/>
    <g>
      <path d="M233.243,133.71 C235.749,134.49 234.84,134.295 235.913,134.515 C238.323,135.318 240.825,135.747 243.335,136.032 C246.194,136.617 243.879,136.172 250.362,136.829 C251.346,136.941 250.974,136.92 251.474,136.942 C254.407,137.239 252.438,137.077 257.396,137.202 C262.11,137.083 260.386,137.239 262.587,137.016 C264.513,136.947 263.208,137.021 266.488,136.621 C270.984,136.165 269.274,136.479 271.665,135.99 C274.332,135.665 272.313,135.942 277.654,134.765 C279.953,134.295 278.645,134.613 281.55,133.711 L282.245,133.711 L257.397,256.168 L232.548,133.71 L233.243,133.71 z" fill="#FFFFFF"/>
      <path d="M257.397,100.791 C229.494,100.791 206.874,78.172 206.874,50.269 C206.874,22.366 229.494,-0.254 257.397,-0.254 C285.299,-0.254 307.919,22.366 307.919,50.269 C307.919,78.172 285.299,100.791 257.397,100.791 z" fill="#FFFFFF"/>
    </g>
    <g>
      <path d="M170.939,346.192 C170.14,343.692 170.502,344.548 170.067,343.543 C169.343,341.108 168.259,338.813 167.053,336.593 C165.892,333.916 166.855,336.067 163.675,330.379 C163.202,329.51 163.399,329.827 163.13,329.404 C161.691,326.831 162.687,328.538 159.946,324.404 C157.144,320.611 158.262,321.933 156.816,320.258 C155.655,318.72 156.464,319.747 154.255,317.29 C151.303,313.868 152.54,315.089 150.769,313.411 C148.973,311.413 150.358,312.907 146.33,309.207 C144.627,307.594 145.637,308.482 143.232,306.621 L142.833,306.052 L257.397,256.168 L171.338,346.761 L170.939,346.192 z" fill="#FFFFFF"/>
      <path d="M130.12,345.288 C146.124,368.145 140.569,399.648 117.713,415.652 C94.856,431.656 63.353,426.102 47.348,403.245 C31.344,380.388 36.899,348.885 59.756,332.881 C82.612,316.877 114.115,322.431 130.12,345.288 z" fill="#FFFFFF"/>
    </g>
    <g>
      <path d="M371.562,306.621 C369.486,308.227 370.166,307.594 369.371,308.347 C367.33,309.86 365.544,311.663 363.871,313.556 C361.752,315.563 363.444,313.921 359.187,318.855 C358.532,319.597 358.763,319.304 358.457,319.701 C356.532,321.933 357.794,320.413 354.848,324.403 C352.241,328.333 353.102,326.831 352.023,328.762 C350.974,330.379 351.663,329.268 350.109,332.184 C347.904,336.129 348.627,334.548 347.656,336.787 C346.393,339.158 347.324,337.345 345.224,342.395 C344.291,344.548 344.78,343.294 343.854,346.191 L343.455,346.761 L257.397,256.168 L371.96,306.052 L371.562,306.621 z" fill="#FFFFFF"/>
      <path d="M384.674,345.288 C400.678,322.431 432.181,316.876 455.038,332.881 C477.894,348.885 483.449,380.388 467.445,403.245 C451.44,426.102 419.937,431.656 397.081,415.652 C374.224,399.648 368.669,368.145 384.674,345.288 z" fill="#FFFFFF"/>
    </g>
  </g>
  <g id="Triad_With_Complement" display="none">
    <path d="M356.362,426.113 C361.706,433.781 368.728,439.962 376.196,445.478 L379.286,447.527 C368.225,454.755 356.385,460.612 344.237,465.75 L344.33,462.067 C344.366,454.734 343.349,447.452 341.593,440.341 C341.123,438.436 340.428,436.593 339.846,434.72 C345.476,432.105 351.053,429.339 356.362,426.113 z" fill="#FFFFFF"/>
    <path d="M158.431,426.113 C163.693,429.429 169.359,432.027 174.948,434.719 C171.733,443.492 170.698,452.788 170.463,462.067 L170.556,465.75 C158.221,460.985 146.772,454.371 135.508,447.527 L138.597,445.478 C146.37,440.26 152.741,433.466 158.431,426.113 z" fill="#FFFFFF"/>
    <path d="M344.237,46.587 C429.6,81.924 483.101,164.405 484.26,256.166 C484.284,269.628 483.046,283.07 480.717,296.326 C480.192,299.316 479.5,302.274 478.892,305.248 L475.922,303.055 C468.219,297.879 459.818,293.843 450.948,291.138 C453.146,279.609 453.903,267.88 454.052,256.166 C453.893,178.563 409.23,111.048 339.845,77.617 C343.06,68.844 344.095,59.548 344.33,50.269 L344.237,46.587 z" fill="#FFFFFF"/>
    <path d="M170.556,46.587 L170.463,50.269 C170.427,57.601 171.444,64.883 173.2,71.995 C173.67,73.9 174.365,75.743 174.948,77.618 C104.83,110.439 61.719,179.044 60.741,256.166 C60.742,264.537 61.268,272.908 62.322,281.213 C62.819,284.468 63.316,287.723 63.814,290.978 C63.817,290.992 63.819,291.006 63.822,291.021 C54.863,293.532 46.565,297.896 38.871,303.055 L35.902,305.248 C32.135,289.154 30.742,272.657 30.533,256.166 C30.297,164.876 86.939,81.953 170.556,46.587 z" fill="#FFFFFF"/>
    <g>
      <path d="M281.55,378.625 C279.044,377.846 279.953,378.04 278.88,377.82 C276.47,377.017 273.968,376.588 271.458,376.303 C268.599,375.719 270.914,376.163 264.431,375.506 C263.448,375.394 263.82,375.415 263.319,375.393 C260.386,375.096 262.355,375.259 257.397,375.133 C252.683,375.252 254.407,375.096 252.206,375.319 C250.28,375.388 251.585,375.315 248.305,375.714 C243.809,376.17 245.519,375.857 243.128,376.345 C240.461,376.67 242.48,376.393 237.139,377.57 C234.841,378.04 236.148,377.722 233.243,378.625 L232.548,378.625 L257.397,256.168 L282.245,378.625 L281.55,378.625 z" fill="#FFFFFF"/>
      <path d="M257.397,411.544 C285.299,411.544 307.919,434.164 307.919,462.067 C307.919,489.969 285.299,512.589 257.397,512.589 C229.494,512.589 206.874,489.969 206.874,462.067 C206.874,434.164 229.494,411.544 257.397,411.544 z" fill="#FFFFFF"/>
    </g>
    <g>
      <path d="M233.243,133.71 C235.749,134.49 234.84,134.295 235.913,134.515 C238.323,135.318 240.825,135.747 243.335,136.032 C246.194,136.617 243.879,136.172 250.362,136.829 C251.346,136.941 250.974,136.92 251.474,136.942 C254.407,137.239 252.438,137.077 257.396,137.202 C262.11,137.083 260.386,137.239 262.587,137.016 C264.513,136.947 263.208,137.021 266.488,136.621 C270.984,136.165 269.274,136.479 271.665,135.99 C274.332,135.665 272.313,135.942 277.654,134.765 C279.953,134.295 278.645,134.613 281.55,133.711 L282.245,133.711 L257.397,256.168 L232.548,133.71 L233.243,133.71 z" fill="#FFFFFF"/>
      <path d="M257.397,100.791 C229.494,100.791 206.874,78.172 206.874,50.269 C206.874,22.366 229.494,-0.254 257.397,-0.254 C285.299,-0.254 307.919,22.366 307.919,50.269 C307.919,78.172 285.299,100.791 257.397,100.791 z" fill="#FFFFFF"/>
    </g>
    <g>
      <path d="M170.939,346.192 C170.14,343.692 170.502,344.548 170.067,343.543 C169.343,341.108 168.259,338.813 167.053,336.593 C165.892,333.916 166.855,336.067 163.675,330.379 C163.202,329.51 163.399,329.827 163.13,329.404 C161.691,326.831 162.687,328.538 159.946,324.404 C157.144,320.611 158.262,321.933 156.816,320.258 C155.655,318.72 156.464,319.747 154.255,317.29 C151.303,313.868 152.54,315.089 150.769,313.411 C148.973,311.413 150.358,312.907 146.33,309.207 C144.627,307.594 145.637,308.482 143.232,306.621 L142.833,306.052 L257.397,256.168 L171.338,346.761 L170.939,346.192 z" fill="#FFFFFF"/>
      <path d="M130.12,345.288 C146.124,368.145 140.569,399.648 117.713,415.652 C94.856,431.656 63.353,426.102 47.348,403.245 C31.344,380.388 36.899,348.885 59.756,332.881 C82.612,316.877 114.115,322.431 130.12,345.288 z" fill="#FFFFFF"/>
    </g>
    <g>
      <path d="M371.562,306.621 C369.486,308.227 370.166,307.594 369.371,308.347 C367.33,309.86 365.544,311.663 363.871,313.556 C361.752,315.563 363.444,313.921 359.187,318.855 C358.532,319.597 358.763,319.304 358.457,319.701 C356.532,321.933 357.794,320.413 354.848,324.403 C352.241,328.333 353.102,326.831 352.023,328.762 C350.974,330.379 351.663,329.268 350.109,332.184 C347.904,336.129 348.627,334.548 347.656,336.787 C346.393,339.158 347.324,337.345 345.224,342.395 C344.291,344.548 344.78,343.294 343.854,346.191 L343.455,346.761 L257.397,256.168 L371.96,306.052 L371.562,306.621 z" fill="#FFFFFF"/>
      <path d="M384.674,345.288 C400.678,322.431 432.181,316.876 455.038,332.881 C477.894,348.885 483.449,380.388 467.445,403.245 C451.44,426.102 419.937,431.656 397.081,415.652 C374.224,399.648 368.669,368.145 384.674,345.288 z" fill="#FFFFFF"/>
    </g>
  </g>
  <g id="Adjacent" display="none">
    <path d="M35.902,207.088 L38.871,209.281 C46.427,214.793 54.98,218.459 63.828,221.288 C61.662,232.794 60.89,244.479 60.741,256.166 C60.744,364.778 148.789,452.823 257.395,452.823 C366.007,452.823 454.052,364.778 454.052,256.166 C453.878,247.475 453.953,244.742 452.85,234.626 C452.363,230.166 451.546,225.749 450.894,221.31 C459.944,218.909 468.171,214.421 475.922,209.28 L478.447,207.415 C482.503,223.342 483.761,239.797 484.26,256.166 C484.261,381.462 382.691,483.032 257.395,483.032 C132.105,483.032 30.535,381.462 30.533,256.166 C30.51,242.705 31.748,229.263 34.077,216.009 C34.602,213.019 35.294,210.061 35.902,207.088 z" fill="#FFFFFF"/>
    <path d="M344.237,46.587 C356.519,51.455 368.008,57.933 379.225,64.848 L376.196,66.857 C368.323,72.125 361.926,79.032 356.172,86.468 C344.19,79.666 349.666,82.554 339.845,77.617 C343.06,68.844 344.095,59.548 344.33,50.269 L344.237,46.587 z" fill="#FFFFFF"/>
    <path d="M170.556,46.607 L170.463,50.269 C170.423,57.602 171.449,64.882 173.2,71.995 C173.657,73.849 174.334,75.642 174.901,77.466 C162.112,83.942 167.549,80.927 158.432,86.224 C153.088,78.556 146.066,72.373 138.597,66.857 L135.509,64.81 C146.47,57.389 158.534,52.007 170.556,46.607 z" fill="#FFFFFF"/>
    <g>
      <path d="M233.243,133.71 C235.749,134.49 234.84,134.295 235.913,134.515 C238.323,135.318 240.825,135.747 243.335,136.032 C246.194,136.617 243.879,136.172 250.362,136.829 C251.346,136.941 250.974,136.92 251.474,136.942 C254.407,137.239 252.438,137.077 257.396,137.202 C262.11,137.083 260.386,137.239 262.587,137.016 C264.513,136.947 263.208,137.021 266.488,136.621 C270.984,136.165 269.274,136.479 271.665,135.99 C274.332,135.665 272.313,135.942 277.654,134.765 C279.953,134.295 278.645,134.613 281.55,133.711 L282.245,133.711 L257.397,256.168 L232.548,133.71 L233.243,133.71 z" fill="#FFFFFF"/>
      <path d="M257.397,100.791 C229.494,100.791 206.874,78.172 206.874,50.269 C206.874,22.366 229.494,-0.254 257.397,-0.254 C285.299,-0.254 307.919,22.366 307.919,50.269 C307.919,78.172 285.299,100.791 257.397,100.791 z" fill="#FFFFFF"/>
    </g>
    <g>
      <path d="M143.232,205.715 C145.308,204.108 144.627,204.742 145.422,203.988 C147.463,202.475 149.249,200.672 150.922,198.779 C153.041,196.773 151.349,198.414 155.606,193.48 C156.261,192.739 156.031,193.032 156.336,192.634 C158.261,190.402 156.999,191.922 159.946,187.932 C162.552,184.002 161.691,185.504 162.771,183.574 C163.819,181.956 163.13,183.067 164.684,180.151 C166.89,176.207 166.166,177.787 167.137,175.549 C168.4,173.178 167.469,174.99 169.569,169.94 C170.502,167.788 170.013,169.041 170.939,166.144 L171.338,165.575 L257.397,256.168 L142.833,206.284 L143.232,205.715 z" fill="#FFFFFF"/>
      <path d="M130.12,167.047 C114.115,189.904 82.612,195.459 59.756,179.455 C36.899,163.45 31.344,131.947 47.348,109.09 C63.353,86.234 94.856,80.679 117.713,96.683 C140.569,112.688 146.124,144.191 130.12,167.047 z" fill="#FFFFFF"/>
    </g>
    <g>
      <path d="M343.854,166.144 C344.653,168.644 344.291,167.788 344.727,168.793 C345.451,171.227 346.534,173.523 347.74,175.742 C348.902,178.42 347.938,176.268 351.118,181.956 C351.591,182.825 351.394,182.509 351.664,182.932 C353.102,185.504 352.106,183.798 354.847,187.932 C357.649,191.725 356.532,190.402 357.977,192.077 C359.138,193.615 358.33,192.588 360.538,195.046 C363.49,198.467 362.253,197.246 364.024,198.924 C365.82,200.923 364.435,199.428 368.463,203.128 C370.166,204.741 369.156,203.853 371.561,205.714 L371.96,206.284 L257.397,256.168 L343.455,165.575 L343.854,166.144 z" fill="#FFFFFF"/>
      <path d="M384.674,167.047 C368.669,144.191 374.224,112.688 397.081,96.683 C419.937,80.679 451.44,86.234 467.445,109.09 C483.449,131.947 477.894,163.45 455.038,179.454 C432.181,195.459 400.678,189.904 384.674,167.047 z" fill="#FFFFFF"/>
    </g>
  </g>
  <g id="Adjacent_With_Complement" display="none">
    <path d="M478.892,207.087 C482.659,223.18 484.052,239.676 484.26,256.166 C484.5,347.459 427.856,430.385 344.237,465.75 L344.33,462.067 C344.366,454.734 343.349,447.452 341.593,440.341 C341.123,438.436 340.428,436.593 339.846,434.72 C409.968,401.898 453.076,333.291 454.052,256.166 C454.051,247.796 453.526,239.425 452.472,231.12 C451.975,227.866 451.477,224.611 450.98,221.356 C450.975,221.333 450.971,221.31 450.966,221.287 C459.99,218.889 468.192,214.407 475.922,209.28 L478.892,207.087 z" fill="#FFFFFF"/>
    <path d="M35.902,207.088 L38.871,209.281 C46.427,214.793 54.98,218.458 63.828,221.287 C61.662,232.794 60.89,244.479 60.742,256.166 C60.902,333.769 105.562,401.288 174.948,434.719 C171.733,443.492 170.698,452.788 170.463,462.067 L170.556,465.75 C85.19,430.412 31.697,347.929 30.533,256.166 C30.51,242.705 31.748,229.263 34.077,216.009 C34.602,213.019 35.294,210.061 35.902,207.088 z" fill="#FFFFFF"/>
    <path d="M170.556,46.587 L170.463,50.269 C170.427,57.601 171.444,64.883 173.2,71.995 C173.67,73.9 174.365,75.743 174.948,77.618 C169.318,80.232 163.742,82.998 158.433,86.224 C153.088,78.556 146.066,72.373 138.597,66.857 C135.671,65.039 136.761,65.662 135.385,64.885 C146.485,57.629 158.364,51.744 170.556,46.587 z" fill="#FFFFFF"/>
    <path d="M344.237,46.587 C356.578,51.354 368.032,57.972 379.301,64.82 C377.815,65.712 378.87,65.064 376.196,66.857 C368.423,72.076 362.051,78.869 356.361,86.224 C351.099,82.908 345.434,80.31 339.845,77.617 C343.06,68.844 344.095,59.548 344.33,50.269 L344.237,46.587 z" fill="#FFFFFF"/>
    <g>
      <path d="M281.55,378.625 C279.044,377.846 279.953,378.04 278.88,377.82 C276.47,377.017 273.968,376.588 271.458,376.303 C268.599,375.719 270.914,376.163 264.431,375.506 C263.448,375.394 263.82,375.415 263.319,375.393 C260.386,375.096 262.355,375.259 257.397,375.133 C252.683,375.252 254.407,375.096 252.206,375.319 C250.28,375.388 251.585,375.315 248.305,375.714 C243.809,376.17 245.519,375.857 243.128,376.345 C240.461,376.67 242.48,376.393 237.139,377.57 C234.841,378.04 236.148,377.722 233.243,378.625 L232.548,378.625 L257.397,256.168 L282.245,378.625 L281.55,378.625 z" fill="#FFFFFF"/>
      <path d="M257.397,411.544 C285.299,411.544 307.919,434.164 307.919,462.067 C307.919,489.969 285.299,512.589 257.397,512.589 C229.494,512.589 206.874,489.969 206.874,462.067 C206.874,434.164 229.494,411.544 257.397,411.544 z" fill="#FFFFFF"/>
    </g>
    <g>
      <path d="M233.243,133.71 C235.749,134.49 234.84,134.295 235.913,134.515 C238.323,135.318 240.825,135.747 243.335,136.032 C246.194,136.617 243.879,136.172 250.362,136.829 C251.346,136.941 250.974,136.92 251.474,136.942 C254.407,137.239 252.438,137.077 257.396,137.202 C262.11,137.083 260.386,137.239 262.587,137.016 C264.513,136.947 263.208,137.021 266.488,136.621 C270.984,136.165 269.274,136.479 271.665,135.99 C274.332,135.665 272.313,135.942 277.654,134.765 C279.953,134.295 278.645,134.613 281.55,133.711 L282.245,133.711 L257.397,256.168 L232.548,133.71 L233.243,133.71 z" fill="#FFFFFF"/>
      <path d="M257.397,100.791 C229.494,100.791 206.874,78.172 206.874,50.269 C206.874,22.366 229.494,-0.254 257.397,-0.254 C285.299,-0.254 307.919,22.366 307.919,50.269 C307.919,78.172 285.299,100.791 257.397,100.791 z" fill="#FFFFFF"/>
    </g>
    <g>
      <path d="M143.232,205.715 C145.308,204.108 144.627,204.742 145.422,203.988 C147.463,202.475 149.249,200.672 150.922,198.779 C153.041,196.773 151.349,198.414 155.606,193.48 C156.261,192.739 156.031,193.032 156.336,192.634 C158.261,190.402 156.999,191.922 159.946,187.932 C162.552,184.002 161.691,185.504 162.771,183.574 C163.819,181.956 163.13,183.067 164.684,180.151 C166.89,176.207 166.166,177.787 167.137,175.549 C168.4,173.178 167.469,174.99 169.569,169.94 C170.502,167.788 170.013,169.041 170.939,166.144 L171.338,165.575 L257.397,256.168 L142.833,206.284 L143.232,205.715 z" fill="#FFFFFF"/>
      <path d="M130.12,167.047 C114.115,189.904 82.612,195.459 59.756,179.455 C36.899,163.45 31.344,131.947 47.348,109.09 C63.353,86.234 94.856,80.679 117.713,96.683 C140.569,112.688 146.124,144.191 130.12,167.047 z" fill="#FFFFFF"/>
    </g>
    <g>
      <path d="M343.854,166.144 C344.653,168.644 344.291,167.788 344.727,168.793 C345.451,171.227 346.534,173.523 347.74,175.742 C348.902,178.42 347.938,176.268 351.118,181.956 C351.591,182.825 351.394,182.509 351.664,182.932 C353.102,185.504 352.106,183.798 354.847,187.932 C357.649,191.725 356.532,190.402 357.977,192.077 C359.138,193.615 358.33,192.588 360.538,195.046 C363.49,198.467 362.253,197.246 364.024,198.924 C365.82,200.923 364.435,199.428 368.463,203.128 C370.166,204.741 369.156,203.853 371.561,205.714 L371.96,206.284 L257.397,256.168 L343.455,165.575 L343.854,166.144 z" fill="#FFFFFF"/>
      <path d="M384.674,167.047 C368.669,144.191 374.224,112.688 397.081,96.683 C419.937,80.679 451.44,86.234 467.445,109.09 C483.449,131.947 477.894,163.45 455.038,179.454 C432.181,195.459 400.678,189.904 384.674,167.047 z" fill="#FFFFFF"/>
    </g>
  </g>
  <g id="Tetrad">
    <path d="M158.431,426.113 C188.2,444.05 222.857,452.386 257.395,452.823 C291.795,452.52 326.779,444.087 356.362,426.113 C361.706,433.781 368.728,439.962 376.196,445.478 L379.286,447.527 C342.829,470.964 300.556,482.486 257.395,483.032 C212.554,483.027 173.585,470.663 135.508,447.527 L138.597,445.478 C146.37,440.26 152.741,433.466 158.431,426.113 z" fill="#FFFFFF"/>
    <path d="M36.005,207.164 L38.871,209.281 C46.427,214.793 54.98,218.458 63.828,221.287 C61.662,232.794 60.89,244.479 60.741,256.166 C60.742,264.537 61.268,272.908 62.322,281.213 C62.819,284.468 63.316,287.723 63.814,290.978 C63.818,291.001 63.823,291.025 63.828,291.048 C54.804,293.446 46.601,297.928 38.871,303.055 L35.902,305.247 C32.135,289.154 30.742,272.657 30.533,256.166 C30.559,242.653 31.844,229.163 34.207,215.861 C34.725,212.947 35.406,210.063 36.005,207.164 z" fill="#FFFFFF"/>
    <path d="M257.395,29.304 L265.735,29.449 C307.218,30.759 343.826,43.928 379.284,64.809 L376.196,66.857 C368.423,72.076 362.051,78.869 356.361,86.224 C326.592,68.287 291.934,59.95 257.395,59.513 C222.996,59.816 188.014,68.251 158.432,86.224 C153.088,78.556 146.066,72.373 138.597,66.857 L135.981,65.123 C172.343,41.888 214.446,30.374 257.395,29.304 z" fill="#FFFFFF"/>
    <path d="M478.892,207.087 C482.659,223.18 484.052,239.676 484.26,256.166 C484.284,269.628 483.045,283.07 480.717,296.326 C480.192,299.316 479.5,302.274 478.892,305.248 L475.922,303.055 C468.367,297.542 459.814,293.877 450.966,291.048 C453.132,279.54 453.904,267.855 454.052,256.166 C454.051,247.796 453.526,239.425 452.472,231.121 C451.975,227.866 451.477,224.611 450.98,221.356 C450.975,221.333 450.971,221.31 450.966,221.287 C459.99,218.889 468.192,214.407 475.922,209.28 L478.892,207.087 z" fill="#FFFFFF"/>
    <g>
      <path d="M143.232,205.715 C145.308,204.108 144.627,204.742 145.422,203.988 C147.463,202.475 149.249,200.672 150.922,198.779 C153.041,196.773 151.349,198.414 155.606,193.48 C156.261,192.739 156.031,193.032 156.336,192.634 C158.261,190.402 156.999,191.922 159.946,187.932 C162.552,184.002 161.691,185.504 162.771,183.574 C163.819,181.956 163.13,183.067 164.684,180.151 C166.89,176.207 166.166,177.787 167.137,175.549 C168.4,173.178 167.469,174.99 169.569,169.94 C170.502,167.788 170.013,169.041 170.939,166.144 L171.338,165.575 L257.397,256.168 L142.833,206.284 L143.232,205.715 z" fill="#FFFFFF"/>
      <path d="M130.12,167.047 C114.115,189.904 82.612,195.459 59.756,179.455 C36.899,163.45 31.344,131.947 47.348,109.09 C63.353,86.234 94.856,80.679 117.713,96.683 C140.569,112.688 146.124,144.191 130.12,167.047 z" fill="#FFFFFF"/>
    </g>
    <g>
      <path d="M343.854,166.144 C344.653,168.644 344.291,167.788 344.727,168.793 C345.451,171.227 346.534,173.523 347.74,175.742 C348.902,178.42 347.938,176.268 351.118,181.956 C351.591,182.825 351.394,182.509 351.664,182.932 C353.102,185.504 352.106,183.798 354.847,187.932 C357.649,191.725 356.532,190.402 357.977,192.077 C359.138,193.615 358.33,192.588 360.538,195.046 C363.49,198.467 362.253,197.246 364.024,198.924 C365.82,200.923 364.435,199.428 368.463,203.128 C370.166,204.741 369.156,203.853 371.561,205.714 L371.96,206.284 L257.397,256.168 L343.455,165.575 L343.854,166.144 z" fill="#FFFFFF"/>
      <path d="M384.674,167.047 C368.669,144.191 374.224,112.688 397.081,96.683 C419.937,80.679 451.44,86.234 467.445,109.09 C483.449,131.947 477.894,163.45 455.038,179.454 C432.181,195.459 400.678,189.904 384.674,167.047 z" fill="#FFFFFF"/>
    </g>
    <g>
      <path d="M170.939,346.192 C170.14,343.692 170.502,344.548 170.067,343.543 C169.343,341.108 168.259,338.813 167.053,336.593 C165.892,333.916 166.855,336.067 163.675,330.379 C163.202,329.51 163.399,329.827 163.13,329.404 C161.691,326.831 162.687,328.538 159.946,324.404 C157.144,320.611 158.262,321.933 156.816,320.258 C155.655,318.72 156.464,319.747 154.255,317.29 C151.303,313.868 152.54,315.089 150.769,313.411 C148.973,311.413 150.358,312.907 146.33,309.207 C144.627,307.594 145.637,308.482 143.232,306.621 L142.833,306.052 L257.397,256.168 L171.338,346.761 L170.939,346.192 z" fill="#FFFFFF"/>
      <path d="M130.12,345.288 C146.124,368.145 140.569,399.648 117.713,415.652 C94.856,431.656 63.353,426.102 47.348,403.245 C31.344,380.388 36.899,348.885 59.756,332.881 C82.612,316.877 114.115,322.431 130.12,345.288 z" fill="#FFFFFF"/>
    </g>
    <g>
      <path d="M371.562,306.621 C369.486,308.227 370.166,307.594 369.371,308.347 C367.33,309.86 365.544,311.663 363.871,313.556 C361.752,315.563 363.444,313.921 359.187,318.855 C358.532,319.597 358.763,319.304 358.457,319.701 C356.532,321.933 357.794,320.413 354.848,324.403 C352.241,328.333 353.102,326.831 352.023,328.762 C350.974,330.379 351.663,329.268 350.109,332.184 C347.904,336.129 348.627,334.548 347.656,336.787 C346.393,339.158 347.324,337.345 345.224,342.395 C344.291,344.548 344.78,343.294 343.854,346.191 L343.455,346.761 L257.397,256.168 L371.96,306.052 L371.562,306.621 z" fill="#FFFFFF"/>
      <path d="M384.674,345.288 C400.678,322.431 432.181,316.876 455.038,332.881 C477.894,348.885 483.449,380.388 467.445,403.245 C451.44,426.102 419.937,431.656 397.081,415.652 C374.224,399.648 368.669,368.145 384.674,345.288 z" fill="#FFFFFF"/>
    </g>
  </g>
</svg>
