<svg xmlns="http://www.w3.org/2000/svg" viewBox="0 0 16 16" enable-background="new 0 0 16 16"><path fill="#738596" d="M14.759 13.345l-3.729-3.729c.611-.886.97-1.959.97-3.116 0-3.038-2.462-5.5-5.5-5.5s-5.5 2.462-5.5 5.5 2.462 5.5 5.5 5.5c1.157 0 2.23-.359 3.116-.97l3.729 3.729c.195.195.451.293.707.293s.512-.098.707-.293c.39-.391.39-1.024 0-1.414z"/><path opacity=".12" d="M6.5 1.25c2.895 0 5.25 2.355 5.25 5.25 0 1.067-.32 2.095-.926 2.974l-.118.171.147.147 3.729 3.729c.142.142.22.33.22.53s-.078.389-.22.53c-.142.142-.33.22-.53.22s-.389-.078-.53-.22l-3.729-3.729-.147-.147-.171.118c-.88.607-1.908.927-2.975.927-2.895 0-5.25-2.355-5.25-5.25s2.355-5.25 5.25-5.25m0-.25c-3.038 0-5.5 2.462-5.5 5.5s2.462 5.5 5.5 5.5c1.157 0 2.23-.359 3.116-.97l3.729 3.729c.195.195.451.293.707.293.256 0 .512-.098.707-.293.391-.391.391-1.023 0-1.414l-3.729-3.729c.611-.886.97-1.959.97-3.116 0-3.038-2.462-5.5-5.5-5.5z"/><path fill="#fff" d="M6.5 2.4c2.261 0 4.1 1.839 4.1 4.1s-1.839 4.1-4.1 4.1-4.1-1.839-4.1-4.1 1.839-4.1 4.1-4.1"/></svg>