<svg xmlns="http://www.w3.org/2000/svg" viewBox="0 0 16 16" enable-background="new 0 0 16 16"><path fill="#FFBE2A" d="M13.205 5.628l-7.071 7.071-2.828-2.828 7.071-7.071z"/><path fill="#FFE5AA" d="M.445 14.898l1.929-3.872c.123-.246.382-.607.577-.801l.355-.355 2.828 2.828-.355.355c-.194.194-.555.454-.801.577l-3.872 1.93-.661-.662z"/><path fill="#3D566E" d="M1.106 15.56l1.489-.742-1.414-1.414-.745 1.485c-.215.429.24.885.67.671z"/><path fill="#F9513B" d="M11.083 2.093l2.828 2.828 1.414-1.414c.391-.391.391-1.024 0-1.414l-1.414-1.414c-.391-.391-1.024-.391-1.414 0l-1.414 1.414z"/><path fill="#F2F3F4" d="M11.084 2.092l2.828 2.828-.707.707-2.828-2.828z"/><path d="M13.205.636c.2 0 .389.078.53.22l1.414 1.414c.142.142.22.33.22.53s-.078.389-.22.53l-9.192 9.192-.355.355c-.176.176-.513.419-.736.53l-3.872 1.929-.114.028c-.084 0-.166-.048-.213-.124-.026-.043-.062-.131-.007-.24l.589-1.175.007.007.155-.311 1.187-2.383c.111-.223.354-.56.53-.736l9.547-9.547c.141-.141.329-.219.53-.219m0-.25c-.256 0-.512.098-.707.293l-9.547 9.547c-.194.194-.454.555-.577.801l-1.187 2.383-.006-.006-.745 1.485c-.178.354.101.726.445.726.073 0 .15-.017.225-.055l3.872-1.929c.246-.123.607-.382.801-.577l.355-.355 9.192-9.192c.391-.391.391-1.024 0-1.414l-1.414-1.414c-.195-.196-.451-.293-.707-.293z" opacity=".16"/></svg>