<?xml version="1.0" encoding="utf-8"?>
<!-- Generator: Adobe Illustrator 17.1.0, SVG Export Plug-In . SVG Version: 6.00 Build 0)  -->
<!DOCTYPE svg PUBLIC "-//W3C//DTD SVG 1.1//EN" "http://www.w3.org/Graphics/SVG/1.1/DTD/svg11.dtd">
<svg version="1.1" xmlns="http://www.w3.org/2000/svg" xmlns:xlink="http://www.w3.org/1999/xlink" x="0px" y="0px"
	 viewBox="0 0 64 64" enable-background="new 0 0 64 64" xml:space="preserve">
<symbol  id="gauge-blank" viewBox="-28 -28 56 56">
	<g>
		<path fill="#CCCCCC" d="M0-28c15.464,0,28,12.536,28,28S15.464,28,0,28S-28,15.464-28,0S-15.464-28,0-28z"/>
	</g>
	<g>
		<path fill="#FFFFFF" d="M0-24c13.255,0,24,10.745,24,24S13.255,24,0,24S-24,13.255-24,0S-13.255-24,0-24z"/>
	</g>
	<g>
		<path fill="#FFFFFF" d="M14.107,19.416c-10.723,7.791-25.732,5.414-33.523-5.31s-5.414-25.732,5.31-33.523
			s25.732-5.414,33.523,5.31S24.83,11.625,14.107,19.416z"/>
	</g>
	<g>
		<path fill="#F3F3F3" d="M0,22c12.919,0,23.45-10.209,23.975-23C23.988-0.668,24-0.335,24,0c0,13.255-10.745,24-24,24
			S-24,13.255-24,0c0-0.335,0.012-0.668,0.025-1C-23.45,11.791-12.919,22,0,22z"/>
	</g>
	<g>
		<g>
			<path fill="#FAAB67" d="M-13.326,8.849C-10.634,12.896-6.146,15.631-1,15.95v4c-6.625-0.328-12.396-3.863-15.788-9.102
				L-13.326,8.849z"/>
		</g>
	</g>
	<g>
		<g>
			<path fill="#24CB7F" d="M-16,0c0,1.376,0.192,2.704,0.519,3.979l-3.808,1.237C-19.738,3.55-20,1.808-20,0
				c0-6.293,2.912-11.899,7.455-15.565l2.35,3.235C-13.74-9.396-16-4.962-16,0z"/>
		</g>
		<g opacity="0.05">
			<g>
				<path d="M-19.289,4.216l3.597-1.169c0.062,0.313,0.132,0.624,0.211,0.931l-3.808,1.237C-19.738,3.55-20,1.808-20,0
					c0-0.186,0.011-0.368,0.016-0.553C-19.945,1.094-19.701,2.689-19.289,4.216z"/>
			</g>
			<g>
				<path d="M-16-1c0-4.749,2.084-8.999,5.37-11.929l0.435,0.599c-3.454,2.859-5.671,7.146-5.784,11.953
					C-15.987-0.584-16-0.791-16-1z"/>
			</g>
		</g>
		<g>
			<path fill="#FFBE2A" d="M-14.869,5.883C-12.641,11.509-7.321,15.558-1,15.95v4c-8.097-0.401-14.914-5.603-17.672-12.831
				L-14.869,5.883z"/>
		</g>
		<g opacity="0.05">
			<path d="M-18.672,7.118l0.372-0.121C-15.339,13.762-8.763,18.565-1,18.95v1C-9.097,19.548-15.914,14.347-18.672,7.118z"/>
		</g>
	</g>
	<g>
		<g>
			<path fill="#ED1E24" d="M16,0c0,1.376-0.192,2.704-0.519,3.979l3.808,1.237C19.738,3.55,20,1.808,20,0
				c0-6.293-2.912-11.899-7.455-15.565l-2.35,3.235C13.74-9.396,16-4.962,16,0z"/>
		</g>
		<g opacity="0.05">
			<g>
				<path d="M19.289,4.216c0.412-1.527,0.656-3.121,0.695-4.769C19.989-0.368,20-0.186,20,0c0,1.808-0.262,3.55-0.711,5.216
					l-3.808-1.237c0.079-0.307,0.149-0.618,0.211-0.931L19.289,4.216z"/>
			</g>
			<g>
				<path d="M16-1c0,0.209-0.013,0.416-0.021,0.623c-0.113-4.807-2.329-9.094-5.784-11.953l0.435-0.599C13.916-9.999,16-5.749,16-1z
					"/>
			</g>
		</g>
		<g>
			<path fill="#F47721" d="M14.869,5.883C12.641,11.509,7.321,15.558,1,15.95v4c8.097-0.401,14.914-5.603,17.672-12.831
				L14.869,5.883z"/>
		</g>
		<g opacity="0.05">
			<path d="M18.3,6.997l0.372,0.121C15.914,14.347,9.097,19.548,1,19.95v-1C8.763,18.565,15.339,13.762,18.3,6.997z"/>
		</g>
	</g>
	<path fill="#807F7F" d="M0,13.254"/>
	<path fill="#D9D9D8" d="M5-18c0-1.1-0.9-2-2-2h-6c-1.1,0-2,0.9-2,2v1c0,1.1,0.9,2,2,2h6c1.1,0,2-0.9,2-2V-18z"/>
	<path opacity="0.05" d="M3-15h-6c-1.1,0-2-0.9-2-2v-1c0,1.1,0.9,2,2,2h6c1.1,0,2-0.9,2-2v1C5-15.9,4.1-15,3-15z"/>
</symbol>
<symbol  id="gauge-blank_2" viewBox="-28 -28 56 56">
	<g>
		<path fill="#CCCCCC" d="M0-28c15.464,0,28,12.536,28,28S15.464,28,0,28S-28,15.464-28,0S-15.464-28,0-28z"/>
	</g>
	<g>
		<path fill="#FFFFFF" d="M0-24c13.255,0,24,10.745,24,24S13.255,24,0,24S-24,13.255-24,0S-13.255-24,0-24z"/>
	</g>
	<g>
		<path fill="#FFFFFF" d="M14.107,19.416c-10.723,7.791-25.732,5.414-33.523-5.31s-5.414-25.732,5.31-33.523
			s25.732-5.414,33.523,5.31S24.83,11.625,14.107,19.416z"/>
	</g>
	<g>
		<path fill="#F3F3F3" d="M0,22c12.919,0,23.45-10.209,23.975-23C23.988-0.668,24-0.335,24,0c0,13.255-10.745,24-24,24
			S-24,13.255-24,0c0-0.335,0.012-0.668,0.025-1C-23.45,11.791-12.919,22,0,22z"/>
	</g>
	<g>
		<g>
			<path fill="#FAAB67" d="M-13.326,8.849C-10.634,12.896-6.146,15.631-1,15.95v4c-6.625-0.328-12.396-3.863-15.788-9.102
				L-13.326,8.849z"/>
		</g>
	</g>
	<g>
		<g>
			<path fill="#24CB7F" d="M-16,0c0,1.376,0.192,2.704,0.519,3.979l-3.808,1.237C-19.738,3.55-20,1.808-20,0
				c0-6.293,2.912-11.899,7.455-15.565l2.35,3.235C-13.74-9.396-16-4.962-16,0z"/>
		</g>
		<g opacity="0.05">
			<g>
				<path d="M-19.289,4.216l3.597-1.169c0.062,0.313,0.132,0.624,0.211,0.931l-3.808,1.237C-19.738,3.55-20,1.808-20,0
					c0-0.186,0.011-0.368,0.016-0.553C-19.945,1.094-19.701,2.689-19.289,4.216z"/>
			</g>
			<g>
				<path d="M-16-1c0-4.749,2.084-8.999,5.37-11.929l0.435,0.599c-3.454,2.859-5.671,7.146-5.784,11.953
					C-15.987-0.584-16-0.791-16-1z"/>
			</g>
		</g>
		<g>
			<path fill="#FFBE2A" d="M-14.869,5.883C-12.641,11.509-7.321,15.558-1,15.95v4c-8.097-0.401-14.914-5.603-17.672-12.831
				L-14.869,5.883z"/>
		</g>
		<g opacity="0.05">
			<path d="M-18.672,7.118l0.372-0.121C-15.339,13.762-8.763,18.565-1,18.95v1C-9.097,19.548-15.914,14.347-18.672,7.118z"/>
		</g>
	</g>
	<g>
		<g>
			<path fill="#ED1E24" d="M16,0c0,1.376-0.192,2.704-0.519,3.979l3.808,1.237C19.738,3.55,20,1.808,20,0
				c0-6.293-2.912-11.899-7.455-15.565l-2.35,3.235C13.74-9.396,16-4.962,16,0z"/>
		</g>
		<g opacity="0.05">
			<g>
				<path d="M19.289,4.216c0.412-1.527,0.656-3.121,0.695-4.769C19.989-0.368,20-0.186,20,0c0,1.808-0.262,3.55-0.711,5.216
					l-3.808-1.237c0.079-0.307,0.149-0.618,0.211-0.931L19.289,4.216z"/>
			</g>
			<g>
				<path d="M16-1c0,0.209-0.013,0.416-0.021,0.623c-0.113-4.807-2.329-9.094-5.784-11.953l0.435-0.599C13.916-9.999,16-5.749,16-1z
					"/>
			</g>
		</g>
		<g>
			<path fill="#F47721" d="M14.869,5.883C12.641,11.509,7.321,15.558,1,15.95v4c8.097-0.401,14.914-5.603,17.672-12.831
				L14.869,5.883z"/>
		</g>
		<g opacity="0.05">
			<path d="M18.3,6.997l0.372,0.121C15.914,14.347,9.097,19.548,1,19.95v-1C8.763,18.565,15.339,13.762,18.3,6.997z"/>
		</g>
	</g>
	<path fill="#807F7F" d="M0,13.254"/>
	<path fill="#D9D9D8" d="M5-18c0-1.1-0.9-2-2-2h-6c-1.1,0-2,0.9-2,2v1c0,1.1,0.9,2,2,2h6c1.1,0,2-0.9,2-2V-18z"/>
	<path opacity="0.05" d="M3-15h-6c-1.1,0-2-0.9-2-2v-1c0,1.1,0.9,2,2,2h6c1.1,0,2-0.9,2-2v1C5-15.9,4.1-15,3-15z"/>
</symbol>
<g id="bkgd" display="none">
	<rect display="inline" fill="#24CB7F" width="64" height="64"/>
	<rect display="inline" fill="#3D566E" width="64" height="64"/>
</g>
<g id="icons">
	<path opacity="0.1" d="M43.644,32.656C48.398,31.447,52,27.09,52,22h-2c0,4.254-2.899,7.774-6.842,8.733
		c-1.269-4.023-3.885-7.186-7.158-8.634v-2.938c0-0.358,0.193-0.69,0.504-0.868l5.992-3.424l-0.992-1.736l-5.992,3.424
		C34.579,17.089,34,18.087,34,19.161v2.291c-0.652-0.137-1.317-0.225-2-0.225s-1.348,0.088-2,0.225v-2.291
		c0-1.074-0.579-2.072-1.512-2.604l-5.992-3.424l-0.992,1.736l5.992,3.424C27.807,18.47,28,18.803,28,19.161v2.938
		c-3.272,1.448-5.889,4.611-7.158,8.634C16.899,29.774,14,26.254,14,22h-2c0,5.09,3.602,9.447,8.356,10.656
		c-0.21,1.075-0.333,2.192-0.347,3.344H12v2h8.091c0.143,1.517,0.467,2.963,0.945,4.306C15.948,43.233,12,47.67,12,53h2
		c0-4.608,3.401-8.257,7.848-8.802c2.124,4.217,5.871,7.029,10.152,7.029s8.029-2.811,10.152-7.029C46.599,44.743,50,48.392,50,53h2
		c0-5.33-3.948-9.767-9.036-10.694c0.478-1.344,0.801-2.789,0.945-4.306H52v-2h-8.009C43.977,34.848,43.854,33.731,43.644,32.656z"
		/>
	<g>
		<path fill="#FFFFFF" d="M14,52h-2c0-6,5-10.88,11-10.88v2C18,43.12,14,47,14,52z"/>
		<path fill="#FFFFFF" d="M14,21h-2c0,6,5,11,11,11v-2C18,30,14,26,14,21z"/>
		<path fill="#FFFFFF" d="M50,52h2c0-6-5-10.88-11-10.88v2C46,43.12,50,47,50,52z"/>
		<path fill="#FFFFFF" d="M50,21h2c0,6-5,11-11,11v-2C46,30,50,26,50,21z"/>
		<rect x="12" y="35" fill="#FFFFFF" width="40" height="2"/>
		<ellipse fill="#D7DBDD" cx="32" cy="35.227" rx="12" ry="15"/>
		<path fill="#FFFFFF" d="M30,22h-2v-3.839c0-0.358-0.193-0.69-0.504-0.868l-5.992-3.424l0.992-1.736l5.992,3.424
			C29.421,16.089,30,17.087,30,18.161V22z"/>
		<path fill="#FFFFFF" d="M36,22h-2v-3.839c0-1.074,0.579-2.072,1.512-2.604l5.992-3.424l0.992,1.736l-5.992,3.424
			C36.193,17.47,36,17.803,36,18.161V22z"/>
		<path fill="#FFFFFF" d="M32,32.607l10.006-5.653C39.857,22.902,36.18,20.227,32,20.227s-7.857,2.675-10.006,6.727L32,32.607z"/>
		<path fill="#FFFFFF" d="M26.958,48.824c1.535,0.891,3.239,1.402,5.042,1.402s3.508-0.511,5.042-1.402L32,40L26.958,48.824z"/>
	</g>
</g>
</svg>
