<?xml version="1.0" encoding="utf-8"?>
<!-- Generator: Adobe Illustrator 17.1.0, SVG Export Plug-In . SVG Version: 6.00 Build 0)  -->
<!DOCTYPE svg PUBLIC "-//W3C//DTD SVG 1.1//EN" "http://www.w3.org/Graphics/SVG/1.1/DTD/svg11.dtd">
<svg version="1.1" xmlns="http://www.w3.org/2000/svg" xmlns:xlink="http://www.w3.org/1999/xlink" x="0px" y="0px"
	 viewBox="0 0 64 64" enable-background="new 0 0 64 64" xml:space="preserve">
<symbol  id="gauge-blank" viewBox="-28 -28 56 56">
	<g>
		<path fill="#CCCCCC" d="M0-28c15.464,0,28,12.536,28,28S15.464,28,0,28S-28,15.464-28,0S-15.464-28,0-28z"/>
	</g>
	<g>
		<path fill="#FFFFFF" d="M0-24c13.255,0,24,10.745,24,24S13.255,24,0,24S-24,13.255-24,0S-13.255-24,0-24z"/>
	</g>
	<g>
		<path fill="#FFFFFF" d="M14.107,19.416c-10.723,7.791-25.732,5.414-33.523-5.31s-5.414-25.732,5.31-33.523
			s25.732-5.414,33.523,5.31S24.83,11.625,14.107,19.416z"/>
	</g>
	<g>
		<path fill="#F3F3F3" d="M0,22c12.919,0,23.45-10.209,23.975-23C23.988-0.668,24-0.335,24,0c0,13.255-10.745,24-24,24
			S-24,13.255-24,0c0-0.335,0.012-0.668,0.025-1C-23.45,11.791-12.919,22,0,22z"/>
	</g>
	<g>
		<g>
			<path fill="#FAAB67" d="M-13.326,8.849C-10.634,12.896-6.146,15.631-1,15.95v4c-6.625-0.328-12.396-3.863-15.788-9.102
				L-13.326,8.849z"/>
		</g>
	</g>
	<g>
		<g>
			<path fill="#24CB7F" d="M-16,0c0,1.376,0.192,2.704,0.519,3.979l-3.808,1.237C-19.738,3.55-20,1.808-20,0
				c0-6.293,2.912-11.899,7.455-15.565l2.35,3.235C-13.74-9.396-16-4.962-16,0z"/>
		</g>
		<g opacity="0.05">
			<g>
				<path d="M-19.289,4.216l3.597-1.169c0.062,0.313,0.132,0.624,0.211,0.931l-3.808,1.237C-19.738,3.55-20,1.808-20,0
					c0-0.186,0.011-0.368,0.016-0.553C-19.945,1.094-19.701,2.689-19.289,4.216z"/>
			</g>
			<g>
				<path d="M-16-1c0-4.749,2.084-8.999,5.37-11.929l0.435,0.599c-3.454,2.859-5.671,7.146-5.784,11.953
					C-15.987-0.584-16-0.791-16-1z"/>
			</g>
		</g>
		<g>
			<path fill="#FFBE2A" d="M-14.869,5.883C-12.641,11.509-7.321,15.558-1,15.95v4c-8.097-0.401-14.914-5.603-17.672-12.831
				L-14.869,5.883z"/>
		</g>
		<g opacity="0.05">
			<path d="M-18.672,7.118l0.372-0.121C-15.339,13.762-8.763,18.565-1,18.95v1C-9.097,19.548-15.914,14.347-18.672,7.118z"/>
		</g>
	</g>
	<g>
		<g>
			<path fill="#ED1E24" d="M16,0c0,1.376-0.192,2.704-0.519,3.979l3.808,1.237C19.738,3.55,20,1.808,20,0
				c0-6.293-2.912-11.899-7.455-15.565l-2.35,3.235C13.74-9.396,16-4.962,16,0z"/>
		</g>
		<g opacity="0.05">
			<g>
				<path d="M19.289,4.216c0.412-1.527,0.656-3.121,0.695-4.769C19.989-0.368,20-0.186,20,0c0,1.808-0.262,3.55-0.711,5.216
					l-3.808-1.237c0.079-0.307,0.149-0.618,0.211-0.931L19.289,4.216z"/>
			</g>
			<g>
				<path d="M16-1c0,0.209-0.013,0.416-0.021,0.623c-0.113-4.807-2.329-9.094-5.784-11.953l0.435-0.599C13.916-9.999,16-5.749,16-1z
					"/>
			</g>
		</g>
		<g>
			<path fill="#F47721" d="M14.869,5.883C12.641,11.509,7.321,15.558,1,15.95v4c8.097-0.401,14.914-5.603,17.672-12.831
				L14.869,5.883z"/>
		</g>
		<g opacity="0.05">
			<path d="M18.3,6.997l0.372,0.121C15.914,14.347,9.097,19.548,1,19.95v-1C8.763,18.565,15.339,13.762,18.3,6.997z"/>
		</g>
	</g>
	<path fill="#807F7F" d="M0,13.254"/>
	<path fill="#D9D9D8" d="M5-18c0-1.1-0.9-2-2-2h-6c-1.1,0-2,0.9-2,2v1c0,1.1,0.9,2,2,2h6c1.1,0,2-0.9,2-2V-18z"/>
	<path opacity="0.05" d="M3-15h-6c-1.1,0-2-0.9-2-2v-1c0,1.1,0.9,2,2,2h6c1.1,0,2-0.9,2-2v1C5-15.9,4.1-15,3-15z"/>
</symbol>
<symbol  id="gauge-blank_2" viewBox="-28 -28 56 56">
	<g>
		<path fill="#CCCCCC" d="M0-28c15.464,0,28,12.536,28,28S15.464,28,0,28S-28,15.464-28,0S-15.464-28,0-28z"/>
	</g>
	<g>
		<path fill="#FFFFFF" d="M0-24c13.255,0,24,10.745,24,24S13.255,24,0,24S-24,13.255-24,0S-13.255-24,0-24z"/>
	</g>
	<g>
		<path fill="#FFFFFF" d="M14.107,19.416c-10.723,7.791-25.732,5.414-33.523-5.31s-5.414-25.732,5.31-33.523
			s25.732-5.414,33.523,5.31S24.83,11.625,14.107,19.416z"/>
	</g>
	<g>
		<path fill="#F3F3F3" d="M0,22c12.919,0,23.45-10.209,23.975-23C23.988-0.668,24-0.335,24,0c0,13.255-10.745,24-24,24
			S-24,13.255-24,0c0-0.335,0.012-0.668,0.025-1C-23.45,11.791-12.919,22,0,22z"/>
	</g>
	<g>
		<g>
			<path fill="#FAAB67" d="M-13.326,8.849C-10.634,12.896-6.146,15.631-1,15.95v4c-6.625-0.328-12.396-3.863-15.788-9.102
				L-13.326,8.849z"/>
		</g>
	</g>
	<g>
		<g>
			<path fill="#24CB7F" d="M-16,0c0,1.376,0.192,2.704,0.519,3.979l-3.808,1.237C-19.738,3.55-20,1.808-20,0
				c0-6.293,2.912-11.899,7.455-15.565l2.35,3.235C-13.74-9.396-16-4.962-16,0z"/>
		</g>
		<g opacity="0.05">
			<g>
				<path d="M-19.289,4.216l3.597-1.169c0.062,0.313,0.132,0.624,0.211,0.931l-3.808,1.237C-19.738,3.55-20,1.808-20,0
					c0-0.186,0.011-0.368,0.016-0.553C-19.945,1.094-19.701,2.689-19.289,4.216z"/>
			</g>
			<g>
				<path d="M-16-1c0-4.749,2.084-8.999,5.37-11.929l0.435,0.599c-3.454,2.859-5.671,7.146-5.784,11.953
					C-15.987-0.584-16-0.791-16-1z"/>
			</g>
		</g>
		<g>
			<path fill="#FFBE2A" d="M-14.869,5.883C-12.641,11.509-7.321,15.558-1,15.95v4c-8.097-0.401-14.914-5.603-17.672-12.831
				L-14.869,5.883z"/>
		</g>
		<g opacity="0.05">
			<path d="M-18.672,7.118l0.372-0.121C-15.339,13.762-8.763,18.565-1,18.95v1C-9.097,19.548-15.914,14.347-18.672,7.118z"/>
		</g>
	</g>
	<g>
		<g>
			<path fill="#ED1E24" d="M16,0c0,1.376-0.192,2.704-0.519,3.979l3.808,1.237C19.738,3.55,20,1.808,20,0
				c0-6.293-2.912-11.899-7.455-15.565l-2.35,3.235C13.74-9.396,16-4.962,16,0z"/>
		</g>
		<g opacity="0.05">
			<g>
				<path d="M19.289,4.216c0.412-1.527,0.656-3.121,0.695-4.769C19.989-0.368,20-0.186,20,0c0,1.808-0.262,3.55-0.711,5.216
					l-3.808-1.237c0.079-0.307,0.149-0.618,0.211-0.931L19.289,4.216z"/>
			</g>
			<g>
				<path d="M16-1c0,0.209-0.013,0.416-0.021,0.623c-0.113-4.807-2.329-9.094-5.784-11.953l0.435-0.599C13.916-9.999,16-5.749,16-1z
					"/>
			</g>
		</g>
		<g>
			<path fill="#F47721" d="M14.869,5.883C12.641,11.509,7.321,15.558,1,15.95v4c8.097-0.401,14.914-5.603,17.672-12.831
				L14.869,5.883z"/>
		</g>
		<g opacity="0.05">
			<path d="M18.3,6.997l0.372,0.121C15.914,14.347,9.097,19.548,1,19.95v-1C8.763,18.565,15.339,13.762,18.3,6.997z"/>
		</g>
	</g>
	<path fill="#807F7F" d="M0,13.254"/>
	<path fill="#D9D9D8" d="M5-18c0-1.1-0.9-2-2-2h-6c-1.1,0-2,0.9-2,2v1c0,1.1,0.9,2,2,2h6c1.1,0,2-0.9,2-2V-18z"/>
	<path opacity="0.05" d="M3-15h-6c-1.1,0-2-0.9-2-2v-1c0,1.1,0.9,2,2,2h6c1.1,0,2-0.9,2-2v1C5-15.9,4.1-15,3-15z"/>
</symbol>
<g id="bkgd" display="none">
	<rect display="inline" fill="#FFBE2A" width="64" height="64"/>
</g>
<g id="icons">
	<path opacity="0.1" d="M50.179,24.698C51.307,23.455,52,21.81,52,20c0-3.866-3.134-7-7-7c-1.81,0-3.455,0.693-4.698,1.821
		C37.771,13.663,34.966,13,32,13s-5.771,0.663-8.302,1.821C22.455,13.693,20.81,13,19,13c-3.866,0-7,3.134-7,7
		c0,1.81,0.693,3.455,1.821,4.698C12.663,27.229,12,30.034,12,33s0.663,5.771,1.821,8.302C12.693,42.545,12,44.19,12,46
		c0,3.866,3.134,7,7,7c1.81,0,3.455-0.693,4.698-1.821C26.229,52.337,29.034,53,32,53s5.771-0.663,8.302-1.821
		C41.545,52.307,43.19,53,45,53c3.866,0,7-3.134,7-7c0-1.81-0.693-3.455-1.821-4.698C51.337,38.771,52,35.966,52,33
		S51.337,27.229,50.179,24.698z M45,15c2.757,0,5,2.243,5,5c0,1.023-0.311,1.973-0.84,2.766c-1.701-2.845-4.081-5.225-6.926-6.926
		C43.027,15.311,43.977,15,45,15z M14,20c0-2.757,2.243-5,5-5c1.023,0,1.973,0.311,2.766,0.84c-2.845,1.701-5.225,4.081-6.926,6.926
		C14.311,21.973,14,21.023,14,20z M19,51c-2.757,0-5-2.243-5-5c0-1.023,0.311-1.973,0.84-2.766c1.701,2.845,4.081,5.225,6.926,6.926
		C20.973,50.689,20.023,51,19,51z M22,33c0-5.523,4.477-10,10-10s10,4.477,10,10s-4.477,10-10,10S22,38.523,22,33z M50,46
		c0,2.757-2.243,5-5,5c-1.023,0-1.973-0.311-2.766-0.84c2.845-1.701,5.225-4.081,6.926-6.926C49.689,44.027,50,44.977,50,46z"/>
	<path fill="#FFFFFF" d="M19,14c2.757,0,5,2.243,5,5s-2.243,5-5,5s-5-2.243-5-5S16.243,14,19,14 M19,12c-3.866,0-7,3.134-7,7
		s3.134,7,7,7s7-3.134,7-7S22.866,12,19,12L19,12z"/>
	<g>
		<path fill="#FFFFFF" d="M45,14c2.757,0,5,2.243,5,5s-2.243,5-5,5s-5-2.243-5-5S42.243,14,45,14 M45,12c-3.866,0-7,3.134-7,7
			s3.134,7,7,7s7-3.134,7-7S48.866,12,45,12L45,12z"/>
	</g>
	<g>
		<path fill="#FFFFFF" d="M19,40c2.757,0,5,2.243,5,5s-2.243,5-5,5s-5-2.243-5-5S16.243,40,19,40 M19,38c-3.866,0-7,3.134-7,7
			s3.134,7,7,7s7-3.134,7-7S22.866,38,19,38L19,38z"/>
	</g>
	<g>
		<path fill="#FFFFFF" d="M45,40c2.757,0,5,2.243,5,5s-2.243,5-5,5s-5-2.243-5-5S42.243,40,45,40 M45,38c-3.866,0-7,3.134-7,7
			s3.134,7,7,7s7-3.134,7-7S48.866,38,45,38L45,38z"/>
	</g>
	<path fill="#F9422A" d="M32,12c-11.046,0-20,8.954-20,20s8.954,20,20,20s20-8.954,20-20S43.046,12,32,12z M32,42
		c-5.523,0-10-4.477-10-10s4.477-10,10-10s10,4.477,10,10S37.523,42,32,42z"/>
	<path fill="#F2F3F4" d="M38.15,51.026l-2.752-9.632C34.336,41.78,33.195,42,32,42s-2.336-0.22-3.399-0.605l-2.752,9.632
		C27.788,51.653,29.853,52,32,52S36.212,51.653,38.15,51.026z"/>
	<path fill="#F2F3F4" d="M22,32c0-1.195,0.22-2.336,0.605-3.399l-9.632-2.752C12.347,27.788,12,29.853,12,32s0.347,4.212,0.974,6.15
		l9.632-2.752C22.22,34.336,22,33.195,22,32z"/>
	<path fill="#F2F3F4" d="M25.85,12.974l2.752,9.632C29.664,22.22,30.805,22,32,22s2.336,0.22,3.399,0.605l2.752-9.632
		C36.212,12.347,34.147,12,32,12S27.788,12.347,25.85,12.974z"/>
	<path fill="#F2F3F4" d="M42,32c0,1.195-0.22,2.336-0.605,3.399l9.632,2.752C51.653,36.212,52,34.147,52,32s-0.347-4.212-0.974-6.15
		l-9.632,2.752C41.78,29.664,42,30.805,42,32z"/>
</g>
</svg>
